M48
;Layer_Color=9474304
;FILE_FORMAT=4:3
METRIC,TZ
;TYPE=PLATED
T1F00S00C0.200
T2F00S00C0.250
T3F00S00C0.300
T4F00S00C0.650
T7F00S00C1.000
T8F00S00C2.700
%
T01
X33025Y76625
X33675Y77275
X34325Y77275
X34321Y77922
X33675Y78575
Y79875
Y80525
X34325Y79875
X34325Y81825
X33025Y81175
X34975Y81825
X34975Y79875
Y79225
X34975Y78575
X36925Y78575
X36925Y77925
X36950Y80500
X36925Y81175
X36275Y80525
X36274Y79874
X36475Y82625
X34975Y76625
T02
X900Y4250
Y6790
Y9330
Y11870
Y14410
X13477Y10194
X17472Y817
X20012
X22552
X25092
X27632
X30172
X32712
X33816Y10350
X33974Y11430
X32017Y14199
X29096Y10184
X23129Y13966
X39166Y12350
X39367Y11507
X43366Y11499
X42872Y817
X45412
X47952
X50492
X53032
X55572
X59172Y4017
Y6557
Y9097
Y11637
Y14177
X40332Y817
X37792
X35252
X35511Y17148
X35738Y19345
X35500Y21967
X34510Y21175
X35198Y23898
X37151Y24579
X38186Y26964
X42147Y27035
X42140Y28127
X41857Y30761
X41790Y33427
X39163Y33700
X36725Y32925
X36510Y36325
X41221Y36600
X41232Y37700
X40640Y39989
X40090Y39489
X40250Y44726
X41340Y44739
X42150Y44950
X43100Y44900
X43950Y44850
X44500Y45950
X45817Y46000
X45090Y48339
X44448Y49034
X42811
X43346Y48319
X43390Y50339
X43393Y51102
X42479Y51607
X42290Y50339
X39766Y51600
X39066Y50950
X38490Y53389
X36790Y53777
X36325Y55550
X34510Y55488
X35000Y54474
X34550Y53750
X35840Y50189
Y49439
X36066Y47950
X35240Y47939
X35190Y46889
X36090
X35731Y45407
X35734Y44500
X36247Y43500
X35272Y42164
X35290Y41377
X34940Y40089
X42985Y43264
X46190Y40627
X54640Y41539
X55706Y41536
X55522Y38992
X54554Y39053
X59172Y39577
Y42117
Y44657
Y47197
Y49737
Y52277
Y54817
X54319Y44547
X59172Y37037
Y34497
Y31957
Y29417
Y26877
Y24337
Y21797
Y19257
Y16717
X44640Y21089
X42396Y20899
X42266Y21950
X41415Y24752
X44807Y25129
X46571Y25855
X46224Y26782
X41090Y55139
X33828Y54249
X31464Y56117
X29156Y53324
X27000Y53496
X26125Y53500
X26875Y54275
X25327Y54301
X25308Y55691
X23816Y56050
X21066Y53500
X21571Y51056
X20825Y49000
Y48000
Y47000
Y46000
X19825Y45500
X18200Y45725
X19264Y47840
X19725Y48500
X20325Y47500
Y43725
Y42725
X19516Y42450
X18075Y42460
X17647Y41621
X18400Y39276
X19550Y38686
X20577Y38993
Y40093
X23845Y38500
X23825Y42500
Y43700
Y45024
X24027Y48593
X25166Y48600
X25000Y49475
X25500Y50075
X27500Y50274
X28490Y49927
X28500Y49200
X27460Y48088
X28366Y47000
X28373Y46017
X29625Y45050
X30475
X32440Y45439
X33440
X33640Y47439
X32890
X32590Y43489
Y42489
Y41489
X31512Y40628
X34000Y40104
X33840Y34489
X33900Y33025
X34216Y29700
X29738Y30123
X30190Y30927
X29790Y32427
Y33527
X30000Y34656
X29500Y37720
X28927Y41194
X29542Y41814
X28178Y42507
X28225Y43700
X26177Y41694
X25960Y40738
X25156Y34444
X25042Y33703
X26163Y32015
X25166Y30700
X22640Y31077
X22561Y32490
X26216Y28700
X26353Y26837
X28816Y26850
Y27700
Y28700
X28866Y29700
X30260Y24806
X30180Y23658
X28862Y22286
X32406Y22959
X33074Y21025
X28757Y16916
X21344Y25845
X18475Y37275
X14417Y34614
X15943Y43150
X15688Y44550
X12351Y45388
X9416Y48148
X5970Y45541
X900Y44890
Y42350
Y39810
Y37270
Y34730
Y32190
X900Y29850
X900Y22030
Y19490
Y16950
Y47430
Y49970
Y52510
Y55050
X5966Y54455
X18494Y54329
X17950Y52300
X15050Y58307
X13525Y59606
X12950Y61030
X12175Y64000
X12363Y66713
X14450Y66825
X14125Y69655
Y71225
X13400Y72150
X14875
X16875Y72250
X17325Y71150
X19450Y73125
X20848Y72999
X21475Y70150
X22700Y70387
Y67900
X19710Y68038
X18450Y65725
X17275Y64750
X21277Y64493
Y63593
X21975Y61550
X23000Y61525
X24340Y61077
X23860Y60188
X23860Y58738
X21184Y60737
X19875Y62162
X26754Y61234
X28209Y61688
X29200Y61674
X29650Y61150
X31150Y61150
X30710Y61888
X31475Y63281
X32860Y63088
X33550Y63050
X31475Y65775
X30700Y66125
X29375Y67475
X27950Y67925
X26800Y67700
X26825Y64725
X26800Y63150
X27590Y56344
X28865
X30165
X33426Y57812
X33925Y67748
X34325Y68650
Y69700
X33737Y71475
X32660Y70938
X31375Y71075
X31851Y71764
X32250Y72575
X34150Y72998
X29649Y74149
X30075Y75000
X28050Y73850
X27900Y71750
X28700
X27325Y71000
X27425Y70175
X25975Y72200
X25275Y73525
X23750Y74100
X23850Y75200
X24050Y72400
X26440Y77440
X26466Y78250
X26100Y80000
X25916Y81750
X27025Y81100
X28081Y82246
X26575Y82975
X23800Y82988
X24138Y84325
X22025Y85625
X23400Y87000
X25877Y86443
X25655Y88558
X24650Y89875
X23938Y91463
X27525Y92340
X26034Y94340
Y95610
X31100Y92106
X32900Y92250
X34025Y85700
X29513Y85088
X30650Y83925
X30148Y80798
X30100Y79975
X30750Y77950
X28400Y77625
X28475Y78575
X18237Y76582
X16023Y77127
X16550Y74675
X16525Y79730
X15100Y79300
X13875Y79305
X12475Y79200
X13271Y80290
X14413Y80306
X13888Y81255
X14299Y82184
X13303Y82232
X12500Y82930
X11164Y83565
X12500Y85785
X11378Y88257
X10675Y89909
X13293Y90841
X14435Y90858
X13910Y91806
X14321Y92735
X13326Y92784
X13284Y94500
X14328Y94557
X13250Y95600
X16031Y95670
X16550Y94311
X16400Y90850
X15316Y87956
X15300Y82905
X17850Y81425
X7625Y81275
X900Y80450
Y82990
Y85530
Y88070
Y90610
Y93150
Y95690
X10675Y93702
X11166Y75250
X9358Y75221
X12325Y71425
X10450Y67655
X5833Y68416
X6050Y71450
X900Y70290
Y67750
Y65210
Y62670
Y60130
Y57590
X5886Y63531
X900Y72830
Y75370
Y77910
X36075Y74525
X35925Y73275
X35375Y72850
X34975Y71200
X36775Y71825
X37763Y71250
X38400Y70325
X39050Y70850
X38787Y72262
X40475Y72525
X41675Y72650
X42575Y71825
X43875Y71875
X43900Y70225
X43225Y70700
X44500Y70825
X45250Y68650
X44925Y67875
X46575Y67800
X46050Y66275
X45825Y63350
X44550Y63150
X43700Y62550
X42750Y62600
X43225Y63950
X40400Y63975
X40025Y63025
X38462Y62425
X38537Y61100
X39690Y60339
X40625Y60800
X41338Y60877
X42240Y58839
X43190
Y59639
X45200Y61700
X42475Y66175
X41125Y66375
X39825Y67900
Y68650
X37650Y67850
X36975Y66175
X34750Y66475
X35010Y67188
X34910Y65638
X35991Y63237
X37750Y63975
X34513Y61631
X35790Y59939
X37990Y58239
X39690Y57889
X36943Y69750
X37350Y75550
X38900Y76700
Y78575
X41475Y78700
X41525Y77188
X43135Y76728
X44250Y74900
X45925Y72575
X47688Y71825
X49725Y72488
X50700Y71300
X52013Y74787
X55100Y74800
Y73500
X56963Y73963
X57067Y72808
X59172Y72597
Y70057
Y67517
Y64977
Y62437
Y59897
Y57357
X49810Y65138
X48375Y67150
X49819Y75966
X48709Y79021
X46388Y82794
X44888Y83294
X43093Y81436
X42204Y81434
X41150Y81800
Y82900
X38800Y84925
X37900Y84900
X36825Y85925
X35500Y85625
X36625Y83275
X37450Y89350
X38850Y89862
X38841Y93100
X39586Y92901
X40601Y94550
X43100Y94488
X43805Y94229
X45940Y93310
X46650Y92600
X48050Y90425
X47825Y88425
X46725Y88537
X46763Y85475
X49890Y84539
X51050Y84475
X51550Y87550
X53275Y89450
X53375Y91400
X55450Y90200
X56125Y92975
X58925Y93250
X59172Y95457
X59225Y88900
X58800Y87275
X59172Y85297
Y82757
Y80217
Y77677
Y75137
X43921Y90187
X43900Y91050
X37081Y96250
X37100Y99000
X38719Y98965
X35075Y98500
X50470Y99100
X50573Y98000
X52811
X53010Y99100
X55550
X30900Y98450
X29925Y98475
X26034Y96880
X24979Y95979
X23850Y98200
X19500Y98500
X16900Y99100
X14390
X11880
X9370
X6860
X4350
T03
X18212Y82375
X18750Y85600
Y87035
X22675Y90100
X13728Y89307
X21388Y79950
X32450Y85700
T04
X16190Y27497
Y29957
Y32497
Y35037
Y37577
X52470Y77425
X53740
Y78695
X55010
X56280
X57550
Y77425
X56280
X55010
X52470Y78695
T07
X2222Y15390
X25031Y15250
Y12710
X27571
X30111
Y15250
X27571
X28730Y6970
Y4430
X26190
Y6970
X23650
Y4430
X21110
X18570
Y6970
X21110
X31270
X33810
Y4430
X31270
X36350
Y6970
X38890
X41430
Y4430
X38890
X50482Y15390
X53030
Y12850
X55570
Y15390
Y17930
X53030
Y20470
X55570
Y23010
Y25550
Y28090
Y30630
Y33170
Y35710
X53030
Y33170
Y30630
Y28090
Y25550
Y23010
X50482
Y25550
Y28090
Y30630
Y33170
Y37234
Y39774
Y42314
Y44854
Y47394
Y49934
Y52474
Y55014
X53030Y56030
Y53490
Y50950
Y48410
X55570
Y50950
Y53490
Y56030
X50482Y20470
Y17930
X2222
Y20470
Y23010
Y25550
Y28090
Y33170
Y35710
Y38250
Y40790
Y43330
Y45870
Y48410
Y50950
X8635Y42865
X11175
X13715
Y40325
X11175
X8635
X9085Y34555
Y32015
X8700Y58535
Y61075
X8600Y70043
Y72582
X2222Y69510
Y66970
Y64430
X4000Y80060
Y82600
Y90590
Y93130
X18730Y89050
X21270
X36935Y87475
X39475
X42015
X53030Y86510
X55570
Y83970
X53030
Y71270
X55570
Y68730
X53030
Y66190
X55570
Y63650
Y61110
X53030
Y63650
Y58570
X55570
X50482Y57554
Y60094
T08
X2350Y2350
X57650
Y97650
X2350
M30
