G04 Layer_Physical_Order=2*
G04 Layer_Color=32768*
%FSLAX43Y43*%
%MOMM*%
G71*
G01*
G75*
%ADD47C,0.500*%
%ADD64R,2.000X12.000*%
%ADD65R,12.000X2.000*%
%ADD66R,12.000X2.000*%
%ADD67C,1.250*%
%ADD68C,1.600*%
G04:AMPARAMS|DCode=69|XSize=2.524mm|YSize=2.524mm|CornerRadius=0mm|HoleSize=0mm|Usage=FLASHONLY|Rotation=0.000|XOffset=0mm|YOffset=0mm|HoleType=Round|Shape=Relief|Width=0.254mm|Gap=0.254mm|Entries=4|*
%AMTHD69*
7,0,0,2.524,2.016,0.254,45*
%
%ADD69THD69*%
G04:AMPARAMS|DCode=70|XSize=1.45mm|YSize=1.45mm|CornerRadius=0mm|HoleSize=0mm|Usage=FLASHONLY|Rotation=0.000|XOffset=0mm|YOffset=0mm|HoleType=Round|Shape=Relief|Width=0.2mm|Gap=0.2mm|Entries=4|*
%AMTHD70*
7,0,0,1.450,1.050,0.200,45*
%
%ADD70THD70*%
%ADD71O,1.425X2.100*%
%ADD72O,1.250X1.450*%
%ADD73C,0.850*%
%ADD74C,0.900*%
%ADD75C,0.800*%
D47*
X49400Y99650D02*
G03*
X50175Y99999I0J1036D01*
G01*
X38625D02*
G03*
X39400Y99650I776J686D01*
G01*
X0Y0D02*
Y100000D01*
X38625D01*
Y99999D02*
Y100000D01*
X39400Y99650D02*
X49400D01*
Y99650D01*
X50175Y99999D02*
Y100000D01*
X60000D01*
Y0D02*
Y100000D01*
X0Y0D02*
X60000D01*
D64*
X5400Y6650D02*
D03*
X15400D02*
D03*
D65*
X10400Y1650D02*
D03*
D66*
X10400Y11650D02*
D03*
D67*
X16190Y29957D02*
D03*
Y32497D02*
D03*
Y35037D02*
D03*
Y37577D02*
D03*
Y27497D02*
D03*
X57550Y78695D02*
D03*
X53740D02*
D03*
Y77425D02*
D03*
X55010D02*
D03*
X56280D02*
D03*
X57550D02*
D03*
X52470D02*
D03*
D68*
X9085Y34555D02*
D03*
X30111Y12710D02*
D03*
X27571D02*
D03*
X30111Y15250D02*
D03*
X27571D02*
D03*
X25031D02*
D03*
X2222Y40790D02*
D03*
Y33170D02*
D03*
Y45870D02*
D03*
Y43330D02*
D03*
Y48410D02*
D03*
Y50950D02*
D03*
X8700Y61075D02*
D03*
Y58535D02*
D03*
X8600Y70043D02*
D03*
Y72582D02*
D03*
X4000Y80060D02*
D03*
Y82600D02*
D03*
X42015Y87475D02*
D03*
X39475D02*
D03*
X36935D02*
D03*
X41430Y6970D02*
D03*
X18570Y4430D02*
D03*
X28730Y6970D02*
D03*
Y4430D02*
D03*
X26190D02*
D03*
Y6970D02*
D03*
X23650Y4430D02*
D03*
Y6970D02*
D03*
X21110Y4430D02*
D03*
Y6970D02*
D03*
X31270D02*
D03*
X33810D02*
D03*
Y4430D02*
D03*
X36350Y6970D02*
D03*
Y4430D02*
D03*
X38890Y6970D02*
D03*
Y4430D02*
D03*
X31270D02*
D03*
X55570Y61110D02*
D03*
Y68730D02*
D03*
X53030D02*
D03*
X55570Y66190D02*
D03*
X53030D02*
D03*
X55570Y63650D02*
D03*
X53030D02*
D03*
Y61110D02*
D03*
Y50950D02*
D03*
X55570D02*
D03*
X53030Y53490D02*
D03*
X55570D02*
D03*
X53030Y56030D02*
D03*
X55570D02*
D03*
Y58570D02*
D03*
X53030D02*
D03*
X55570Y48410D02*
D03*
X53030Y71270D02*
D03*
X8635Y42865D02*
D03*
X11175D02*
D03*
X8635Y40325D02*
D03*
X11175D02*
D03*
X18730Y89050D02*
D03*
X21270D02*
D03*
X55570Y25550D02*
D03*
Y33170D02*
D03*
X53030D02*
D03*
X55570Y30630D02*
D03*
X53030D02*
D03*
X55570Y28090D02*
D03*
X53030D02*
D03*
Y25550D02*
D03*
Y15390D02*
D03*
X55570D02*
D03*
X53030Y17930D02*
D03*
X55570D02*
D03*
X53030Y20470D02*
D03*
X55570D02*
D03*
Y23010D02*
D03*
X53030D02*
D03*
X55570Y12850D02*
D03*
X53030Y35710D02*
D03*
X55570Y83970D02*
D03*
X53030D02*
D03*
Y86510D02*
D03*
X4000Y90590D02*
D03*
Y93130D02*
D03*
X2222Y64430D02*
D03*
Y69510D02*
D03*
X50482Y60094D02*
D03*
Y57554D02*
D03*
Y37234D02*
D03*
Y39774D02*
D03*
Y44854D02*
D03*
Y42314D02*
D03*
Y55014D02*
D03*
Y49934D02*
D03*
Y47394D02*
D03*
Y25550D02*
D03*
Y28090D02*
D03*
Y33170D02*
D03*
Y30630D02*
D03*
Y20470D02*
D03*
Y23010D02*
D03*
Y17930D02*
D03*
Y15390D02*
D03*
X2222Y28090D02*
D03*
Y25550D02*
D03*
Y20470D02*
D03*
Y23010D02*
D03*
Y15390D02*
D03*
Y17930D02*
D03*
D69*
X9085Y32015D02*
D03*
X25031Y12710D02*
D03*
X2222Y38250D02*
D03*
Y35710D02*
D03*
X18570Y6970D02*
D03*
X41430Y4430D02*
D03*
X55570Y71270D02*
D03*
X53030Y48410D02*
D03*
X13715Y42865D02*
D03*
Y40325D02*
D03*
X55570Y35710D02*
D03*
X53030Y12850D02*
D03*
X55570Y86510D02*
D03*
X2222Y66970D02*
D03*
X50482Y52474D02*
D03*
D70*
X56280Y78695D02*
D03*
X55010D02*
D03*
X52470D02*
D03*
D71*
X48487Y98325D02*
D03*
X40312D02*
D03*
D72*
X42175Y95200D02*
D03*
X46625D02*
D03*
D73*
X43900Y91050D02*
D03*
X44500Y45950D02*
D03*
X45817Y46000D02*
D03*
X43346Y48319D02*
D03*
X43950Y44850D02*
D03*
X43100Y44900D02*
D03*
X42150Y44950D02*
D03*
X54640Y41539D02*
D03*
X32590Y43489D02*
D03*
Y42489D02*
D03*
Y41489D02*
D03*
X33440Y45439D02*
D03*
X32440D02*
D03*
X35840Y49439D02*
D03*
Y50189D02*
D03*
X35240Y47939D02*
D03*
X35190Y46889D02*
D03*
X33640Y47439D02*
D03*
X32890D02*
D03*
X36090Y46889D02*
D03*
X34000Y40104D02*
D03*
X34940Y40089D02*
D03*
X33840Y34489D02*
D03*
X49890Y84539D02*
D03*
X44640Y21089D02*
D03*
X35734Y44500D02*
D03*
X45090Y48339D02*
D03*
X44448Y49034D02*
D03*
X42811D02*
D03*
X43390Y50339D02*
D03*
X43393Y51102D02*
D03*
X42290Y50339D02*
D03*
X38490Y53389D02*
D03*
X41090Y55139D02*
D03*
X42240Y58839D02*
D03*
X43190D02*
D03*
Y59639D02*
D03*
X39690Y57889D02*
D03*
Y60339D02*
D03*
X37990Y58239D02*
D03*
X40090Y39489D02*
D03*
X40640Y39989D02*
D03*
X40250Y44726D02*
D03*
X30190Y30927D02*
D03*
X30000Y34656D02*
D03*
X42985Y43264D02*
D03*
X41790Y33427D02*
D03*
X41857Y30761D02*
D03*
X42140Y28127D02*
D03*
X42147Y27035D02*
D03*
X33426Y57812D02*
D03*
X29738Y30123D02*
D03*
X36943Y69750D02*
D03*
X46190Y40627D02*
D03*
X35290Y41377D02*
D03*
X35272Y42164D02*
D03*
X31512Y40628D02*
D03*
X35731Y45407D02*
D03*
X44807Y25129D02*
D03*
X46224Y26782D02*
D03*
X26163Y32015D02*
D03*
X29790Y33527D02*
D03*
X24340Y61077D02*
D03*
X22640Y31077D02*
D03*
X28816Y27700D02*
D03*
X55706Y41536D02*
D03*
X33828Y54249D02*
D03*
X34550Y53750D02*
D03*
X35000Y54474D02*
D03*
X39766Y51600D02*
D03*
X39066Y50950D02*
D03*
X31464Y56117D02*
D03*
X28500Y49200D02*
D03*
X36066Y47950D02*
D03*
X42479Y51607D02*
D03*
X34510Y55488D02*
D03*
X28178Y42507D02*
D03*
X30475Y45050D02*
D03*
X29542Y41814D02*
D03*
X28927Y41194D02*
D03*
X29625Y45050D02*
D03*
X28225Y43700D02*
D03*
X26177Y41694D02*
D03*
X23825Y42500D02*
D03*
Y43700D02*
D03*
X25166Y48600D02*
D03*
X25000Y49475D02*
D03*
X28373Y46017D02*
D03*
X25960Y40738D02*
D03*
X22561Y32490D02*
D03*
X20577Y40093D02*
D03*
X28366Y47000D02*
D03*
X41232Y37700D02*
D03*
X54554Y39053D02*
D03*
X55522Y38992D02*
D03*
X28866Y29700D02*
D03*
X28816Y28700D02*
D03*
X26216D02*
D03*
X26353Y26837D02*
D03*
X27460Y48088D02*
D03*
X29156Y53324D02*
D03*
X31150Y61150D02*
D03*
X29650Y61150D02*
D03*
X35991Y63237D02*
D03*
X16023Y77127D02*
D03*
X14328Y94557D02*
D03*
X11378Y88257D02*
D03*
X28081Y82246D02*
D03*
X25655Y88558D02*
D03*
X18237Y76582D02*
D03*
X16550Y74675D02*
D03*
X26466Y78250D02*
D03*
X26440Y77440D02*
D03*
X11166Y75250D02*
D03*
X23816Y56050D02*
D03*
X21066Y53500D02*
D03*
X42266Y21950D02*
D03*
X42396Y20899D02*
D03*
X39166Y12350D02*
D03*
X39367Y11507D02*
D03*
X33974Y11430D02*
D03*
X33816Y10350D02*
D03*
X30180Y23658D02*
D03*
X28862Y22286D02*
D03*
X29096Y10184D02*
D03*
X25166Y30700D02*
D03*
X26125Y53500D02*
D03*
X26754Y61234D02*
D03*
X20825Y46000D02*
D03*
X19825Y45500D02*
D03*
X19725Y48500D02*
D03*
X20325Y47500D02*
D03*
X20825Y47000D02*
D03*
Y48000D02*
D03*
Y49000D02*
D03*
X25500Y50075D02*
D03*
X24027Y48593D02*
D03*
X25042Y33703D02*
D03*
X20577Y38993D02*
D03*
X25156Y34444D02*
D03*
X21277Y63593D02*
D03*
Y64493D02*
D03*
X25877Y86443D02*
D03*
X35198Y23898D02*
D03*
X37151Y24579D02*
D03*
X52811Y98000D02*
D03*
X50573D02*
D03*
X57067Y72808D02*
D03*
X18400Y39276D02*
D03*
X26875Y54275D02*
D03*
X9358Y75221D02*
D03*
X20325Y42725D02*
D03*
Y43725D02*
D03*
X23129Y13966D02*
D03*
X27000Y53496D02*
D03*
X27500Y50274D02*
D03*
X28209Y61688D02*
D03*
X25327Y54301D02*
D03*
X6050Y71450D02*
D03*
X46763Y85475D02*
D03*
X53375Y91400D02*
D03*
X30700Y66125D02*
D03*
X46050Y66275D02*
D03*
X43875Y71875D02*
D03*
X43700Y62550D02*
D03*
X29649Y74149D02*
D03*
X29375Y67475D02*
D03*
X22025Y85625D02*
D03*
X52013Y74787D02*
D03*
X33737Y71475D02*
D03*
X37763Y71250D02*
D03*
X58800Y87275D02*
D03*
X36075Y74525D02*
D03*
X41675Y72650D02*
D03*
X25275Y73525D02*
D03*
X24138Y84325D02*
D03*
X17850Y81425D02*
D03*
X49725Y72488D02*
D03*
X10450Y67655D02*
D03*
X12475Y79200D02*
D03*
X12325Y71425D02*
D03*
X41125Y66375D02*
D03*
X7625Y81275D02*
D03*
X32250Y72575D02*
D03*
X43900Y70225D02*
D03*
X43225Y70700D02*
D03*
X39825Y67900D02*
D03*
X44550Y63150D02*
D03*
X33550Y63050D02*
D03*
X36625Y83275D02*
D03*
X37350Y75550D02*
D03*
X46575Y67800D02*
D03*
X37750Y63975D02*
D03*
X26800Y63150D02*
D03*
X26100Y80000D02*
D03*
X28475Y78575D02*
D03*
X23850Y75200D02*
D03*
X43225Y63950D02*
D03*
X34325Y68650D02*
D03*
X39825D02*
D03*
X45250D02*
D03*
X38400Y70325D02*
D03*
X40475Y72525D02*
D03*
X45925Y72575D02*
D03*
X23938Y91463D02*
D03*
X38800Y84925D02*
D03*
X35500Y85625D02*
D03*
X41525Y77188D02*
D03*
X26575Y82975D02*
D03*
X30075Y75000D02*
D03*
X46650Y92600D02*
D03*
X30100Y79975D02*
D03*
X55450Y90200D02*
D03*
X55100Y74800D02*
D03*
Y73500D02*
D03*
X35075Y98500D02*
D03*
X29925Y98475D02*
D03*
X53275Y89450D02*
D03*
X58925Y93250D02*
D03*
X30650Y83925D02*
D03*
X30750Y77950D02*
D03*
X38900Y76700D02*
D03*
X51550Y87550D02*
D03*
X47825Y88425D02*
D03*
X36825Y85925D02*
D03*
X21975Y61550D02*
D03*
X23800Y82988D02*
D03*
X12500Y82930D02*
D03*
X37650Y67850D02*
D03*
X38537Y61100D02*
D03*
X38462Y62425D02*
D03*
X14125Y71225D02*
D03*
X35925Y73275D02*
D03*
X34975Y71200D02*
D03*
X15300Y82905D02*
D03*
X40625Y60800D02*
D03*
X45825Y63350D02*
D03*
X38900Y78575D02*
D03*
X38787Y72262D02*
D03*
X40400Y63975D02*
D03*
X42750Y62600D02*
D03*
X16875Y72250D02*
D03*
X27325Y71000D02*
D03*
X27425Y70175D02*
D03*
X22700Y67900D02*
D03*
X19450Y73125D02*
D03*
X28700Y71750D02*
D03*
X24050Y72400D02*
D03*
X27950Y67925D02*
D03*
X20848Y72999D02*
D03*
X14875Y72150D02*
D03*
X12175Y64000D02*
D03*
X13400Y72150D02*
D03*
X26800Y67700D02*
D03*
X15100Y79300D02*
D03*
X18450Y65725D02*
D03*
X14450Y66825D02*
D03*
X29513Y85088D02*
D03*
X19875Y62162D02*
D03*
X28050Y73850D02*
D03*
X13525Y59606D02*
D03*
X56963Y73963D02*
D03*
X19550Y38686D02*
D03*
X13284Y94500D02*
D03*
X45940Y93310D02*
D03*
X15943Y43150D02*
D03*
X32406Y22959D02*
D03*
X21184Y60737D02*
D03*
X12351Y45388D02*
D03*
X23850Y98200D02*
D03*
X41150Y82900D02*
D03*
Y81800D02*
D03*
X16400Y90850D02*
D03*
X14417Y34614D02*
D03*
X23860Y60188D02*
D03*
X23860Y58738D02*
D03*
X32660Y70938D02*
D03*
X31375Y71075D02*
D03*
X32860Y63088D02*
D03*
X34150Y72998D02*
D03*
X31475Y63281D02*
D03*
X35010Y67188D02*
D03*
X19710Y68038D02*
D03*
X46388Y82794D02*
D03*
X15688Y44550D02*
D03*
X49810Y65138D02*
D03*
X34910Y65638D02*
D03*
X30710Y61888D02*
D03*
X23400Y87000D02*
D03*
X44250Y74900D02*
D03*
X10675Y89909D02*
D03*
X37450Y89350D02*
D03*
X44888Y83294D02*
D03*
X32017Y14199D02*
D03*
X38186Y26964D02*
D03*
X28816Y26850D02*
D03*
X50700Y71300D02*
D03*
D74*
X13728Y89307D02*
D03*
X18212Y82375D02*
D03*
X22675Y90100D02*
D03*
X18750Y85600D02*
D03*
D75*
X33675Y80525D02*
D03*
Y79875D02*
D03*
X34975Y81825D02*
D03*
X34325D02*
D03*
X36275Y80525D02*
D03*
X36925Y78575D02*
D03*
X34321Y77922D02*
D03*
X33025Y76625D02*
D03*
X36950Y80500D02*
D03*
X34325Y77275D02*
D03*
X34325Y79875D02*
D03*
X36274Y79874D02*
D03*
X34975Y78575D02*
D03*
X34975Y79875D02*
D03*
X36475Y82625D02*
D03*
X33675Y78575D02*
D03*
M02*
