G04 Layer_Color=8421504*
%FSLAX43Y43*%
%MOMM*%
G71*
G01*
G75*
%ADD10R,2.800X1.400*%
%ADD11R,0.600X0.900*%
%ADD12R,0.900X0.600*%
%ADD13R,0.650X0.800*%
%ADD14R,0.800X0.650*%
%ADD16R,0.675X0.350*%
%ADD17R,1.000X2.250*%
%ADD18R,1.500X1.350*%
%ADD20R,0.700X0.700*%
%ADD22R,0.550X0.600*%
%ADD23R,0.500X0.600*%
%ADD24R,0.500X0.650*%
%ADD25R,0.700X0.700*%
%ADD26R,0.600X0.550*%
%ADD27R,0.762X0.762*%
%ADD28R,2.700X1.250*%
%ADD29R,1.400X0.600*%
%ADD30R,0.540X0.800*%
%ADD31R,0.300X0.600*%
%ADD32R,0.300X1.000*%
%ADD33R,0.400X1.000*%
%ADD34R,0.600X0.500*%
%ADD35O,2.050X0.300*%
%ADD36O,0.300X2.050*%
%ADD37R,0.300X0.700*%
%ADD39R,1.150X1.400*%
%ADD40R,1.550X1.000*%
%ADD42R,0.400X1.350*%
%ADD57R,1.700X1.700*%
%ADD58C,1.050*%
G04:AMPARAMS|DCode=59|XSize=2.1mm|YSize=1.9mm|CornerRadius=0.494mm|HoleSize=0mm|Usage=FLASHONLY|Rotation=0.000|XOffset=0mm|YOffset=0mm|HoleType=Round|Shape=RoundedRectangle|*
%AMROUNDEDRECTD59*
21,1,2.100,0.912,0,0,0.0*
21,1,1.112,1.900,0,0,0.0*
1,1,0.988,0.556,-0.456*
1,1,0.988,-0.556,-0.456*
1,1,0.988,-0.556,0.456*
1,1,0.988,0.556,0.456*
%
%ADD59ROUNDEDRECTD59*%
G04:AMPARAMS|DCode=60|XSize=1.05mm|YSize=1.25mm|CornerRadius=0.525mm|HoleSize=0mm|Usage=FLASHONLY|Rotation=180.000|XOffset=0mm|YOffset=0mm|HoleType=Round|Shape=RoundedRectangle|*
%AMROUNDEDRECTD60*
21,1,1.050,0.200,0,0,180.0*
21,1,0.000,1.250,0,0,180.0*
1,1,1.050,0.000,0.100*
1,1,1.050,0.000,0.100*
1,1,1.050,0.000,-0.100*
1,1,1.050,0.000,-0.100*
%
%ADD60ROUNDEDRECTD60*%
%ADD108R,2.100X2.100*%
%ADD109R,1.750X1.750*%
%ADD110R,2.100X2.100*%
%ADD111R,1.550X1.125*%
%ADD112R,1.700X1.700*%
%ADD113R,1.550X1.350*%
%ADD114R,1.300X1.400*%
G36*
X48648Y99271D02*
X48701Y99264D01*
X48754Y99249D01*
X48797Y99233D01*
X48839Y99213D01*
X48883Y99185D01*
X48921Y99156D01*
X48960Y99122D01*
X48989Y99086D01*
X49017Y99049D01*
X49041Y99008D01*
X49061Y98966D01*
X49077Y98924D01*
X49089Y98873D01*
X49096Y98828D01*
X49100Y98775D01*
Y97875D01*
X49096Y97820D01*
X49088Y97775D01*
X49076Y97725D01*
X49060Y97685D01*
X49047Y97652D01*
X49022Y97609D01*
X48996Y97572D01*
X48965Y97534D01*
X48920Y97493D01*
X48880Y97463D01*
X48834Y97434D01*
X48781Y97410D01*
X48694Y97384D01*
X48600Y97375D01*
X47000D01*
Y99275D01*
X48600D01*
X48648Y99271D01*
D02*
G37*
G36*
X41800Y97375D02*
X40200D01*
X40152Y97379D01*
X40099Y97386D01*
X40046Y97401D01*
X40003Y97417D01*
X39961Y97437D01*
X39917Y97465D01*
X39879Y97494D01*
X39840Y97528D01*
X39811Y97564D01*
X39783Y97601D01*
X39759Y97642D01*
X39739Y97684D01*
X39723Y97726D01*
X39711Y97777D01*
X39704Y97822D01*
X39700Y97875D01*
Y98775D01*
X39704Y98830D01*
X39712Y98875D01*
X39724Y98925D01*
X39740Y98965D01*
X39753Y98998D01*
X39778Y99041D01*
X39804Y99078D01*
X39835Y99116D01*
X39880Y99157D01*
X39920Y99187D01*
X39966Y99216D01*
X40019Y99240D01*
X40106Y99266D01*
X40200Y99275D01*
X41800D01*
Y97375D01*
D02*
G37*
D10*
X7625Y87735D02*
D03*
Y90635D02*
D03*
Y82430D02*
D03*
Y85330D02*
D03*
Y77205D02*
D03*
Y80105D02*
D03*
X7650Y92990D02*
D03*
Y95890D02*
D03*
D11*
X12500Y94500D02*
D03*
Y95600D02*
D03*
X16550Y92300D02*
D03*
Y93400D02*
D03*
X15278Y94557D02*
D03*
Y95657D02*
D03*
X33074Y22959D02*
D03*
Y21859D02*
D03*
X9416Y46050D02*
D03*
Y47150D02*
D03*
X14775Y68630D02*
D03*
Y69730D02*
D03*
X12500Y83855D02*
D03*
Y84955D02*
D03*
X16525Y81830D02*
D03*
Y80730D02*
D03*
X19450Y44375D02*
D03*
Y43275D02*
D03*
X28865Y54450D02*
D03*
Y55550D02*
D03*
X27590Y54450D02*
D03*
Y55550D02*
D03*
X40550Y37700D02*
D03*
Y36600D02*
D03*
X35650Y54450D02*
D03*
Y55550D02*
D03*
X18550Y47840D02*
D03*
Y48940D02*
D03*
Y51640D02*
D03*
Y50540D02*
D03*
X29100Y32450D02*
D03*
Y33550D02*
D03*
X30165Y55550D02*
D03*
Y54450D02*
D03*
D12*
X40250Y44000D02*
D03*
X41350D02*
D03*
X18450Y37993D02*
D03*
X19550D02*
D03*
X12875Y67600D02*
D03*
X11775D02*
D03*
X15125Y83705D02*
D03*
X14025D02*
D03*
X37200Y33700D02*
D03*
X38300D02*
D03*
X35000D02*
D03*
X33900D02*
D03*
X33875Y90300D02*
D03*
X32775D02*
D03*
X18450Y41621D02*
D03*
X19550D02*
D03*
X18200Y46425D02*
D03*
X19300D02*
D03*
D13*
X24600Y87825D02*
D03*
Y89025D02*
D03*
X20525Y70175D02*
D03*
Y68975D02*
D03*
X20500Y67375D02*
D03*
Y66175D02*
D03*
X10950Y68955D02*
D03*
Y70155D02*
D03*
X12325Y70155D02*
D03*
Y68955D02*
D03*
X41140Y33427D02*
D03*
Y34627D02*
D03*
X41138Y30761D02*
D03*
Y31961D02*
D03*
X33707Y30672D02*
D03*
Y31872D02*
D03*
X39807Y30772D02*
D03*
Y31972D02*
D03*
D14*
X19600Y40138D02*
D03*
X18400D02*
D03*
X27250Y90100D02*
D03*
X26050D02*
D03*
X7500Y52100D02*
D03*
X6300D02*
D03*
X17275Y65730D02*
D03*
X16075D02*
D03*
D16*
X16076Y67380D02*
D03*
Y68030D02*
D03*
Y68680D02*
D03*
Y69330D02*
D03*
X18900D02*
D03*
Y68680D02*
D03*
Y68030D02*
D03*
Y67380D02*
D03*
X12476Y80280D02*
D03*
Y80930D02*
D03*
Y81580D02*
D03*
Y82230D02*
D03*
X15300D02*
D03*
Y81580D02*
D03*
Y80930D02*
D03*
Y80280D02*
D03*
X12476Y90840D02*
D03*
Y91490D02*
D03*
Y92140D02*
D03*
Y92790D02*
D03*
X15300D02*
D03*
Y92140D02*
D03*
Y91490D02*
D03*
Y90840D02*
D03*
D17*
X24375Y70125D02*
D03*
Y64625D02*
D03*
X28375D02*
D03*
Y70125D02*
D03*
X36000Y92350D02*
D03*
Y97850D02*
D03*
X32000D02*
D03*
Y92350D02*
D03*
X29000D02*
D03*
Y97850D02*
D03*
X25000D02*
D03*
Y92350D02*
D03*
D18*
X10600Y82105D02*
D03*
Y80455D02*
D03*
X10675Y92590D02*
D03*
Y90940D02*
D03*
D20*
X16650Y44550D02*
D03*
Y43150D02*
D03*
X9432Y49155D02*
D03*
Y50555D02*
D03*
D22*
X23400Y87925D02*
D03*
Y88925D02*
D03*
X41000Y93600D02*
D03*
Y92600D02*
D03*
D23*
X51250Y97000D02*
D03*
Y98000D02*
D03*
X53500Y97000D02*
D03*
Y98000D02*
D03*
D24*
X41900Y92625D02*
D03*
Y93575D02*
D03*
X47400Y91375D02*
D03*
Y90425D02*
D03*
X48700Y91375D02*
D03*
Y90425D02*
D03*
D25*
X47400Y92500D02*
D03*
X48800D02*
D03*
D26*
X35050Y90300D02*
D03*
X36050D02*
D03*
D27*
X26120Y55699D02*
D03*
Y54301D02*
D03*
X18075Y43127D02*
D03*
Y44523D02*
D03*
D28*
X12950Y62380D02*
D03*
Y65430D02*
D03*
D29*
X8000D02*
D03*
X9900Y66380D02*
D03*
Y64480D02*
D03*
D30*
X43558Y92588D02*
D03*
D31*
X43438Y91738D02*
D03*
X43938Y91738D02*
D03*
X43438Y93438D02*
D03*
X43938Y93438D02*
D03*
D32*
X44438Y91938D02*
D03*
X44938D02*
D03*
X44438Y93238D02*
D03*
D33*
X44988D02*
D03*
D34*
X27726Y88086D02*
D03*
X26726D02*
D03*
D35*
X22325Y50000D02*
D03*
Y49500D02*
D03*
Y49000D02*
D03*
Y48500D02*
D03*
Y48000D02*
D03*
Y47500D02*
D03*
Y47000D02*
D03*
Y46500D02*
D03*
Y46000D02*
D03*
Y45500D02*
D03*
Y45000D02*
D03*
Y44500D02*
D03*
Y44000D02*
D03*
Y43500D02*
D03*
Y43000D02*
D03*
Y42500D02*
D03*
Y42000D02*
D03*
Y41500D02*
D03*
Y41000D02*
D03*
Y40500D02*
D03*
Y40000D02*
D03*
Y39500D02*
D03*
Y39000D02*
D03*
Y38500D02*
D03*
Y38000D02*
D03*
X37675D02*
D03*
Y38500D02*
D03*
Y39000D02*
D03*
Y39500D02*
D03*
Y40000D02*
D03*
Y40500D02*
D03*
Y41000D02*
D03*
Y41500D02*
D03*
Y42000D02*
D03*
Y42500D02*
D03*
Y43000D02*
D03*
Y43500D02*
D03*
Y44000D02*
D03*
Y44500D02*
D03*
Y45000D02*
D03*
Y45500D02*
D03*
Y46000D02*
D03*
Y46500D02*
D03*
Y47000D02*
D03*
Y47500D02*
D03*
Y48000D02*
D03*
Y48500D02*
D03*
Y49000D02*
D03*
Y49500D02*
D03*
Y50000D02*
D03*
D36*
X24000Y36325D02*
D03*
X24500D02*
D03*
X25000D02*
D03*
X25500D02*
D03*
X26000D02*
D03*
X26500D02*
D03*
X27000D02*
D03*
X27500D02*
D03*
X28000D02*
D03*
X28500D02*
D03*
X29000D02*
D03*
X29500D02*
D03*
X30000D02*
D03*
X30500D02*
D03*
X31000D02*
D03*
X31500D02*
D03*
X32000D02*
D03*
X32500D02*
D03*
X33000D02*
D03*
X33500D02*
D03*
X34000D02*
D03*
X34500D02*
D03*
X35000D02*
D03*
X35500D02*
D03*
X36000D02*
D03*
Y51675D02*
D03*
X35500D02*
D03*
X35000D02*
D03*
X34500D02*
D03*
X34000D02*
D03*
X33500D02*
D03*
X33000D02*
D03*
X32500D02*
D03*
X32000D02*
D03*
X31500D02*
D03*
X31000D02*
D03*
X30500D02*
D03*
X30000D02*
D03*
X29500D02*
D03*
X29000D02*
D03*
X28500D02*
D03*
X28000D02*
D03*
X27500D02*
D03*
X27000D02*
D03*
X26500D02*
D03*
X26000D02*
D03*
X25500D02*
D03*
X25000D02*
D03*
X24500D02*
D03*
X24000D02*
D03*
D37*
X34238Y23009D02*
D03*
X34738D02*
D03*
X35238D02*
D03*
X35738D02*
D03*
Y20109D02*
D03*
X35238D02*
D03*
X34738D02*
D03*
X34238D02*
D03*
D39*
X36707Y31872D02*
D03*
Y29672D02*
D03*
X35107D02*
D03*
Y31872D02*
D03*
D40*
X16725Y48450D02*
D03*
Y51050D02*
D03*
D42*
X43100Y95525D02*
D03*
X43750D02*
D03*
X44400D02*
D03*
X45050D02*
D03*
X45700D02*
D03*
D57*
X2222Y28090D02*
D03*
Y25550D02*
D03*
Y23010D02*
D03*
Y20470D02*
D03*
Y17930D02*
D03*
Y15390D02*
D03*
D58*
X52470Y77425D02*
D03*
Y78695D02*
D03*
X53740Y77425D02*
D03*
Y78695D02*
D03*
X55010Y77425D02*
D03*
Y78695D02*
D03*
X56280Y77425D02*
D03*
Y78695D02*
D03*
X57550Y77425D02*
D03*
Y78695D02*
D03*
D59*
X48050Y98325D02*
D03*
X40750D02*
D03*
D60*
X46625Y95200D02*
D03*
X42175D02*
D03*
D108*
X9085Y32015D02*
D03*
Y34555D02*
D03*
X8700Y58535D02*
D03*
Y61075D02*
D03*
X8600Y72582D02*
D03*
Y70043D02*
D03*
X4000Y82600D02*
D03*
Y80060D02*
D03*
X55570Y61110D02*
D03*
X53030D02*
D03*
X55570Y63650D02*
D03*
X53030D02*
D03*
X55570Y66190D02*
D03*
X53030D02*
D03*
X55570Y68730D02*
D03*
X53030D02*
D03*
X55570Y71270D02*
D03*
X53030Y58570D02*
D03*
X55570D02*
D03*
X53030Y56030D02*
D03*
X55570D02*
D03*
X53030Y53490D02*
D03*
X55570D02*
D03*
X53030Y50950D02*
D03*
X55570D02*
D03*
X53030Y48410D02*
D03*
X55570D02*
D03*
X53030Y71270D02*
D03*
X55570Y25550D02*
D03*
X53030D02*
D03*
X55570Y28090D02*
D03*
X53030D02*
D03*
X55570Y30630D02*
D03*
X53030D02*
D03*
X55570Y33170D02*
D03*
X53030D02*
D03*
X55570Y35710D02*
D03*
X53030Y23010D02*
D03*
X55570D02*
D03*
X53030Y20470D02*
D03*
X55570D02*
D03*
X53030Y17930D02*
D03*
X55570D02*
D03*
X53030Y15390D02*
D03*
X55570D02*
D03*
X53030Y12850D02*
D03*
X55570D02*
D03*
X53030Y35710D02*
D03*
X55570Y83970D02*
D03*
X53030D02*
D03*
X55570Y86510D02*
D03*
X53030D02*
D03*
X4000Y93130D02*
D03*
Y90590D02*
D03*
X2222Y64430D02*
D03*
Y66970D02*
D03*
Y69510D02*
D03*
D109*
X25031Y12710D02*
D03*
Y15250D02*
D03*
X27571Y12710D02*
D03*
Y15250D02*
D03*
X30111Y12710D02*
D03*
Y15250D02*
D03*
X13715Y42865D02*
D03*
Y40325D02*
D03*
X11175Y42865D02*
D03*
Y40325D02*
D03*
X8635Y42865D02*
D03*
Y40325D02*
D03*
D110*
X2222Y33170D02*
D03*
Y35710D02*
D03*
Y38250D02*
D03*
Y40790D02*
D03*
Y43330D02*
D03*
Y45870D02*
D03*
Y48410D02*
D03*
Y50950D02*
D03*
X42015Y87475D02*
D03*
X39475D02*
D03*
X36935D02*
D03*
X41430Y6970D02*
D03*
X18570Y4430D02*
D03*
Y6970D02*
D03*
X21110Y4430D02*
D03*
Y6970D02*
D03*
X23650Y4430D02*
D03*
Y6970D02*
D03*
X26190Y4430D02*
D03*
Y6970D02*
D03*
X28730Y4430D02*
D03*
Y6970D02*
D03*
X41430Y4430D02*
D03*
X38890Y6970D02*
D03*
Y4430D02*
D03*
X36350Y6970D02*
D03*
Y4430D02*
D03*
X33810Y6970D02*
D03*
Y4430D02*
D03*
X31270Y6970D02*
D03*
Y4430D02*
D03*
X50482Y37234D02*
D03*
Y39774D02*
D03*
Y42314D02*
D03*
Y44854D02*
D03*
Y47394D02*
D03*
Y49934D02*
D03*
Y52474D02*
D03*
Y55014D02*
D03*
Y57554D02*
D03*
Y60094D02*
D03*
Y33170D02*
D03*
Y30630D02*
D03*
Y28090D02*
D03*
Y25550D02*
D03*
Y23010D02*
D03*
Y20470D02*
D03*
Y17930D02*
D03*
Y15390D02*
D03*
D111*
X17488Y67743D02*
D03*
X17488Y68967D02*
D03*
X13888Y80643D02*
D03*
X13888Y81867D02*
D03*
X13888Y91203D02*
D03*
X13888Y92427D02*
D03*
D112*
X21270Y89050D02*
D03*
X18730D02*
D03*
D113*
X34988Y21559D02*
D03*
D114*
X45549Y98325D02*
D03*
X43251D02*
D03*
M02*
