G04 Layer_Physical_Order=1*
G04 Layer_Color=255*
%FSLAX43Y43*%
%MOMM*%
G71*
G01*
G75*
%ADD10R,2.800X1.400*%
%ADD11R,0.600X0.900*%
%ADD12R,0.900X0.600*%
%ADD13R,0.650X0.800*%
%ADD14R,0.800X0.650*%
%ADD15R,1.700X2.500*%
%ADD16R,0.675X0.350*%
%ADD17R,1.000X2.250*%
%ADD18R,1.500X1.350*%
%ADD19R,0.950X1.000*%
%ADD20R,0.700X0.700*%
%ADD21R,1.000X0.950*%
%ADD22R,0.550X0.600*%
%ADD23R,0.500X0.600*%
%ADD24R,0.500X0.650*%
%ADD25R,0.700X0.700*%
%ADD26R,0.600X0.550*%
%ADD27R,0.762X0.762*%
%ADD28R,2.700X1.250*%
%ADD29R,1.400X0.600*%
%ADD30R,0.540X0.800*%
%ADD31R,0.300X0.600*%
%ADD32R,0.300X1.000*%
%ADD33R,0.400X1.000*%
%ADD34R,0.600X0.500*%
%ADD35O,2.050X0.300*%
%ADD36O,0.300X2.050*%
%ADD37R,0.300X0.700*%
%ADD38R,1.600X1.400*%
%ADD39R,1.150X1.400*%
%ADD40R,1.550X1.000*%
%ADD41C,1.270*%
%ADD42R,0.400X1.350*%
%ADD43C,0.175*%
%ADD44C,0.200*%
%ADD45C,0.300*%
%ADD46C,0.250*%
%ADD47C,0.500*%
%ADD48C,0.150*%
%ADD49C,0.125*%
%ADD50R,0.300X0.900*%
%ADD51R,0.900X0.300*%
%ADD52R,1.800X1.900*%
%ADD53C,3.600*%
%ADD54C,1.000*%
%ADD55R,1.700X1.700*%
%ADD56C,1.700*%
%ADD57R,1.700X1.700*%
%ADD58C,1.050*%
G04:AMPARAMS|DCode=59|XSize=2.1mm|YSize=1.9mm|CornerRadius=0.494mm|HoleSize=0mm|Usage=FLASHONLY|Rotation=0.000|XOffset=0mm|YOffset=0mm|HoleType=Round|Shape=RoundedRectangle|*
%AMROUNDEDRECTD59*
21,1,2.100,0.912,0,0,0.0*
21,1,1.112,1.900,0,0,0.0*
1,1,0.988,0.556,-0.456*
1,1,0.988,-0.556,-0.456*
1,1,0.988,-0.556,0.456*
1,1,0.988,0.556,0.456*
%
%ADD59ROUNDEDRECTD59*%
G04:AMPARAMS|DCode=60|XSize=1.05mm|YSize=1.25mm|CornerRadius=0.525mm|HoleSize=0mm|Usage=FLASHONLY|Rotation=180.000|XOffset=0mm|YOffset=0mm|HoleType=Round|Shape=RoundedRectangle|*
%AMROUNDEDRECTD60*
21,1,1.050,0.200,0,0,180.0*
21,1,0.000,1.250,0,0,180.0*
1,1,1.050,0.000,0.100*
1,1,1.050,0.000,0.100*
1,1,1.050,0.000,-0.100*
1,1,1.050,0.000,-0.100*
%
%ADD60ROUNDEDRECTD60*%
%ADD61C,0.550*%
%ADD62C,0.600*%
%ADD63C,0.400*%
G36*
X59471Y93513D02*
X59321Y93468D01*
X59249Y93574D01*
X59101Y93674D01*
X58925Y93709D01*
X58749Y93674D01*
X58601Y93574D01*
X58563Y93518D01*
X56811D01*
X53889Y96439D01*
X53925Y96525D01*
X53925D01*
Y97375D01*
X53925Y97475D01*
X53925Y97625D01*
Y98475D01*
X53075D01*
Y98475D01*
X52925Y98436D01*
X52811Y98459D01*
X52635Y98424D01*
X52486Y98324D01*
X52387Y98176D01*
X52352Y98000D01*
X52387Y97824D01*
X52486Y97676D01*
X52635Y97576D01*
X52811Y97541D01*
X52925Y97564D01*
X52992Y97546D01*
X53043Y97499D01*
X53075Y97455D01*
X53075Y97375D01*
Y96525D01*
X53232D01*
Y96450D01*
X53253Y96348D01*
X53311Y96261D01*
X56511Y93061D01*
X56598Y93003D01*
X56700Y92982D01*
X58563D01*
X58601Y92926D01*
X58749Y92826D01*
X58925Y92791D01*
X59101Y92826D01*
X59249Y92926D01*
X59321Y93032D01*
X59471Y92987D01*
Y529D01*
X16411D01*
X16400Y675D01*
X16400Y679D01*
Y12675D01*
X4400D01*
Y679D01*
X4400Y675D01*
X4389Y529D01*
X529D01*
Y99471D01*
X38517D01*
X38522Y99465D01*
X38685Y99339D01*
X38875Y99261D01*
X39079Y99234D01*
X39283Y99261D01*
X39471Y99339D01*
X39590D01*
X39664Y99189D01*
X39610Y99118D01*
X39542Y98956D01*
X39534Y98893D01*
X39528Y98861D01*
X39529Y98852D01*
X39526Y98843D01*
X39524Y98820D01*
X39519Y98781D01*
Y97869D01*
X39525Y97828D01*
X39526Y97809D01*
X39528Y97802D01*
X39528Y97795D01*
X39535Y97750D01*
X39535Y97748D01*
X39542Y97694D01*
X39566Y97637D01*
X39572Y97620D01*
X39574Y97618D01*
X39577Y97610D01*
X39578Y97607D01*
X39581Y97601D01*
X39610Y97532D01*
X39717Y97392D01*
X39857Y97285D01*
X40019Y97217D01*
X40072Y97210D01*
X40076Y97209D01*
X40129Y97202D01*
X40132Y97202D01*
X40134Y97202D01*
X40137Y97201D01*
X40148Y97200D01*
X40194Y97194D01*
X40650D01*
Y96350D01*
X40819D01*
Y96225D01*
X40844Y96098D01*
X40916Y95991D01*
X41485Y95421D01*
X41469Y95300D01*
Y95100D01*
X41493Y94917D01*
X41564Y94747D01*
X41676Y94601D01*
X41716Y94570D01*
X41726Y94420D01*
X41666Y94359D01*
X41594Y94252D01*
X41572Y94142D01*
X41450Y94075D01*
X40550D01*
Y93240D01*
X40525Y93100D01*
Y93100D01*
X40525Y93100D01*
Y92700D01*
X41000D01*
Y92600D01*
X41100D01*
Y92100D01*
X41450D01*
Y92100D01*
X41800D01*
Y92625D01*
X41900D01*
Y92725D01*
X42350D01*
Y93150D01*
X42325D01*
Y94075D01*
X42374Y94130D01*
X42409Y94166D01*
X42481Y94273D01*
X42506Y94400D01*
Y94480D01*
X42528Y94489D01*
X42674Y94601D01*
X42712Y94650D01*
X43000D01*
Y95525D01*
X43200D01*
Y94650D01*
X43500D01*
X43600Y94541D01*
Y94250D01*
X43688D01*
Y93938D01*
X43538D01*
Y93438D01*
X43438D01*
Y93338D01*
X43088D01*
Y93188D01*
X43088D01*
Y92688D01*
X43558D01*
Y92488D01*
X43088D01*
Y91988D01*
X43088D01*
Y91838D01*
X43438D01*
Y91638D01*
X43088D01*
Y91238D01*
X43326D01*
X43449Y91088D01*
X43441Y91050D01*
X43476Y90874D01*
X43576Y90726D01*
X43724Y90626D01*
X43782Y90615D01*
Y86402D01*
X43473Y86093D01*
X43334Y86150D01*
Y88955D01*
X40932D01*
X40863Y89023D01*
X40772Y89084D01*
X40665Y89105D01*
X37994D01*
X37890Y89255D01*
X37909Y89350D01*
X37874Y89525D01*
X37774Y89674D01*
X37626Y89774D01*
X37450Y89809D01*
X37274Y89774D01*
X37125Y89674D01*
X37026Y89525D01*
X36991Y89350D01*
X37010Y89255D01*
X36905Y89105D01*
X33896D01*
X33834Y89255D01*
X34064Y89486D01*
X34122Y89573D01*
X34143Y89675D01*
Y89825D01*
X34435D01*
X34500Y89825D01*
Y89825D01*
X34575Y89850D01*
X34575Y89850D01*
X35425D01*
X35525Y89850D01*
X35675Y89850D01*
X36525D01*
Y90750D01*
X36268D01*
Y91050D01*
X36675D01*
Y93650D01*
X36268D01*
Y96550D01*
X36675D01*
Y99150D01*
X35325D01*
Y99041D01*
X35175Y98939D01*
X35075Y98959D01*
X34899Y98924D01*
X34751Y98824D01*
X34651Y98676D01*
X34616Y98500D01*
X34651Y98324D01*
X34751Y98176D01*
X34899Y98076D01*
X35075Y98041D01*
X35175Y98061D01*
X35325Y97959D01*
Y96550D01*
X35732D01*
Y93650D01*
X35325D01*
Y91050D01*
X35732D01*
Y90856D01*
X35626Y90750D01*
X35575D01*
X35425Y90750D01*
X34575D01*
X34575Y90750D01*
X34500Y90775D01*
Y90775D01*
X34435Y90775D01*
X33425D01*
Y90800D01*
X32875D01*
Y90300D01*
Y89800D01*
X33409D01*
X33482Y89711D01*
X33496Y89675D01*
X30034Y86212D01*
X27236D01*
X27174Y86362D01*
X27915Y87103D01*
X27973Y87190D01*
X27993Y87292D01*
Y87661D01*
X28201D01*
Y88511D01*
X27351D01*
X27251Y88511D01*
X27101Y88511D01*
X26257D01*
X26199Y88516D01*
X26147Y88672D01*
X26239Y88765D01*
X26297Y88851D01*
X26318Y88954D01*
Y89494D01*
X26424Y89600D01*
X26625Y89600D01*
X26775Y89600D01*
X27825D01*
Y89832D01*
X28540D01*
X28643Y89853D01*
X28730Y89911D01*
X29144Y90325D01*
X29198Y90361D01*
X29259Y90452D01*
X29280Y90560D01*
Y91050D01*
X29675D01*
Y93650D01*
X29280D01*
Y96550D01*
X29675D01*
Y97934D01*
X29825Y98036D01*
X29925Y98016D01*
X30101Y98051D01*
X30249Y98151D01*
X30349Y98299D01*
X30384Y98475D01*
X30349Y98651D01*
X30249Y98799D01*
X30101Y98899D01*
X29925Y98934D01*
X29825Y98914D01*
X29675Y99016D01*
Y99150D01*
X28325D01*
Y96550D01*
X28720D01*
Y93650D01*
X28325D01*
Y91050D01*
X28720D01*
Y90658D01*
X28430Y90368D01*
X27825D01*
Y90600D01*
X26775D01*
X26675Y90600D01*
X26525Y90600D01*
X25475D01*
Y89600D01*
X25782D01*
Y89130D01*
X25655Y89017D01*
X25479Y88982D01*
X25330Y88883D01*
X25250Y88763D01*
X25103Y88787D01*
X25100Y88788D01*
Y89600D01*
X24100D01*
Y89256D01*
X23850D01*
Y89400D01*
X23726D01*
X23706Y89502D01*
X23634Y89609D01*
X23157Y90087D01*
X23159Y90100D01*
X23122Y90285D01*
X23017Y90442D01*
X22860Y90547D01*
X22675Y90584D01*
X22490Y90547D01*
X22333Y90442D01*
X22228Y90285D01*
X22191Y90100D01*
X22170Y90075D01*
X20245D01*
Y88025D01*
X22295D01*
Y89602D01*
X22445Y89682D01*
X22490Y89653D01*
X22675Y89616D01*
X22688Y89618D01*
X22950Y89356D01*
Y88550D01*
X22950Y88450D01*
X22950Y88300D01*
Y87450D01*
X22993D01*
X23032Y87392D01*
X23059Y87300D01*
X22976Y87176D01*
X22941Y87000D01*
X22976Y86824D01*
X23076Y86676D01*
X23224Y86576D01*
X23400Y86541D01*
X23467Y86555D01*
X23980Y86041D01*
X23923Y85903D01*
X22985D01*
X22377Y86511D01*
X22286Y86572D01*
X22179Y86593D01*
X18210D01*
X18141Y86662D01*
Y87327D01*
X18141Y87327D01*
X18120Y87434D01*
X18059Y87525D01*
X17787Y87797D01*
Y88025D01*
X19755D01*
Y90075D01*
X17787D01*
Y91343D01*
X17766Y91451D01*
X17705Y91542D01*
X17025Y92222D01*
Y92750D01*
X17050D01*
Y93300D01*
X16550D01*
X16050D01*
Y92750D01*
X16075D01*
Y92420D01*
X15812D01*
Y93140D01*
X15568D01*
Y93932D01*
X15753D01*
Y95007D01*
X15778D01*
Y95557D01*
X15278D01*
X14778D01*
Y95007D01*
X14757Y94979D01*
X14653Y94882D01*
X14504Y94981D01*
X14328Y95016D01*
X14153Y94981D01*
X14004Y94882D01*
X13904Y94733D01*
X13877Y94595D01*
X13724D01*
X13708Y94676D01*
X13608Y94824D01*
X13460Y94924D01*
X13284Y94959D01*
X13142Y94931D01*
X13036Y94996D01*
X13000Y95032D01*
Y95500D01*
X12500D01*
X12000D01*
Y94959D01*
X11950Y94920D01*
X11895Y94882D01*
X11875Y94880D01*
X10666Y96088D01*
X10575Y96149D01*
X10468Y96170D01*
X9275D01*
Y96840D01*
X5975D01*
Y96170D01*
X4946D01*
X4884Y96320D01*
X5995Y97432D01*
X23363D01*
X23470Y97453D01*
X23561Y97514D01*
X23798Y97752D01*
X23850Y97741D01*
X24026Y97776D01*
X24150Y97859D01*
X24242Y97832D01*
X24300Y97794D01*
Y96525D01*
X24900D01*
Y97850D01*
Y99175D01*
X24300D01*
Y98606D01*
X24242Y98568D01*
X24150Y98541D01*
X24026Y98624D01*
X23850Y98659D01*
X23674Y98624D01*
X23526Y98524D01*
X23426Y98376D01*
X23391Y98200D01*
X23402Y98148D01*
X23246Y97993D01*
X5879D01*
X5772Y97972D01*
X5681Y97911D01*
X2077Y94307D01*
X2016Y94216D01*
X1995Y94108D01*
Y75225D01*
X2016Y75118D01*
X2077Y75027D01*
X5602Y71502D01*
X5591Y71450D01*
X5626Y71274D01*
X5726Y71126D01*
X5874Y71026D01*
X6050Y70991D01*
X6226Y71026D01*
X6374Y71126D01*
X6474Y71274D01*
X6509Y71450D01*
X6474Y71626D01*
X6374Y71774D01*
X6226Y71874D01*
X6050Y71909D01*
X5998Y71898D01*
X2555Y75341D01*
Y78790D01*
X3732D01*
Y78605D01*
X3753Y78503D01*
X3811Y78416D01*
X5211Y77016D01*
X5298Y76958D01*
X5400Y76937D01*
X5975D01*
Y76255D01*
X9275D01*
Y76937D01*
X9600D01*
X9702Y76958D01*
X9789Y77016D01*
X11586Y78813D01*
X11725Y78756D01*
Y77530D01*
X14875Y77580D01*
Y78703D01*
X14999Y78805D01*
X15143Y78783D01*
X15197Y78708D01*
Y74435D01*
X15218Y74333D01*
X15276Y74246D01*
X16705Y72816D01*
X16661Y72648D01*
X16551Y72574D01*
X16451Y72426D01*
X16416Y72250D01*
X16451Y72074D01*
X16551Y71926D01*
X16699Y71826D01*
X16875Y71791D01*
X17051Y71826D01*
X17199Y71926D01*
X17273Y72036D01*
X17441Y72080D01*
X18181Y71341D01*
X18268Y71283D01*
X18370Y71262D01*
X20976D01*
X21007Y71217D01*
X21034Y71112D01*
X20671Y70750D01*
X20025D01*
Y70723D01*
X14453D01*
X14408Y70873D01*
X14449Y70901D01*
X14549Y71049D01*
X14584Y71225D01*
X14549Y71401D01*
X14449Y71549D01*
X14301Y71649D01*
X14125Y71684D01*
X13949Y71649D01*
X13801Y71549D01*
X13701Y71401D01*
X13666Y71225D01*
X13701Y71049D01*
X13801Y70901D01*
X13842Y70873D01*
X13797Y70723D01*
X12825D01*
Y70730D01*
X12593D01*
Y71063D01*
X12649Y71101D01*
X12749Y71249D01*
X12784Y71425D01*
X12749Y71601D01*
X12649Y71749D01*
X12501Y71849D01*
X12325Y71884D01*
X12149Y71849D01*
X12001Y71749D01*
X11901Y71601D01*
X11866Y71425D01*
X11901Y71249D01*
X12001Y71101D01*
X12057Y71063D01*
Y70730D01*
X11825D01*
Y69797D01*
X11450D01*
Y70730D01*
X10831D01*
X10080Y71481D01*
Y73853D01*
X7120D01*
Y69778D01*
X3221D01*
X3117Y70027D01*
X2953Y70241D01*
X2739Y70405D01*
X2490Y70509D01*
X2222Y70544D01*
X1954Y70509D01*
X1705Y70405D01*
X1491Y70241D01*
X1327Y70027D01*
X1223Y69778D01*
X1188Y69510D01*
X1223Y69242D01*
X1327Y68993D01*
X1491Y68779D01*
X1705Y68615D01*
X1954Y68511D01*
X2222Y68476D01*
X2490Y68511D01*
X2739Y68615D01*
X2953Y68779D01*
X3117Y68993D01*
X3221Y69242D01*
X7120D01*
Y68772D01*
X10080D01*
Y69313D01*
X10450D01*
Y68380D01*
X10596D01*
X10646Y68230D01*
X10517Y68100D01*
X10450Y68114D01*
X10274Y68079D01*
X10126Y67979D01*
X10026Y67831D01*
X9991Y67655D01*
X9946Y67600D01*
X7075D01*
Y64698D01*
X3247D01*
Y65455D01*
X1197D01*
Y63405D01*
X3247D01*
Y64162D01*
X7075D01*
Y63280D01*
X10331D01*
X10388Y63141D01*
X9346Y62100D01*
X7675D01*
Y60050D01*
X9725D01*
Y61721D01*
X11200Y63196D01*
X11350Y63134D01*
Y61505D01*
X14550D01*
Y62926D01*
X14689Y62983D01*
X15086Y62586D01*
X15173Y62528D01*
X15275Y62507D01*
X17075D01*
X17177Y62528D01*
X17264Y62586D01*
X18639Y63961D01*
X18697Y64048D01*
X18718Y64150D01*
Y65363D01*
X18774Y65401D01*
X18874Y65549D01*
X18909Y65725D01*
X18874Y65901D01*
X18774Y66049D01*
X18626Y66149D01*
X18450Y66184D01*
X18274Y66149D01*
X18126Y66049D01*
X18026Y65901D01*
X18025Y65895D01*
X17875Y65910D01*
Y66255D01*
X17375D01*
Y65730D01*
Y65205D01*
X17875D01*
Y65540D01*
X18025Y65555D01*
X18026Y65549D01*
X18126Y65401D01*
X18182Y65363D01*
Y64261D01*
X16964Y63043D01*
X16381D01*
X16351Y63193D01*
X16483Y63247D01*
X16653Y63377D01*
X16783Y63547D01*
X16864Y63744D01*
X16892Y63955D01*
X16864Y64166D01*
X16783Y64364D01*
X16653Y64533D01*
X16483Y64663D01*
X16343Y64721D01*
Y65124D01*
X16449Y65230D01*
X16535D01*
X16675Y65205D01*
X16790Y65205D01*
X17175D01*
Y65730D01*
Y66255D01*
X16790D01*
X16675Y66255D01*
X16535Y66230D01*
X16449D01*
X16343Y66336D01*
Y66794D01*
X16438Y66905D01*
X17388D01*
Y68355D01*
Y69805D01*
X16438D01*
Y69705D01*
X16176D01*
Y69330D01*
X16076D01*
Y69230D01*
X15538D01*
Y68955D01*
X15402Y68922D01*
X15250D01*
Y69080D01*
X15275D01*
Y69630D01*
X14775D01*
Y69830D01*
X15275D01*
Y70187D01*
X20025D01*
Y69820D01*
X19977Y69811D01*
X19895Y69755D01*
X19724Y69585D01*
X19413D01*
Y69680D01*
X18538D01*
Y69805D01*
X17588D01*
Y68355D01*
Y66905D01*
X18538D01*
Y67030D01*
X19413D01*
Y67112D01*
X20000D01*
Y66800D01*
X20000D01*
Y66750D01*
X20000D01*
Y65600D01*
X20696D01*
X21205Y65091D01*
X21156Y64928D01*
X21102Y64917D01*
X20953Y64818D01*
X20915Y64761D01*
X20294D01*
X20191Y64741D01*
X20104Y64683D01*
X19686Y64264D01*
X19628Y64177D01*
X19607Y64075D01*
Y62525D01*
X19551Y62487D01*
X19451Y62338D01*
X19416Y62162D01*
X19451Y61987D01*
X19551Y61838D01*
X19699Y61739D01*
X19875Y61704D01*
X20051Y61739D01*
X20199Y61838D01*
X20299Y61987D01*
X20334Y62162D01*
X20299Y62338D01*
X20199Y62487D01*
X20143Y62525D01*
Y63964D01*
X20404Y64226D01*
X20915D01*
X20953Y64169D01*
X21006Y64134D01*
Y63953D01*
X20953Y63918D01*
X20853Y63769D01*
X20818Y63593D01*
X20853Y63418D01*
X20953Y63269D01*
X21010Y63231D01*
Y61544D01*
X21030Y61442D01*
X21088Y61355D01*
X21109Y61334D01*
X21059Y61171D01*
X21008Y61161D01*
X20859Y61062D01*
X20760Y60913D01*
X20725Y60737D01*
X20760Y60562D01*
X20859Y60413D01*
X21008Y60313D01*
X21184Y60279D01*
X21229Y60288D01*
X24756Y56760D01*
X24776Y53874D01*
X24670Y53768D01*
X21429D01*
X21391Y53824D01*
X21242Y53924D01*
X21066Y53959D01*
X20891Y53924D01*
X20742Y53824D01*
X20642Y53676D01*
X20607Y53500D01*
X20642Y53324D01*
X20742Y53176D01*
X20891Y53076D01*
X21066Y53041D01*
X21123Y52995D01*
Y50268D01*
X19201D01*
X19025Y50444D01*
Y50990D01*
X19050D01*
Y51540D01*
X18050D01*
Y50990D01*
X18075D01*
Y50808D01*
X17725D01*
Y51775D01*
X15725D01*
Y48718D01*
X15283D01*
X15181Y48697D01*
X15094Y48639D01*
X14711Y48256D01*
X14653Y48169D01*
X14632Y48067D01*
Y47450D01*
X14225D01*
Y47450D01*
X14097Y47504D01*
Y51222D01*
X18661Y55786D01*
X23451D01*
X23492Y55726D01*
X23641Y55626D01*
X23816Y55591D01*
X23992Y55626D01*
X24141Y55726D01*
X24240Y55874D01*
X24275Y56050D01*
X24240Y56226D01*
X24141Y56374D01*
X23992Y56474D01*
X23816Y56509D01*
X23641Y56474D01*
X23492Y56374D01*
X23456Y56321D01*
X18551D01*
X18448Y56301D01*
X18361Y56243D01*
X13640Y51522D01*
X13582Y51435D01*
X13562Y51333D01*
Y46280D01*
X13582Y46177D01*
X13640Y46090D01*
X13994Y45737D01*
Y45595D01*
X13889Y45491D01*
X13533D01*
X13431Y45470D01*
X13344Y45412D01*
X12051Y44120D01*
X9143D01*
X9081Y44270D01*
X9651Y44840D01*
X9722Y44948D01*
X9748Y45074D01*
Y45425D01*
X9891D01*
Y45719D01*
X10338D01*
X10465Y45744D01*
X10572Y45816D01*
X10950Y46194D01*
X11022Y46301D01*
X11047Y46428D01*
Y48453D01*
X11022Y48580D01*
X10950Y48687D01*
X10248Y49390D01*
X10140Y49461D01*
X10013Y49487D01*
X9957D01*
Y49680D01*
X8907D01*
Y48630D01*
X9957D01*
Y48630D01*
X10037Y48663D01*
X10385Y48316D01*
Y46565D01*
X10201Y46381D01*
X9992D01*
X9916Y46500D01*
Y47050D01*
X9416D01*
X8916D01*
Y46500D01*
X8941D01*
Y45425D01*
X9085D01*
Y45212D01*
X8401Y44527D01*
X8329Y44420D01*
X8304Y44293D01*
Y44120D01*
X7375D01*
Y39760D01*
X7236Y39703D01*
X5285Y41655D01*
Y43075D01*
X5264Y43177D01*
X5206Y43264D01*
X3247Y45224D01*
Y45602D01*
X3700D01*
X3803Y45623D01*
X3890Y45681D01*
X5541Y47332D01*
X5599Y47419D01*
X5619Y47521D01*
Y51041D01*
X6179Y51600D01*
X6775D01*
X6875Y51600D01*
X7025Y51600D01*
X8075D01*
Y52296D01*
X12062Y56284D01*
X13714Y57936D01*
X13772Y58023D01*
X13793Y58125D01*
Y59244D01*
X13849Y59282D01*
X13949Y59431D01*
X13984Y59606D01*
X13949Y59782D01*
X13849Y59931D01*
X13701Y60030D01*
X13525Y60065D01*
X13349Y60030D01*
X13201Y59931D01*
X13101Y59782D01*
X13066Y59606D01*
X13101Y59431D01*
X13201Y59282D01*
X13257Y59244D01*
Y58236D01*
X11684Y56662D01*
X7622Y52600D01*
X7025D01*
X6925Y52600D01*
X6775Y52600D01*
X5725D01*
Y51904D01*
X5162Y51341D01*
X5104Y51254D01*
X5084Y51151D01*
Y47632D01*
X3589Y46138D01*
X3247D01*
Y46895D01*
X1197D01*
Y44845D01*
X2868D01*
X3208Y44505D01*
X3146Y44355D01*
X1197D01*
Y42305D01*
X3247D01*
Y44254D01*
X3397Y44317D01*
X4749Y42964D01*
Y41544D01*
X4770Y41441D01*
X4828Y41355D01*
X10219Y35964D01*
X10161Y35825D01*
X7605D01*
Y30745D01*
X8258D01*
X8315Y30606D01*
X6505Y28796D01*
X3672D01*
Y29540D01*
X772D01*
Y26640D01*
Y24100D01*
X1074D01*
X1197Y24035D01*
X1197Y23950D01*
Y21985D01*
X3247D01*
Y23950D01*
X3247Y24035D01*
X3370Y24100D01*
X3672D01*
Y24857D01*
X5512D01*
X5692Y24880D01*
X5761Y24909D01*
X5859Y24949D01*
X6003Y25060D01*
X11329Y30386D01*
X15492D01*
X15574Y30236D01*
X15532Y30134D01*
X15509Y29957D01*
X15532Y29781D01*
X15600Y29617D01*
X15708Y29476D01*
X15849Y29368D01*
X16014Y29300D01*
X16190Y29276D01*
X16366Y29300D01*
X16530Y29368D01*
X16671Y29476D01*
X16779Y29617D01*
X16810Y29690D01*
X21038D01*
X24909Y25819D01*
X24852Y25680D01*
X24572D01*
X22565Y27687D01*
X22479Y27745D01*
X22376Y27765D01*
X16810D01*
X16779Y27838D01*
X16671Y27979D01*
X16530Y28087D01*
X16366Y28155D01*
X16190Y28178D01*
X16014Y28155D01*
X15849Y28087D01*
X15708Y27979D01*
X15600Y27838D01*
X15532Y27674D01*
X15509Y27497D01*
X15532Y27321D01*
X15600Y27157D01*
X15708Y27016D01*
X15849Y26908D01*
X16014Y26840D01*
X16190Y26816D01*
X16366Y26840D01*
X16530Y26908D01*
X16671Y27016D01*
X16779Y27157D01*
X16810Y27230D01*
X22265D01*
X24272Y25223D01*
X24359Y25165D01*
X24461Y25145D01*
X29026D01*
X29084Y25006D01*
X27382Y23304D01*
X27324Y23217D01*
X27304Y23115D01*
Y16249D01*
X27054Y16146D01*
X26840Y15981D01*
X26676Y15767D01*
X26573Y15518D01*
X26537Y15250D01*
X26573Y14983D01*
X26676Y14733D01*
X26840Y14519D01*
X27054Y14355D01*
X27304Y14252D01*
X27571Y14216D01*
X27839Y14252D01*
X28088Y14355D01*
X28376Y14067D01*
Y13574D01*
X28226Y13500D01*
X28088Y13606D01*
X27839Y13709D01*
X27571Y13744D01*
X27304Y13709D01*
X27054Y13606D01*
X26840Y13441D01*
X26676Y13227D01*
X26573Y12978D01*
X26537Y12710D01*
X26573Y12443D01*
X26676Y12193D01*
X22209Y7727D01*
X22151Y7640D01*
X22134Y7554D01*
X22094Y7533D01*
X21981Y7519D01*
X21841Y7701D01*
X21627Y7865D01*
X21378Y7969D01*
Y11835D01*
X23062Y13520D01*
X23129Y13507D01*
X23305Y13542D01*
X23454Y13641D01*
X23553Y13790D01*
X23588Y13966D01*
X23553Y14141D01*
X23454Y14290D01*
X23305Y14389D01*
X23129Y14424D01*
X22954Y14389D01*
X22805Y14290D01*
X22705Y14141D01*
X22670Y13966D01*
X22684Y13899D01*
X20921Y12136D01*
X20863Y12049D01*
X20842Y11946D01*
Y7969D01*
X20593Y7865D01*
X20379Y7701D01*
X20215Y7487D01*
X20111Y7238D01*
X20076Y6970D01*
X20111Y6702D01*
X20215Y6453D01*
X20379Y6239D01*
X20593Y6075D01*
X20842Y5971D01*
X21110Y5936D01*
X21378Y5971D01*
X21627Y6075D01*
X21841Y6239D01*
X21981Y6421D01*
X22119Y6389D01*
X22131Y6383D01*
Y5681D01*
X22151Y5579D01*
X22209Y5492D01*
X22755Y4947D01*
X22651Y4698D01*
X22616Y4430D01*
X22651Y4162D01*
X22755Y3913D01*
X22919Y3699D01*
X23133Y3535D01*
X23382Y3431D01*
X23650Y3396D01*
X23918Y3431D01*
X24167Y3535D01*
X24381Y3699D01*
X24398Y3721D01*
X24540Y3673D01*
Y3386D01*
X24131Y2977D01*
X22942D01*
X22005Y3913D01*
X22109Y4162D01*
X22144Y4430D01*
X22109Y4698D01*
X22005Y4947D01*
X21841Y5161D01*
X21627Y5325D01*
X21378Y5429D01*
X21110Y5464D01*
X20842Y5429D01*
X20593Y5325D01*
X20379Y5161D01*
X20215Y4947D01*
X20111Y4698D01*
X20076Y4430D01*
X20111Y4162D01*
X20215Y3913D01*
X20379Y3699D01*
X20593Y3535D01*
X20842Y3431D01*
X21110Y3396D01*
X21378Y3431D01*
X21627Y3535D01*
X22642Y2520D01*
X22728Y2462D01*
X22831Y2441D01*
X24242D01*
X24344Y2462D01*
X24431Y2520D01*
X24997Y3085D01*
X25055Y3172D01*
X25075Y3275D01*
Y4051D01*
X25225Y4081D01*
X25295Y3913D01*
X25459Y3699D01*
X25673Y3535D01*
X25922Y3431D01*
X26190Y3396D01*
X26458Y3431D01*
X26707Y3535D01*
X26921Y3699D01*
X27085Y3913D01*
X27189Y4162D01*
X27224Y4430D01*
X27189Y4698D01*
X27085Y4947D01*
X26921Y5161D01*
X26707Y5325D01*
X26458Y5429D01*
X26190Y5464D01*
X25922Y5429D01*
X25673Y5325D01*
X25385Y5613D01*
Y6107D01*
X25535Y6181D01*
X25673Y6075D01*
X25922Y5971D01*
X26190Y5936D01*
X26458Y5971D01*
X26707Y6075D01*
X26921Y6239D01*
X27085Y6453D01*
X27189Y6702D01*
X27224Y6970D01*
X27189Y7238D01*
X27085Y7487D01*
X28639Y9040D01*
X29523D01*
X29584Y8890D01*
X29555Y8847D01*
X29534Y8744D01*
Y8153D01*
X29247Y7865D01*
X28998Y7969D01*
X28730Y8004D01*
X28462Y7969D01*
X28213Y7865D01*
X27999Y7701D01*
X27835Y7487D01*
X27731Y7238D01*
X27696Y6970D01*
X27731Y6702D01*
X27835Y6453D01*
X27999Y6239D01*
X28213Y6075D01*
X28462Y5971D01*
X28730Y5936D01*
X28998Y5971D01*
X29247Y6075D01*
X29461Y6239D01*
X29625Y6453D01*
X29694Y6620D01*
X29844Y6590D01*
Y5923D01*
X29247Y5325D01*
X28998Y5429D01*
X28730Y5464D01*
X28462Y5429D01*
X28213Y5325D01*
X27999Y5161D01*
X27835Y4947D01*
X27731Y4698D01*
X27696Y4430D01*
X27731Y4162D01*
X27835Y3913D01*
X27999Y3699D01*
X28213Y3535D01*
X28462Y3431D01*
X28730Y3396D01*
X28998Y3431D01*
X29247Y3535D01*
X29461Y3699D01*
X29625Y3913D01*
X29729Y4162D01*
X29764Y4430D01*
X29729Y4698D01*
X29625Y4947D01*
X30301Y5623D01*
X30359Y5710D01*
X30380Y5812D01*
Y6213D01*
X30522Y6261D01*
X30539Y6239D01*
X30753Y6075D01*
X31002Y5971D01*
X31270Y5936D01*
X31538Y5971D01*
X31787Y6075D01*
X32001Y6239D01*
X32122Y6397D01*
X32272Y6346D01*
Y5811D01*
X31787Y5325D01*
X31538Y5429D01*
X31270Y5464D01*
X31002Y5429D01*
X30753Y5325D01*
X30539Y5161D01*
X30375Y4947D01*
X30271Y4698D01*
X30236Y4430D01*
X30271Y4162D01*
X30375Y3913D01*
X30539Y3699D01*
X30753Y3535D01*
X31002Y3431D01*
X31270Y3396D01*
X31538Y3431D01*
X31787Y3535D01*
X32001Y3699D01*
X32165Y3913D01*
X32269Y4162D01*
X32304Y4430D01*
X32269Y4698D01*
X32165Y4947D01*
X32729Y5511D01*
X32787Y5598D01*
X32808Y5700D01*
Y6346D01*
X32958Y6397D01*
X33079Y6239D01*
X33293Y6075D01*
X33542Y5971D01*
X33810Y5936D01*
X34078Y5971D01*
X34327Y6075D01*
X34541Y6239D01*
X34675Y6413D01*
X34825Y6363D01*
Y5314D01*
X34664Y5153D01*
X34541Y5161D01*
X34327Y5325D01*
X34078Y5429D01*
X33810Y5464D01*
X33542Y5429D01*
X33293Y5325D01*
X33079Y5161D01*
X32915Y4947D01*
X32811Y4698D01*
X32776Y4430D01*
X32811Y4162D01*
X32915Y3913D01*
X33079Y3699D01*
X33293Y3535D01*
X33542Y3431D01*
X33810Y3396D01*
X34078Y3431D01*
X34327Y3535D01*
X34541Y3699D01*
X34705Y3913D01*
X34809Y4162D01*
X34844Y4430D01*
X34827Y4559D01*
X35282Y5014D01*
X35340Y5100D01*
X35360Y5203D01*
Y6330D01*
X35510Y6381D01*
X35619Y6239D01*
X35833Y6075D01*
X36082Y5971D01*
X36350Y5936D01*
X36618Y5971D01*
X36867Y6075D01*
X37081Y6239D01*
X37245Y6453D01*
X37349Y6702D01*
X37384Y6970D01*
X37349Y7238D01*
X37245Y7487D01*
X37081Y7701D01*
X36867Y7865D01*
X36618Y7969D01*
X36431Y7993D01*
X36377Y8152D01*
X39289Y11064D01*
X39367Y11048D01*
X39542Y11083D01*
X39691Y11182D01*
X39791Y11331D01*
X39825Y11507D01*
X39791Y11682D01*
X39691Y11831D01*
X39578Y11907D01*
X39540Y11958D01*
X39531Y12086D01*
X39590Y12174D01*
X39625Y12350D01*
X39590Y12526D01*
X39491Y12674D01*
X39342Y12774D01*
X39166Y12809D01*
X38991Y12774D01*
X38842Y12674D01*
X38742Y12526D01*
X38707Y12350D01*
X38725Y12263D01*
X34327Y7865D01*
X34078Y7969D01*
X33810Y8004D01*
X33542Y7969D01*
X33293Y7865D01*
X33079Y7701D01*
X33035Y7643D01*
X32875Y7681D01*
X32864Y7733D01*
X45884Y20752D01*
X45942Y20839D01*
X45944Y20850D01*
X45956Y20868D01*
X45976Y20970D01*
Y26240D01*
X46126Y26343D01*
X46224Y26323D01*
X46400Y26358D01*
X46549Y26457D01*
X46648Y26606D01*
X46683Y26782D01*
X46648Y26957D01*
X46549Y27106D01*
X46545Y27109D01*
X46550Y27189D01*
X46703Y27248D01*
X47826Y26125D01*
Y16472D01*
X47846Y16370D01*
X47904Y16283D01*
X48987Y15201D01*
X49074Y15143D01*
X49176Y15122D01*
X49457D01*
Y14365D01*
X51507D01*
Y16415D01*
X49457D01*
Y15658D01*
X49287D01*
X48361Y16583D01*
Y18140D01*
X48500Y18197D01*
X48956Y17741D01*
X49043Y17683D01*
X49145Y17662D01*
X49457D01*
Y16905D01*
X51507D01*
Y18955D01*
X51635Y19009D01*
X52565D01*
X52595Y18859D01*
X52513Y18825D01*
X52299Y18661D01*
X52135Y18447D01*
X52031Y18198D01*
X51996Y17930D01*
X52031Y17662D01*
X52135Y17413D01*
X52299Y17199D01*
X52513Y17035D01*
X52762Y16931D01*
X53030Y16896D01*
X53298Y16931D01*
X53547Y17035D01*
X53761Y17199D01*
X53925Y17413D01*
X54029Y17662D01*
X54064Y17930D01*
X54029Y18198D01*
X53925Y18447D01*
X53761Y18661D01*
X53547Y18825D01*
X53465Y18859D01*
X53495Y19009D01*
X54377D01*
X54479Y19030D01*
X54566Y19088D01*
X55053Y19575D01*
X55302Y19471D01*
X55570Y19436D01*
X55838Y19471D01*
X56087Y19575D01*
X56301Y19739D01*
X56465Y19953D01*
X56569Y20202D01*
X56604Y20470D01*
X56569Y20738D01*
X56465Y20987D01*
X56301Y21201D01*
X56087Y21365D01*
X55838Y21469D01*
X55570Y21504D01*
X55302Y21469D01*
X55053Y21365D01*
X54839Y21201D01*
X54675Y20987D01*
X54571Y20738D01*
X54536Y20470D01*
X54571Y20202D01*
X54675Y19953D01*
X54266Y19544D01*
X53754D01*
X53703Y19694D01*
X53761Y19739D01*
X53925Y19953D01*
X54029Y20202D01*
X54064Y20470D01*
X54029Y20738D01*
X53925Y20987D01*
X53761Y21201D01*
X53547Y21365D01*
X53298Y21469D01*
X53030Y21504D01*
X52762Y21469D01*
X52513Y21365D01*
X51945Y21933D01*
X51858Y21991D01*
X51756Y22012D01*
X51507D01*
Y24035D01*
X49532D01*
Y24525D01*
X51507D01*
Y26355D01*
X51847D01*
X52135Y26067D01*
X52031Y25818D01*
X51996Y25550D01*
X52031Y25282D01*
X52135Y25033D01*
X52299Y24819D01*
X52513Y24655D01*
X52762Y24551D01*
X53030Y24516D01*
X53298Y24551D01*
X53547Y24655D01*
X53761Y24819D01*
X53925Y25033D01*
X54029Y25282D01*
X54064Y25550D01*
X54029Y25818D01*
X53925Y26067D01*
X53761Y26281D01*
X53547Y26445D01*
X53298Y26549D01*
X53030Y26584D01*
X52762Y26549D01*
X52513Y26445D01*
X52147Y26812D01*
X52060Y26870D01*
X51958Y26890D01*
X49864D01*
X49847Y26915D01*
X49928Y27065D01*
X51507D01*
Y28713D01*
X51807D01*
X51986Y28737D01*
X52073Y28773D01*
X52167Y28649D01*
X52135Y28607D01*
X52031Y28358D01*
X51996Y28090D01*
X52031Y27822D01*
X52135Y27573D01*
X52299Y27359D01*
X52513Y27195D01*
X52762Y27091D01*
X53030Y27056D01*
X53298Y27091D01*
X53547Y27195D01*
X53761Y27359D01*
X53925Y27573D01*
X54029Y27822D01*
X54064Y28090D01*
X54029Y28358D01*
X53925Y28607D01*
X53761Y28821D01*
X53547Y28985D01*
X53366Y29060D01*
X53386Y29214D01*
X53409Y29217D01*
X53761Y29363D01*
X54064Y29596D01*
X54205Y29780D01*
X54395D01*
X54536Y29596D01*
X54839Y29363D01*
X55191Y29217D01*
X55214Y29214D01*
X55234Y29060D01*
X55053Y28985D01*
X54839Y28821D01*
X54675Y28607D01*
X54571Y28358D01*
X54536Y28090D01*
X54571Y27822D01*
X54675Y27573D01*
X54839Y27359D01*
X55053Y27195D01*
X55302Y27091D01*
X55570Y27056D01*
X55838Y27091D01*
X56087Y27195D01*
X56301Y27359D01*
X56465Y27573D01*
X56569Y27822D01*
X56604Y28090D01*
X56569Y28358D01*
X56465Y28607D01*
X56301Y28821D01*
X56087Y28985D01*
X55906Y29060D01*
X55926Y29214D01*
X55949Y29217D01*
X56301Y29363D01*
X56604Y29596D01*
X56837Y29899D01*
X56983Y30251D01*
X57033Y30630D01*
X56983Y31009D01*
X56837Y31361D01*
X56604Y31664D01*
X56420Y31805D01*
Y31995D01*
X56604Y32136D01*
X56837Y32439D01*
X56983Y32791D01*
X57033Y33170D01*
X56983Y33549D01*
X56837Y33901D01*
X56604Y34204D01*
X56301Y34437D01*
X55966Y34575D01*
X55951Y34633D01*
X55955Y34733D01*
X56100Y34793D01*
X56319Y34961D01*
X56487Y35180D01*
X56593Y35436D01*
X56616Y35610D01*
X55570D01*
X54524D01*
X54547Y35436D01*
X54653Y35180D01*
X54821Y34961D01*
X55040Y34793D01*
X55185Y34733D01*
X55189Y34633D01*
X55174Y34575D01*
X54839Y34437D01*
X54536Y34204D01*
X54395Y34020D01*
X54205D01*
X54064Y34204D01*
X53761Y34437D01*
X53524Y34535D01*
X53553Y34685D01*
X54055D01*
Y36356D01*
X55900Y38202D01*
X55963Y38228D01*
X56146Y38368D01*
X56286Y38551D01*
X56312Y38613D01*
X57299Y39601D01*
X57438Y39544D01*
Y12334D01*
X52342Y7238D01*
X42455D01*
Y7995D01*
X40405D01*
Y5945D01*
X42455D01*
Y6702D01*
X52453D01*
X52555Y6723D01*
X52642Y6781D01*
X57895Y12034D01*
X57953Y12121D01*
X57973Y12223D01*
Y39664D01*
X58755Y40446D01*
X58813Y40533D01*
X58833Y40635D01*
Y72359D01*
X58813Y72462D01*
X58755Y72549D01*
X57408Y73896D01*
X57421Y73963D01*
X57386Y74138D01*
X57287Y74287D01*
X57138Y74386D01*
X56963Y74421D01*
X56787Y74386D01*
X56638Y74287D01*
X56539Y74138D01*
X56504Y73963D01*
X56539Y73787D01*
X56638Y73638D01*
X56787Y73539D01*
X56963Y73504D01*
X57029Y73517D01*
X57142Y73404D01*
X57068Y73266D01*
X57067Y73266D01*
X56892Y73231D01*
X56743Y73132D01*
X56643Y72983D01*
X56608Y72808D01*
X56643Y72632D01*
X56743Y72483D01*
X56892Y72384D01*
X57067Y72349D01*
X57134Y72362D01*
X57988Y71508D01*
Y66354D01*
X57849Y66297D01*
X57466Y66680D01*
X57322Y66791D01*
X57224Y66831D01*
X57155Y66860D01*
X56975Y66883D01*
X56852D01*
X56837Y66921D01*
X56604Y67224D01*
X56420Y67365D01*
Y67555D01*
X56604Y67696D01*
X56837Y67999D01*
X56983Y68351D01*
X57033Y68730D01*
X56983Y69109D01*
X56837Y69461D01*
X56604Y69764D01*
X56301Y69997D01*
X55966Y70135D01*
X55951Y70193D01*
X55955Y70293D01*
X56100Y70353D01*
X56319Y70521D01*
X56487Y70740D01*
X56593Y70996D01*
X56616Y71170D01*
X55570D01*
X54524D01*
X54547Y70996D01*
X54653Y70740D01*
X54821Y70521D01*
X55040Y70353D01*
X55185Y70293D01*
X55189Y70193D01*
X55174Y70135D01*
X54839Y69997D01*
X54536Y69764D01*
X54395Y69580D01*
X54205D01*
X54064Y69764D01*
X53761Y69997D01*
X53524Y70095D01*
X53553Y70245D01*
X54055D01*
Y72295D01*
X52372D01*
X52314Y72434D01*
X53850Y73970D01*
X54723D01*
X54767Y73849D01*
X54772Y73820D01*
X54676Y73676D01*
X54641Y73500D01*
X54676Y73324D01*
X54776Y73176D01*
X54924Y73076D01*
X55100Y73041D01*
X55276Y73076D01*
X55424Y73176D01*
X55524Y73324D01*
X55559Y73500D01*
X55524Y73676D01*
X55424Y73824D01*
X55417Y73829D01*
X55449Y73989D01*
X55460Y73991D01*
X55551Y74052D01*
X57748Y76249D01*
X57809Y76340D01*
X57830Y76447D01*
Y76783D01*
X57903Y76814D01*
X58049Y76926D01*
X58161Y77072D01*
X58232Y77242D01*
X58256Y77425D01*
X58232Y77608D01*
X58161Y77778D01*
X58049Y77924D01*
X57996Y77965D01*
Y78155D01*
X58049Y78196D01*
X58161Y78342D01*
X58232Y78512D01*
X58256Y78695D01*
X58232Y78878D01*
X58161Y79048D01*
X58049Y79194D01*
X57903Y79306D01*
X57733Y79377D01*
X57550Y79401D01*
X57367Y79377D01*
X57197Y79306D01*
X57051Y79194D01*
X57025Y79161D01*
X56836Y79161D01*
X56797Y79212D01*
X56646Y79328D01*
X56469Y79401D01*
X56380Y79413D01*
Y78695D01*
X56180D01*
Y79413D01*
X56091Y79401D01*
X55914Y79328D01*
X55763Y79212D01*
X55740Y79182D01*
X55550D01*
X55527Y79212D01*
X55376Y79328D01*
X55199Y79401D01*
X55110Y79413D01*
Y78695D01*
X54910D01*
Y79413D01*
X54821Y79401D01*
X54644Y79328D01*
X54493Y79212D01*
X54454Y79161D01*
X54265Y79161D01*
X54239Y79194D01*
X54093Y79306D01*
X53923Y79377D01*
X53740Y79401D01*
X53557Y79377D01*
X53387Y79306D01*
X53241Y79194D01*
X53215Y79161D01*
X53026Y79161D01*
X52987Y79212D01*
X52836Y79328D01*
X52659Y79401D01*
X52570Y79413D01*
Y78695D01*
X52470D01*
Y78595D01*
X51752D01*
X51764Y78506D01*
X51837Y78329D01*
X51953Y78178D01*
X52004Y78139D01*
Y77950D01*
X51971Y77924D01*
X51859Y77778D01*
X51788Y77608D01*
X51764Y77425D01*
X51788Y77242D01*
X51823Y77157D01*
X49234Y74568D01*
X47097D01*
X47050Y74688D01*
X47048Y74718D01*
X53432Y81101D01*
X56294D01*
X56396Y81121D01*
X56483Y81179D01*
X58489Y83186D01*
X58547Y83272D01*
X58567Y83375D01*
Y86664D01*
X58733Y86830D01*
X58800Y86816D01*
X58976Y86851D01*
X59124Y86951D01*
X59224Y87099D01*
X59259Y87275D01*
X59224Y87451D01*
X59124Y87599D01*
X58976Y87699D01*
X58800Y87734D01*
X58624Y87699D01*
X58476Y87599D01*
X58376Y87451D01*
X58341Y87275D01*
X58355Y87208D01*
X58111Y86964D01*
X58053Y86877D01*
X58032Y86775D01*
Y83486D01*
X56183Y81636D01*
X53321D01*
X53219Y81616D01*
X53132Y81558D01*
X46741Y75168D01*
X44612D01*
X44574Y75224D01*
X44426Y75324D01*
X44250Y75359D01*
X44074Y75324D01*
X43926Y75224D01*
X43826Y75076D01*
X43813Y75012D01*
X43651Y74963D01*
X42693Y75921D01*
Y79071D01*
X42672Y79174D01*
X42614Y79261D01*
X41086Y80789D01*
X41103Y80823D01*
X41167Y80920D01*
X41378Y80948D01*
X41591Y81036D01*
X41774Y81176D01*
X41914Y81359D01*
X42002Y81572D01*
X42033Y81800D01*
X42002Y82028D01*
X41914Y82241D01*
X41831Y82350D01*
X41914Y82459D01*
X42002Y82672D01*
X42033Y82900D01*
X42002Y83128D01*
X41914Y83341D01*
X41800Y83490D01*
X42452Y84142D01*
X43792D01*
X43975Y84166D01*
X44145Y84237D01*
X44291Y84349D01*
X45387Y85445D01*
X45499Y85591D01*
X45570Y85761D01*
X45594Y85944D01*
Y90838D01*
X45688D01*
Y92138D01*
X45788D01*
Y92763D01*
X45904Y92858D01*
X45940Y92851D01*
X46116Y92886D01*
X46122Y92890D01*
X46230Y92782D01*
X46226Y92776D01*
X46191Y92600D01*
X46226Y92424D01*
X46326Y92276D01*
X46474Y92176D01*
X46650Y92141D01*
X46684Y92148D01*
X46800Y92053D01*
Y91900D01*
X46835D01*
X46975Y91875D01*
Y90950D01*
X46950D01*
Y90525D01*
X47850D01*
Y90950D01*
X47825D01*
Y91875D01*
X47965Y91900D01*
X48135D01*
X48275Y91875D01*
Y90950D01*
X48250D01*
Y90525D01*
X48700D01*
Y90325D01*
X48250D01*
Y89900D01*
X48726D01*
X48783Y89761D01*
X47892Y88870D01*
X47825Y88884D01*
X47649Y88849D01*
X47501Y88749D01*
X47401Y88601D01*
X47366Y88425D01*
X47380Y88358D01*
X46076Y87054D01*
X46018Y86967D01*
X45997Y86865D01*
Y84782D01*
X44955Y83739D01*
X44888Y83753D01*
X44712Y83718D01*
X44563Y83618D01*
X44464Y83469D01*
X44429Y83294D01*
X44464Y83118D01*
X44563Y82969D01*
X44712Y82870D01*
X44888Y82835D01*
X45063Y82870D01*
X45212Y82969D01*
X45312Y83118D01*
X45346Y83294D01*
X45333Y83361D01*
X46454Y84482D01*
X46512Y84569D01*
X46533Y84671D01*
Y84921D01*
X46683Y85032D01*
X46763Y85016D01*
X46938Y85051D01*
X47087Y85151D01*
X47125Y85207D01*
X48843D01*
X49444Y84606D01*
X49431Y84539D01*
X49466Y84363D01*
X49565Y84214D01*
X49714Y84115D01*
X49797Y84098D01*
X49847Y83936D01*
X48972Y83061D01*
X46750D01*
X46713Y83118D01*
X46564Y83217D01*
X46388Y83252D01*
X46212Y83217D01*
X46064Y83118D01*
X45964Y82969D01*
X45929Y82794D01*
X45964Y82618D01*
X46064Y82469D01*
X46212Y82370D01*
X46388Y82335D01*
X46564Y82370D01*
X46713Y82469D01*
X46750Y82526D01*
X49083D01*
X49186Y82546D01*
X49273Y82604D01*
X50639Y83971D01*
X50697Y84058D01*
X50718Y84160D01*
Y88364D01*
X53308Y90955D01*
X53375Y90941D01*
X53455Y90957D01*
X53605Y90846D01*
Y90158D01*
X53342Y89895D01*
X53275Y89909D01*
X53099Y89874D01*
X52951Y89774D01*
X52851Y89626D01*
X52816Y89450D01*
X52851Y89274D01*
X52951Y89126D01*
X53099Y89026D01*
X53275Y88991D01*
X53451Y89026D01*
X53599Y89126D01*
X53699Y89274D01*
X53734Y89450D01*
X53720Y89517D01*
X54062Y89858D01*
X54120Y89945D01*
X54140Y90048D01*
Y93827D01*
X54120Y93930D01*
X54062Y94017D01*
X51639Y96439D01*
X51675Y96525D01*
X51675D01*
Y97375D01*
X51675Y97475D01*
X51675Y97625D01*
Y98475D01*
X50825D01*
Y98475D01*
X50675Y98439D01*
X50573Y98459D01*
X50397Y98424D01*
X50249Y98324D01*
X50149Y98176D01*
X50114Y98000D01*
X50149Y97824D01*
X50249Y97676D01*
X50397Y97576D01*
X50573Y97541D01*
X50675Y97561D01*
X50737Y97546D01*
X50809Y97476D01*
X50825Y97450D01*
X50825Y97375D01*
Y96525D01*
X50982D01*
Y96450D01*
X51003Y96348D01*
X51061Y96261D01*
X53605Y93717D01*
Y91954D01*
X53455Y91843D01*
X53375Y91859D01*
X53199Y91824D01*
X53051Y91724D01*
X52951Y91576D01*
X52916Y91400D01*
X52930Y91333D01*
X50261Y88664D01*
X50203Y88577D01*
X50182Y88475D01*
Y85051D01*
X50032Y84969D01*
X49890Y84998D01*
X49823Y84984D01*
X49143Y85664D01*
X49056Y85722D01*
X48954Y85743D01*
X47125D01*
X47087Y85799D01*
X46938Y85899D01*
X46763Y85934D01*
X46683Y85918D01*
X46533Y86029D01*
Y86754D01*
X47758Y87980D01*
X47825Y87966D01*
X48001Y88001D01*
X48149Y88101D01*
X48249Y88249D01*
X48284Y88425D01*
X48270Y88492D01*
X49764Y89986D01*
X49822Y90073D01*
X49843Y90175D01*
Y91075D01*
X49822Y91177D01*
X49764Y91264D01*
X49464Y91564D01*
X49377Y91622D01*
X49275Y91643D01*
X49131D01*
Y91900D01*
X49400D01*
Y93100D01*
X46800D01*
Y93100D01*
X46730Y93043D01*
X46650Y93059D01*
X46474Y93024D01*
X46468Y93020D01*
X46360Y93128D01*
X46364Y93134D01*
X46399Y93310D01*
X46364Y93485D01*
X46265Y93634D01*
X46116Y93733D01*
X46031Y93750D01*
Y94487D01*
X46181Y94558D01*
X46272Y94489D01*
X46442Y94418D01*
X46625Y94394D01*
X46808Y94418D01*
X46978Y94489D01*
X47124Y94601D01*
X47236Y94747D01*
X47307Y94917D01*
X47331Y95100D01*
Y95300D01*
X47315Y95421D01*
X48209Y96316D01*
X48281Y96423D01*
X48306Y96550D01*
Y97194D01*
X48606D01*
X48665Y97202D01*
X48711Y97206D01*
X48721Y97209D01*
X48781Y97217D01*
X48852Y97247D01*
X48855Y97247D01*
X48865Y97252D01*
X48943Y97285D01*
X49083Y97392D01*
X49190Y97532D01*
X49258Y97694D01*
X49266Y97757D01*
X49272Y97789D01*
X49271Y97798D01*
X49274Y97807D01*
X49276Y97830D01*
X49281Y97869D01*
Y98781D01*
X49275Y98822D01*
X49274Y98841D01*
X49272Y98848D01*
X49272Y98855D01*
X49265Y98900D01*
X49265Y98902D01*
X49258Y98956D01*
X49234Y99013D01*
X49228Y99030D01*
X49226Y99032D01*
X49223Y99040D01*
X49222Y99043D01*
X49219Y99049D01*
X49190Y99118D01*
X49137Y99189D01*
X49210Y99339D01*
X49330D01*
X49518Y99261D01*
X49722Y99234D01*
X49925Y99261D01*
X50115Y99339D01*
X50278Y99465D01*
X50283Y99471D01*
X59471D01*
Y93513D01*
D02*
G37*
G36*
X48648Y99271D02*
X48701Y99264D01*
X48754Y99249D01*
X48797Y99233D01*
X48839Y99213D01*
X48883Y99185D01*
X48921Y99156D01*
X48960Y99122D01*
X48989Y99086D01*
X49017Y99049D01*
X49041Y99008D01*
X49061Y98966D01*
X49077Y98924D01*
X49089Y98873D01*
X49096Y98828D01*
X49100Y98775D01*
Y97875D01*
X49096Y97820D01*
X49088Y97775D01*
X49076Y97725D01*
X49060Y97685D01*
X49047Y97652D01*
X49022Y97609D01*
X48996Y97572D01*
X48965Y97534D01*
X48920Y97493D01*
X48880Y97463D01*
X48834Y97434D01*
X48781Y97410D01*
X48694Y97384D01*
X48600Y97375D01*
X47000D01*
Y99275D01*
X48600D01*
X48648Y99271D01*
D02*
G37*
G36*
X41800Y97375D02*
X40200D01*
X40152Y97379D01*
X40099Y97386D01*
X40046Y97401D01*
X40003Y97417D01*
X39961Y97437D01*
X39917Y97465D01*
X39879Y97494D01*
X39840Y97528D01*
X39811Y97564D01*
X39783Y97601D01*
X39759Y97642D01*
X39739Y97684D01*
X39723Y97726D01*
X39711Y97777D01*
X39704Y97822D01*
X39700Y97875D01*
Y98775D01*
X39704Y98830D01*
X39712Y98875D01*
X39724Y98925D01*
X39740Y98965D01*
X39753Y98998D01*
X39778Y99041D01*
X39804Y99078D01*
X39835Y99116D01*
X39880Y99157D01*
X39920Y99187D01*
X39966Y99216D01*
X40019Y99240D01*
X40106Y99266D01*
X40200Y99275D01*
X41800D01*
Y97375D01*
D02*
G37*
G36*
X11407Y94555D02*
Y93465D01*
X10775D01*
Y92590D01*
X10675D01*
Y92490D01*
X9725D01*
Y91715D01*
X9750D01*
Y91220D01*
X9275D01*
Y95610D01*
X10352D01*
X11407Y94555D01*
D02*
G37*
G36*
X16075Y91675D02*
X16778D01*
X17226Y91227D01*
Y87681D01*
X17247Y87574D01*
X17308Y87483D01*
X17580Y87211D01*
Y85777D01*
X16327Y84523D01*
X16266Y84432D01*
X16245Y84325D01*
Y82455D01*
X16050D01*
Y81848D01*
X15812D01*
Y82580D01*
X15804D01*
X15724Y82729D01*
X15759Y82905D01*
X15724Y83081D01*
X15750Y83230D01*
X15750D01*
X15750Y83230D01*
Y84180D01*
X14675D01*
Y84205D01*
X14125D01*
Y83705D01*
Y83205D01*
X14675D01*
Y83205D01*
X14784Y83192D01*
X14872Y83059D01*
X14841Y82905D01*
X14851Y82855D01*
X14728Y82705D01*
X13988D01*
Y81255D01*
X13788D01*
Y82705D01*
X13058D01*
X12944Y82855D01*
X12959Y82930D01*
X12929Y83080D01*
X12975Y83230D01*
X12975D01*
Y84305D01*
X13000D01*
Y84855D01*
X12500D01*
Y84955D01*
X12400D01*
Y85605D01*
X12000D01*
Y85071D01*
X11850Y85008D01*
X11339Y85519D01*
X11252Y85577D01*
X11150Y85598D01*
X9275D01*
Y87455D01*
X9487D01*
X9594Y87476D01*
X9685Y87537D01*
X11994Y89846D01*
X12112Y89813D01*
X12144Y89789D01*
Y89000D01*
X11725D01*
Y88747D01*
X11575Y88667D01*
X11554Y88681D01*
X11378Y88716D01*
X11203Y88681D01*
X11054Y88582D01*
X10954Y88433D01*
X10919Y88257D01*
X10954Y88082D01*
X11054Y87933D01*
X11203Y87834D01*
X11378Y87799D01*
X11554Y87834D01*
X11575Y87848D01*
X11725Y87768D01*
Y87550D01*
X14925D01*
Y89000D01*
X14261D01*
X14181Y89150D01*
X14213Y89307D01*
X14176Y89493D01*
X14071Y89650D01*
X13914Y89755D01*
X13728Y89792D01*
X13543Y89755D01*
X13386Y89650D01*
X13281Y89493D01*
X13244Y89307D01*
X13275Y89150D01*
X13196Y89000D01*
X12807D01*
Y90228D01*
X12838Y90365D01*
X13788D01*
Y91815D01*
X13988D01*
Y90365D01*
X14938D01*
Y90490D01*
X15812D01*
Y90572D01*
X16044D01*
X16076Y90526D01*
X16224Y90426D01*
X16400Y90391D01*
X16576Y90426D01*
X16724Y90526D01*
X16824Y90674D01*
X16859Y90850D01*
X16824Y91026D01*
X16724Y91174D01*
X16576Y91274D01*
X16400Y91309D01*
X16224Y91274D01*
X16076Y91174D01*
X16031Y91108D01*
X15984D01*
X15837Y91115D01*
Y91390D01*
X15300D01*
Y91590D01*
X15837D01*
Y91860D01*
X16075D01*
Y91675D01*
D02*
G37*
G36*
X39182Y84459D02*
Y81429D01*
X39203Y81326D01*
X39261Y81239D01*
X41847Y78653D01*
Y77888D01*
X41592Y77633D01*
X41525Y77646D01*
X41395Y77620D01*
X41245Y77708D01*
Y78923D01*
X41225Y79025D01*
X41167Y79112D01*
X38139Y82139D01*
X38052Y82197D01*
X37950Y82218D01*
X36810D01*
X36769Y82305D01*
X36754Y82368D01*
X36828Y82479D01*
X36857Y82625D01*
X36828Y82771D01*
X36908Y82923D01*
X36949Y82951D01*
X37049Y83099D01*
X37084Y83275D01*
X37062Y83382D01*
X37161Y83532D01*
X37675D01*
X37777Y83553D01*
X37864Y83611D01*
X38733Y84480D01*
X38800Y84466D01*
X38976Y84501D01*
X39032Y84539D01*
X39182Y84459D01*
D02*
G37*
G36*
X35454Y86228D02*
X35404Y86065D01*
X35324Y86049D01*
X35176Y85949D01*
X35076Y85801D01*
X35041Y85625D01*
X35076Y85449D01*
X35097Y85418D01*
X35017Y85268D01*
X32429D01*
X32326Y85247D01*
X32239Y85189D01*
X31204Y84154D01*
X31020Y84182D01*
X30974Y84249D01*
X30826Y84349D01*
X30808Y84352D01*
X30765Y84496D01*
X33262Y86994D01*
X34688D01*
X35454Y86228D01*
D02*
G37*
G36*
X23844Y84670D02*
X23813Y84649D01*
X23714Y84501D01*
X23679Y84325D01*
X23692Y84258D01*
X18048Y78614D01*
X17990Y78527D01*
X17969Y78425D01*
Y76944D01*
X17913Y76906D01*
X17813Y76757D01*
X17778Y76582D01*
X17813Y76406D01*
X17913Y76257D01*
X18062Y76158D01*
X18237Y76123D01*
X18413Y76158D01*
X18562Y76257D01*
X18661Y76406D01*
X18696Y76582D01*
X18661Y76757D01*
X18562Y76906D01*
X18505Y76944D01*
Y78314D01*
X23196Y83005D01*
X23234Y83001D01*
X23349Y82946D01*
X23376Y82812D01*
X23476Y82663D01*
X23624Y82564D01*
X23800Y82529D01*
X23976Y82564D01*
X24124Y82663D01*
X24224Y82812D01*
X24256Y82975D01*
X24762Y83481D01*
X26253D01*
X26298Y83331D01*
X26251Y83299D01*
X26151Y83151D01*
X26116Y82975D01*
X26151Y82799D01*
X26251Y82651D01*
X26399Y82551D01*
X26575Y82516D01*
X26751Y82551D01*
X26899Y82651D01*
X26929Y82695D01*
X27673D01*
X27710Y82640D01*
X27739Y82545D01*
X27657Y82422D01*
X27622Y82246D01*
X27657Y82071D01*
X27757Y81922D01*
X27814Y81884D01*
Y81202D01*
X26695Y80084D01*
X26532Y80133D01*
X26524Y80176D01*
X26424Y80324D01*
X26276Y80424D01*
X26100Y80459D01*
X25924Y80424D01*
X25776Y80324D01*
X25676Y80176D01*
X25641Y80000D01*
X25676Y79824D01*
X25776Y79676D01*
X25924Y79576D01*
X25967Y79568D01*
X26017Y79405D01*
X25227Y78615D01*
X25169Y78528D01*
X25148Y78426D01*
Y77286D01*
X25169Y77183D01*
X25227Y77097D01*
X27235Y75089D01*
X27168Y74943D01*
X24386D01*
X24287Y75093D01*
X24309Y75200D01*
X24274Y75376D01*
X24174Y75524D01*
X24026Y75624D01*
X23850Y75659D01*
X23674Y75624D01*
X23526Y75524D01*
X23426Y75376D01*
X23391Y75200D01*
X23413Y75093D01*
X23314Y74943D01*
X16912D01*
X16874Y74999D01*
X16726Y75099D01*
X16550Y75134D01*
X16441Y75112D01*
X16291Y75210D01*
Y76764D01*
X16348Y76802D01*
X16447Y76951D01*
X16482Y77127D01*
X16447Y77302D01*
X16348Y77451D01*
X16291Y77489D01*
Y79777D01*
X16271Y79879D01*
X16237Y79930D01*
X16291Y80080D01*
X16425D01*
Y80730D01*
X16525D01*
Y80830D01*
X17025D01*
Y81380D01*
X17000D01*
Y81550D01*
X17283D01*
X17391Y81425D01*
X17391Y81425D01*
X17426Y81249D01*
X17526Y81101D01*
X17674Y81001D01*
X17850Y80966D01*
X18026Y81001D01*
X18174Y81101D01*
X18274Y81249D01*
X18309Y81425D01*
X18274Y81601D01*
X18178Y81745D01*
X18201Y81841D01*
X18228Y81894D01*
X18398Y81928D01*
X18555Y82033D01*
X18660Y82190D01*
X18697Y82375D01*
X18679Y82463D01*
X21036Y84820D01*
X23798D01*
X23844Y84670D01*
D02*
G37*
G36*
X11532Y84569D02*
Y82980D01*
X10700D01*
Y82105D01*
X10600D01*
Y82005D01*
X9650D01*
Y81230D01*
X9675D01*
Y80735D01*
X9275D01*
Y85062D01*
X11039D01*
X11532Y84569D01*
D02*
G37*
G36*
X33402Y79609D02*
X33405Y79605D01*
X33529Y79522D01*
X33675Y79493D01*
X33821Y79522D01*
X33945Y79605D01*
X34055D01*
X34179Y79522D01*
X34325Y79493D01*
X34471Y79522D01*
X34546Y79572D01*
X34705Y79605D01*
X34829Y79522D01*
X34975Y79493D01*
X35007Y79499D01*
X35157Y79379D01*
Y79071D01*
X35007Y78951D01*
X34975Y78957D01*
X34829Y78928D01*
X34705Y78845D01*
X34622Y78721D01*
X34593Y78575D01*
X34622Y78429D01*
X34705Y78305D01*
X34829Y78222D01*
X34975Y78193D01*
X35007Y78199D01*
X35157Y78079D01*
Y77631D01*
X35007Y77617D01*
X34995Y77680D01*
X34937Y77767D01*
X34684Y78019D01*
X34675Y78068D01*
X34592Y78192D01*
X34468Y78275D01*
X34321Y78304D01*
X34175Y78275D01*
X34051Y78192D01*
X33968Y78068D01*
X33956Y78005D01*
X33900Y77968D01*
X33704D01*
X33635Y78115D01*
X33691Y78196D01*
X33821Y78222D01*
X33945Y78305D01*
X34028Y78429D01*
X34057Y78575D01*
X34028Y78721D01*
X33945Y78845D01*
X33821Y78928D01*
X33675Y78957D01*
X33529Y78928D01*
X33405Y78845D01*
X33322Y78721D01*
X33293Y78575D01*
X33293Y78572D01*
X32450Y77729D01*
X32288Y77779D01*
X32285Y77791D01*
X33044Y78551D01*
X33102Y78637D01*
X33123Y78740D01*
Y79517D01*
X33238Y79625D01*
X33402Y79609D01*
D02*
G37*
G36*
X33118Y83846D02*
X31736Y82464D01*
X31678Y82377D01*
X31657Y82275D01*
Y79236D01*
X30817Y78395D01*
X30750Y78409D01*
X30574Y78374D01*
X30426Y78274D01*
X30326Y78126D01*
X30291Y77950D01*
X30326Y77774D01*
X30426Y77626D01*
X30574Y77526D01*
X30750Y77491D01*
X30857Y77513D01*
X31007Y77414D01*
Y74211D01*
X30286Y73489D01*
X30228Y73402D01*
X30207Y73300D01*
Y68686D01*
X29764Y68242D01*
X29625Y68299D01*
Y68859D01*
X29839Y69073D01*
X29897Y69160D01*
X29918Y69262D01*
Y73787D01*
X29973Y73824D01*
X30072Y73973D01*
X30107Y74149D01*
X30072Y74324D01*
X30023Y74399D01*
X30045Y74458D01*
X30104Y74547D01*
X30251Y74576D01*
X30399Y74676D01*
X30499Y74824D01*
X30534Y75000D01*
X30499Y75176D01*
X30399Y75324D01*
X30251Y75424D01*
X30075Y75459D01*
X29899Y75424D01*
X29751Y75324D01*
X29713Y75268D01*
X29525D01*
X29423Y75247D01*
X29336Y75189D01*
X28847Y74701D01*
X28789Y74614D01*
X28771Y74521D01*
X28742Y74503D01*
X28619Y74461D01*
X26239Y76842D01*
X26244Y76870D01*
X26416Y76986D01*
X26440Y76982D01*
X26616Y77017D01*
X26765Y77116D01*
X26864Y77265D01*
X26899Y77440D01*
X26864Y77616D01*
X26765Y77765D01*
Y77908D01*
X26791Y77926D01*
X26890Y78074D01*
X26925Y78250D01*
X26912Y78317D01*
X32580Y83985D01*
X33060D01*
X33118Y83846D01*
D02*
G37*
G36*
X54511Y76926D02*
X54657Y76814D01*
X54827Y76743D01*
X55010Y76719D01*
X55193Y76743D01*
X55363Y76814D01*
X55509Y76926D01*
X55550Y76979D01*
X55740D01*
X55781Y76926D01*
X55927Y76814D01*
X56012Y76778D01*
Y76166D01*
X55589Y75743D01*
X54416D01*
X54314Y75722D01*
X54227Y75664D01*
X50511Y71948D01*
X50453Y71861D01*
X50432Y71759D01*
Y71662D01*
X50376Y71624D01*
X50276Y71476D01*
X50241Y71300D01*
X50276Y71124D01*
X50376Y70976D01*
X50432Y70938D01*
Y66999D01*
X49068Y65635D01*
X49010Y65548D01*
X48990Y65446D01*
Y64666D01*
X45631Y61307D01*
X44520D01*
X44463Y61446D01*
X44974Y61957D01*
X45880D01*
X45982Y61978D01*
X46069Y62036D01*
X47839Y63806D01*
X47897Y63893D01*
X47918Y63995D01*
Y70146D01*
X47897Y70249D01*
X47839Y70336D01*
X46154Y72021D01*
X46182Y72205D01*
X46249Y72251D01*
X46349Y72399D01*
X46384Y72575D01*
X46349Y72751D01*
X46249Y72899D01*
X46101Y72999D01*
X45925Y73034D01*
X45749Y72999D01*
X45601Y72899D01*
X45555Y72832D01*
X45371Y72804D01*
X44281Y73894D01*
X44339Y74032D01*
X49345D01*
X49447Y74053D01*
X49534Y74111D01*
X52202Y76778D01*
X52287Y76743D01*
X52470Y76719D01*
X52653Y76743D01*
X52823Y76814D01*
X52969Y76926D01*
X53010Y76979D01*
X53200D01*
X53241Y76926D01*
X53387Y76814D01*
X53557Y76743D01*
X53740Y76719D01*
X53923Y76743D01*
X54093Y76814D01*
X54239Y76926D01*
X54280Y76979D01*
X54470D01*
X54511Y76926D01*
D02*
G37*
G36*
X37386Y77736D02*
X37473Y77678D01*
X37575Y77657D01*
X38814D01*
X39682Y76789D01*
Y76492D01*
X39544Y76435D01*
X39345Y76633D01*
X39359Y76700D01*
X39324Y76876D01*
X39224Y77024D01*
X39076Y77124D01*
X38900Y77159D01*
X38724Y77124D01*
X38576Y77024D01*
X38476Y76876D01*
X38441Y76700D01*
X38476Y76524D01*
X38576Y76376D01*
X38724Y76276D01*
X38900Y76241D01*
X38967Y76255D01*
X40843Y74378D01*
Y73001D01*
X40693Y72921D01*
X40651Y72949D01*
X40475Y72984D01*
X40299Y72949D01*
X40151Y72849D01*
X40051Y72701D01*
X40016Y72525D01*
X40051Y72349D01*
X40151Y72201D01*
X40299Y72101D01*
X40475Y72066D01*
X40651Y72101D01*
X40693Y72130D01*
X40843Y72049D01*
Y71186D01*
X40863Y71083D01*
X40921Y70996D01*
X41532Y70386D01*
Y70004D01*
X41382Y69989D01*
X41372Y70040D01*
X41314Y70127D01*
X39235Y72206D01*
X39246Y72262D01*
X39211Y72438D01*
X39112Y72587D01*
X38963Y72686D01*
X38787Y72721D01*
X38731Y72710D01*
X37618Y73823D01*
Y75188D01*
X37674Y75226D01*
X37774Y75374D01*
X37809Y75550D01*
X37774Y75726D01*
X37674Y75874D01*
X37526Y75974D01*
X37350Y76009D01*
X37174Y75974D01*
X37026Y75874D01*
X37020Y75866D01*
X36870Y75912D01*
Y77650D01*
X36850Y77752D01*
X36792Y77839D01*
X36770Y77861D01*
Y78071D01*
X36809Y78118D01*
X36961Y78161D01*
X37386Y77736D01*
D02*
G37*
G36*
X35157Y77044D02*
Y76536D01*
X34661Y76039D01*
X34603Y75952D01*
X34582Y75850D01*
Y73417D01*
X34568Y73405D01*
X34432Y73350D01*
X34326Y73422D01*
X34150Y73457D01*
X34070Y73441D01*
X33920Y73552D01*
Y75892D01*
X34937Y76908D01*
X34995Y76995D01*
X35007Y77058D01*
X35157Y77044D01*
D02*
G37*
G36*
X27605Y73917D02*
X27591Y73850D01*
X27626Y73674D01*
X27726Y73526D01*
X27793Y73480D01*
X27821Y73296D01*
X26241Y71716D01*
X26237Y71715D01*
X26056Y71743D01*
X26049Y71754D01*
X24696Y73107D01*
X24758Y73257D01*
X24913D01*
X24951Y73201D01*
X25099Y73101D01*
X25275Y73066D01*
X25451Y73101D01*
X25599Y73201D01*
X25699Y73349D01*
X25734Y73525D01*
X25699Y73701D01*
X25599Y73849D01*
X25451Y73949D01*
X25275Y73984D01*
X25099Y73949D01*
X24951Y73849D01*
X24913Y73793D01*
X21374D01*
X21272Y73772D01*
X21185Y73714D01*
X20915Y73444D01*
X20848Y73457D01*
X20673Y73423D01*
X20524Y73323D01*
X20424Y73174D01*
X20389Y72999D01*
X20408Y72903D01*
X20309Y72757D01*
X20297Y72751D01*
X20213Y72740D01*
X19895Y73058D01*
X19909Y73125D01*
X19874Y73301D01*
X19774Y73449D01*
X19626Y73549D01*
X19450Y73584D01*
X19274Y73549D01*
X19126Y73449D01*
X19026Y73301D01*
X18991Y73125D01*
X19026Y72949D01*
X19126Y72801D01*
X19274Y72701D01*
X19450Y72666D01*
X19517Y72680D01*
X19904Y72293D01*
X19842Y72143D01*
X18736D01*
X16762Y74117D01*
X16794Y74297D01*
X16874Y74351D01*
X16912Y74407D01*
X27114D01*
X27605Y73917D01*
D02*
G37*
G36*
X37082Y75105D02*
Y73713D01*
X37103Y73610D01*
X37161Y73523D01*
X38344Y72340D01*
X38329Y72262D01*
X38364Y72087D01*
X38463Y71938D01*
X38612Y71839D01*
X38787Y71804D01*
X38865Y71819D01*
X40857Y69827D01*
Y66737D01*
X40801Y66699D01*
X40701Y66551D01*
X40666Y66375D01*
X40701Y66199D01*
X40801Y66051D01*
X40949Y65951D01*
X41125Y65916D01*
X41301Y65951D01*
X41382Y66006D01*
X41532Y65926D01*
Y63550D01*
X41553Y63448D01*
X41611Y63361D01*
X42191Y62780D01*
X42190Y62775D01*
X42026Y62727D01*
X40845Y63908D01*
X40859Y63975D01*
X40824Y64151D01*
X40724Y64299D01*
X40576Y64399D01*
X40400Y64434D01*
X40224Y64399D01*
X40076Y64299D01*
X39976Y64151D01*
X39941Y63975D01*
X39976Y63799D01*
X40076Y63651D01*
X40224Y63551D01*
X40400Y63516D01*
X40467Y63530D01*
X41890Y62106D01*
X41833Y61968D01*
X39298D01*
X38908Y62358D01*
X38921Y62425D01*
X38886Y62601D01*
X38787Y62749D01*
X38638Y62849D01*
X38462Y62884D01*
X38287Y62849D01*
X38138Y62749D01*
X38039Y62601D01*
X38004Y62425D01*
X38039Y62249D01*
X38138Y62101D01*
X38287Y62001D01*
X38462Y61966D01*
X38529Y61980D01*
X38720Y61789D01*
X38721Y61748D01*
X38686Y61611D01*
X38638Y61579D01*
X38604Y61545D01*
X38537Y61559D01*
X38362Y61524D01*
X38213Y61424D01*
X38114Y61276D01*
X38080Y61109D01*
X38038Y61089D01*
X37933Y61061D01*
X36259Y62735D01*
X36274Y62884D01*
X36316Y62912D01*
X36415Y63061D01*
X36450Y63237D01*
X36437Y63304D01*
X37146Y64013D01*
X37220Y63993D01*
X37296Y63951D01*
X37326Y63799D01*
X37426Y63651D01*
X37574Y63551D01*
X37750Y63516D01*
X37926Y63551D01*
X38074Y63651D01*
X38174Y63799D01*
X38209Y63975D01*
X38174Y64151D01*
X38074Y64299D01*
X37926Y64399D01*
X37774Y64429D01*
X37732Y64505D01*
X37712Y64579D01*
X37839Y64706D01*
X37897Y64793D01*
X37918Y64895D01*
Y67488D01*
X37974Y67526D01*
X38074Y67674D01*
X38088Y67746D01*
X38251Y67796D01*
X38336Y67711D01*
X38423Y67653D01*
X38525Y67632D01*
X39463D01*
X39501Y67576D01*
X39649Y67476D01*
X39825Y67441D01*
X40001Y67476D01*
X40149Y67576D01*
X40249Y67724D01*
X40284Y67900D01*
X40249Y68076D01*
X40149Y68224D01*
Y68326D01*
X40249Y68474D01*
X40284Y68650D01*
X40249Y68826D01*
X40149Y68974D01*
X40001Y69074D01*
X39825Y69109D01*
X39649Y69074D01*
X39501Y68974D01*
X39401Y68826D01*
X39366Y68650D01*
X39401Y68474D01*
X39501Y68326D01*
Y68302D01*
X39374Y68168D01*
X38636D01*
X38432Y68372D01*
Y69236D01*
X38411Y69339D01*
X38353Y69426D01*
X37792Y69987D01*
X37708Y70191D01*
X37567Y70374D01*
X37385Y70514D01*
X37180Y70599D01*
X35118Y72661D01*
Y73492D01*
X35268Y73554D01*
X35480Y73342D01*
X35466Y73275D01*
X35501Y73099D01*
X35601Y72951D01*
X35749Y72851D01*
X35925Y72816D01*
X36101Y72851D01*
X36191Y72912D01*
X36353Y72860D01*
X36355Y72858D01*
X36413Y72771D01*
X37441Y71743D01*
X37438Y71574D01*
X37339Y71426D01*
X37304Y71250D01*
X37339Y71074D01*
X37438Y70926D01*
X37587Y70826D01*
X37763Y70791D01*
X37938Y70826D01*
X38087Y70926D01*
X38186Y71074D01*
X38221Y71250D01*
X38186Y71426D01*
X38087Y71574D01*
X38030Y71612D01*
Y71800D01*
X38010Y71902D01*
X37952Y71989D01*
X36870Y73071D01*
Y75076D01*
X37020Y75152D01*
X37082Y75105D01*
D02*
G37*
G36*
X43430Y71942D02*
X43416Y71875D01*
X43451Y71699D01*
X43551Y71551D01*
X43699Y71451D01*
X43875Y71416D01*
X43942Y71430D01*
X44105Y71267D01*
X44192Y71209D01*
X44294Y71188D01*
X44670D01*
X45782Y70076D01*
Y68933D01*
X45632Y68888D01*
X45574Y68974D01*
X45426Y69074D01*
X45250Y69109D01*
X45074Y69074D01*
X44926Y68974D01*
X44826Y68826D01*
X44791Y68650D01*
X44826Y68474D01*
X44926Y68326D01*
X45074Y68226D01*
X45250Y68191D01*
X45426Y68226D01*
X45574Y68326D01*
X45632Y68412D01*
X45782Y68367D01*
Y66637D01*
X45726Y66599D01*
X45626Y66451D01*
X45591Y66275D01*
X45626Y66099D01*
X45726Y65951D01*
X45874Y65851D01*
X46050Y65816D01*
X46226Y65851D01*
X46374Y65951D01*
X46474Y66099D01*
X46509Y66275D01*
X46474Y66451D01*
X46374Y66599D01*
X46318Y66637D01*
Y67264D01*
X46468Y67363D01*
X46575Y67341D01*
X46655Y67357D01*
X46805Y67246D01*
Y63967D01*
X46386Y63548D01*
X46210Y63584D01*
X46149Y63674D01*
X46001Y63774D01*
X45825Y63809D01*
X45758Y63795D01*
X43550Y66003D01*
Y69737D01*
X43700Y69817D01*
X43724Y69801D01*
X43900Y69766D01*
X44076Y69801D01*
X44224Y69901D01*
X44324Y70049D01*
X44359Y70225D01*
X44324Y70401D01*
X44224Y70549D01*
X44076Y70649D01*
X43900Y70684D01*
X43831Y70670D01*
X43704Y70696D01*
X43668Y70779D01*
X43649Y70876D01*
X43549Y71024D01*
X43401Y71124D01*
X43225Y71159D01*
X43049Y71124D01*
X42901Y71024D01*
X42801Y70876D01*
X42795Y70846D01*
X42632Y70796D01*
X41943Y71486D01*
Y72288D01*
X41999Y72326D01*
X42099Y72474D01*
X42134Y72650D01*
X42099Y72826D01*
X41999Y72974D01*
X41851Y73074D01*
X41675Y73109D01*
X41528Y73080D01*
X41378Y73160D01*
Y73781D01*
X41528Y73843D01*
X43430Y71942D01*
D02*
G37*
G36*
X36398Y70624D02*
X36385Y70425D01*
X36319Y70374D01*
X36179Y70191D01*
X36091Y69978D01*
X36061Y69750D01*
X36091Y69522D01*
X36179Y69309D01*
X36250Y69216D01*
Y67911D01*
X35849Y67510D01*
X35738Y67366D01*
X35698Y67268D01*
X35669Y67199D01*
X35646Y67019D01*
Y65555D01*
X35438Y65348D01*
X35321Y65443D01*
X35334Y65462D01*
X35369Y65638D01*
X35334Y65814D01*
X35235Y65962D01*
X35086Y66062D01*
X34910Y66097D01*
X34735Y66062D01*
X34586Y65962D01*
X34486Y65814D01*
X34452Y65638D01*
X34486Y65462D01*
X34586Y65314D01*
X34643Y65276D01*
Y63221D01*
X33577Y62156D01*
X31073D01*
X31035Y62212D01*
X30886Y62312D01*
X30710Y62347D01*
X30643Y62333D01*
X29864Y63113D01*
Y66586D01*
X30707Y67428D01*
X30845Y67371D01*
Y66685D01*
X30724Y66579D01*
X30700Y66584D01*
X30524Y66549D01*
X30376Y66449D01*
X30276Y66301D01*
X30241Y66125D01*
X30276Y65949D01*
X30376Y65801D01*
X30524Y65701D01*
X30700Y65666D01*
X30876Y65701D01*
X31024Y65801D01*
X31124Y65949D01*
X31159Y66125D01*
X31145Y66192D01*
X31302Y66349D01*
X31360Y66435D01*
X31380Y66538D01*
Y69998D01*
X32103Y70721D01*
X32285Y70690D01*
X32336Y70614D01*
X32485Y70514D01*
X32660Y70479D01*
X32807Y70508D01*
X32957Y70429D01*
Y65025D01*
X32978Y64923D01*
X33036Y64836D01*
X33282Y64589D01*
Y63516D01*
X33132Y63447D01*
X33036Y63512D01*
X32860Y63547D01*
X32685Y63512D01*
X32536Y63412D01*
X32436Y63264D01*
X32401Y63088D01*
X32436Y62912D01*
X32536Y62764D01*
X32685Y62664D01*
X32860Y62629D01*
X33036Y62664D01*
X33074Y62689D01*
X33226Y62726D01*
X33374Y62626D01*
X33550Y62591D01*
X33726Y62626D01*
X33874Y62726D01*
X33974Y62874D01*
X34009Y63050D01*
X33974Y63226D01*
X33874Y63374D01*
X33818Y63412D01*
Y64700D01*
X33797Y64802D01*
X33739Y64889D01*
X33493Y65136D01*
Y70931D01*
X33643Y71035D01*
X33737Y71016D01*
X33804Y71030D01*
X34743Y70091D01*
Y69084D01*
X34593Y69012D01*
X34501Y69074D01*
X34325Y69109D01*
X34149Y69074D01*
X34001Y68974D01*
X33901Y68826D01*
X33866Y68650D01*
X33901Y68474D01*
X34001Y68326D01*
X34149Y68226D01*
X34325Y68191D01*
X34501Y68226D01*
X34593Y68288D01*
X34743Y68216D01*
Y67550D01*
X34686Y67512D01*
X34586Y67364D01*
X34552Y67188D01*
X34586Y67012D01*
X34686Y66864D01*
X34835Y66764D01*
X35010Y66729D01*
X35186Y66764D01*
X35335Y66864D01*
X35434Y67012D01*
X35469Y67188D01*
X35434Y67364D01*
X35335Y67512D01*
X35278Y67550D01*
Y70202D01*
X35258Y70305D01*
X35200Y70391D01*
X34995Y70596D01*
X35048Y70756D01*
X35151Y70776D01*
X35299Y70876D01*
X35399Y71024D01*
X35434Y71200D01*
X35399Y71376D01*
X35328Y71482D01*
X35444Y71578D01*
X36398Y70624D01*
D02*
G37*
G36*
X23125Y68324D02*
X23124Y68323D01*
X22975Y68257D01*
X22876Y68324D01*
X22700Y68359D01*
X22524Y68324D01*
X22388Y68233D01*
X22327Y68247D01*
X22238Y68289D01*
Y69467D01*
X22218Y69570D01*
X22160Y69656D01*
X22052Y69764D01*
X21965Y69822D01*
X21862Y69843D01*
X21025D01*
Y70346D01*
X21361Y70682D01*
X23125D01*
Y68324D01*
D02*
G37*
G36*
X42705Y69967D02*
Y65612D01*
X42725Y65509D01*
X42783Y65423D01*
X44282Y63923D01*
Y63512D01*
X44226Y63474D01*
X44126Y63326D01*
X44091Y63150D01*
X44126Y62974D01*
X44128Y62972D01*
X44024Y62874D01*
X43876Y62974D01*
X43700Y63009D01*
X43524Y62974D01*
X43376Y62874D01*
X43323Y62796D01*
X43273Y62789D01*
X43152Y62809D01*
X43074Y62924D01*
X42926Y63024D01*
X42750Y63059D01*
X42683Y63045D01*
X42068Y63661D01*
Y70392D01*
X42218Y70454D01*
X42705Y69967D01*
D02*
G37*
G36*
X29329Y63002D02*
X29349Y62899D01*
X29407Y62812D01*
X30265Y61955D01*
X30252Y61888D01*
X30286Y61712D01*
X30386Y61564D01*
X30535Y61464D01*
X30626Y61446D01*
X30715Y61338D01*
X30718Y61286D01*
X30691Y61150D01*
X30713Y61041D01*
X30615Y60891D01*
X30306D01*
X30098Y61098D01*
X30109Y61150D01*
X30074Y61326D01*
X29974Y61474D01*
X29826Y61574D01*
X29650Y61609D01*
X29474Y61574D01*
X29326Y61474D01*
X29226Y61326D01*
X29191Y61150D01*
X29226Y60974D01*
X29326Y60826D01*
X29474Y60726D01*
X29577Y60706D01*
X29562Y60556D01*
X28661D01*
X28124Y61093D01*
X28198Y61231D01*
X28209Y61229D01*
X28384Y61264D01*
X28533Y61363D01*
X28633Y61512D01*
X28668Y61688D01*
X28633Y61864D01*
X28533Y62012D01*
X28384Y62112D01*
X28209Y62147D01*
X28142Y62133D01*
X27920Y62355D01*
Y63125D01*
X29329D01*
Y63002D01*
D02*
G37*
G36*
X23234Y62400D02*
Y60547D01*
X23254Y60444D01*
X23312Y60358D01*
X23415Y60255D01*
X23402Y60188D01*
X23407Y60162D01*
X23303Y60026D01*
X23182Y60018D01*
X22204Y60996D01*
X22232Y61180D01*
X22299Y61226D01*
X22399Y61374D01*
X22434Y61550D01*
X22399Y61726D01*
X22299Y61874D01*
X22243Y61912D01*
Y63195D01*
X22381Y63252D01*
X23234Y62400D01*
D02*
G37*
G36*
X41451Y59221D02*
X41387Y59067D01*
X41357Y58839D01*
X41387Y58610D01*
X41475Y58398D01*
X41616Y58215D01*
X41799Y58075D01*
X42011Y57986D01*
X42240Y57956D01*
X42468Y57986D01*
X42681Y58075D01*
X42864Y58215D01*
X43004Y58398D01*
X43011Y58414D01*
X43014Y58415D01*
X43190Y58380D01*
X43365Y58415D01*
X43514Y58514D01*
X43552Y58571D01*
X49086D01*
X49457Y58201D01*
Y56529D01*
X51507D01*
Y57286D01*
X51741D01*
X51969Y57059D01*
X52056Y57001D01*
X52158Y56980D01*
X52338D01*
X52389Y56830D01*
X52299Y56761D01*
X52135Y56547D01*
X52031Y56298D01*
X51996Y56030D01*
X52031Y55762D01*
X52135Y55513D01*
X52299Y55299D01*
X52513Y55135D01*
X52762Y55031D01*
X53030Y54996D01*
X53298Y55031D01*
X53547Y55135D01*
X53761Y55299D01*
X53925Y55513D01*
X54029Y55762D01*
X54064Y56030D01*
X54029Y56298D01*
X53925Y56547D01*
X53761Y56761D01*
X53671Y56830D01*
X53722Y56980D01*
X54878D01*
X54929Y56830D01*
X54839Y56761D01*
X54675Y56547D01*
X54571Y56298D01*
X54536Y56030D01*
X54571Y55762D01*
X54675Y55513D01*
X54839Y55299D01*
X55053Y55135D01*
X55234Y55060D01*
X55214Y54906D01*
X55191Y54903D01*
X54839Y54757D01*
X54536Y54524D01*
X54303Y54221D01*
X54157Y53869D01*
X54154Y53846D01*
X54000Y53826D01*
X53925Y54007D01*
X53761Y54221D01*
X53547Y54385D01*
X53298Y54489D01*
X53030Y54524D01*
X52762Y54489D01*
X52513Y54385D01*
X52299Y54221D01*
X52135Y54007D01*
X52031Y53758D01*
X51996Y53490D01*
X52031Y53222D01*
X52135Y52973D01*
X52299Y52759D01*
X52513Y52595D01*
X52762Y52491D01*
X53030Y52456D01*
X53298Y52491D01*
X53547Y52595D01*
X53761Y52759D01*
X53925Y52973D01*
X54000Y53154D01*
X54154Y53134D01*
X54157Y53111D01*
X54303Y52759D01*
X54536Y52456D01*
X54720Y52315D01*
Y52125D01*
X54536Y51984D01*
X54303Y51681D01*
X54157Y51329D01*
X54154Y51306D01*
X54000Y51286D01*
X53925Y51467D01*
X53761Y51681D01*
X53547Y51845D01*
X53298Y51949D01*
X53030Y51984D01*
X52762Y51949D01*
X52513Y51845D01*
X52299Y51681D01*
X52135Y51467D01*
X52031Y51218D01*
X51996Y50950D01*
X52031Y50682D01*
X52135Y50433D01*
X52299Y50219D01*
X52513Y50055D01*
X52762Y49951D01*
X53030Y49916D01*
X53298Y49951D01*
X53547Y50055D01*
X53761Y50219D01*
X53925Y50433D01*
X54000Y50614D01*
X54154Y50594D01*
X54157Y50571D01*
X54303Y50219D01*
X54536Y49916D01*
X54839Y49683D01*
X55191Y49537D01*
X55214Y49534D01*
X55234Y49380D01*
X55053Y49305D01*
X54839Y49141D01*
X54675Y48927D01*
X54571Y48678D01*
X54536Y48410D01*
X54571Y48142D01*
X54675Y47893D01*
X54839Y47679D01*
X55053Y47515D01*
X55302Y47411D01*
X55570Y47376D01*
X55838Y47411D01*
X56087Y47515D01*
X56301Y47679D01*
X56465Y47893D01*
X56569Y48142D01*
X56708Y48107D01*
Y42917D01*
X55773Y41982D01*
X55706Y41995D01*
X55530Y41960D01*
X55381Y41861D01*
X55282Y41712D01*
X55272Y41663D01*
X55105Y41590D01*
X55086Y41601D01*
X55064Y41714D01*
X54964Y41863D01*
X54815Y41963D01*
X54640Y41998D01*
X54464Y41963D01*
X54315Y41863D01*
X54216Y41714D01*
X54181Y41539D01*
X54216Y41363D01*
X54315Y41214D01*
X54464Y41115D01*
X54640Y41080D01*
X54707Y41093D01*
X55100Y40700D01*
X55111Y40590D01*
X54441Y39921D01*
X54326Y39906D01*
X54113Y39818D01*
X53930Y39677D01*
X53790Y39495D01*
X53702Y39282D01*
X53672Y39053D01*
X53702Y38825D01*
X53790Y38612D01*
X53930Y38429D01*
X54113Y38289D01*
X54326Y38201D01*
X54554Y38171D01*
X54783Y38201D01*
X54866Y38235D01*
X54929Y38199D01*
X54954Y38012D01*
X53676Y36735D01*
X52005D01*
Y34685D01*
X52507D01*
X52536Y34535D01*
X52299Y34437D01*
X51996Y34204D01*
X51763Y33901D01*
X51657Y33644D01*
X51507Y33674D01*
Y34195D01*
X49457D01*
Y32732D01*
X49307Y32657D01*
X49241Y32707D01*
Y37818D01*
X49391Y37891D01*
X49457Y37840D01*
Y36209D01*
X51507D01*
Y38259D01*
X49836D01*
X49495Y38599D01*
X49558Y38749D01*
X51507D01*
Y40799D01*
X49457D01*
Y39001D01*
X49307Y38921D01*
X49280Y38939D01*
Y45330D01*
X49430Y45410D01*
X49457Y45392D01*
Y43829D01*
X51507D01*
Y45879D01*
X49836D01*
X49496Y46219D01*
X49558Y46369D01*
X51507D01*
Y48419D01*
X49457D01*
Y47662D01*
X48688D01*
X43107Y53244D01*
Y56340D01*
X43086Y56442D01*
X43028Y56529D01*
X40493Y59064D01*
X40551Y59203D01*
X41104D01*
X41211Y59224D01*
X41302Y59285D01*
X41324Y59306D01*
X41451Y59221D01*
D02*
G37*
G36*
X20383Y49082D02*
X20366Y49000D01*
X20383Y48918D01*
X20272Y48768D01*
X20087D01*
X20049Y48824D01*
X19901Y48924D01*
X19725Y48959D01*
X19549Y48924D01*
X19401Y48824D01*
X19301Y48676D01*
X19266Y48500D01*
X19301Y48324D01*
X19401Y48176D01*
X19549Y48076D01*
X19725Y48041D01*
X19901Y48076D01*
X20049Y48176D01*
X20087Y48232D01*
X20258D01*
X20346Y48113D01*
X20301Y47972D01*
X20225Y47939D01*
X20149Y47924D01*
X20001Y47824D01*
X19901Y47676D01*
X19866Y47500D01*
X19901Y47324D01*
X20001Y47176D01*
X20149Y47076D01*
X20225Y47061D01*
X20301Y47028D01*
X20346Y46887D01*
X20258Y46768D01*
X19925D01*
Y46900D01*
X18850D01*
Y46925D01*
X18300D01*
Y46425D01*
Y45925D01*
X18850D01*
Y45950D01*
X19032D01*
Y45663D01*
X18860Y45491D01*
X14634D01*
X14529Y45595D01*
Y45848D01*
X14509Y45950D01*
X14476Y46000D01*
X14531Y46150D01*
X15575D01*
Y46472D01*
X15925D01*
Y46150D01*
X17275D01*
Y47007D01*
X17911Y47643D01*
X18050Y47586D01*
Y47190D01*
X18450D01*
Y47840D01*
X18550D01*
Y47940D01*
X19050D01*
Y48490D01*
X19025D01*
Y49036D01*
X19221Y49232D01*
X20272D01*
X20383Y49082D01*
D02*
G37*
G36*
X15317Y44805D02*
X15264Y44726D01*
X15229Y44550D01*
X15264Y44374D01*
X15363Y44226D01*
X15512Y44126D01*
X15688Y44091D01*
X15816Y44117D01*
X16050D01*
Y43697D01*
X15943Y43609D01*
X15767Y43574D01*
X15618Y43474D01*
X15519Y43326D01*
X15484Y43150D01*
X15519Y42974D01*
X15618Y42826D01*
X15767Y42726D01*
X15943Y42691D01*
X16050Y42603D01*
Y42550D01*
X17494D01*
Y42546D01*
X18656D01*
Y42550D01*
X19901D01*
X19901Y42549D01*
X20001Y42401D01*
X20149Y42301D01*
X20325Y42266D01*
X20424Y42286D01*
X20498Y42148D01*
X20325Y41975D01*
X20175Y42037D01*
Y42096D01*
X19100D01*
Y42121D01*
X18550D01*
Y41621D01*
X18450D01*
Y41521D01*
X17800D01*
Y41168D01*
X16722D01*
X16168Y41722D01*
X16077Y41783D01*
X15970Y41804D01*
X14985D01*
Y44120D01*
X13004D01*
X12947Y44259D01*
X13644Y44955D01*
X15237D01*
X15317Y44805D01*
D02*
G37*
G36*
X40146Y33383D02*
Y32547D01*
X39307D01*
Y32252D01*
X38957D01*
Y32547D01*
X38588D01*
Y32593D01*
X38566Y32700D01*
X38505Y32791D01*
X38235Y33061D01*
X38293Y33200D01*
X38950D01*
Y33600D01*
X38300D01*
Y33700D01*
X38200D01*
Y34200D01*
X37650D01*
Y34175D01*
X36575D01*
Y34138D01*
X36425Y34076D01*
X35780Y34721D01*
Y35009D01*
X35930Y35107D01*
X36000Y35093D01*
X36137Y35120D01*
X36252Y35198D01*
X36330Y35313D01*
X36334Y35333D01*
X38197D01*
X40146Y33383D01*
D02*
G37*
G36*
X16408Y40689D02*
X16499Y40628D01*
X16606Y40607D01*
X16606Y40607D01*
X17400D01*
Y39213D01*
X17526D01*
X17548Y39048D01*
X17636Y38835D01*
X17776Y38652D01*
X17792Y38640D01*
X17800Y38493D01*
X17800Y38493D01*
X17800Y38493D01*
Y38093D01*
X18450D01*
Y37993D01*
X18550D01*
Y37493D01*
X19100D01*
Y37518D01*
X20175D01*
Y37669D01*
X21123D01*
Y35333D01*
X23259D01*
X23269Y35254D01*
X23307Y35164D01*
Y33181D01*
X23157Y33136D01*
X23003Y33254D01*
X22790Y33343D01*
X22561Y33373D01*
X22333Y33343D01*
X22120Y33254D01*
X21937Y33114D01*
X21797Y32931D01*
X21709Y32719D01*
X21696Y32624D01*
X21180Y32108D01*
X16921D01*
X16821Y32258D01*
X16847Y32321D01*
X16871Y32497D01*
X16847Y32674D01*
X16779Y32838D01*
X16671Y32979D01*
X16530Y33087D01*
X16366Y33155D01*
X16190Y33178D01*
X16014Y33155D01*
X15849Y33087D01*
X15708Y32979D01*
X15600Y32838D01*
X15532Y32674D01*
X15509Y32497D01*
X15532Y32321D01*
X15558Y32258D01*
X15458Y32108D01*
X10565D01*
Y35421D01*
X10704Y35479D01*
X11758Y34424D01*
X11845Y34366D01*
X11947Y34346D01*
X14054D01*
X14092Y34289D01*
X14241Y34190D01*
X14417Y34155D01*
X14592Y34190D01*
X14741Y34289D01*
X14840Y34438D01*
X14875Y34614D01*
X14840Y34789D01*
X14741Y34938D01*
X14592Y35038D01*
X14417Y35072D01*
X14241Y35038D01*
X14092Y34938D01*
X14054Y34881D01*
X12058D01*
X8124Y38815D01*
X8180Y38954D01*
X14985Y39055D01*
Y41244D01*
X15853D01*
X16408Y40689D01*
D02*
G37*
G36*
X36207Y33502D02*
X36298Y33441D01*
X36405Y33420D01*
X36575D01*
Y33225D01*
X37278D01*
X37818Y32685D01*
X37761Y32547D01*
X37657D01*
Y31197D01*
X37979D01*
Y30847D01*
X37657D01*
Y29940D01*
X37457D01*
Y30547D01*
X35957D01*
X35957Y30547D01*
X35882Y30572D01*
X35882Y30572D01*
X35816Y30572D01*
X35207D01*
Y29672D01*
Y28772D01*
X35816D01*
X35882Y28772D01*
X35882Y28772D01*
X35957Y28797D01*
X35957Y28797D01*
X37457D01*
Y29404D01*
X37807D01*
X37910Y29425D01*
X37997Y29483D01*
X38011Y29497D01*
X38957D01*
Y30847D01*
X38636D01*
Y31197D01*
X38957D01*
Y31691D01*
X39307D01*
Y31397D01*
X39307D01*
Y31347D01*
X39307D01*
Y30197D01*
X39540D01*
Y28859D01*
X39560Y28756D01*
X39618Y28669D01*
X41442Y26845D01*
X41529Y26787D01*
X41631Y26767D01*
X41784D01*
X41822Y26710D01*
X41971Y26611D01*
X42147Y26576D01*
X42322Y26611D01*
X42471Y26710D01*
X42554Y26833D01*
X42673Y26820D01*
X42704Y26809D01*
Y24015D01*
X40753Y22064D01*
X40695Y21978D01*
X40674Y21875D01*
Y20872D01*
X31670Y11867D01*
X31531Y11925D01*
Y13846D01*
X31681Y13891D01*
X31692Y13875D01*
X31841Y13775D01*
X32017Y13740D01*
X32192Y13775D01*
X32341Y13875D01*
X32441Y14023D01*
X32476Y14199D01*
X32441Y14375D01*
X32341Y14523D01*
X32192Y14623D01*
X32017Y14658D01*
X31906Y14782D01*
Y22627D01*
X32056Y22672D01*
X32082Y22634D01*
X32231Y22535D01*
X32406Y22500D01*
X32424Y22504D01*
X32574Y22381D01*
Y21959D01*
X33574D01*
Y22509D01*
X33549D01*
Y22678D01*
X33807D01*
X33913Y22572D01*
Y22484D01*
X33988Y22365D01*
Y22334D01*
Y21659D01*
X34988D01*
X35988D01*
Y22365D01*
X36063Y22484D01*
X36063Y22578D01*
Y23534D01*
X36006D01*
Y24168D01*
X36149Y24312D01*
X36789D01*
X36827Y24255D01*
X36975Y24155D01*
X37151Y24120D01*
X37327Y24155D01*
X37476Y24255D01*
X37575Y24404D01*
X37610Y24579D01*
X37575Y24755D01*
X37476Y24904D01*
X37327Y25003D01*
X37151Y25038D01*
X36975Y25003D01*
X36827Y24904D01*
X36789Y24847D01*
X36038D01*
X35936Y24826D01*
X35849Y24768D01*
X35549Y24469D01*
X35491Y24382D01*
X35374Y24322D01*
X35198Y24357D01*
X35023Y24322D01*
X34874Y24222D01*
X34774Y24074D01*
X34739Y23898D01*
X34774Y23722D01*
X34800Y23684D01*
X34720Y23534D01*
X33913D01*
Y23341D01*
X33549D01*
Y23584D01*
X32599D01*
Y23532D01*
X32449Y23409D01*
X32406Y23418D01*
X32231Y23383D01*
X32082Y23283D01*
X32056Y23245D01*
X31906Y23291D01*
Y25595D01*
X33189Y26878D01*
X33247Y26965D01*
X33268Y27067D01*
Y30097D01*
X33440D01*
Y29106D01*
X33460Y29003D01*
X33518Y28916D01*
X34715Y27719D01*
X34802Y27661D01*
X34904Y27641D01*
X37130D01*
X37740Y27031D01*
X37727Y26964D01*
X37762Y26788D01*
X37861Y26639D01*
X38010Y26540D01*
X38186Y26505D01*
X38361Y26540D01*
X38510Y26639D01*
X38610Y26788D01*
X38645Y26964D01*
X38610Y27139D01*
X38510Y27288D01*
X38361Y27388D01*
X38186Y27422D01*
X38119Y27409D01*
X37430Y28098D01*
X37343Y28156D01*
X37241Y28176D01*
X35015D01*
X34558Y28633D01*
X34615Y28772D01*
X35007D01*
Y29672D01*
Y30572D01*
X34332D01*
X34207Y30632D01*
Y31247D01*
X34207D01*
Y31297D01*
X34207D01*
Y31591D01*
X34357D01*
Y30997D01*
X35793D01*
X35932Y30972D01*
X35997Y30972D01*
X36607D01*
Y31872D01*
Y32772D01*
X35997D01*
X35932Y32772D01*
X35793Y32747D01*
X35405D01*
Y33225D01*
X35625D01*
Y33887D01*
X35764Y33945D01*
X36207Y33502D01*
D02*
G37*
G36*
X30686Y25655D02*
Y23981D01*
X30536Y23936D01*
X30505Y23982D01*
X30356Y24082D01*
X30180Y24117D01*
X30005Y24082D01*
X29856Y23982D01*
X29756Y23833D01*
X29721Y23658D01*
X29744Y23546D01*
X28929Y22732D01*
X28862Y22745D01*
X28687Y22710D01*
X28538Y22611D01*
X28438Y22462D01*
X28403Y22286D01*
X28438Y22111D01*
X28538Y21962D01*
X28687Y21862D01*
X28862Y21828D01*
X29038Y21862D01*
X29187Y21962D01*
X29286Y22111D01*
X29321Y22286D01*
X29308Y22353D01*
X30158Y23204D01*
X30180Y23199D01*
X30356Y23234D01*
X30449Y23116D01*
X29922Y22589D01*
X29864Y22502D01*
X29844Y22399D01*
Y16275D01*
X29086D01*
Y14225D01*
X30996D01*
Y13474D01*
X30854Y13426D01*
X30842Y13441D01*
X30628Y13606D01*
X30379Y13709D01*
X30111Y13744D01*
X29844Y13709D01*
X29594Y13606D01*
X29380Y13441D01*
X29216Y13227D01*
X29113Y12978D01*
X29077Y12710D01*
X29113Y12443D01*
X29216Y12193D01*
X29380Y11979D01*
X29594Y11815D01*
X29844Y11712D01*
X30111Y11676D01*
X30379Y11712D01*
X30628Y11815D01*
X30842Y11979D01*
X30854Y11994D01*
X30996Y11946D01*
Y11632D01*
X29816Y10451D01*
X29458D01*
X29420Y10508D01*
X29271Y10608D01*
X29096Y10643D01*
X28920Y10608D01*
X28771Y10508D01*
X28672Y10359D01*
X28637Y10184D01*
X28666Y10035D01*
X28587Y9885D01*
X27110D01*
X27053Y10024D01*
X28833Y11804D01*
X28891Y11891D01*
X28911Y11994D01*
Y14178D01*
X28891Y14280D01*
X28833Y14367D01*
X28467Y14733D01*
X28570Y14983D01*
X28605Y15250D01*
X28570Y15518D01*
X28467Y15767D01*
X28302Y15981D01*
X28088Y16146D01*
X27839Y16249D01*
Y23004D01*
X30547Y25713D01*
X30686Y25655D01*
D02*
G37*
%LPC*%
G36*
X32700Y99175D02*
X32100D01*
Y97950D01*
X32700D01*
Y99175D01*
D02*
G37*
G36*
X31900D02*
X31300D01*
Y97950D01*
X31900D01*
Y99175D01*
D02*
G37*
G36*
X25700D02*
X25100D01*
Y97950D01*
X25700D01*
Y99175D01*
D02*
G37*
G36*
X32700Y97750D02*
X32100D01*
Y96525D01*
X32700D01*
Y97750D01*
D02*
G37*
G36*
X31900D02*
X31300D01*
Y96525D01*
X31900D01*
Y97750D01*
D02*
G37*
G36*
X25700Y97750D02*
X25100D01*
Y96525D01*
X25700D01*
Y97750D01*
D02*
G37*
G36*
X15778Y96307D02*
X15378D01*
Y95757D01*
X15778D01*
Y96307D01*
D02*
G37*
G36*
X15178D02*
X14778D01*
Y95757D01*
X15178D01*
Y96307D01*
D02*
G37*
G36*
X13000Y96250D02*
X12600D01*
Y95700D01*
X13000D01*
Y96250D01*
D02*
G37*
G36*
X12400D02*
X12000D01*
Y95700D01*
X12400D01*
Y96250D01*
D02*
G37*
G36*
X43338Y93938D02*
X43088D01*
Y93538D01*
X43338D01*
Y93938D01*
D02*
G37*
G36*
X17050Y94050D02*
X16650D01*
Y93500D01*
X17050D01*
Y94050D01*
D02*
G37*
G36*
X16450D02*
X16050D01*
Y93500D01*
X16450D01*
Y94050D01*
D02*
G37*
G36*
X32700Y93675D02*
X32100D01*
Y92450D01*
X32700D01*
Y93675D01*
D02*
G37*
G36*
X31900D02*
X31300D01*
Y92450D01*
X31900D01*
Y93675D01*
D02*
G37*
G36*
X25700D02*
X25100D01*
Y92450D01*
X25700D01*
Y93675D01*
D02*
G37*
G36*
X24900D02*
X24300D01*
Y92450D01*
X24900D01*
Y93675D01*
D02*
G37*
G36*
X40900Y92500D02*
X40525D01*
Y92100D01*
X40900D01*
Y92500D01*
D02*
G37*
G36*
X42350Y92525D02*
X42000D01*
Y92100D01*
X42350D01*
Y92525D01*
D02*
G37*
G36*
X24900Y92250D02*
X24300D01*
Y91942D01*
X24150Y91862D01*
X24113Y91886D01*
X23938Y91921D01*
X23762Y91886D01*
X23613Y91787D01*
X23514Y91638D01*
X23479Y91463D01*
X23514Y91287D01*
X23613Y91138D01*
X23762Y91039D01*
X23938Y91004D01*
X24113Y91039D01*
X24150Y91063D01*
X24300Y91025D01*
Y91025D01*
X24900D01*
Y92250D01*
D02*
G37*
G36*
X32700Y92250D02*
X32100D01*
Y91025D01*
X32700D01*
Y92250D01*
D02*
G37*
G36*
X31900D02*
X31300D01*
Y91025D01*
X31900D01*
Y92250D01*
D02*
G37*
G36*
X25700Y92250D02*
X25100D01*
Y91025D01*
X25700D01*
Y92250D01*
D02*
G37*
G36*
X32675Y90800D02*
X32125D01*
Y90400D01*
X32675D01*
Y90800D01*
D02*
G37*
G36*
X47850Y90325D02*
X47500D01*
Y89900D01*
X47850D01*
Y90325D01*
D02*
G37*
G36*
X47300D02*
X46950D01*
Y89900D01*
X47300D01*
Y90325D01*
D02*
G37*
G36*
X32675Y90200D02*
X32125D01*
Y89800D01*
X32675D01*
Y90200D01*
D02*
G37*
G36*
X55450Y90659D02*
X55274Y90624D01*
X55126Y90524D01*
X55026Y90376D01*
X54991Y90200D01*
X55026Y90024D01*
X55126Y89876D01*
X55274Y89776D01*
X55450Y89741D01*
X55626Y89776D01*
X55774Y89876D01*
X55874Y90024D01*
X55909Y90200D01*
X55874Y90376D01*
X55774Y90524D01*
X55626Y90624D01*
X55450Y90659D01*
D02*
G37*
G36*
X55670Y87556D02*
Y86610D01*
X56616D01*
X56593Y86784D01*
X56487Y87040D01*
X56319Y87259D01*
X56100Y87427D01*
X55844Y87533D01*
X55670Y87556D01*
D02*
G37*
G36*
X55470D02*
X55296Y87533D01*
X55040Y87427D01*
X54821Y87259D01*
X54653Y87040D01*
X54547Y86784D01*
X54524Y86610D01*
X55470D01*
Y87556D01*
D02*
G37*
G36*
Y86410D02*
X54524D01*
X54547Y86236D01*
X54653Y85980D01*
X54821Y85761D01*
X55040Y85593D01*
X55296Y85487D01*
X55470Y85464D01*
Y86410D01*
D02*
G37*
G36*
X56616D02*
X55670D01*
Y85464D01*
X55844Y85487D01*
X56100Y85593D01*
X56319Y85761D01*
X56487Y85980D01*
X56593Y86236D01*
X56616Y86410D01*
D02*
G37*
G36*
X55570Y85004D02*
X55302Y84969D01*
X55053Y84865D01*
X54839Y84701D01*
X54675Y84487D01*
X54571Y84238D01*
X54536Y83970D01*
X54571Y83702D01*
X54675Y83453D01*
X54839Y83239D01*
X55053Y83075D01*
X55302Y82971D01*
X55570Y82936D01*
X55838Y82971D01*
X56087Y83075D01*
X56301Y83239D01*
X56465Y83453D01*
X56569Y83702D01*
X56604Y83970D01*
X56569Y84238D01*
X56465Y84487D01*
X56301Y84701D01*
X56087Y84865D01*
X55838Y84969D01*
X55570Y85004D01*
D02*
G37*
G36*
X51550Y88009D02*
X51374Y87974D01*
X51226Y87874D01*
X51126Y87726D01*
X51091Y87550D01*
X51126Y87374D01*
X51226Y87226D01*
X51270Y87196D01*
Y85450D01*
X51291Y85343D01*
X51352Y85252D01*
X52129Y84474D01*
X52031Y84238D01*
X51996Y83970D01*
X52031Y83702D01*
X52135Y83453D01*
X52299Y83239D01*
X52513Y83075D01*
X52762Y82971D01*
X53030Y82936D01*
X53298Y82971D01*
X53547Y83075D01*
X53761Y83239D01*
X53925Y83453D01*
X54029Y83702D01*
X54064Y83970D01*
X54029Y84238D01*
X53925Y84487D01*
X53761Y84701D01*
X53547Y84865D01*
X53298Y84969D01*
X53030Y85004D01*
X52762Y84969D01*
X52526Y84871D01*
X52062Y85335D01*
X52124Y85485D01*
X54055D01*
Y87535D01*
X52145D01*
X52021Y87535D01*
X52009Y87550D01*
X51974Y87726D01*
X51874Y87874D01*
X51726Y87974D01*
X51550Y88009D01*
D02*
G37*
G36*
X52370Y79413D02*
X52281Y79401D01*
X52104Y79328D01*
X51953Y79212D01*
X51837Y79061D01*
X51764Y78884D01*
X51752Y78795D01*
X52370D01*
Y79413D01*
D02*
G37*
G36*
X11166Y75709D02*
X10991Y75674D01*
X10842Y75574D01*
X10795Y75505D01*
X9710D01*
X9683Y75545D01*
X9534Y75645D01*
X9358Y75680D01*
X9183Y75645D01*
X9034Y75545D01*
X8935Y75396D01*
X8900Y75221D01*
X8935Y75045D01*
X9034Y74896D01*
X9183Y74797D01*
X9358Y74762D01*
X9534Y74797D01*
X9683Y74896D01*
X9715Y74944D01*
X10829D01*
X10842Y74926D01*
X10991Y74826D01*
X11166Y74791D01*
X11342Y74826D01*
X11491Y74926D01*
X11590Y75074D01*
X11625Y75250D01*
X11590Y75426D01*
X11491Y75574D01*
X11342Y75674D01*
X11166Y75709D01*
D02*
G37*
G36*
X14875Y72609D02*
X14699Y72574D01*
X14551Y72474D01*
X14513Y72418D01*
X13762D01*
X13724Y72474D01*
X13576Y72574D01*
X13400Y72609D01*
X13224Y72574D01*
X13076Y72474D01*
X12976Y72326D01*
X12941Y72150D01*
X12976Y71974D01*
X13076Y71826D01*
X13224Y71726D01*
X13400Y71691D01*
X13576Y71726D01*
X13724Y71826D01*
X13762Y71882D01*
X14513D01*
X14551Y71826D01*
X14699Y71726D01*
X14875Y71691D01*
X15051Y71726D01*
X15199Y71826D01*
X15299Y71974D01*
X15334Y72150D01*
X15299Y72326D01*
X15199Y72474D01*
X15051Y72574D01*
X14875Y72609D01*
D02*
G37*
G36*
X55670Y72316D02*
Y71370D01*
X56616D01*
X56593Y71544D01*
X56487Y71800D01*
X56319Y72019D01*
X56100Y72187D01*
X55844Y72293D01*
X55670Y72316D01*
D02*
G37*
G36*
X55470D02*
X55296Y72293D01*
X55040Y72187D01*
X54821Y72019D01*
X54653Y71800D01*
X54547Y71544D01*
X54524Y71370D01*
X55470D01*
Y72316D01*
D02*
G37*
G36*
X15976Y69705D02*
X15538D01*
Y69430D01*
X15976D01*
Y69705D01*
D02*
G37*
G36*
X2322Y68016D02*
Y67070D01*
X3268D01*
X3245Y67244D01*
X3139Y67500D01*
X2971Y67719D01*
X2752Y67887D01*
X2496Y67993D01*
X2322Y68016D01*
D02*
G37*
G36*
X2122D02*
X1948Y67993D01*
X1692Y67887D01*
X1473Y67719D01*
X1305Y67500D01*
X1199Y67244D01*
X1176Y67070D01*
X2122D01*
Y68016D01*
D02*
G37*
G36*
X3268Y66870D02*
X2322D01*
Y65924D01*
X2496Y65947D01*
X2752Y66053D01*
X2971Y66221D01*
X3139Y66440D01*
X3245Y66696D01*
X3268Y66870D01*
D02*
G37*
G36*
X2122D02*
X1176D01*
X1199Y66696D01*
X1305Y66440D01*
X1473Y66221D01*
X1692Y66053D01*
X1948Y65947D01*
X2122Y65924D01*
Y66870D01*
D02*
G37*
G36*
X8700Y59569D02*
X8432Y59534D01*
X8183Y59430D01*
X7969Y59266D01*
X7805Y59052D01*
X7701Y58803D01*
X7666Y58535D01*
X7701Y58267D01*
X7805Y58018D01*
X7969Y57804D01*
X8183Y57640D01*
X8432Y57536D01*
X8700Y57501D01*
X8968Y57536D01*
X9217Y57640D01*
X9431Y57804D01*
X9595Y58018D01*
X9699Y58267D01*
X9734Y58535D01*
X9699Y58803D01*
X9595Y59052D01*
X9431Y59266D01*
X9217Y59430D01*
X8968Y59534D01*
X8700Y59569D01*
D02*
G37*
G36*
X19050Y52290D02*
X18650D01*
Y51740D01*
X19050D01*
Y52290D01*
D02*
G37*
G36*
X18450D02*
X18050D01*
Y51740D01*
X18450D01*
Y52290D01*
D02*
G37*
G36*
X3247Y51975D02*
X1197D01*
Y49925D01*
X3247D01*
Y51975D01*
D02*
G37*
G36*
Y49435D02*
X1197D01*
Y47385D01*
X3247D01*
Y49435D01*
D02*
G37*
G36*
X9916Y47800D02*
X9516D01*
Y47250D01*
X9916D01*
Y47800D01*
D02*
G37*
G36*
X9316D02*
X8916D01*
Y47250D01*
X9316D01*
Y47800D01*
D02*
G37*
G36*
X9957Y51080D02*
X8907D01*
Y50030D01*
X9957D01*
Y50249D01*
X11499D01*
X12045Y49703D01*
Y45725D01*
X12027Y45713D01*
X11927Y45564D01*
X11893Y45388D01*
X11927Y45213D01*
X12027Y45064D01*
X12176Y44964D01*
X12351Y44929D01*
X12527Y44964D01*
X12676Y45064D01*
X12775Y45213D01*
X12810Y45388D01*
X12775Y45564D01*
X12676Y45713D01*
X12657Y45725D01*
Y49830D01*
X12657Y49830D01*
X12634Y49947D01*
X12568Y50046D01*
X11842Y50772D01*
X11743Y50838D01*
X11626Y50861D01*
X11626Y50861D01*
X9957D01*
Y51080D01*
D02*
G37*
G36*
X3247Y41815D02*
X1197D01*
Y39765D01*
X3247D01*
Y41815D01*
D02*
G37*
G36*
X3272Y39300D02*
X2322D01*
Y38350D01*
X3272D01*
Y39300D01*
D02*
G37*
G36*
X2122D02*
X1172D01*
Y38350D01*
X2122D01*
Y39300D01*
D02*
G37*
G36*
X3272Y38150D02*
X2322D01*
Y37200D01*
X3272D01*
Y38150D01*
D02*
G37*
G36*
X2122D02*
X1172D01*
Y37200D01*
X2122D01*
Y38150D01*
D02*
G37*
G36*
X3272Y36760D02*
X2322D01*
Y35810D01*
X3272D01*
Y36760D01*
D02*
G37*
G36*
X2122D02*
X1172D01*
Y35810D01*
X2122D01*
Y36760D01*
D02*
G37*
G36*
X55670Y36756D02*
Y35810D01*
X56616D01*
X56593Y35984D01*
X56487Y36240D01*
X56319Y36459D01*
X56100Y36627D01*
X55844Y36733D01*
X55670Y36756D01*
D02*
G37*
G36*
X55470D02*
X55296Y36733D01*
X55040Y36627D01*
X54821Y36459D01*
X54653Y36240D01*
X54547Y35984D01*
X54524Y35810D01*
X55470D01*
Y36756D01*
D02*
G37*
G36*
X3272Y35610D02*
X2322D01*
Y34660D01*
X3272D01*
Y35610D01*
D02*
G37*
G36*
X2122D02*
X1172D01*
Y34660D01*
X2122D01*
Y35610D01*
D02*
G37*
G36*
X3247Y34195D02*
X1197D01*
Y32145D01*
X3247D01*
Y34195D01*
D02*
G37*
G36*
X55570Y26584D02*
X55302Y26549D01*
X55053Y26445D01*
X54839Y26281D01*
X54675Y26067D01*
X54571Y25818D01*
X54536Y25550D01*
X54571Y25282D01*
X54675Y25033D01*
X54839Y24819D01*
X55053Y24655D01*
X55302Y24551D01*
X55570Y24516D01*
X55838Y24551D01*
X56087Y24655D01*
X56301Y24819D01*
X56465Y25033D01*
X56569Y25282D01*
X56604Y25550D01*
X56569Y25818D01*
X56465Y26067D01*
X56301Y26281D01*
X56087Y26445D01*
X55838Y26549D01*
X55570Y26584D01*
D02*
G37*
G36*
Y24044D02*
X55302Y24009D01*
X55053Y23905D01*
X54839Y23741D01*
X54675Y23527D01*
X54571Y23278D01*
X54536Y23010D01*
X54571Y22742D01*
X54675Y22493D01*
X54839Y22279D01*
X55053Y22115D01*
X55302Y22011D01*
X55570Y21976D01*
X55838Y22011D01*
X56087Y22115D01*
X56301Y22279D01*
X56465Y22493D01*
X56569Y22742D01*
X56604Y23010D01*
X56569Y23278D01*
X56465Y23527D01*
X56301Y23741D01*
X56087Y23905D01*
X55838Y24009D01*
X55570Y24044D01*
D02*
G37*
G36*
X53030D02*
X52762Y24009D01*
X52513Y23905D01*
X52299Y23741D01*
X52135Y23527D01*
X52031Y23278D01*
X51996Y23010D01*
X52031Y22742D01*
X52135Y22493D01*
X52299Y22279D01*
X52513Y22115D01*
X52762Y22011D01*
X53030Y21976D01*
X53298Y22011D01*
X53547Y22115D01*
X53761Y22279D01*
X53925Y22493D01*
X54029Y22742D01*
X54064Y23010D01*
X54029Y23278D01*
X53925Y23527D01*
X53761Y23741D01*
X53547Y23905D01*
X53298Y24009D01*
X53030Y24044D01*
D02*
G37*
G36*
X3247Y21495D02*
X1197D01*
Y19445D01*
X3247D01*
Y21495D01*
D02*
G37*
G36*
Y18955D02*
X1197D01*
Y16905D01*
X3247D01*
Y18955D01*
D02*
G37*
G36*
X55570Y18964D02*
X55302Y18929D01*
X55053Y18825D01*
X54839Y18661D01*
X54675Y18447D01*
X54571Y18198D01*
X54536Y17930D01*
X54571Y17662D01*
X54675Y17413D01*
X54839Y17199D01*
X55053Y17035D01*
X55302Y16931D01*
X55570Y16896D01*
X55838Y16931D01*
X56087Y17035D01*
X56301Y17199D01*
X56465Y17413D01*
X56569Y17662D01*
X56604Y17930D01*
X56569Y18198D01*
X56465Y18447D01*
X56301Y18661D01*
X56087Y18825D01*
X55838Y18929D01*
X55570Y18964D01*
D02*
G37*
G36*
X3247Y16415D02*
X1197D01*
Y14365D01*
X3247D01*
Y16415D01*
D02*
G37*
G36*
X55570Y16424D02*
X55302Y16389D01*
X55053Y16285D01*
X54839Y16121D01*
X54675Y15907D01*
X54571Y15658D01*
X54536Y15390D01*
X54571Y15122D01*
X54675Y14873D01*
X54839Y14659D01*
X55053Y14495D01*
X55302Y14391D01*
X55570Y14356D01*
X55838Y14391D01*
X56087Y14495D01*
X56301Y14659D01*
X56465Y14873D01*
X56569Y15122D01*
X56604Y15390D01*
X56569Y15658D01*
X56465Y15907D01*
X56301Y16121D01*
X56087Y16285D01*
X55838Y16389D01*
X55570Y16424D01*
D02*
G37*
G36*
X53030D02*
X52762Y16389D01*
X52513Y16285D01*
X52299Y16121D01*
X52135Y15907D01*
X52031Y15658D01*
X51996Y15390D01*
X52031Y15122D01*
X52135Y14873D01*
X52299Y14659D01*
X52513Y14495D01*
X52762Y14391D01*
X53030Y14356D01*
X53298Y14391D01*
X53547Y14495D01*
X53761Y14659D01*
X53925Y14873D01*
X54029Y15122D01*
X54064Y15390D01*
X54029Y15658D01*
X53925Y15907D01*
X53761Y16121D01*
X53547Y16285D01*
X53298Y16389D01*
X53030Y16424D01*
D02*
G37*
G36*
X25031Y16284D02*
X24764Y16249D01*
X24514Y16146D01*
X24300Y15981D01*
X24136Y15767D01*
X24033Y15518D01*
X23997Y15250D01*
X24033Y14983D01*
X24136Y14733D01*
X24300Y14519D01*
X24514Y14355D01*
X24764Y14252D01*
X25031Y14216D01*
X25299Y14252D01*
X25548Y14355D01*
X25762Y14519D01*
X25927Y14733D01*
X26030Y14983D01*
X26065Y15250D01*
X26030Y15518D01*
X25927Y15767D01*
X25762Y15981D01*
X25548Y16146D01*
X25299Y16249D01*
X25031Y16284D01*
D02*
G37*
G36*
X53130Y13896D02*
Y12950D01*
X54076D01*
X54053Y13124D01*
X53947Y13380D01*
X53779Y13599D01*
X53560Y13767D01*
X53304Y13873D01*
X53130Y13896D01*
D02*
G37*
G36*
X52930D02*
X52756Y13873D01*
X52500Y13767D01*
X52281Y13599D01*
X52113Y13380D01*
X52007Y13124D01*
X51984Y12950D01*
X52930D01*
Y13896D01*
D02*
G37*
G36*
X25131Y13756D02*
Y12810D01*
X26077D01*
X26054Y12984D01*
X25948Y13240D01*
X25780Y13459D01*
X25561Y13627D01*
X25305Y13733D01*
X25131Y13756D01*
D02*
G37*
G36*
X24931Y13756D02*
X24757Y13733D01*
X24502Y13627D01*
X24282Y13459D01*
X24114Y13240D01*
X24008Y12984D01*
X23985Y12810D01*
X24931D01*
Y13756D01*
D02*
G37*
G36*
X55570Y13884D02*
X55302Y13849D01*
X55053Y13745D01*
X54839Y13581D01*
X54675Y13367D01*
X54571Y13118D01*
X54536Y12850D01*
X54571Y12582D01*
X54675Y12333D01*
X54839Y12119D01*
X55053Y11955D01*
X55302Y11851D01*
X55570Y11816D01*
X55838Y11851D01*
X56087Y11955D01*
X56301Y12119D01*
X56465Y12333D01*
X56569Y12582D01*
X56604Y12850D01*
X56569Y13118D01*
X56465Y13367D01*
X56301Y13581D01*
X56087Y13745D01*
X55838Y13849D01*
X55570Y13884D01*
D02*
G37*
G36*
X52930Y12750D02*
X51984D01*
X52007Y12576D01*
X52113Y12320D01*
X52281Y12101D01*
X52500Y11933D01*
X52756Y11827D01*
X52930Y11804D01*
Y12750D01*
D02*
G37*
G36*
X54076D02*
X53130D01*
Y11804D01*
X53304Y11827D01*
X53560Y11933D01*
X53779Y12101D01*
X53947Y12320D01*
X54053Y12576D01*
X54076Y12750D01*
D02*
G37*
G36*
X26077Y12610D02*
X25131D01*
Y11664D01*
X25305Y11687D01*
X25561Y11793D01*
X25780Y11961D01*
X25948Y12181D01*
X26054Y12436D01*
X26077Y12610D01*
D02*
G37*
G36*
X24931D02*
X23985D01*
X24008Y12436D01*
X24114Y12181D01*
X24282Y11961D01*
X24502Y11793D01*
X24757Y11687D01*
X24931Y11664D01*
Y12610D01*
D02*
G37*
G36*
X18670Y8016D02*
Y7070D01*
X19616D01*
X19593Y7244D01*
X19487Y7500D01*
X19319Y7719D01*
X19100Y7887D01*
X18844Y7993D01*
X18670Y8016D01*
D02*
G37*
G36*
X18470D02*
X18296Y7993D01*
X18040Y7887D01*
X17821Y7719D01*
X17653Y7500D01*
X17547Y7244D01*
X17524Y7070D01*
X18470D01*
Y8016D01*
D02*
G37*
G36*
X38890Y8004D02*
X38622Y7969D01*
X38373Y7865D01*
X38159Y7701D01*
X37995Y7487D01*
X37891Y7238D01*
X37856Y6970D01*
X37891Y6702D01*
X37995Y6453D01*
X38159Y6239D01*
X38373Y6075D01*
X38622Y5971D01*
X38890Y5936D01*
X39158Y5971D01*
X39407Y6075D01*
X39621Y6239D01*
X39785Y6453D01*
X39889Y6702D01*
X39924Y6970D01*
X39889Y7238D01*
X39785Y7487D01*
X39621Y7701D01*
X39407Y7865D01*
X39158Y7969D01*
X38890Y8004D01*
D02*
G37*
G36*
X19616Y6870D02*
X18670D01*
Y5924D01*
X18844Y5947D01*
X19100Y6053D01*
X19319Y6221D01*
X19487Y6440D01*
X19593Y6696D01*
X19616Y6870D01*
D02*
G37*
G36*
X18470D02*
X17524D01*
X17547Y6696D01*
X17653Y6440D01*
X17821Y6221D01*
X18040Y6053D01*
X18296Y5947D01*
X18470Y5924D01*
Y6870D01*
D02*
G37*
G36*
X41530Y5476D02*
Y4530D01*
X42476D01*
X42453Y4704D01*
X42347Y4960D01*
X42179Y5179D01*
X41960Y5347D01*
X41704Y5453D01*
X41530Y5476D01*
D02*
G37*
G36*
X41330D02*
X41156Y5453D01*
X40900Y5347D01*
X40681Y5179D01*
X40513Y4960D01*
X40407Y4704D01*
X40384Y4530D01*
X41330D01*
Y5476D01*
D02*
G37*
G36*
X38890Y5464D02*
X38622Y5429D01*
X38373Y5325D01*
X38159Y5161D01*
X37995Y4947D01*
X37891Y4698D01*
X37856Y4430D01*
X37891Y4162D01*
X37995Y3913D01*
X38159Y3699D01*
X38373Y3535D01*
X38622Y3431D01*
X38890Y3396D01*
X39158Y3431D01*
X39407Y3535D01*
X39621Y3699D01*
X39785Y3913D01*
X39889Y4162D01*
X39924Y4430D01*
X39889Y4698D01*
X39785Y4947D01*
X39621Y5161D01*
X39407Y5325D01*
X39158Y5429D01*
X38890Y5464D01*
D02*
G37*
G36*
X36350D02*
X36082Y5429D01*
X35833Y5325D01*
X35619Y5161D01*
X35455Y4947D01*
X35351Y4698D01*
X35316Y4430D01*
X35351Y4162D01*
X35455Y3913D01*
X35619Y3699D01*
X35833Y3535D01*
X36082Y3431D01*
X36350Y3396D01*
X36618Y3431D01*
X36867Y3535D01*
X37081Y3699D01*
X37245Y3913D01*
X37349Y4162D01*
X37384Y4430D01*
X37349Y4698D01*
X37245Y4947D01*
X37081Y5161D01*
X36867Y5325D01*
X36618Y5429D01*
X36350Y5464D01*
D02*
G37*
G36*
X18570D02*
X18302Y5429D01*
X18053Y5325D01*
X17839Y5161D01*
X17675Y4947D01*
X17571Y4698D01*
X17536Y4430D01*
X17571Y4162D01*
X17675Y3913D01*
X17839Y3699D01*
X18053Y3535D01*
X18302Y3431D01*
X18570Y3396D01*
X18838Y3431D01*
X19087Y3535D01*
X19301Y3699D01*
X19465Y3913D01*
X19569Y4162D01*
X19604Y4430D01*
X19569Y4698D01*
X19465Y4947D01*
X19301Y5161D01*
X19087Y5325D01*
X18838Y5429D01*
X18570Y5464D01*
D02*
G37*
G36*
X42476Y4330D02*
X41530D01*
Y3384D01*
X41704Y3407D01*
X41960Y3513D01*
X42179Y3681D01*
X42347Y3900D01*
X42453Y4156D01*
X42476Y4330D01*
D02*
G37*
G36*
X41330D02*
X40384D01*
X40407Y4156D01*
X40513Y3900D01*
X40681Y3681D01*
X40900Y3513D01*
X41156Y3407D01*
X41330Y3384D01*
Y4330D01*
D02*
G37*
G36*
X10575Y93465D02*
X9725D01*
Y92690D01*
X10575D01*
Y93465D01*
D02*
G37*
G36*
X13000Y85605D02*
X12600D01*
Y85055D01*
X13000D01*
Y85605D01*
D02*
G37*
G36*
X13925Y84205D02*
X13375D01*
Y83805D01*
X13925D01*
Y84205D01*
D02*
G37*
G36*
Y83605D02*
X13375D01*
Y83205D01*
X13925D01*
Y83605D01*
D02*
G37*
G36*
X17025Y80630D02*
X16625D01*
Y80080D01*
X17025D01*
Y80630D01*
D02*
G37*
G36*
X10500Y82980D02*
X9650D01*
Y82205D01*
X10500D01*
Y82980D01*
D02*
G37*
G36*
X30100Y80434D02*
X29924Y80399D01*
X29776Y80299D01*
X29676Y80151D01*
X29641Y79975D01*
X29676Y79799D01*
X29776Y79651D01*
X29924Y79551D01*
X30100Y79516D01*
X30276Y79551D01*
X30424Y79651D01*
X30524Y79799D01*
X30559Y79975D01*
X30524Y80151D01*
X30424Y80299D01*
X30276Y80399D01*
X30100Y80434D01*
D02*
G37*
G36*
X28475Y79034D02*
X28299Y78999D01*
X28151Y78899D01*
X28051Y78751D01*
X28016Y78575D01*
X28051Y78399D01*
X28151Y78251D01*
X28299Y78151D01*
X28475Y78116D01*
X28651Y78151D01*
X28799Y78251D01*
X28899Y78399D01*
X28934Y78575D01*
X28899Y78751D01*
X28799Y78899D01*
X28651Y78999D01*
X28475Y79034D01*
D02*
G37*
G36*
X52013Y75246D02*
X51837Y75211D01*
X51688Y75112D01*
X51589Y74963D01*
X51554Y74787D01*
X51589Y74612D01*
X51688Y74463D01*
X51837Y74364D01*
X52013Y74329D01*
X52188Y74364D01*
X52337Y74463D01*
X52436Y74612D01*
X52471Y74787D01*
X52436Y74963D01*
X52337Y75112D01*
X52188Y75211D01*
X52013Y75246D01*
D02*
G37*
G36*
X49725Y72946D02*
X49549Y72911D01*
X49401Y72812D01*
X49301Y72663D01*
X49266Y72488D01*
X49301Y72312D01*
X49401Y72163D01*
X49549Y72064D01*
X49725Y72029D01*
X49901Y72064D01*
X50049Y72163D01*
X50149Y72312D01*
X50184Y72488D01*
X50149Y72663D01*
X50049Y72812D01*
X49901Y72911D01*
X49725Y72946D01*
D02*
G37*
G36*
X38400Y70784D02*
X38224Y70749D01*
X38076Y70649D01*
X37976Y70501D01*
X37941Y70325D01*
X37976Y70149D01*
X38076Y70001D01*
X38224Y69901D01*
X38400Y69866D01*
X38576Y69901D01*
X38724Y70001D01*
X38824Y70149D01*
X38859Y70325D01*
X38824Y70501D01*
X38724Y70649D01*
X38576Y70749D01*
X38400Y70784D01*
D02*
G37*
G36*
X31475Y63739D02*
X31299Y63704D01*
X31151Y63605D01*
X31051Y63456D01*
X31016Y63281D01*
X31051Y63105D01*
X31151Y62956D01*
X31299Y62857D01*
X31475Y62822D01*
X31651Y62857D01*
X31799Y62956D01*
X31899Y63105D01*
X31934Y63281D01*
X31899Y63456D01*
X31799Y63605D01*
X31651Y63704D01*
X31475Y63739D01*
D02*
G37*
G36*
X43225Y64409D02*
X43049Y64374D01*
X42901Y64274D01*
X42801Y64126D01*
X42766Y63950D01*
X42801Y63774D01*
X42901Y63626D01*
X43049Y63526D01*
X43225Y63491D01*
X43401Y63526D01*
X43549Y63626D01*
X43649Y63774D01*
X43684Y63950D01*
X43649Y64126D01*
X43549Y64274D01*
X43401Y64374D01*
X43225Y64409D01*
D02*
G37*
G36*
X51507Y56039D02*
X49457D01*
Y53989D01*
X51507D01*
Y56039D01*
D02*
G37*
G36*
X51532Y53524D02*
X50582D01*
Y52574D01*
X51532D01*
Y53524D01*
D02*
G37*
G36*
X50382D02*
X49432D01*
Y52574D01*
X50382D01*
Y53524D01*
D02*
G37*
G36*
X51532Y52374D02*
X50582D01*
Y51424D01*
X51532D01*
Y52374D01*
D02*
G37*
G36*
X50382D02*
X49432D01*
Y51424D01*
X50382D01*
Y52374D01*
D02*
G37*
G36*
X51507Y50959D02*
X49457D01*
Y48909D01*
X51507D01*
Y50959D01*
D02*
G37*
G36*
X53130Y49456D02*
Y48510D01*
X54076D01*
X54053Y48684D01*
X53947Y48940D01*
X53779Y49159D01*
X53560Y49327D01*
X53304Y49433D01*
X53130Y49456D01*
D02*
G37*
G36*
X52930D02*
X52756Y49433D01*
X52500Y49327D01*
X52281Y49159D01*
X52113Y48940D01*
X52007Y48684D01*
X51984Y48510D01*
X52930D01*
Y49456D01*
D02*
G37*
G36*
Y48310D02*
X51984D01*
X52007Y48136D01*
X52113Y47880D01*
X52281Y47661D01*
X52500Y47493D01*
X52756Y47387D01*
X52930Y47364D01*
Y48310D01*
D02*
G37*
G36*
X54076D02*
X53130D01*
Y47364D01*
X53304Y47387D01*
X53560Y47493D01*
X53779Y47661D01*
X53947Y47880D01*
X54053Y48136D01*
X54076Y48310D01*
D02*
G37*
G36*
X51507Y43339D02*
X49457D01*
Y41289D01*
X51507D01*
Y43339D01*
D02*
G37*
G36*
X19050Y47740D02*
X18650D01*
Y47190D01*
X19050D01*
Y47740D01*
D02*
G37*
G36*
X18100Y46925D02*
X17550D01*
Y46525D01*
X18100D01*
Y46925D01*
D02*
G37*
G36*
Y46325D02*
X17550D01*
Y45925D01*
X18100D01*
Y46325D01*
D02*
G37*
G36*
X18350Y42121D02*
X17800D01*
Y41721D01*
X18350D01*
Y42121D01*
D02*
G37*
G36*
X38950Y34200D02*
X38400D01*
Y33800D01*
X38950D01*
Y34200D01*
D02*
G37*
G36*
X18350Y37893D02*
X17800D01*
Y37493D01*
X18350D01*
Y37893D01*
D02*
G37*
G36*
X16190Y38258D02*
X16014Y38235D01*
X15849Y38167D01*
X15708Y38059D01*
X15600Y37918D01*
X15532Y37754D01*
X15509Y37577D01*
X15532Y37401D01*
X15600Y37237D01*
X15708Y37096D01*
X15849Y36988D01*
X16014Y36920D01*
X16190Y36896D01*
X16366Y36920D01*
X16530Y36988D01*
X16671Y37096D01*
X16779Y37237D01*
X16847Y37401D01*
X16871Y37577D01*
X16847Y37754D01*
X16779Y37918D01*
X16671Y38059D01*
X16530Y38167D01*
X16366Y38235D01*
X16190Y38258D01*
D02*
G37*
G36*
Y35718D02*
X16014Y35695D01*
X15849Y35627D01*
X15708Y35519D01*
X15600Y35378D01*
X15532Y35214D01*
X15509Y35037D01*
X15532Y34861D01*
X15600Y34697D01*
X15708Y34556D01*
X15849Y34448D01*
X16014Y34380D01*
X16190Y34356D01*
X16366Y34380D01*
X16530Y34448D01*
X16671Y34556D01*
X16779Y34697D01*
X16847Y34861D01*
X16871Y35037D01*
X16847Y35214D01*
X16779Y35378D01*
X16671Y35519D01*
X16530Y35627D01*
X16366Y35695D01*
X16190Y35718D01*
D02*
G37*
G36*
X36807Y32772D02*
Y31972D01*
X37482D01*
Y32772D01*
X36807D01*
D02*
G37*
G36*
X37482Y31772D02*
X36807D01*
Y30972D01*
X37482D01*
Y31772D01*
D02*
G37*
G36*
X33574Y21759D02*
X33174D01*
Y21209D01*
X33574D01*
Y21759D01*
D02*
G37*
G36*
X32974D02*
X32574D01*
Y21209D01*
X32974D01*
Y21759D01*
D02*
G37*
G36*
X36088Y20009D02*
X35838D01*
Y19559D01*
X36088D01*
Y20009D01*
D02*
G37*
G36*
X35988Y21459D02*
X34988D01*
X33988D01*
Y20753D01*
X33913Y20634D01*
X33913Y20540D01*
Y19584D01*
X35388D01*
Y19559D01*
X35638D01*
Y20109D01*
X35738D01*
Y20209D01*
X36088D01*
Y20659D01*
X35988Y20768D01*
Y20809D01*
Y21459D01*
D02*
G37*
%LPD*%
D10*
X7625Y87735D02*
D03*
Y90635D02*
D03*
Y82430D02*
D03*
Y85330D02*
D03*
Y77205D02*
D03*
Y80105D02*
D03*
X7650Y92990D02*
D03*
Y95890D02*
D03*
D11*
X12500Y94500D02*
D03*
Y95600D02*
D03*
X16550Y92300D02*
D03*
Y93400D02*
D03*
X15278Y94557D02*
D03*
Y95657D02*
D03*
X33074Y22959D02*
D03*
Y21859D02*
D03*
X9416Y46050D02*
D03*
Y47150D02*
D03*
X14775Y68630D02*
D03*
Y69730D02*
D03*
X12500Y83855D02*
D03*
Y84955D02*
D03*
X16525Y81830D02*
D03*
Y80730D02*
D03*
X19450Y44375D02*
D03*
Y43275D02*
D03*
X28865Y54450D02*
D03*
Y55550D02*
D03*
X27590Y54450D02*
D03*
Y55550D02*
D03*
X40550Y37700D02*
D03*
Y36600D02*
D03*
X35650Y54450D02*
D03*
Y55550D02*
D03*
X18550Y47840D02*
D03*
Y48940D02*
D03*
Y51640D02*
D03*
Y50540D02*
D03*
X29100Y32450D02*
D03*
Y33550D02*
D03*
X30165Y55550D02*
D03*
Y54450D02*
D03*
D12*
X40250Y44000D02*
D03*
X41350D02*
D03*
X18450Y37993D02*
D03*
X19550D02*
D03*
X12875Y67600D02*
D03*
X11775D02*
D03*
X15125Y83705D02*
D03*
X14025D02*
D03*
X37200Y33700D02*
D03*
X38300D02*
D03*
X35000D02*
D03*
X33900D02*
D03*
X33875Y90300D02*
D03*
X32775D02*
D03*
X18450Y41621D02*
D03*
X19550D02*
D03*
X18200Y46425D02*
D03*
X19300D02*
D03*
D13*
X24600Y87825D02*
D03*
Y89025D02*
D03*
X20525Y70175D02*
D03*
Y68975D02*
D03*
X20500Y67375D02*
D03*
Y66175D02*
D03*
X10950Y68955D02*
D03*
Y70155D02*
D03*
X12325Y70155D02*
D03*
Y68955D02*
D03*
X41140Y33427D02*
D03*
Y34627D02*
D03*
X41138Y30761D02*
D03*
Y31961D02*
D03*
X33707Y30672D02*
D03*
Y31872D02*
D03*
X39807Y30772D02*
D03*
Y31972D02*
D03*
D14*
X19600Y40138D02*
D03*
X18400D02*
D03*
X27250Y90100D02*
D03*
X26050D02*
D03*
X7500Y52100D02*
D03*
X6300D02*
D03*
X17275Y65730D02*
D03*
X16075D02*
D03*
D15*
X17488Y68355D02*
D03*
X13888Y81255D02*
D03*
Y91815D02*
D03*
D16*
X16076Y67380D02*
D03*
Y68030D02*
D03*
Y68680D02*
D03*
Y69330D02*
D03*
X18900D02*
D03*
Y68680D02*
D03*
Y68030D02*
D03*
Y67380D02*
D03*
X12476Y80280D02*
D03*
Y80930D02*
D03*
Y81580D02*
D03*
Y82230D02*
D03*
X15300D02*
D03*
Y81580D02*
D03*
Y80930D02*
D03*
Y80280D02*
D03*
X12476Y90840D02*
D03*
Y91490D02*
D03*
Y92140D02*
D03*
Y92790D02*
D03*
X15300D02*
D03*
Y92140D02*
D03*
Y91490D02*
D03*
Y90840D02*
D03*
D17*
X24375Y70125D02*
D03*
Y64625D02*
D03*
X28375D02*
D03*
Y70125D02*
D03*
X36000Y92350D02*
D03*
Y97850D02*
D03*
X32000D02*
D03*
Y92350D02*
D03*
X29000D02*
D03*
Y97850D02*
D03*
X25000D02*
D03*
Y92350D02*
D03*
D18*
X10600Y82105D02*
D03*
Y80455D02*
D03*
X10675Y92590D02*
D03*
Y90940D02*
D03*
D19*
X38307Y31872D02*
D03*
Y30172D02*
D03*
D20*
X16650Y44550D02*
D03*
Y43150D02*
D03*
X9432Y49155D02*
D03*
Y50555D02*
D03*
D21*
X16600Y46800D02*
D03*
X14900D02*
D03*
X14175Y78255D02*
D03*
X12475D02*
D03*
X14175Y88275D02*
D03*
X12475D02*
D03*
D22*
X23400Y87925D02*
D03*
Y88925D02*
D03*
X41000Y93600D02*
D03*
Y92600D02*
D03*
D23*
X51250Y97000D02*
D03*
Y98000D02*
D03*
X53500Y97000D02*
D03*
Y98000D02*
D03*
D24*
X41900Y92625D02*
D03*
Y93575D02*
D03*
X47400Y91375D02*
D03*
Y90425D02*
D03*
X48700Y91375D02*
D03*
Y90425D02*
D03*
D25*
X47400Y92500D02*
D03*
X48800D02*
D03*
D26*
X35050Y90300D02*
D03*
X36050D02*
D03*
D27*
X26120Y55699D02*
D03*
Y54301D02*
D03*
X18075Y43127D02*
D03*
Y44523D02*
D03*
D28*
X12950Y62380D02*
D03*
Y65430D02*
D03*
D29*
X8000D02*
D03*
X9900Y66380D02*
D03*
Y64480D02*
D03*
D30*
X43558Y92588D02*
D03*
D31*
X43438Y91738D02*
D03*
X43938Y91738D02*
D03*
X43438Y93438D02*
D03*
X43938Y93438D02*
D03*
D32*
X44438Y91938D02*
D03*
X44938D02*
D03*
X44438Y93238D02*
D03*
D33*
X44988D02*
D03*
D34*
X27726Y88086D02*
D03*
X26726D02*
D03*
D35*
X22325Y50000D02*
D03*
Y49500D02*
D03*
Y49000D02*
D03*
Y48500D02*
D03*
Y48000D02*
D03*
Y47500D02*
D03*
Y47000D02*
D03*
Y46500D02*
D03*
Y46000D02*
D03*
Y45500D02*
D03*
Y45000D02*
D03*
Y44500D02*
D03*
Y44000D02*
D03*
Y43500D02*
D03*
Y43000D02*
D03*
Y42500D02*
D03*
Y42000D02*
D03*
Y41500D02*
D03*
Y41000D02*
D03*
Y40500D02*
D03*
Y40000D02*
D03*
Y39500D02*
D03*
Y39000D02*
D03*
Y38500D02*
D03*
Y38000D02*
D03*
X37675D02*
D03*
Y38500D02*
D03*
Y39000D02*
D03*
Y39500D02*
D03*
Y40000D02*
D03*
Y40500D02*
D03*
Y41000D02*
D03*
Y41500D02*
D03*
Y42000D02*
D03*
Y42500D02*
D03*
Y43000D02*
D03*
Y43500D02*
D03*
Y44000D02*
D03*
Y44500D02*
D03*
Y45000D02*
D03*
Y45500D02*
D03*
Y46000D02*
D03*
Y46500D02*
D03*
Y47000D02*
D03*
Y47500D02*
D03*
Y48000D02*
D03*
Y48500D02*
D03*
Y49000D02*
D03*
Y49500D02*
D03*
Y50000D02*
D03*
D36*
X24000Y36325D02*
D03*
X24500D02*
D03*
X25000D02*
D03*
X25500D02*
D03*
X26000D02*
D03*
X26500D02*
D03*
X27000D02*
D03*
X27500D02*
D03*
X28000D02*
D03*
X28500D02*
D03*
X29000D02*
D03*
X29500D02*
D03*
X30000D02*
D03*
X30500D02*
D03*
X31000D02*
D03*
X31500D02*
D03*
X32000D02*
D03*
X32500D02*
D03*
X33000D02*
D03*
X33500D02*
D03*
X34000D02*
D03*
X34500D02*
D03*
X35000D02*
D03*
X35500D02*
D03*
X36000D02*
D03*
Y51675D02*
D03*
X35500D02*
D03*
X35000D02*
D03*
X34500D02*
D03*
X34000D02*
D03*
X33500D02*
D03*
X33000D02*
D03*
X32500D02*
D03*
X32000D02*
D03*
X31500D02*
D03*
X31000D02*
D03*
X30500D02*
D03*
X30000D02*
D03*
X29500D02*
D03*
X29000D02*
D03*
X28500D02*
D03*
X28000D02*
D03*
X27500D02*
D03*
X27000D02*
D03*
X26500D02*
D03*
X26000D02*
D03*
X25500D02*
D03*
X25000D02*
D03*
X24500D02*
D03*
X24000D02*
D03*
D37*
X34238Y23009D02*
D03*
X34738D02*
D03*
X35238D02*
D03*
X35738D02*
D03*
Y20109D02*
D03*
X35238D02*
D03*
X34738D02*
D03*
X34238D02*
D03*
D38*
X34988Y21559D02*
D03*
D39*
X36707Y31872D02*
D03*
Y29672D02*
D03*
X35107D02*
D03*
Y31872D02*
D03*
D40*
X16725Y48450D02*
D03*
Y51050D02*
D03*
D41*
X16075Y63955D02*
D03*
D42*
X43100Y95525D02*
D03*
X43750D02*
D03*
X44400D02*
D03*
X45050D02*
D03*
X45700D02*
D03*
D43*
X26500Y50450D02*
X33134Y43816D01*
Y42668D02*
X35553Y40249D01*
X33134Y42668D02*
Y43816D01*
X25500Y36325D02*
Y37766D01*
X28927Y41194D01*
X43402Y90706D02*
Y91702D01*
Y90706D02*
X43921Y90187D01*
X14523Y45223D02*
X18971D01*
X14261D02*
X14523D01*
X14261Y45485D02*
Y45848D01*
X14523Y45223D02*
X14550D01*
X14261Y45485D02*
X14523Y45223D01*
X14000D02*
X14261D01*
X13533D02*
X14000D01*
X14261D02*
Y45485D01*
X14000Y45223D02*
X14261Y45485D01*
X13830Y46280D02*
Y51333D01*
Y46280D02*
X14261Y45848D01*
X11175Y42865D02*
X13533Y45223D01*
X13830Y51333D02*
X18551Y56054D01*
X22894Y63556D02*
Y66597D01*
Y63556D02*
X24340Y62111D01*
X21970Y67521D02*
X22894Y66597D01*
X56300Y60037D02*
X57286Y59052D01*
Y42678D02*
Y59052D01*
X57215Y42607D02*
X57286Y42678D01*
X57215Y42153D02*
Y42607D01*
X56299Y57248D02*
X56976Y56571D01*
Y42806D02*
Y56571D01*
X55706Y41536D02*
X56976Y42806D01*
X49012Y38704D02*
Y45885D01*
X44559Y50339D02*
X49012Y45885D01*
X43390Y50339D02*
X44559D01*
X44234Y51102D02*
X50482Y44854D01*
X43393Y51102D02*
X44234D01*
X48547Y32356D02*
Y45877D01*
X45391Y49034D02*
X48547Y45877D01*
X44448Y49034D02*
X45391D01*
X47617Y28085D02*
Y45428D01*
X46045Y47000D02*
X47617Y45428D01*
X37675Y47000D02*
X46045D01*
X47927Y28337D02*
Y45556D01*
X45647Y47837D02*
X47927Y45556D01*
X44792Y47837D02*
X45647D01*
X48237Y30089D02*
Y45684D01*
X45583Y48339D02*
X48237Y45684D01*
X45090Y48339D02*
X45583D01*
X47307Y27956D02*
Y45279D01*
X46087Y46500D02*
X47307Y45279D01*
X37675Y46500D02*
X46087D01*
X49176Y15390D02*
X50482D01*
X48094Y16472D02*
X49176Y15390D01*
X48094Y16472D02*
Y26236D01*
X46687Y27642D02*
Y43763D01*
X44500Y45950D02*
X46687Y43763D01*
X44145Y45500D02*
X46190Y43455D01*
Y40627D02*
Y43455D01*
X37675Y45500D02*
X44145D01*
X45650Y40319D02*
Y43150D01*
X43950Y44850D02*
X45650Y43150D01*
X45817Y46000D02*
X46997Y44820D01*
X40230Y48319D02*
X43346D01*
X40213Y48335D02*
X40230Y48319D01*
X45256Y40203D02*
Y42744D01*
X43100Y44900D02*
X45256Y42744D01*
X44852Y40167D02*
Y42248D01*
X42150Y44950D02*
X44852Y42248D01*
Y40167D02*
X45398Y39621D01*
X45256Y40203D02*
X45708Y39751D01*
X45650Y40319D02*
X46224Y39745D01*
X58566Y40635D02*
Y72359D01*
X57706Y39775D02*
X58566Y40635D01*
X57706Y12223D02*
Y39775D01*
X54640Y41539D02*
X55289Y40890D01*
X55952D01*
X22399Y7538D02*
X27571Y12710D01*
X22399Y5681D02*
Y7538D01*
X32000Y39775D02*
X32590Y40365D01*
Y42489D02*
X33101Y41977D01*
Y41021D02*
Y41977D01*
X33000Y40920D02*
X33101Y41021D01*
X33000Y36325D02*
Y40920D01*
X32590Y40365D02*
Y41489D01*
X32040Y42939D02*
X32590Y43489D01*
X32040Y40274D02*
Y42939D01*
X31512Y40628D02*
Y44983D01*
X26000Y50495D02*
X31512Y44983D01*
X26000Y50495D02*
Y51675D01*
X26500Y50450D02*
Y51675D01*
X31500Y39734D02*
X32040Y40274D01*
X33440Y45439D02*
X35700D01*
X35731Y45407D01*
X33379Y44500D02*
X35734D01*
X32440Y45439D02*
X33379Y44500D01*
X52158Y57248D02*
X56299D01*
X51852Y57554D02*
X52158Y57248D01*
X31000Y49329D02*
X32890Y47439D01*
X31000Y49329D02*
Y51675D01*
X31500Y49579D02*
X33640Y47439D01*
X31500Y49579D02*
Y51675D01*
X32000Y50041D02*
X34102Y47939D01*
X35240D01*
X32000Y50041D02*
Y51675D01*
X32500Y50118D02*
X34115Y48503D01*
X32500Y50118D02*
Y51675D01*
X34115Y48503D02*
X35513D01*
X33000Y50220D02*
Y51675D01*
Y50220D02*
X34331Y48889D01*
X36032D01*
X34352Y50189D02*
X35840D01*
X34000Y50541D02*
X34352Y50189D01*
X33500Y50180D02*
X34241Y49439D01*
X35840D01*
X36032Y48889D02*
X36427Y49284D01*
X35513Y48503D02*
X36066Y47950D01*
X31988Y46889D02*
X35190D01*
X32080Y46358D02*
X35559D01*
X36090Y46889D01*
X30500Y48377D02*
X31988Y46889D01*
X34000Y36325D02*
Y40104D01*
X34500Y39649D02*
X34940Y40089D01*
X34500Y36325D02*
Y39649D01*
X35553Y38355D02*
Y40249D01*
X35290Y41377D02*
X35866Y40801D01*
Y39987D02*
Y40801D01*
Y39987D02*
X36353Y39500D01*
X37675D01*
X35272Y42164D02*
X36191Y41245D01*
Y40238D02*
Y41245D01*
Y40238D02*
X36429Y40000D01*
X37675D01*
X40765Y39489D02*
X41859Y38395D01*
X40090Y39489D02*
X40765D01*
X41859Y35346D02*
Y38395D01*
X40640Y39989D02*
X41372D01*
X42465Y32588D02*
Y38896D01*
X41372Y39989D02*
X42465Y38896D01*
X42971Y23905D02*
Y38924D01*
X41395Y40500D02*
X42971Y38924D01*
X43358Y23790D02*
Y39084D01*
X41443Y41000D02*
X43358Y39084D01*
X37675Y41000D02*
X41443D01*
X43679Y21136D02*
Y39318D01*
X37675Y41500D02*
X41497D01*
X43679Y39318D01*
X43992Y20526D02*
Y39553D01*
X41545Y42000D02*
X43992Y39553D01*
X37675Y42000D02*
X41545D01*
X41493Y42500D02*
X44302Y39691D01*
X37675Y43000D02*
X41442D01*
X44807Y25129D02*
Y39635D01*
X41442Y43000D02*
X44807Y39635D01*
X37675Y40500D02*
X41395D01*
X46997Y27771D02*
Y44820D01*
X47927Y28337D02*
X49642Y26622D01*
X47617Y28085D02*
X49265Y26438D01*
X47307Y27956D02*
X48885Y26379D01*
X46997Y27771D02*
X47707Y27061D01*
X46687Y27642D02*
X48094Y26236D01*
X48919Y29407D02*
X51807D01*
X48237Y30089D02*
X48919Y29407D01*
X49143Y31761D02*
X54439D01*
X48547Y32356D02*
X49143Y31761D01*
X49265Y22091D02*
Y26438D01*
X47707Y27061D02*
X48404Y26364D01*
X47707Y27061D02*
Y27061D01*
X46224Y26782D02*
Y39745D01*
X33000Y27067D02*
Y36325D01*
X33833Y34489D02*
X33840D01*
X33500Y34822D02*
X33833Y34489D01*
X35734Y44500D02*
X37675D01*
X46787Y85475D02*
X48954D01*
X49890Y84539D01*
X22285Y63727D02*
X23502Y62511D01*
Y60547D02*
X23860Y60188D01*
X23502Y60547D02*
Y62511D01*
X32540Y7787D02*
X45695Y20942D01*
X32540Y5700D02*
Y7787D01*
X45695Y20942D02*
Y20956D01*
X39378Y47500D02*
X40213Y48335D01*
X37675Y47500D02*
X39378D01*
X40344Y49034D02*
X42811D01*
X39310Y48000D02*
X40344Y49034D01*
X37675Y48000D02*
X39310D01*
X42290Y50339D02*
X44792Y47837D01*
X41981Y50647D02*
X42290Y50339D01*
X40264Y51023D02*
Y53226D01*
X34132Y59358D02*
X40264Y53226D01*
X39241Y50000D02*
X40264Y51023D01*
X37675Y49500D02*
X39244D01*
X40574Y50829D01*
X34261Y59668D02*
X40574Y53355D01*
Y50829D02*
Y53355D01*
X33875Y58738D02*
X38490Y54124D01*
Y53389D02*
Y54124D01*
X43190Y58839D02*
X49197D01*
X50482Y57554D01*
Y60037D02*
X56300D01*
X43190Y59639D02*
X50027D01*
X50482Y60094D01*
X41090Y50776D02*
Y55139D01*
X39313Y49000D02*
X41090Y50776D01*
X40037Y59142D02*
X42839Y56340D01*
X41981Y50647D02*
Y56320D01*
X39880Y58422D02*
X41981Y56320D01*
X38804Y58422D02*
X39880D01*
X42479Y51607D02*
Y56261D01*
X39980Y58760D02*
X42479Y56261D01*
X35632Y58760D02*
X39980D01*
X35821Y59142D02*
X40037D01*
X39690Y57889D02*
X41659Y55920D01*
Y50907D02*
Y55920D01*
X40877Y50125D02*
X41659Y50907D01*
X42711Y60222D02*
X46466D01*
X42240Y59751D02*
X42711Y60222D01*
X42240Y58839D02*
Y59751D01*
X38622Y58239D02*
X38804Y58422D01*
X37990Y58239D02*
X38622D01*
X37686Y60339D02*
X39690D01*
X37681Y60333D02*
X37686Y60339D01*
X34414Y59978D02*
X35632Y58760D01*
X34674Y60288D02*
X35821Y59142D01*
X28550Y60288D02*
X34674D01*
X27173Y59978D02*
X34414D01*
X27044Y59668D02*
X34261D01*
X26916Y59358D02*
X34132D01*
X34004Y59048D02*
X39766Y53285D01*
X26788Y59048D02*
X34004D01*
X23860Y58738D02*
X33875D01*
X39766Y51600D02*
Y53285D01*
X37675Y42500D02*
X41493D01*
X41140Y34627D02*
X41859Y35346D01*
X39101Y38500D02*
X40090Y39489D01*
X37675Y38500D02*
X39101D01*
X39859Y39989D02*
X40640D01*
X38870Y39000D02*
X39859Y39989D01*
X37675Y39000D02*
X38870D01*
X33500Y34822D02*
Y36325D01*
X31000Y27190D02*
Y36325D01*
X29223Y25412D02*
X31000Y27190D01*
X29689Y30927D02*
X30190D01*
X29419Y31198D02*
X29689Y30927D01*
X26562Y31616D02*
X30097D01*
X30500Y32018D02*
Y36325D01*
X30097Y31616D02*
X30500Y32018D01*
X38827Y61390D02*
X44028D01*
X38537Y61100D02*
X38827Y61390D01*
X35358Y62656D02*
X37681Y60333D01*
X36339Y65268D02*
Y67019D01*
X35358Y64287D02*
X36339Y65268D01*
Y67019D02*
X36943Y67624D01*
X38164Y68261D02*
X38525Y67900D01*
X38164Y68261D02*
Y69236D01*
X38525Y67900D02*
X39825D01*
X34850Y72551D02*
X38164Y69236D01*
X44550Y63150D02*
Y64034D01*
X42972Y65612D02*
X44550Y64034D01*
X42972Y65612D02*
Y70077D01*
X43283Y65892D02*
X45825Y63350D01*
X43283Y65892D02*
Y70643D01*
X47072Y63856D02*
Y70175D01*
X45767Y62550D02*
X47072Y63856D01*
X44750Y62550D02*
X45767D01*
X47650Y63995D02*
Y70146D01*
X45880Y62225D02*
X47650Y63995D01*
X44863Y62225D02*
X45880D01*
X30145Y85945D02*
X33875Y89675D01*
X24455Y85945D02*
X30145D01*
X41590Y28127D02*
X42140D01*
X40414Y29303D02*
X41590Y28127D01*
X41631Y27035D02*
X42147D01*
X39807Y28859D02*
X41631Y27035D01*
X39807Y28859D02*
Y30772D01*
X41838Y31961D02*
X42465Y32588D01*
X41138Y31961D02*
X41838D01*
X52013Y62127D02*
X53030Y61110D01*
X48371Y62127D02*
X52013D01*
X46466Y60222D02*
X48371Y62127D01*
X33426Y57279D02*
Y57812D01*
X40971Y59806D02*
X42204Y61039D01*
X37742Y59806D02*
X40971D01*
X36415Y61133D02*
X37742Y59806D01*
X29716Y26480D02*
Y30101D01*
X29738Y30123D01*
X35358Y62656D02*
Y64287D01*
X36943Y67624D02*
Y69750D01*
X34850Y72551D02*
Y75850D01*
X31167Y61133D02*
X36415D01*
X45708Y20970D02*
Y39751D01*
X35553Y38355D02*
X40414Y33494D01*
X32000Y36325D02*
Y39775D01*
X31500Y36325D02*
Y39734D01*
X35198Y23049D02*
X35238Y23009D01*
X35198Y23049D02*
Y23898D01*
X35731Y45407D02*
X36139Y45000D01*
X37675D01*
X45398Y21098D02*
Y39621D01*
X40414Y29303D02*
Y33494D01*
X40942Y21875D02*
X42971Y23905D01*
X40942Y20761D02*
Y21875D01*
X41252Y21684D02*
X43358Y23790D01*
X33974Y11430D02*
X43679Y21136D01*
X33816Y10350D02*
X43992Y20526D01*
X45695Y20956D02*
X45708Y20970D01*
X31270Y6970D02*
X45398Y21098D01*
X30000Y34656D02*
Y36325D01*
X26163Y32015D02*
X26562Y31616D01*
X29001Y25765D02*
X29716Y26480D01*
X24340Y61077D02*
Y62111D01*
X49012Y38704D02*
X50482Y37234D01*
X24461Y25412D02*
X29223D01*
X22376Y27497D02*
X24461Y25412D01*
X16190Y27497D02*
X22376D01*
X16190Y29957D02*
X21149D01*
X25341Y25765D01*
X29001D01*
X30953Y23242D02*
Y26048D01*
X32000Y27094D01*
X31263Y11521D02*
Y25919D01*
X32500Y27156D01*
X31639Y25706D02*
X33000Y27067D01*
X32500Y27156D02*
Y36325D01*
X22493Y31077D02*
X22640D01*
X22491Y31079D02*
X22493Y31077D01*
X11041Y31079D02*
X22491D01*
X5512Y25550D02*
X11041Y31079D01*
X26381Y27700D02*
X28816D01*
X2222Y25550D02*
X5512D01*
X55952Y40890D02*
X57215Y42153D01*
X50482Y60037D02*
Y60094D01*
Y57554D02*
X51852D01*
X33828Y53687D02*
Y54249D01*
X34550Y53717D02*
Y53750D01*
X33828Y53687D02*
X34500Y53014D01*
X36983Y50950D02*
X39066D01*
X32000Y46000D02*
X37675D01*
X34500Y51675D02*
Y53014D01*
X34550Y53717D02*
X35000Y53267D01*
Y51675D02*
Y53267D01*
X28500Y49200D02*
X28800D01*
X32000Y46000D01*
X54377Y19277D02*
X55570Y20470D01*
X49615Y19277D02*
X54377D01*
X48885Y20006D02*
X49615Y19277D01*
X48885Y20006D02*
Y26379D01*
X51756Y21744D02*
X53030Y20470D01*
X49612Y21744D02*
X51756D01*
X49265Y22091D02*
X49612Y21744D01*
X37675Y50000D02*
X39241D01*
X34510Y55488D02*
Y56195D01*
X30475Y45050D02*
X30997Y44528D01*
X28844Y41814D02*
X29542D01*
X28933Y40446D02*
X30067Y41580D01*
X28930Y40446D02*
X28933D01*
X26000Y37516D02*
X28930Y40446D01*
X30377Y41411D02*
Y43515D01*
X30997Y40961D02*
Y44528D01*
X27500Y37464D02*
X30997Y40961D01*
X29625Y45050D02*
X30687Y43988D01*
Y41221D02*
Y43988D01*
X27000Y37534D02*
X30687Y41221D01*
X27000Y36325D02*
Y37534D01*
X28373Y45520D02*
X30377Y43515D01*
X27875Y45374D02*
X30067Y43182D01*
X23825Y43700D02*
X28225D01*
X24777Y41694D02*
X26177D01*
X23572Y43000D02*
X23825Y43253D01*
X22325Y43000D02*
X23572D01*
X24084Y41000D02*
X24777Y41694D01*
X23825Y43253D02*
Y43700D01*
X24826Y48600D02*
X25166D01*
X25000Y49475D02*
X25000Y49475D01*
X25000Y49475D02*
Y49642D01*
X24500Y48926D02*
Y51675D01*
X24000Y48621D02*
Y51675D01*
X28373Y45520D02*
Y46017D01*
X27875Y45374D02*
Y46509D01*
X24872Y40738D02*
X25960D01*
X22325Y40000D02*
X26592D01*
X25000Y37970D02*
X28844Y41814D01*
X24000Y30081D02*
Y36325D01*
X29500Y48939D02*
X32080Y46358D01*
X26500Y37534D02*
X30377Y41411D01*
X27460Y45351D02*
Y48088D01*
X26592Y40000D02*
X28815Y42224D01*
X27460Y45351D02*
X28815Y43996D01*
Y42224D02*
Y43996D01*
X20577Y40093D02*
X21171Y39500D01*
X36427Y50373D02*
X36983Y50928D01*
X36427Y49284D02*
Y50373D01*
X27875Y46509D02*
X28366Y47000D01*
X54554Y39053D02*
X57636Y42135D01*
X58256Y40936D02*
Y71619D01*
X56359Y65030D02*
X57636Y63754D01*
Y42135D02*
Y63754D01*
X55522Y38992D02*
X57946Y41416D01*
X53030Y35710D02*
X58256Y40936D01*
X57946Y41416D02*
Y65220D01*
X56975Y66190D02*
X57946Y65220D01*
X25305Y29700D02*
X28866D01*
X26216Y28700D02*
X28816D01*
X24000Y30081D02*
X26381Y27700D01*
X24500Y30505D02*
X25305Y29700D01*
X24500Y30505D02*
Y36325D01*
X26353Y26837D02*
X28803D01*
X26500Y36325D02*
Y37534D01*
X30067Y41580D02*
Y43182D01*
X33688Y61888D02*
X34910Y63110D01*
X30710Y61888D02*
X33688D01*
X29156Y53324D02*
X29500Y52979D01*
X27500Y36325D02*
Y37464D01*
X21184Y60711D02*
X25009Y56886D01*
X31432D01*
X27325Y61513D02*
X28550Y60288D01*
X25860Y61291D02*
X27173Y59978D01*
X25550Y61162D02*
X27044Y59668D01*
X25225Y61049D02*
X26916Y59358D01*
X26150Y59686D02*
X26788Y59048D01*
X31150Y61150D02*
X31167Y61133D01*
X35991Y63237D02*
X37650Y64895D01*
X15562Y80238D02*
X16023Y79777D01*
Y74477D02*
Y79777D01*
Y74477D02*
X18625Y71875D01*
X14328Y94557D02*
X15343D01*
X15356Y94570D01*
X28540Y90100D02*
X29000Y90560D01*
X27250Y90100D02*
X28540D01*
X26050Y88954D02*
Y90100D01*
X25655Y88558D02*
X26050Y88954D01*
X41252Y20632D02*
Y21684D01*
X51250Y96450D02*
X53873Y93827D01*
X53275Y89450D02*
X53873Y90048D01*
Y93827D01*
X47825Y88425D02*
X49575Y90175D01*
Y91075D01*
X18237Y78425D02*
X24138Y84325D01*
X18237Y76582D02*
Y78425D01*
X32469Y84253D02*
X36532D01*
X37804Y85525D01*
X39050D01*
X37676Y85835D02*
X39178D01*
X36841Y85000D02*
X37676Y85835D01*
X32429Y85000D02*
X36841D01*
X21975Y61550D02*
Y64700D01*
X21277Y61544D02*
Y63593D01*
X25416Y77286D02*
Y78426D01*
X28081Y81091D01*
Y82246D01*
X5017Y41544D02*
Y43075D01*
X2222Y45870D02*
X5017Y43075D01*
X3700Y45870D02*
X5351Y47521D01*
Y51151D02*
X6300Y52100D01*
X5351Y47521D02*
Y51151D01*
X16550Y74675D02*
X27225D01*
X25969Y78540D02*
X32429Y85000D01*
X25969Y77912D02*
Y78540D01*
Y77912D02*
X26440Y77440D01*
X26466Y78250D02*
X32469Y84253D01*
X55570Y66190D02*
X56975D01*
X54190Y65030D02*
X56359D01*
X57067Y72808D02*
X58256Y71619D01*
X56963Y73963D02*
X58566Y72359D01*
X18551Y56054D02*
X23813D01*
X23816Y56050D01*
X21066Y53500D02*
X26125D01*
X26125Y53500D01*
X42204Y61039D02*
X45742D01*
X29096Y10184D02*
X29926D01*
X29799Y9618D02*
X40942Y20761D01*
X26706Y9618D02*
X29799D01*
X29927Y9308D02*
X41252Y20632D01*
X28528Y9308D02*
X29927D01*
X41898Y20840D02*
Y21582D01*
X29802Y8744D02*
X41898Y20840D01*
X29802Y8042D02*
Y8744D01*
X30112Y8616D02*
X42396Y20899D01*
X30112Y5812D02*
Y8616D01*
X41898Y21582D02*
X42266Y21950D01*
X28730Y6970D02*
X29802Y8042D01*
X33810Y6970D02*
X39166Y12326D01*
Y12350D01*
X35092Y7245D02*
X39367Y11520D01*
X35092Y5203D02*
Y7245D01*
X39367Y11507D02*
Y11520D01*
X28862Y22286D02*
X30180Y23604D01*
Y23658D01*
X30111Y15250D02*
Y22399D01*
X34319Y4430D02*
X35092Y5203D01*
X32000Y27094D02*
Y36325D01*
X31500Y27044D02*
Y36325D01*
X34904Y27908D02*
X37241D01*
X24500Y48926D02*
X24826Y48600D01*
X28730Y4430D02*
X30112Y5812D01*
X25118Y8029D02*
X26706Y9618D01*
X25118Y5503D02*
Y8029D01*
X24807Y8157D02*
X28644Y11994D01*
X24807Y3275D02*
Y8157D01*
X25118Y5503D02*
X26190Y4430D01*
X22399Y5681D02*
X23650Y4430D01*
X22831Y2709D02*
X24242D01*
X24807Y3275D01*
X25664Y31198D02*
X29419D01*
X25166Y30700D02*
X25664Y31198D01*
X33707Y29106D02*
Y30672D01*
Y29106D02*
X34904Y27908D01*
X29500Y48939D02*
Y51675D01*
X25860Y61291D02*
Y71565D01*
X25550Y61162D02*
Y71400D01*
X25225Y61049D02*
Y71275D01*
X26170Y61818D02*
Y71266D01*
Y61818D02*
X26754Y61234D01*
X25000Y36325D02*
Y37970D01*
X26000Y36325D02*
Y37516D01*
X22325Y41000D02*
X24084D01*
X25042Y33703D02*
X27303D01*
X28500Y34900D01*
X25156Y34444D02*
X27353D01*
X28000Y35091D01*
X19725Y48500D02*
X22325D01*
X20734Y48000D02*
X22325D01*
X19825Y45500D02*
X22325D01*
X20825Y46000D02*
X22225D01*
X22275Y45950D01*
X19375Y46500D02*
X22325D01*
X19079D02*
X19375D01*
X19300Y46425D02*
X19375Y46500D01*
X22275Y45950D02*
X22325Y46000D01*
X18872Y46293D02*
X19079Y46500D01*
X19825Y45500D02*
X19825Y45500D01*
X20325Y47500D02*
X22325D01*
X20825Y46980D02*
X22305D01*
X20784Y48000D02*
X20825D01*
X20759Y47975D02*
X20784Y48000D01*
X22302Y47478D02*
X22325Y47500D01*
X20734Y48000D02*
X20759Y47975D01*
X22305Y46980D02*
X22325Y47000D01*
X25500Y50075D02*
Y51675D01*
X25000Y49642D02*
Y51675D01*
X25000Y49642D02*
X25000Y49642D01*
Y49475D02*
Y49642D01*
X24000Y48621D02*
X24027Y48593D01*
X20577Y38993D02*
X22318D01*
X22325Y39000D01*
X19875Y64075D02*
X20294Y64493D01*
X21277D01*
X25416Y77286D02*
X28548Y74154D01*
Y73644D02*
Y74154D01*
X26170Y71266D02*
X28548Y73644D01*
X23400Y87000D02*
X24455Y85945D01*
X21110Y4430D02*
X22831Y2709D01*
X29500Y51675D02*
Y52979D01*
X36038Y24579D02*
X37151D01*
X35738Y23009D02*
Y24279D01*
X36038Y24579D01*
X53500Y96450D02*
X56700Y93250D01*
X53500Y96450D02*
Y97000D01*
X51250Y96450D02*
Y97000D01*
X53030Y66190D02*
X54190Y65030D01*
X28000Y35091D02*
Y36325D01*
X28500Y34900D02*
Y36325D01*
X21025Y69575D02*
X21862D01*
X21970Y69467D01*
X27225Y74675D02*
X28050Y73850D01*
X15100Y79300D02*
X15465Y78935D01*
Y74435D02*
Y78935D01*
Y74435D02*
X18370Y71530D01*
X11164Y82669D02*
Y83565D01*
X10600Y82105D02*
X11164Y82669D01*
X19600Y40138D02*
X20962Y41500D01*
X22325D01*
X21100Y43500D02*
X22325D01*
X20325Y42725D02*
X21100Y43500D01*
X20600Y44000D02*
X22325D01*
X20325Y43725D02*
X20600Y44000D01*
X21110Y11946D02*
X23129Y13966D01*
X21110Y6970D02*
Y11946D01*
X26190Y6970D02*
X28528Y9308D01*
X31270Y4430D02*
X32540Y5700D01*
X27325Y61513D02*
Y69525D01*
X26575Y71225D02*
X29037Y73687D01*
Y74512D02*
X29525Y75000D01*
X29037Y73687D02*
Y74512D01*
X20825Y49000D02*
X22325D01*
X20815D02*
X20825D01*
X27653Y62244D02*
X28209Y61688D01*
X28000Y36325D02*
X28001Y36326D01*
X18550Y50540D02*
X19090Y50000D01*
X22325D01*
X18550Y48940D02*
X19110Y49500D01*
X22325D01*
X41800Y63550D02*
Y70496D01*
Y63550D02*
X42750Y62600D01*
X42300Y62075D02*
X43225D01*
X40400Y63975D02*
X42300Y62075D01*
X43225D02*
X43700Y62550D01*
X44028Y61390D02*
X44863Y62225D01*
X43900Y61700D02*
X44750Y62550D01*
X39187Y61700D02*
X43900D01*
X38462Y62425D02*
X39187Y61700D01*
X32600Y73825D02*
X32847Y73577D01*
X33225Y65025D02*
X33550Y64700D01*
X46050Y66275D02*
Y70187D01*
X44781Y71456D02*
X46050Y70187D01*
X44294Y71456D02*
X44781D01*
X43875Y71875D02*
X44294Y71456D01*
X41639Y74111D02*
Y74486D01*
X39950Y76175D02*
X41639Y74486D01*
X39950Y76175D02*
Y76900D01*
X41639Y74111D02*
X43875Y71875D01*
X38925Y77925D02*
X39950Y76900D01*
X37575Y77925D02*
X38925D01*
X32855Y79653D02*
X33701Y80499D01*
X32855Y78740D02*
Y79653D01*
X31925Y77810D02*
X32855Y78740D01*
X32545Y78868D02*
Y81733D01*
X31585Y77908D02*
X32545Y78868D01*
X32235Y78997D02*
Y82010D01*
X31275Y78037D02*
X32235Y78997D01*
X31925Y82275D02*
X33450Y83800D01*
X31925Y79125D02*
Y82275D01*
X30750Y77950D02*
X31925Y79125D01*
X33550Y63050D02*
Y64700D01*
X29525Y75000D02*
X30075D01*
X31354Y71096D02*
Y73179D01*
X31925Y73750D01*
X22000Y85600D02*
X22025Y85625D01*
X18750Y85600D02*
X22000D01*
X40300Y76375D02*
X46575Y70100D01*
X40300Y76375D02*
Y78250D01*
X40610Y76637D02*
Y78715D01*
Y76637D02*
X47072Y70175D01*
X37725Y81600D02*
X40610Y78715D01*
X38050Y80500D02*
X40300Y78250D01*
X36950Y80500D02*
X38050D01*
X40978Y76819D02*
Y78923D01*
Y76819D02*
X47650Y70146D01*
X37950Y81950D02*
X40978Y78923D01*
X39450Y81429D02*
X42115Y78764D01*
X39450Y81429D02*
Y85125D01*
X42115Y77777D02*
Y78764D01*
X41525Y77188D02*
X42115Y77777D01*
X39825Y81671D02*
X42425Y79071D01*
X39825Y81671D02*
Y85188D01*
X33653Y76003D02*
X34748Y77098D01*
X34850Y75850D02*
X35425Y76425D01*
X37763Y71250D02*
Y71800D01*
X36603Y72960D02*
X37763Y71800D01*
X36603Y72960D02*
Y77650D01*
X56700Y93250D02*
X58925D01*
X36502Y77750D02*
X36603Y77650D01*
X41111Y71186D02*
X41800Y70496D01*
X28450Y66662D02*
Y68062D01*
X27653Y65865D02*
X28450Y66662D01*
X27653Y62244D02*
Y65865D01*
X28450Y68062D02*
X29650Y69262D01*
X34325Y81825D02*
X35425Y80725D01*
Y76425D02*
Y80725D01*
X33900Y77700D02*
X34325Y77275D01*
X33275Y77700D02*
X33900D01*
X32600Y77025D02*
X33275Y77700D01*
X46575Y67800D02*
Y70100D01*
X36925Y78575D02*
X37575Y77925D01*
X41900Y92625D02*
X42025Y92500D01*
X41875Y92600D02*
X41900Y92625D01*
X41000Y92600D02*
X41875D01*
X36000Y90300D02*
Y92350D01*
Y97850D01*
Y98200D01*
X35700Y98500D02*
X36000Y98200D01*
X35075Y98500D02*
X35700D01*
X25000Y92350D02*
Y97850D01*
X47400Y90425D02*
X48700D01*
Y91375D02*
X49275D01*
X49575Y91075D01*
X33875Y90300D02*
X35000D01*
X33875Y90300D02*
X33875Y90300D01*
X11900Y80930D02*
X12476D01*
X7625Y77205D02*
X9600D01*
X11925Y81580D02*
X12476D01*
X11800Y81705D02*
X11925Y81580D01*
X11800Y81705D02*
Y84680D01*
X11150Y85330D02*
X11800Y84680D01*
X7625Y85330D02*
X11150D01*
X11775Y80805D02*
X11900Y80930D01*
X9600Y77205D02*
X11775Y79380D01*
Y80805D01*
X15125Y83705D02*
X15300Y83530D01*
Y80930D02*
X15875D01*
X16075Y80730D01*
X16525D01*
Y79730D02*
Y80730D01*
X13888Y81255D02*
X14025Y81392D01*
X13888Y79318D02*
Y81255D01*
X13875Y79305D02*
X13888Y79318D01*
X5100Y85330D02*
X7625D01*
X4000Y84230D02*
X5100Y85330D01*
X4000Y82600D02*
Y84230D01*
X5400Y77205D02*
X7625D01*
X4000Y78605D02*
X5400Y77205D01*
X4000Y78605D02*
Y80060D01*
X12500Y82255D02*
Y83855D01*
X12476Y82230D02*
X12500Y82255D01*
Y84955D02*
X13675D01*
X14025Y84605D01*
Y83705D02*
Y84605D01*
X8580Y69510D02*
X8600Y69530D01*
X2222Y69510D02*
X8580D01*
X8000Y65430D02*
X11125D01*
X12950Y61030D02*
Y62380D01*
X15525Y69330D02*
X16076D01*
X15150Y69705D02*
X15525Y69330D01*
X14775Y69705D02*
X15150D01*
X14725Y69655D02*
X14775Y69705D01*
X14125Y69655D02*
X14725D01*
X10950Y68155D02*
Y68955D01*
X9900Y67105D02*
X10950Y68155D01*
X9900Y66380D02*
Y67105D01*
X16075Y63955D02*
X16076Y63956D01*
X18900Y68680D02*
X20600D01*
X11953Y65933D02*
X12455Y65430D01*
X11125D02*
X12455D01*
X12950D01*
X33675Y79875D02*
X34100Y80300D01*
Y80698D01*
X33450Y81348D02*
X34100Y80698D01*
X34325Y79875D02*
X34675Y80225D01*
Y80725D01*
X37650Y64895D02*
Y67850D01*
X32250Y77150D02*
X33675Y78575D01*
X55700Y75475D02*
X56280Y76055D01*
Y77425D01*
X33850Y81550D02*
X34675Y80725D01*
X41100Y66400D02*
X41125Y66375D01*
X34748Y77098D02*
Y77577D01*
X34403Y77922D02*
X34748Y77577D01*
X37675Y83800D02*
X38800Y84925D01*
X39050Y85525D02*
X39450Y85125D01*
X12325Y70155D02*
X12625Y70455D01*
X15300Y82230D02*
Y82905D01*
Y83530D01*
X43225Y70700D02*
X43283Y70643D01*
X41675Y71375D02*
Y72650D01*
Y71375D02*
X42972Y70077D01*
X36075Y74525D02*
Y79675D01*
X36502Y77750D02*
Y78100D01*
X36502Y78100D02*
X36502Y78100D01*
X36075Y79675D02*
X36287Y79887D01*
X36502Y78100D02*
Y79477D01*
X36710Y79685D01*
Y80090D01*
X36275Y80525D02*
X36710Y80090D01*
X38900Y76700D02*
X41111Y74489D01*
Y71186D02*
Y74489D01*
X35375Y82247D02*
X36022Y81600D01*
X37725D01*
X33850Y81550D02*
Y82000D01*
X34097Y82247D01*
X35375D01*
X33450Y81348D02*
Y82125D01*
X33925Y82600D01*
X35750D01*
X12476Y78256D02*
Y80280D01*
X12475Y78255D02*
X12476Y78256D01*
X14175Y78255D02*
Y78320D01*
X13867Y78628D02*
X14175Y78320D01*
X13867Y78628D02*
Y79297D01*
X13875Y79305D01*
X33875Y89675D02*
Y90300D01*
X33450Y83800D02*
X37675D01*
X35400Y73800D02*
X35925Y73275D01*
X35400Y73800D02*
Y75550D01*
X39178Y85835D02*
X39825Y85188D01*
X35400Y75550D02*
X35750Y75900D01*
Y81050D01*
X34975Y81825D02*
X35750Y81050D01*
Y82600D02*
X36400Y81950D01*
X37950D01*
X17275Y65730D02*
Y66530D01*
X17488Y66743D01*
Y68355D01*
X37350Y73713D02*
Y75550D01*
Y73713D02*
X41125Y69938D01*
Y66375D02*
Y69938D01*
X20375Y70455D02*
X20565Y70265D01*
X21250Y70950D01*
X24375Y64555D02*
X24675Y64855D01*
Y70950D01*
X21250D02*
X24675D01*
X12625Y70455D02*
X20375D01*
X18370Y71530D02*
X24970D01*
X25225Y71275D01*
X12325Y70155D02*
Y71425D01*
X19450Y73125D02*
X20172Y72403D01*
X21374Y73525D02*
X25275D01*
X20848Y72999D02*
X21374Y73525D01*
X16076Y63956D02*
Y67380D01*
X17075Y62775D02*
X18450Y64150D01*
X15275Y62775D02*
X17075D01*
X14050Y64000D02*
X15275Y62775D01*
X12175Y64000D02*
X14050D01*
X13400Y72150D02*
X14875D01*
X24425Y73000D02*
X25860Y71565D01*
X22197Y73000D02*
X24425D01*
X21600Y72403D02*
X22197Y73000D01*
X20172Y72403D02*
X21600D01*
X27900Y71750D02*
X28150Y71500D01*
Y70350D02*
Y71500D01*
X26900Y70575D02*
X27325Y71000D01*
X26900Y69950D02*
Y70575D01*
X26800Y67700D02*
Y69000D01*
X26575Y69225D02*
X26800Y69000D01*
X26575Y69225D02*
Y71225D01*
X17275Y64925D02*
X17275Y64925D01*
X17275Y64925D02*
Y65730D01*
X18625Y71875D02*
X25075D01*
X25550Y71400D01*
X26900Y69950D02*
X27325Y69525D01*
X20438Y66113D02*
X20500Y66175D01*
X18450Y64150D02*
Y65725D01*
X20500Y66175D02*
X21975Y64700D01*
X11775Y66863D02*
Y67600D01*
Y66863D02*
X11925Y66713D01*
X12363D01*
X16076Y67957D02*
Y68030D01*
X14725Y67600D02*
X15083Y67957D01*
X12950Y67600D02*
X14725D01*
X15083Y67957D02*
X16076D01*
X12875Y67600D02*
Y68405D01*
X12325Y68955D02*
X12875Y68405D01*
X12950Y65430D02*
Y67600D01*
X15300Y81580D02*
X16275D01*
X16525Y81830D01*
X32000Y92350D02*
X32325Y92025D01*
X19875Y62162D02*
Y64075D01*
X8700Y61075D02*
X11125Y63500D01*
Y65430D01*
X10950Y70155D02*
Y70233D01*
X8600Y72582D02*
X10950Y70233D01*
X2222Y64430D02*
X2272Y64480D01*
X2222Y64430D02*
X9850D01*
X9900Y64480D01*
X2222Y45870D02*
X3700D01*
X51958Y26622D02*
X53030Y25550D01*
X30000Y51675D02*
Y52875D01*
X16600Y46800D02*
X16690D01*
X17870Y47981D01*
Y48763D01*
X18047Y48940D01*
X18550D01*
X15283Y48450D02*
X16725D01*
X14900Y48067D02*
X15283Y48450D01*
X14900Y46800D02*
Y48067D01*
X19300Y45552D02*
Y46425D01*
X18971Y45223D02*
X19300Y45552D01*
X36707Y29672D02*
X37807D01*
X38307Y30172D01*
X16725Y51050D02*
X17018D01*
X17528Y50540D01*
X18550D01*
X15300Y92790D02*
Y94440D01*
X15255Y94470D02*
X15356Y94570D01*
X40699Y92901D02*
X41000Y92600D01*
X39586Y92901D02*
X40699D01*
X43100Y94488D02*
Y95525D01*
X43938Y93438D02*
Y94097D01*
X43805Y94229D02*
X43938Y94097D01*
X43438Y93438D02*
Y93862D01*
X43805Y94229D01*
X43438Y92708D02*
Y93438D01*
Y92708D02*
X43558Y92588D01*
Y91858D02*
Y92588D01*
X43438Y91738D02*
X43558Y91858D01*
X27500Y50274D02*
Y51675D01*
Y50187D02*
Y50274D01*
X54439Y31761D02*
X55570Y30630D01*
X51807Y29407D02*
X53030Y30630D01*
X23400Y87000D02*
Y87925D01*
X33810Y4430D02*
X34319D01*
X58300Y83375D02*
Y86775D01*
X58800Y87275D01*
X56294Y81369D02*
X58300Y83375D01*
X16390Y90840D02*
X16400Y90850D01*
X15300Y90840D02*
X16390D01*
X28375Y62907D02*
Y64625D01*
Y62907D02*
X29200Y62082D01*
Y61674D02*
Y62082D01*
X18400Y39276D02*
Y40138D01*
X21277Y61544D02*
X23136Y59686D01*
X21970Y67521D02*
Y69467D01*
X23136Y59686D02*
X26150D01*
X22285Y63727D02*
Y66385D01*
X21290Y67380D02*
X22285Y66385D01*
X18900Y67380D02*
X21290D01*
X29650Y69262D02*
Y74149D01*
X32847Y71844D02*
Y73577D01*
X30475Y73300D02*
X31275Y74100D01*
X31354Y71096D02*
X31375Y71075D01*
X31113Y70109D02*
X32847Y71844D01*
X30803Y73128D02*
X31585Y73910D01*
X29375Y67475D02*
X30475Y68575D01*
Y73300D01*
X30803Y67903D02*
Y73128D01*
X30700Y66125D02*
X31113Y66538D01*
Y70109D01*
X29597Y66697D02*
X30803Y67903D01*
X31275Y74100D02*
Y78037D01*
X31585Y73910D02*
Y77908D01*
X31925Y73750D02*
Y77810D01*
X32250Y72575D02*
Y77150D01*
X32600Y73825D02*
Y77025D01*
X33025Y76625D02*
X33225Y76425D01*
Y65025D02*
Y76425D01*
X33653Y71560D02*
X33737Y71475D01*
X33653Y71560D02*
Y76003D01*
X22325Y40500D02*
X24634D01*
X24872Y40738D01*
X21171Y39500D02*
X22325D01*
X32545Y81733D02*
X33766Y82954D01*
X36146D01*
X36450Y82650D01*
X32235Y82010D02*
X33500Y83275D01*
X36625D01*
X35010Y67188D02*
Y70202D01*
X33737Y71475D02*
X35010Y70202D01*
X18900Y68030D02*
X19702D01*
X19710Y68038D01*
X50450Y84160D02*
Y88475D01*
X53375Y91400D01*
X46388Y82794D02*
X49083D01*
X50450Y84160D01*
X46265Y86865D02*
X47825Y88425D01*
X46265Y84671D02*
Y86865D01*
X29597Y63002D02*
Y66697D01*
Y63002D02*
X30710Y61888D01*
X25877Y86443D02*
X26877D01*
X27726Y87292D01*
Y88086D01*
X25625Y87825D02*
X25885Y88086D01*
X26726D01*
X24600Y87825D02*
X25625D01*
X41430Y6970D02*
X52453D01*
X57706Y12223D01*
X49642Y26622D02*
X51958D01*
X18212Y82375D02*
X20925Y85088D01*
X29513D01*
X34910Y63110D02*
Y65638D01*
X49345Y74300D02*
X52470Y77425D01*
X42425Y75810D02*
X43935Y74300D01*
X49345D01*
X42425Y75810D02*
Y79071D01*
X5017Y41544D02*
X11947Y34614D01*
X14417D01*
X33426Y57279D02*
X34510Y56195D01*
X13525Y58125D02*
Y59606D01*
X7500Y52100D02*
X11873Y56473D01*
X13525Y58125D01*
X30000Y52875D02*
X32104Y54979D01*
X31432Y56886D02*
X32104Y56214D01*
Y54979D02*
Y56214D01*
X21184Y60711D02*
Y60737D01*
X43402Y91702D02*
X43438Y91738D01*
X44888Y83294D02*
X46265Y84671D01*
X30111Y22399D02*
X30953Y23242D01*
X29926Y10184D02*
X31263Y11521D01*
X30500Y48377D02*
Y51675D01*
X36983Y50928D02*
Y50950D01*
X34000Y50541D02*
Y51675D01*
X33500Y50180D02*
Y51675D01*
X49145Y17930D02*
X50482D01*
X48404Y18672D02*
X49145Y17930D01*
X48404Y18672D02*
Y26364D01*
X37241Y27908D02*
X38186Y26964D01*
X28803Y26837D02*
X28816Y26850D01*
X37675Y49000D02*
X39313D01*
X37675Y48500D02*
X39267D01*
X40877Y50110D01*
Y50125D01*
X31639Y14577D02*
X32017Y14199D01*
X31639Y14577D02*
Y25706D01*
X27571Y15250D02*
Y23115D01*
X31500Y27044D01*
X27571Y15250D02*
X28644Y14178D01*
Y11994D02*
Y14178D01*
X44302Y21427D02*
Y39691D01*
Y21427D02*
X44640Y21089D01*
X42839Y53133D02*
Y56340D01*
Y53133D02*
X48578Y47394D01*
X50482D01*
X45742Y61039D02*
X49257Y64555D01*
Y65446D01*
X50700Y66888D01*
Y71300D01*
Y71759D01*
X54416Y75475D01*
X55700D01*
X44250Y74900D02*
X46852D01*
X53321Y81369D01*
X56294D01*
D44*
X30900Y98450D02*
X31744D01*
X32000Y98194D01*
Y97850D02*
Y98194D01*
X30189Y60611D02*
X36434D01*
X29650Y61150D02*
X30189Y60611D01*
X36434D02*
X37561Y59483D01*
X22869Y85622D02*
X30572D01*
X41104Y59483D02*
X42338Y60717D01*
X37561Y59483D02*
X41104D01*
X21473Y31402D02*
X22561Y32490D01*
X10109Y31402D02*
X21473D01*
X6797Y28090D02*
X10109Y31402D01*
X2222Y28090D02*
X6797D01*
X31464Y54826D02*
Y56117D01*
X23832Y42507D02*
X28178D01*
X23825Y42500D02*
X23825Y42500D01*
X23825D02*
X23825Y42500D01*
X23825Y42500D02*
X23832Y42507D01*
X11826Y90074D02*
Y91330D01*
X9487Y87735D02*
X11826Y90074D01*
X7625Y87735D02*
X9487D01*
X29000Y90560D02*
Y92350D01*
X17861Y86080D02*
Y86295D01*
Y85661D02*
Y86080D01*
X18094Y86312D01*
X17878D02*
X18094D01*
X17861Y86545D02*
Y87327D01*
Y86295D02*
Y86545D01*
Y86850D01*
Y86545D02*
X18094Y86312D01*
X16525Y84325D02*
X17861Y85661D01*
Y86295D02*
X17878Y86312D01*
X17507Y87681D02*
X17861Y87327D01*
X11141Y75225D02*
X11166Y75250D01*
X9362Y75225D02*
X11141D01*
X42338Y60717D02*
X45922D01*
X22325Y42500D02*
X23825D01*
X28500Y51675D02*
Y54085D01*
X16606Y40887D02*
X18816D01*
X11175Y40325D02*
X12374Y41524D01*
X15970D01*
X16606Y40887D01*
X9358Y75221D02*
X9362Y75225D01*
X38307Y31872D02*
Y32593D01*
X37200Y33700D02*
X38307Y32593D01*
X19550Y41621D02*
X20367D01*
X20746Y42000D02*
X22325D01*
X20367Y41621D02*
X20746Y42000D01*
X27000Y51675D02*
Y53496D01*
X27000Y51675D02*
X27000Y51675D01*
X18816Y40887D02*
X19550Y41621D01*
X35000Y33825D02*
X35125Y33700D01*
X35000Y33825D02*
Y36325D01*
X2275Y75225D02*
X6050Y71450D01*
X16525Y81830D02*
X17445D01*
X17850Y81425D01*
X51550Y85450D02*
X53030Y83970D01*
X29000Y92350D02*
Y97850D01*
X29100Y97950D01*
Y98575D01*
X29200Y98475D01*
X26575Y82975D02*
X29700D01*
X30650Y83925D01*
X51550Y85450D02*
Y87550D01*
X7625Y80105D02*
Y82430D01*
Y80105D02*
X7975Y80455D01*
X10600D01*
X43200Y98325D02*
X43225Y98350D01*
X45450Y98425D02*
X45550Y98325D01*
X16525Y81830D02*
Y84325D01*
X30572Y85622D02*
X33775Y88825D01*
X40665D01*
X42015Y87475D01*
X32000Y92350D02*
Y97850D01*
X28500Y54085D02*
X28865Y54450D01*
X30165D01*
X33074Y22959D02*
X33125Y23009D01*
X33707Y31872D02*
X35107D01*
X35125Y32200D02*
Y33700D01*
X35107Y31872D02*
X35107Y31872D01*
X38407Y31972D02*
X39807D01*
X38307Y31872D02*
X38407Y31972D01*
X35500Y34605D02*
X36405Y33700D01*
X37200D01*
X35500Y34605D02*
Y36325D01*
X2275Y75225D02*
Y94108D01*
X7650Y90660D02*
Y92990D01*
X7930Y90940D02*
X10675D01*
X7625Y90635D02*
X7650Y90660D01*
X7930Y90940D01*
X4000Y88725D02*
Y90590D01*
Y88725D02*
X4990Y87735D01*
X7625D01*
X11986Y91490D02*
X12476D01*
X11826Y91330D02*
X11986Y91490D01*
X4000Y93130D02*
Y95095D01*
X4795Y95890D01*
X7650D01*
X15300Y92140D02*
X16390D01*
X16550Y92300D01*
X7650Y95890D02*
X10468D01*
X11687Y94671D01*
Y92373D02*
Y94671D01*
Y92373D02*
X11921Y92140D01*
X12476D01*
X17507Y87681D02*
Y91343D01*
X16550Y92300D02*
X17507Y91343D01*
X2275Y94108D02*
X5879Y97713D01*
X23363D01*
X23850Y98200D01*
X41994Y85248D02*
X43626D01*
X40548Y82753D02*
Y83236D01*
X42160Y84848D01*
X40548Y82753D02*
X40750Y82550D01*
X40800D01*
X41150Y82900D01*
X43792Y84848D02*
X44888Y85944D01*
Y91288D01*
X44938Y91338D01*
Y91938D01*
X40147Y82587D02*
Y83401D01*
X41994Y85248D01*
X40147Y82587D02*
X40584Y82150D01*
X40800D01*
X41150Y81800D01*
X44488Y86110D02*
Y91288D01*
X44438Y91338D02*
Y91938D01*
X43626Y85248D02*
X44488Y86110D01*
X44438Y91338D02*
X44488Y91288D01*
X42160Y84848D02*
X43792D01*
X44400Y94750D02*
X44525Y94625D01*
X44386Y95511D02*
X44400Y95525D01*
X44438Y93238D02*
Y93838D01*
X44525Y93925D01*
X44400Y94750D02*
Y95525D01*
X44525Y93925D02*
Y94625D01*
X44925Y93901D02*
X44988Y93838D01*
X44925Y93901D02*
Y94625D01*
X44988Y93238D02*
Y93838D01*
X44925Y94625D02*
X45050Y94750D01*
X45036Y95511D02*
X45050Y95525D01*
Y94750D02*
Y95525D01*
X30165Y54450D02*
X31088D01*
X31464Y54826D01*
X49810Y64605D02*
Y65138D01*
X45922Y60717D02*
X49810Y64605D01*
X22179Y86312D02*
X22869Y85622D01*
X18094Y86312D02*
X22179D01*
X10675Y89909D02*
Y90940D01*
X49810Y65138D02*
X51384Y66712D01*
Y71900D01*
X53734Y74250D01*
X55353D01*
X57550Y76447D01*
Y77425D01*
D45*
X43938Y90938D02*
Y91738D01*
X43900Y90976D02*
Y91050D01*
Y90976D02*
X43938Y90938D01*
X36790Y53777D02*
Y55085D01*
X36325Y55550D02*
X36790Y55085D01*
X36000Y51675D02*
Y52987D01*
X36790Y53777D01*
X41340Y44010D02*
Y44739D01*
Y44010D02*
X41350Y44000D01*
X37675Y44000D02*
X40250D01*
Y44726D01*
Y44000D02*
Y44000D01*
X41140Y33427D02*
X41790D01*
X41138Y30761D02*
X41857D01*
X12500Y84955D02*
Y85785D01*
X35000Y54474D02*
X35024Y54450D01*
X36247Y43500D02*
X37675D01*
X35500Y51675D02*
Y54300D01*
X35650Y55550D02*
X36325D01*
X22325Y38500D02*
X23845D01*
X19557Y38000D02*
X22325D01*
X40550Y37700D02*
X41232D01*
X14997Y88275D02*
X15316Y87956D01*
X14175Y88275D02*
X14997D01*
X11378Y88257D02*
X11396Y88275D01*
X12475D01*
X12476Y88275D02*
Y90840D01*
X12475Y88275D02*
X12476Y88275D01*
X17950Y52240D02*
X18550Y51640D01*
X17950Y52240D02*
Y52300D01*
X19516Y42450D02*
Y43209D01*
X19450Y43275D02*
X19516Y43209D01*
X24625Y83812D02*
X29612D01*
X23800Y82988D02*
X24625Y83812D01*
X35079Y29700D02*
X35107Y29672D01*
X19575Y44500D02*
X22325D01*
X18550Y47840D02*
X19264D01*
X13888Y91815D02*
X14213Y91490D01*
X15300D01*
X22675Y90100D02*
X23400Y89375D01*
Y88925D02*
Y89375D01*
X24500Y88925D02*
X24600Y89025D01*
X23400Y88925D02*
X24500D01*
X52811Y98000D02*
X53500D01*
X50573D02*
X51250D01*
X18450Y37300D02*
X18475Y37275D01*
X18450Y37300D02*
Y37993D01*
X17647Y41621D02*
X18450D01*
X36707Y31872D02*
Y32907D01*
X36725Y32925D01*
X34825Y87325D02*
X36225Y85925D01*
X33125Y87325D02*
X34825D01*
X29612Y83812D02*
X33125Y87325D01*
X47400Y91375D02*
Y92500D01*
X48800Y91475D02*
Y92500D01*
X48700Y91375D02*
X48800Y91475D01*
X46650Y92600D02*
X47300D01*
X40312Y98325D02*
X43200D01*
X45550D02*
X48487D01*
X43200D02*
X45350D01*
X45450Y98425D01*
X40312Y98325D02*
X41150Y97488D01*
Y96225D02*
Y97488D01*
Y96225D02*
X42175Y95200D01*
Y94400D02*
Y95200D01*
X41900Y94125D02*
X42175Y94400D01*
X41900Y93575D02*
Y94125D01*
X41025Y93575D02*
X41900D01*
X41000Y93600D02*
X41025Y93575D01*
X47975Y97812D02*
X48487Y98325D01*
X47975Y96550D02*
Y97812D01*
X46625Y95200D02*
X47975Y96550D01*
X36225Y85925D02*
X36825D01*
X26120Y54301D02*
X27441D01*
X18200Y45725D02*
Y46425D01*
X19450Y44375D02*
X19575Y44500D01*
X18075Y42460D02*
Y43127D01*
X19550Y37993D02*
X19557Y38000D01*
X33125Y23009D02*
X34213D01*
X35738Y19345D02*
Y20109D01*
X37675Y38000D02*
X39685D01*
X39985Y37700D01*
X40550D01*
Y36600D02*
X41221D01*
X38300Y33700D02*
X39163D01*
X10675Y92590D02*
Y93702D01*
X15356Y95670D02*
X16031D01*
X8635Y40325D02*
Y42865D01*
X12700Y95590D02*
X12710Y95600D01*
X13250D01*
X12500Y94500D02*
X13284D01*
X12476Y92790D02*
Y94476D01*
X12500Y94500D01*
X45700Y93550D02*
Y95525D01*
Y93550D02*
X45940Y93310D01*
X35024Y54450D02*
X35650D01*
X22325Y45000D02*
X23725D01*
X35500Y54300D02*
X35650Y54450D01*
X15943Y43150D02*
X16650D01*
X32406Y22959D02*
X33074D01*
X33900Y33025D02*
Y33700D01*
X8635Y42865D02*
Y44293D01*
X9416Y45074D02*
Y46050D01*
X8635Y44293D02*
X9416Y45074D01*
Y47150D02*
Y48148D01*
X9432Y49155D02*
X10013D01*
X10716Y48453D01*
Y46428D02*
Y48453D01*
X10338Y46050D02*
X10716Y46428D01*
X9416Y46050D02*
X10338D01*
X34216Y29700D02*
X35079D01*
D46*
X29000Y50438D02*
Y51675D01*
X28490Y49927D02*
X29000Y50438D01*
X29123Y33527D02*
X29790D01*
X29100Y33550D02*
X29123Y33527D01*
X29500Y36325D02*
Y37720D01*
X16550Y93400D02*
Y94311D01*
X29076Y33526D02*
X29100Y33550D01*
X36000Y36325D02*
X36510D01*
X29000Y33650D02*
X29100Y33550D01*
X29000Y33650D02*
Y36325D01*
X28000Y51675D02*
Y54040D01*
X27441Y54301D02*
X27590Y54450D01*
X28000Y54040D01*
X9432Y50555D02*
X11626D01*
X12351Y49830D01*
Y45388D02*
Y49830D01*
D47*
X32900Y90425D02*
Y92250D01*
X32775Y90300D02*
X32900Y90425D01*
X29123Y32427D02*
X29790D01*
X29100Y32450D02*
X29123Y32427D01*
X25327Y54301D02*
X26120D01*
X27590Y55550D02*
Y56344D01*
X28865Y55550D02*
Y56344D01*
X30165Y55550D02*
Y56344D01*
X19275Y44550D02*
X19450Y44375D01*
X26113Y55691D02*
X26120Y55699D01*
X25308Y55691D02*
X26113D01*
X19550Y37993D02*
Y38686D01*
X33074Y21025D02*
Y21859D01*
X15688Y44550D02*
X16650D01*
X19275D01*
D48*
X18900Y69330D02*
X19830D01*
X20075Y69575D01*
D49*
X29200Y98475D02*
X29925D01*
X8600Y69530D02*
X8625Y69555D01*
X12900D01*
X13775Y68680D01*
X16076D01*
X34321Y77922D02*
X34403D01*
X20075Y69575D02*
X21025D01*
X24979Y97829D02*
X25000Y97850D01*
X24979Y95979D02*
Y97829D01*
D50*
X38307Y31022D02*
D03*
D51*
X15750Y46800D02*
D03*
X13325Y78255D02*
D03*
X13325Y88275D02*
D03*
D52*
X45549Y98325D02*
D03*
X43251D02*
D03*
D53*
X2350Y2350D02*
D03*
X57650D02*
D03*
X2350Y97650D02*
D03*
X57650D02*
D03*
D54*
X16190Y29957D02*
D03*
Y32497D02*
D03*
Y35037D02*
D03*
Y37577D02*
D03*
Y27497D02*
D03*
D55*
X9085Y34555D02*
D03*
X2222Y40790D02*
D03*
Y38250D02*
D03*
Y33170D02*
D03*
Y35710D02*
D03*
Y45870D02*
D03*
Y43330D02*
D03*
Y48410D02*
D03*
Y50950D02*
D03*
X8700Y61075D02*
D03*
X8600Y70043D02*
D03*
X4000Y80060D02*
D03*
X53030Y71270D02*
D03*
Y35710D02*
D03*
Y86510D02*
D03*
X4000Y90590D02*
D03*
X2222Y64430D02*
D03*
X50482Y60094D02*
D03*
Y57554D02*
D03*
Y37234D02*
D03*
Y39774D02*
D03*
Y44854D02*
D03*
Y42314D02*
D03*
Y52474D02*
D03*
Y55014D02*
D03*
Y49934D02*
D03*
Y47394D02*
D03*
Y25550D02*
D03*
Y28090D02*
D03*
Y33170D02*
D03*
Y30630D02*
D03*
Y20470D02*
D03*
Y23010D02*
D03*
Y17930D02*
D03*
Y15390D02*
D03*
X2222Y28090D02*
D03*
Y25550D02*
D03*
Y20470D02*
D03*
Y23010D02*
D03*
Y15390D02*
D03*
Y17930D02*
D03*
D56*
X9085Y32015D02*
D03*
X30111Y12710D02*
D03*
X27571D02*
D03*
X25031D02*
D03*
X27571Y15250D02*
D03*
X25031D02*
D03*
X8700Y58535D02*
D03*
X8600Y72582D02*
D03*
X4000Y82600D02*
D03*
X39475Y87475D02*
D03*
X36935D02*
D03*
X18570Y4430D02*
D03*
X28730Y6970D02*
D03*
Y4430D02*
D03*
X26190D02*
D03*
Y6970D02*
D03*
X23650Y4430D02*
D03*
Y6970D02*
D03*
X21110Y4430D02*
D03*
Y6970D02*
D03*
X18570D02*
D03*
X31270D02*
D03*
X33810D02*
D03*
Y4430D02*
D03*
X36350Y6970D02*
D03*
Y4430D02*
D03*
X38890Y6970D02*
D03*
Y4430D02*
D03*
X41430D02*
D03*
X31270D02*
D03*
X55570Y61110D02*
D03*
Y71270D02*
D03*
Y68730D02*
D03*
X53030D02*
D03*
X55570Y66190D02*
D03*
X53030D02*
D03*
X55570Y63650D02*
D03*
X53030D02*
D03*
Y61110D02*
D03*
Y48410D02*
D03*
Y50950D02*
D03*
X55570D02*
D03*
X53030Y53490D02*
D03*
X55570D02*
D03*
X53030Y56030D02*
D03*
X55570D02*
D03*
Y58570D02*
D03*
X53030D02*
D03*
X55570Y48410D02*
D03*
X8635Y42865D02*
D03*
X11175D02*
D03*
X13715D02*
D03*
X11175Y40325D02*
D03*
X13715D02*
D03*
X55570Y25550D02*
D03*
Y35710D02*
D03*
Y33170D02*
D03*
X53030D02*
D03*
X55570Y30630D02*
D03*
X53030D02*
D03*
X55570Y28090D02*
D03*
X53030D02*
D03*
Y25550D02*
D03*
Y12850D02*
D03*
Y15390D02*
D03*
X55570D02*
D03*
X53030Y17930D02*
D03*
X55570D02*
D03*
X53030Y20470D02*
D03*
X55570D02*
D03*
Y23010D02*
D03*
X53030D02*
D03*
X55570Y12850D02*
D03*
Y86510D02*
D03*
Y83970D02*
D03*
X53030D02*
D03*
X4000Y93130D02*
D03*
X2222Y66970D02*
D03*
Y69510D02*
D03*
D57*
X30111Y15250D02*
D03*
X42015Y87475D02*
D03*
X41430Y6970D02*
D03*
X8635Y40325D02*
D03*
X18730Y89050D02*
D03*
X21270D02*
D03*
D58*
X57550Y78695D02*
D03*
X56280D02*
D03*
X55010D02*
D03*
X53740D02*
D03*
Y77425D02*
D03*
X55010D02*
D03*
X56280D02*
D03*
X57550D02*
D03*
X52470D02*
D03*
Y78695D02*
D03*
D59*
X48050Y98325D02*
D03*
X40750D02*
D03*
D60*
X42175Y95200D02*
D03*
X46625D02*
D03*
D61*
X30900Y98450D02*
D03*
X43921Y90187D02*
D03*
X43900Y91050D02*
D03*
X38850Y89862D02*
D03*
X44500Y45950D02*
D03*
X45817Y46000D02*
D03*
X43346Y48319D02*
D03*
X43950Y44850D02*
D03*
X43100Y44900D02*
D03*
X42150Y44950D02*
D03*
X54640Y41539D02*
D03*
X32590Y43489D02*
D03*
Y42489D02*
D03*
Y41489D02*
D03*
X33440Y45439D02*
D03*
X32440D02*
D03*
X35840Y49439D02*
D03*
Y50189D02*
D03*
X35240Y47939D02*
D03*
X35190Y46889D02*
D03*
X33640Y47439D02*
D03*
X32890D02*
D03*
X36090Y46889D02*
D03*
X34000Y40104D02*
D03*
X34940Y40089D02*
D03*
X33840Y34489D02*
D03*
X49890Y84539D02*
D03*
X44640Y21089D02*
D03*
X35734Y44500D02*
D03*
X45090Y48339D02*
D03*
X44448Y49034D02*
D03*
X42811D02*
D03*
X43390Y50339D02*
D03*
X43393Y51102D02*
D03*
X42290Y50339D02*
D03*
X38490Y53389D02*
D03*
X41090Y55139D02*
D03*
X42240Y58839D02*
D03*
X43190D02*
D03*
Y59639D02*
D03*
X39690Y57889D02*
D03*
Y60339D02*
D03*
X37990Y58239D02*
D03*
X35790Y59939D02*
D03*
X40090Y39489D02*
D03*
X40640Y39989D02*
D03*
X41340Y44739D02*
D03*
X40250Y44726D02*
D03*
X30190Y30927D02*
D03*
X30000Y34656D02*
D03*
X42985Y43264D02*
D03*
X41790Y33427D02*
D03*
X41857Y30761D02*
D03*
X42140Y28127D02*
D03*
X42147Y27035D02*
D03*
X36790Y53777D02*
D03*
X33426Y57812D02*
D03*
X29738Y30123D02*
D03*
X28490Y49927D02*
D03*
X36943Y69750D02*
D03*
X46190Y40627D02*
D03*
X35290Y41377D02*
D03*
X35272Y42164D02*
D03*
X31512Y40628D02*
D03*
X12500Y85785D02*
D03*
X35731Y45407D02*
D03*
X41221Y36600D02*
D03*
X44807Y25129D02*
D03*
X46224Y26782D02*
D03*
X26163Y32015D02*
D03*
X29790Y32427D02*
D03*
Y33527D02*
D03*
X24340Y61077D02*
D03*
X22640Y31077D02*
D03*
X28816Y27700D02*
D03*
X55706Y41536D02*
D03*
X33828Y54249D02*
D03*
X34550Y53750D02*
D03*
X35000Y54474D02*
D03*
X39766Y51600D02*
D03*
X39066Y50950D02*
D03*
X36247Y43500D02*
D03*
X31464Y56117D02*
D03*
X28500Y49200D02*
D03*
X36066Y47950D02*
D03*
X42479Y51607D02*
D03*
X34510Y55488D02*
D03*
X36325Y55550D02*
D03*
X28178Y42507D02*
D03*
X30475Y45050D02*
D03*
X29542Y41814D02*
D03*
X28927Y41194D02*
D03*
X29625Y45050D02*
D03*
X28225Y43700D02*
D03*
X26177Y41694D02*
D03*
X23825Y42500D02*
D03*
Y43700D02*
D03*
X25166Y48600D02*
D03*
X25000Y49475D02*
D03*
X23825Y45024D02*
D03*
X28373Y46017D02*
D03*
X25960Y40738D02*
D03*
X22561Y32490D02*
D03*
X23845Y38500D02*
D03*
X20577Y40093D02*
D03*
X28366Y47000D02*
D03*
X41232Y37700D02*
D03*
X54554Y39053D02*
D03*
X55522Y38992D02*
D03*
X54319Y44547D02*
D03*
X59172Y62437D02*
D03*
Y59897D02*
D03*
Y49737D02*
D03*
Y52277D02*
D03*
Y42117D02*
D03*
Y64977D02*
D03*
Y57357D02*
D03*
Y54817D02*
D03*
Y47197D02*
D03*
Y44657D02*
D03*
X28866Y29700D02*
D03*
X28816Y28700D02*
D03*
X26216D02*
D03*
X26353Y26837D02*
D03*
X27460Y48088D02*
D03*
X34513Y61631D02*
D03*
X29156Y53324D02*
D03*
X29500Y37720D02*
D03*
X31150Y61150D02*
D03*
X29650Y61150D02*
D03*
X35991Y63237D02*
D03*
X16023Y77127D02*
D03*
X16550Y94311D02*
D03*
X14328Y94557D02*
D03*
X15316Y87956D02*
D03*
X11378Y88257D02*
D03*
X17950Y52300D02*
D03*
X34510Y21175D02*
D03*
X35500Y21967D02*
D03*
X19516Y42450D02*
D03*
X28081Y82246D02*
D03*
X27525Y92340D02*
D03*
X25655Y88558D02*
D03*
X18237Y76582D02*
D03*
X16550Y74675D02*
D03*
X26466Y78250D02*
D03*
X26440Y77440D02*
D03*
X11166Y75250D02*
D03*
X25916Y81750D02*
D03*
X23816Y56050D02*
D03*
X21066Y53500D02*
D03*
X42266Y21950D02*
D03*
X42396Y20899D02*
D03*
X39166Y12350D02*
D03*
X39367Y11507D02*
D03*
X33974Y11430D02*
D03*
X33816Y10350D02*
D03*
X30180Y23658D02*
D03*
X28862Y22286D02*
D03*
X29096Y10184D02*
D03*
X25166Y30700D02*
D03*
X26125Y53500D02*
D03*
X26754Y61234D02*
D03*
X20825Y46000D02*
D03*
X19825Y45500D02*
D03*
X19725Y48500D02*
D03*
X20325Y47500D02*
D03*
X19264Y47840D02*
D03*
X20825Y47000D02*
D03*
Y48000D02*
D03*
Y49000D02*
D03*
X25500Y50075D02*
D03*
X24027Y48593D02*
D03*
X25042Y33703D02*
D03*
X20577Y38993D02*
D03*
X13477Y10194D02*
D03*
X25156Y34444D02*
D03*
X21277Y63593D02*
D03*
Y64493D02*
D03*
X25877Y86443D02*
D03*
X35198Y23898D02*
D03*
X37151Y24579D02*
D03*
X52811Y98000D02*
D03*
X50573D02*
D03*
X26034Y94340D02*
D03*
Y95610D02*
D03*
Y96880D02*
D03*
X57067Y72808D02*
D03*
X18400Y39276D02*
D03*
X18475Y37275D02*
D03*
X26875Y54275D02*
D03*
X9358Y75221D02*
D03*
X11164Y83565D02*
D03*
X17647Y41621D02*
D03*
X36725Y32925D02*
D03*
X20325Y42725D02*
D03*
Y43725D02*
D03*
X23129Y13966D02*
D03*
X27000Y53496D02*
D03*
X27500Y50274D02*
D03*
X29200Y61674D02*
D03*
X28209Y61688D02*
D03*
X25327Y54301D02*
D03*
X36510Y36325D02*
D03*
X6050Y71450D02*
D03*
X46763Y85475D02*
D03*
X53375Y91400D02*
D03*
X30700Y66125D02*
D03*
X46050Y66275D02*
D03*
X43875Y71875D02*
D03*
X43700Y62550D02*
D03*
X34325Y69700D02*
D03*
X29649Y74149D02*
D03*
X29375Y67475D02*
D03*
X22025Y85625D02*
D03*
X52013Y74787D02*
D03*
X33737Y71475D02*
D03*
X34025Y85700D02*
D03*
X37763Y71250D02*
D03*
X36775Y71825D02*
D03*
X58800Y87275D02*
D03*
X36075Y74525D02*
D03*
X41675Y72650D02*
D03*
X25275Y73525D02*
D03*
X24138Y84325D02*
D03*
X31851Y71764D02*
D03*
X17850Y81425D02*
D03*
X49725Y72488D02*
D03*
X41338Y60877D02*
D03*
X10450Y67655D02*
D03*
X12475Y79200D02*
D03*
X12325Y71425D02*
D03*
X41125Y66375D02*
D03*
X7625Y81275D02*
D03*
X32250Y72575D02*
D03*
X43900Y70225D02*
D03*
X43225Y70700D02*
D03*
X42575Y71825D02*
D03*
X44500Y70825D02*
D03*
X39825Y67900D02*
D03*
X44550Y63150D02*
D03*
X33550Y63050D02*
D03*
X36625Y83275D02*
D03*
X37350Y75550D02*
D03*
X46575Y67800D02*
D03*
X37750Y63975D02*
D03*
X44925Y67875D02*
D03*
X26800Y63150D02*
D03*
X36975Y66175D02*
D03*
X45200Y61700D02*
D03*
X48375Y67150D02*
D03*
X27025Y81100D02*
D03*
X26100Y80000D02*
D03*
X28475Y78575D02*
D03*
X23850Y75200D02*
D03*
X26825Y64725D02*
D03*
X31475Y65775D02*
D03*
X43225Y63950D02*
D03*
X42475Y66175D02*
D03*
X34325Y68650D02*
D03*
X39050Y70850D02*
D03*
X39825Y68650D02*
D03*
X45250D02*
D03*
X38400Y70325D02*
D03*
X40475Y72525D02*
D03*
X47688Y71825D02*
D03*
X45925Y72575D02*
D03*
X23938Y91463D02*
D03*
X38800Y84925D02*
D03*
X35500Y85625D02*
D03*
X41525Y77188D02*
D03*
X26575Y82975D02*
D03*
X30075Y75000D02*
D03*
X46650Y92600D02*
D03*
X30100Y79975D02*
D03*
X42204Y81434D02*
D03*
X55450Y90200D02*
D03*
X56125Y92975D02*
D03*
X55100Y74800D02*
D03*
Y73500D02*
D03*
X19500Y98500D02*
D03*
X35075D02*
D03*
X29925Y98475D02*
D03*
X53275Y89450D02*
D03*
X58925Y93250D02*
D03*
X37900Y84900D02*
D03*
X30650Y83925D02*
D03*
X59225Y88900D02*
D03*
X30750Y77950D02*
D03*
X41475Y78700D02*
D03*
X38900Y76700D02*
D03*
X46725Y88537D02*
D03*
X51050Y84475D02*
D03*
X48050Y90425D02*
D03*
X51550Y87550D02*
D03*
X47825Y88425D02*
D03*
X36825Y85925D02*
D03*
X21975Y61550D02*
D03*
X23800Y82988D02*
D03*
X16525Y79730D02*
D03*
X13875Y79305D02*
D03*
X12950Y61030D02*
D03*
X12363Y66713D02*
D03*
X14125Y69655D02*
D03*
X12500Y82930D02*
D03*
X37650Y67850D02*
D03*
X38537Y61100D02*
D03*
X38462Y62425D02*
D03*
X14125Y71225D02*
D03*
X35925Y73275D02*
D03*
X35375Y72850D02*
D03*
X34975Y71200D02*
D03*
X15300Y82905D02*
D03*
X40625Y60800D02*
D03*
X45825Y63350D02*
D03*
X38900Y78575D02*
D03*
X38787Y72262D02*
D03*
X40025Y63025D02*
D03*
X40400Y63975D02*
D03*
X42750Y62600D02*
D03*
X17325Y71150D02*
D03*
X16875Y72250D02*
D03*
X27900Y71750D02*
D03*
X27325Y71000D02*
D03*
X27425Y70175D02*
D03*
X22700Y67900D02*
D03*
X19450Y73125D02*
D03*
X28700Y71750D02*
D03*
X28400Y77625D02*
D03*
X23750Y74100D02*
D03*
X25975Y72200D02*
D03*
X24050Y72400D02*
D03*
X27950Y67925D02*
D03*
X20848Y72999D02*
D03*
X21475Y70150D02*
D03*
X14875Y72150D02*
D03*
X12175Y64000D02*
D03*
X13400Y72150D02*
D03*
X26800Y67700D02*
D03*
X22700Y70387D02*
D03*
X15100Y79300D02*
D03*
X17275Y64750D02*
D03*
X18450Y65725D02*
D03*
X14450Y66825D02*
D03*
X29513Y85088D02*
D03*
X19875Y62162D02*
D03*
X30148Y80798D02*
D03*
X28050Y73850D02*
D03*
X13525Y59606D02*
D03*
X56963Y73963D02*
D03*
X27590Y56344D02*
D03*
X28865D02*
D03*
X30165D02*
D03*
X18200Y45725D02*
D03*
X25308Y55691D02*
D03*
X18075Y42460D02*
D03*
X19550Y38686D02*
D03*
X33074Y21025D02*
D03*
X35738Y19345D02*
D03*
X39163Y33700D02*
D03*
X10675Y93702D02*
D03*
X16031Y95670D02*
D03*
X13326Y92784D02*
D03*
X14435Y90858D02*
D03*
X13910Y91806D02*
D03*
X13293Y90841D02*
D03*
X14321Y92735D02*
D03*
X14299Y82184D02*
D03*
X13271Y80290D02*
D03*
X13888Y81255D02*
D03*
X14413Y80306D02*
D03*
X13303Y82232D02*
D03*
X13250Y95600D02*
D03*
X13284Y94500D02*
D03*
X45940Y93310D02*
D03*
X39586Y92901D02*
D03*
X43100Y94488D02*
D03*
X43805Y94229D02*
D03*
X15943Y43150D02*
D03*
X32406Y22959D02*
D03*
X33900Y33025D02*
D03*
X21184Y60737D02*
D03*
X24650Y89875D02*
D03*
X23000Y61525D02*
D03*
X12351Y45388D02*
D03*
X9416Y48148D02*
D03*
X46571Y25855D02*
D03*
X59172Y4017D02*
D03*
X55572Y817D02*
D03*
X59172Y6557D02*
D03*
Y9097D02*
D03*
Y14177D02*
D03*
Y19257D02*
D03*
Y16717D02*
D03*
Y11637D02*
D03*
Y26877D02*
D03*
Y24337D02*
D03*
Y21797D02*
D03*
Y34497D02*
D03*
Y31957D02*
D03*
Y29417D02*
D03*
Y39577D02*
D03*
Y37037D02*
D03*
Y72597D02*
D03*
Y70057D02*
D03*
Y67517D02*
D03*
Y80217D02*
D03*
Y77677D02*
D03*
Y75137D02*
D03*
Y85297D02*
D03*
Y82757D02*
D03*
Y95457D02*
D03*
X47952Y817D02*
D03*
X50492D02*
D03*
X53032D02*
D03*
X40332D02*
D03*
X42872D02*
D03*
X45412D02*
D03*
X32712D02*
D03*
X35252D02*
D03*
X37792D02*
D03*
X25092D02*
D03*
X27632D02*
D03*
X30172D02*
D03*
X17472D02*
D03*
X20012D02*
D03*
X22552D02*
D03*
X900Y4250D02*
D03*
Y11870D02*
D03*
Y9330D02*
D03*
Y6790D02*
D03*
Y19490D02*
D03*
Y16950D02*
D03*
Y14410D02*
D03*
Y22030D02*
D03*
Y34730D02*
D03*
Y32190D02*
D03*
X900Y29850D02*
D03*
X900Y42350D02*
D03*
Y39810D02*
D03*
Y37270D02*
D03*
Y49970D02*
D03*
Y47430D02*
D03*
Y44890D02*
D03*
Y57590D02*
D03*
Y55050D02*
D03*
Y52510D02*
D03*
Y65210D02*
D03*
Y62670D02*
D03*
Y60130D02*
D03*
Y72830D02*
D03*
Y70290D02*
D03*
Y67750D02*
D03*
Y80450D02*
D03*
Y77910D02*
D03*
Y75370D02*
D03*
Y88070D02*
D03*
Y85530D02*
D03*
Y82990D02*
D03*
Y95690D02*
D03*
Y93150D02*
D03*
Y90610D02*
D03*
X4350Y99100D02*
D03*
X55550D02*
D03*
X53010D02*
D03*
X50470D02*
D03*
X38719Y98965D02*
D03*
X24979Y95979D02*
D03*
X23850Y98200D02*
D03*
X37100Y99000D02*
D03*
X6860Y99100D02*
D03*
X9370D02*
D03*
X11880D02*
D03*
X14390D02*
D03*
X16900D02*
D03*
X5970Y45541D02*
D03*
X5966Y54455D02*
D03*
X5886Y63531D02*
D03*
X5833Y68416D02*
D03*
X15050Y58307D02*
D03*
X18494Y54329D02*
D03*
X21571Y51056D02*
D03*
X48709Y79021D02*
D03*
X49819Y75966D02*
D03*
X41150Y82900D02*
D03*
Y81800D02*
D03*
X16400Y90850D02*
D03*
X14417Y34614D02*
D03*
X23860Y60188D02*
D03*
X23860Y58738D02*
D03*
X32660Y70938D02*
D03*
X31375Y71075D02*
D03*
X32860Y63088D02*
D03*
X34150Y72998D02*
D03*
X31475Y63281D02*
D03*
X34750Y66475D02*
D03*
X35010Y67188D02*
D03*
X33925Y67748D02*
D03*
X19710Y68038D02*
D03*
X46388Y82794D02*
D03*
X15688Y44550D02*
D03*
X49810Y65138D02*
D03*
X34910Y65638D02*
D03*
X30710Y61888D02*
D03*
X23400Y87000D02*
D03*
X21344Y25845D02*
D03*
X43366Y11499D02*
D03*
X35511Y17148D02*
D03*
X41415Y24752D02*
D03*
X44250Y74900D02*
D03*
X43135Y76728D02*
D03*
X43093Y81436D02*
D03*
X10675Y89909D02*
D03*
X37450Y89350D02*
D03*
X37081Y96250D02*
D03*
X38841Y93100D02*
D03*
X40601Y94550D02*
D03*
X31100Y92106D02*
D03*
X32900Y92250D02*
D03*
X44888Y83294D02*
D03*
X32017Y14199D02*
D03*
X38186Y26964D02*
D03*
X28816Y26850D02*
D03*
X34216Y29700D02*
D03*
X28757Y16916D02*
D03*
X30260Y24806D02*
D03*
X50700Y71300D02*
D03*
D62*
X13728Y89307D02*
D03*
X18212Y82375D02*
D03*
X18750Y87035D02*
D03*
X32450Y85700D02*
D03*
X22675Y90100D02*
D03*
X18750Y85600D02*
D03*
X21388Y79950D02*
D03*
D63*
X33025Y81175D02*
D03*
X33675Y80525D02*
D03*
Y79875D02*
D03*
X34975Y81825D02*
D03*
X34325D02*
D03*
X36925Y81175D02*
D03*
X36275Y80525D02*
D03*
X36925Y77925D02*
D03*
X36925Y78575D02*
D03*
X34321Y77922D02*
D03*
X33025Y76625D02*
D03*
X36950Y80500D02*
D03*
X33675Y77275D02*
D03*
X34325Y77275D02*
D03*
X34325Y79875D02*
D03*
X36274Y79874D02*
D03*
X34975Y76625D02*
D03*
Y78575D02*
D03*
X34975Y79875D02*
D03*
Y79225D02*
D03*
X36475Y82625D02*
D03*
X33675Y78575D02*
D03*
M02*
