G04 Layer_Color=8388736*
%FSLAX43Y43*%
%MOMM*%
G71*
G01*
G75*
%ADD115R,0.510X0.900*%
%ADD116R,0.900X0.510*%
%ADD117R,1.950X0.850*%
%ADD118R,2.900X1.500*%
%ADD119R,0.700X1.000*%
%ADD120R,1.000X0.700*%
%ADD121R,0.750X0.900*%
%ADD122R,0.900X0.750*%
%ADD123R,1.800X2.600*%
%ADD124R,0.775X0.450*%
%ADD125R,1.100X2.350*%
%ADD126R,1.600X1.450*%
%ADD127R,1.050X1.100*%
%ADD128R,0.800X0.800*%
%ADD129R,1.100X1.050*%
%ADD130R,0.650X0.700*%
%ADD131R,0.600X0.700*%
%ADD132R,0.600X0.750*%
%ADD133R,0.800X0.800*%
%ADD134R,0.700X0.650*%
%ADD135R,0.862X0.862*%
%ADD136R,2.800X1.350*%
%ADD137R,1.500X0.700*%
%ADD138R,0.640X0.900*%
%ADD139R,0.400X0.700*%
%ADD140R,0.400X1.100*%
%ADD141R,0.500X1.100*%
%ADD142R,0.700X0.600*%
%ADD143O,2.150X0.400*%
%ADD144O,0.400X2.150*%
%ADD145R,1.850X2.650*%
%ADD146R,0.825X0.500*%
%ADD147R,0.450X0.850*%
%ADD148R,1.750X1.550*%
%ADD149R,1.250X1.500*%
%ADD150R,1.650X1.100*%
%ADD151C,1.370*%
%ADD152R,0.500X1.450*%
%ADD153R,1.900X2.000*%
%ADD154C,3.700*%
%ADD155C,1.100*%
%ADD156R,1.800X1.800*%
%ADD157C,1.800*%
%ADD158R,1.800X1.800*%
%ADD159C,1.150*%
G04:AMPARAMS|DCode=160|XSize=2.2mm|YSize=2mm|CornerRadius=0.544mm|HoleSize=0mm|Usage=FLASHONLY|Rotation=0.000|XOffset=0mm|YOffset=0mm|HoleType=Round|Shape=RoundedRectangle|*
%AMROUNDEDRECTD160*
21,1,2.200,0.912,0,0,0.0*
21,1,1.112,2.000,0,0,0.0*
1,1,1.088,0.556,-0.456*
1,1,1.088,-0.556,-0.456*
1,1,1.088,-0.556,0.456*
1,1,1.088,0.556,0.456*
%
%ADD160ROUNDEDRECTD160*%
G04:AMPARAMS|DCode=161|XSize=1.15mm|YSize=1.35mm|CornerRadius=0.575mm|HoleSize=0mm|Usage=FLASHONLY|Rotation=180.000|XOffset=0mm|YOffset=0mm|HoleType=Round|Shape=RoundedRectangle|*
%AMROUNDEDRECTD161*
21,1,1.150,0.200,0,0,180.0*
21,1,0.000,1.350,0,0,180.0*
1,1,1.150,0.000,0.100*
1,1,1.150,0.000,0.100*
1,1,1.150,0.000,-0.100*
1,1,1.150,0.000,-0.100*
%
%ADD161ROUNDEDRECTD161*%
%ADD162C,0.650*%
G36*
X41810Y99324D02*
X41819Y99321D01*
X41828Y99317D01*
X41836Y99311D01*
X41842Y99303D01*
X41846Y99294D01*
X41849Y99285D01*
X41850Y99275D01*
Y97375D01*
X41849Y97365D01*
X41846Y97356D01*
X41842Y97347D01*
X41836Y97339D01*
X41828Y97333D01*
X41819Y97329D01*
X41810Y97326D01*
X41800Y97325D01*
X40200D01*
X40198Y97325D01*
X40196Y97325D01*
X40148Y97329D01*
X40147Y97329D01*
X40145Y97329D01*
X40092Y97336D01*
X40089Y97337D01*
X40085Y97338D01*
X40032Y97353D01*
X40030Y97353D01*
X40028Y97354D01*
X39985Y97370D01*
X39983Y97371D01*
X39981Y97372D01*
X39939Y97392D01*
X39937Y97393D01*
X39934Y97395D01*
X39890Y97423D01*
X39888Y97424D01*
X39887Y97425D01*
X39849Y97454D01*
X39847Y97455D01*
X39846Y97456D01*
X39807Y97490D01*
X39804Y97493D01*
X39801Y97496D01*
X39772Y97532D01*
X39771Y97533D01*
X39771Y97534D01*
X39743Y97571D01*
X39741Y97573D01*
X39740Y97576D01*
X39716Y97617D01*
X39715Y97619D01*
X39714Y97620D01*
X39694Y97662D01*
X39693Y97664D01*
X39692Y97666D01*
X39676Y97708D01*
X39675Y97711D01*
X39674Y97714D01*
X39662Y97765D01*
X39662Y97767D01*
X39661Y97769D01*
X39654Y97814D01*
X39654Y97816D01*
X39654Y97818D01*
X39650Y97871D01*
X39650Y97873D01*
X39650Y97875D01*
Y98775D01*
X39650Y98777D01*
X39650Y98779D01*
X39654Y98834D01*
X39654Y98836D01*
X39655Y98839D01*
X39663Y98884D01*
X39663Y98885D01*
X39663Y98887D01*
X39675Y98937D01*
X39676Y98940D01*
X39677Y98944D01*
X39693Y98984D01*
X39706Y99016D01*
X39708Y99020D01*
X39710Y99023D01*
X39735Y99066D01*
X39736Y99068D01*
X39737Y99070D01*
X39763Y99107D01*
X39764Y99108D01*
X39765Y99110D01*
X39796Y99148D01*
X39799Y99150D01*
X39801Y99153D01*
X39846Y99194D01*
X39848Y99196D01*
X39850Y99197D01*
X39890Y99227D01*
X39892Y99228D01*
X39893Y99229D01*
X39939Y99258D01*
X39942Y99260D01*
X39945Y99262D01*
X39998Y99286D01*
X40001Y99287D01*
X40005Y99288D01*
X40092Y99314D01*
X40097Y99315D01*
X40101Y99316D01*
X40101Y99316D01*
X40101Y99316D01*
X40101D01*
X40195Y99325D01*
X40198Y99325D01*
X40200Y99325D01*
X41800D01*
X41810Y99324D01*
D02*
G37*
G36*
X48602Y99325D02*
X48604Y99325D01*
X48652Y99321D01*
X48653Y99321D01*
X48655Y99321D01*
X48708Y99314D01*
X48711Y99313D01*
X48715Y99312D01*
X48768Y99297D01*
X48770Y99297D01*
X48772Y99296D01*
X48815Y99280D01*
X48817Y99279D01*
X48819Y99278D01*
X48861Y99258D01*
X48863Y99257D01*
X48866Y99255D01*
X48910Y99227D01*
X48912Y99226D01*
X48913Y99225D01*
X48951Y99196D01*
X48953Y99195D01*
X48954Y99194D01*
X48993Y99160D01*
X48996Y99157D01*
X48999Y99154D01*
X49028Y99118D01*
X49029Y99117D01*
X49029Y99116D01*
X49057Y99079D01*
X49059Y99077D01*
X49060Y99074D01*
X49084Y99033D01*
X49085Y99031D01*
X49086Y99030D01*
X49106Y98988D01*
X49107Y98986D01*
X49108Y98984D01*
X49124Y98942D01*
X49125Y98939D01*
X49126Y98936D01*
X49138Y98885D01*
X49138Y98883D01*
X49139Y98881D01*
X49146Y98836D01*
X49146Y98834D01*
X49146Y98832D01*
X49150Y98779D01*
X49150Y98777D01*
X49150Y98775D01*
Y97875D01*
X49150Y97873D01*
X49150Y97871D01*
X49146Y97816D01*
X49146Y97814D01*
X49145Y97811D01*
X49137Y97766D01*
X49137Y97765D01*
X49137Y97763D01*
X49125Y97713D01*
X49124Y97710D01*
X49123Y97706D01*
X49107Y97666D01*
X49094Y97634D01*
X49092Y97630D01*
X49090Y97627D01*
X49065Y97584D01*
X49064Y97582D01*
X49063Y97580D01*
X49037Y97543D01*
X49036Y97542D01*
X49035Y97540D01*
X49004Y97502D01*
X49001Y97500D01*
X48999Y97497D01*
X48954Y97456D01*
X48952Y97454D01*
X48950Y97453D01*
X48910Y97423D01*
X48908Y97422D01*
X48907Y97421D01*
X48861Y97392D01*
X48858Y97390D01*
X48855Y97388D01*
X48802Y97364D01*
X48799Y97363D01*
X48795Y97362D01*
X48708Y97336D01*
X48703Y97335D01*
X48699Y97334D01*
X48699Y97334D01*
X48699Y97334D01*
X48699D01*
X48605Y97325D01*
X48602Y97325D01*
X48600Y97325D01*
X47000D01*
X46990Y97326D01*
X46981Y97329D01*
X46972Y97333D01*
X46964Y97339D01*
X46958Y97347D01*
X46954Y97356D01*
X46951Y97365D01*
X46950Y97375D01*
Y99275D01*
X46951Y99285D01*
X46954Y99294D01*
X46958Y99303D01*
X46964Y99311D01*
X46972Y99317D01*
X46981Y99321D01*
X46990Y99324D01*
X47000Y99325D01*
X48600D01*
X48602Y99325D01*
D02*
G37*
D115*
X38302Y31022D02*
D03*
D116*
X15750Y46805D02*
D03*
X13325Y78260D02*
D03*
X13325Y88280D02*
D03*
D117*
X34988Y23009D02*
D03*
X34989Y20109D02*
D03*
D118*
X7625Y87735D02*
D03*
Y90635D02*
D03*
Y82430D02*
D03*
Y85330D02*
D03*
Y77205D02*
D03*
Y80105D02*
D03*
X7650Y92990D02*
D03*
Y95890D02*
D03*
D119*
X12500Y94500D02*
D03*
Y95600D02*
D03*
X16550Y92300D02*
D03*
Y93400D02*
D03*
X15278Y94557D02*
D03*
Y95657D02*
D03*
X33074Y22959D02*
D03*
Y21859D02*
D03*
X9416Y46050D02*
D03*
Y47150D02*
D03*
X14775Y68630D02*
D03*
Y69730D02*
D03*
X12500Y83855D02*
D03*
Y84955D02*
D03*
X16525Y81830D02*
D03*
Y80730D02*
D03*
X19450Y44375D02*
D03*
Y43275D02*
D03*
X28865Y54450D02*
D03*
Y55550D02*
D03*
X27590Y54450D02*
D03*
Y55550D02*
D03*
X40550Y37700D02*
D03*
Y36600D02*
D03*
X35650Y54450D02*
D03*
Y55550D02*
D03*
X18550Y47840D02*
D03*
Y48940D02*
D03*
Y51640D02*
D03*
Y50540D02*
D03*
X29100Y32450D02*
D03*
Y33550D02*
D03*
X30165Y55550D02*
D03*
Y54450D02*
D03*
D120*
X40250Y44000D02*
D03*
X41350D02*
D03*
X18450Y37993D02*
D03*
X19550D02*
D03*
X12875Y67600D02*
D03*
X11775D02*
D03*
X15125Y83705D02*
D03*
X14025D02*
D03*
X37200Y33700D02*
D03*
X38300D02*
D03*
X35000D02*
D03*
X33900D02*
D03*
X33875Y90300D02*
D03*
X32775D02*
D03*
X18450Y41621D02*
D03*
X19550D02*
D03*
X18200Y46425D02*
D03*
X19300D02*
D03*
D121*
X24600Y87825D02*
D03*
Y89025D02*
D03*
X20525Y70175D02*
D03*
Y68975D02*
D03*
X20500Y67375D02*
D03*
Y66175D02*
D03*
X10950Y68955D02*
D03*
Y70155D02*
D03*
X12325Y70155D02*
D03*
Y68955D02*
D03*
X41140Y33427D02*
D03*
Y34627D02*
D03*
X41138Y30761D02*
D03*
Y31961D02*
D03*
X33707Y30672D02*
D03*
Y31872D02*
D03*
X39807Y30772D02*
D03*
Y31972D02*
D03*
D122*
X19600Y40138D02*
D03*
X18400D02*
D03*
X27250Y90100D02*
D03*
X26050D02*
D03*
X7500Y52100D02*
D03*
X6300D02*
D03*
X17275Y65730D02*
D03*
X16075D02*
D03*
D123*
X17488Y68355D02*
D03*
X13888Y81255D02*
D03*
D124*
X16076Y67380D02*
D03*
Y68030D02*
D03*
Y68680D02*
D03*
Y69330D02*
D03*
X18900D02*
D03*
Y68680D02*
D03*
Y68030D02*
D03*
Y67380D02*
D03*
X12476Y80280D02*
D03*
Y80930D02*
D03*
Y81580D02*
D03*
Y82230D02*
D03*
X15300D02*
D03*
Y81580D02*
D03*
Y80930D02*
D03*
Y80280D02*
D03*
D125*
X24375Y70125D02*
D03*
Y64625D02*
D03*
X28375D02*
D03*
Y70125D02*
D03*
X36000Y92350D02*
D03*
Y97850D02*
D03*
X32000D02*
D03*
Y92350D02*
D03*
X29000D02*
D03*
Y97850D02*
D03*
X25000D02*
D03*
Y92350D02*
D03*
D126*
X10600Y82105D02*
D03*
Y80455D02*
D03*
X10675Y92590D02*
D03*
Y90940D02*
D03*
D127*
X38307Y31872D02*
D03*
Y30172D02*
D03*
D128*
X16650Y44550D02*
D03*
Y43150D02*
D03*
X9432Y49155D02*
D03*
Y50555D02*
D03*
D129*
X16600Y46800D02*
D03*
X14900D02*
D03*
X14175Y78255D02*
D03*
X12475D02*
D03*
X14175Y88275D02*
D03*
X12475D02*
D03*
D130*
X23400Y87925D02*
D03*
Y88925D02*
D03*
X41000Y93600D02*
D03*
Y92600D02*
D03*
D131*
X51250Y97000D02*
D03*
Y98000D02*
D03*
X53500Y97000D02*
D03*
Y98000D02*
D03*
D132*
X41900Y92625D02*
D03*
Y93575D02*
D03*
X47400Y91375D02*
D03*
Y90425D02*
D03*
X48700Y91375D02*
D03*
Y90425D02*
D03*
D133*
X47400Y92500D02*
D03*
X48800D02*
D03*
D134*
X35050Y90300D02*
D03*
X36050D02*
D03*
D135*
X26120Y55699D02*
D03*
Y54301D02*
D03*
X18075Y43127D02*
D03*
Y44523D02*
D03*
D136*
X12950Y62380D02*
D03*
Y65430D02*
D03*
D137*
X8000D02*
D03*
X9900Y66380D02*
D03*
Y64480D02*
D03*
D138*
X43558Y92588D02*
D03*
D139*
X43438Y91738D02*
D03*
X43938Y91738D02*
D03*
X43438Y93438D02*
D03*
X43938Y93438D02*
D03*
D140*
X44438Y91938D02*
D03*
X44938D02*
D03*
X44438Y93238D02*
D03*
D141*
X44988D02*
D03*
D142*
X27726Y88086D02*
D03*
X26726D02*
D03*
D143*
X22325Y50000D02*
D03*
Y49500D02*
D03*
Y49000D02*
D03*
Y48500D02*
D03*
Y48000D02*
D03*
Y47500D02*
D03*
Y47000D02*
D03*
Y46500D02*
D03*
Y46000D02*
D03*
Y45500D02*
D03*
Y45000D02*
D03*
Y44500D02*
D03*
Y44000D02*
D03*
Y43500D02*
D03*
Y43000D02*
D03*
Y42500D02*
D03*
Y42000D02*
D03*
Y41500D02*
D03*
Y41000D02*
D03*
Y40500D02*
D03*
Y40000D02*
D03*
Y39500D02*
D03*
Y39000D02*
D03*
Y38500D02*
D03*
Y38000D02*
D03*
X37675D02*
D03*
Y38500D02*
D03*
Y39000D02*
D03*
Y39500D02*
D03*
Y40000D02*
D03*
Y40500D02*
D03*
Y41000D02*
D03*
Y41500D02*
D03*
Y42000D02*
D03*
Y42500D02*
D03*
Y43000D02*
D03*
Y43500D02*
D03*
Y44000D02*
D03*
Y44500D02*
D03*
Y45000D02*
D03*
Y45500D02*
D03*
Y46000D02*
D03*
Y46500D02*
D03*
Y47000D02*
D03*
Y47500D02*
D03*
Y48000D02*
D03*
Y48500D02*
D03*
Y49000D02*
D03*
Y49500D02*
D03*
Y50000D02*
D03*
D144*
X24000Y36325D02*
D03*
X24500D02*
D03*
X25000D02*
D03*
X25500D02*
D03*
X26000D02*
D03*
X26500D02*
D03*
X27000D02*
D03*
X27500D02*
D03*
X28000D02*
D03*
X28500D02*
D03*
X29000D02*
D03*
X29500D02*
D03*
X30000D02*
D03*
X30500D02*
D03*
X31000D02*
D03*
X31500D02*
D03*
X32000D02*
D03*
X32500D02*
D03*
X33000D02*
D03*
X33500D02*
D03*
X34000D02*
D03*
X34500D02*
D03*
X35000D02*
D03*
X35500D02*
D03*
X36000D02*
D03*
Y51675D02*
D03*
X35500D02*
D03*
X35000D02*
D03*
X34500D02*
D03*
X34000D02*
D03*
X33500D02*
D03*
X33000D02*
D03*
X32500D02*
D03*
X32000D02*
D03*
X31500D02*
D03*
X31000D02*
D03*
X30500D02*
D03*
X30000D02*
D03*
X29500D02*
D03*
X29000D02*
D03*
X28500D02*
D03*
X28000D02*
D03*
X27500D02*
D03*
X27000D02*
D03*
X26500D02*
D03*
X26000D02*
D03*
X25500D02*
D03*
X25000D02*
D03*
X24500D02*
D03*
X24000D02*
D03*
D145*
X13888Y91815D02*
D03*
D146*
X12476Y90840D02*
D03*
Y91490D02*
D03*
Y92140D02*
D03*
Y92790D02*
D03*
X15300D02*
D03*
Y92140D02*
D03*
Y91490D02*
D03*
Y90840D02*
D03*
D147*
X34238Y23009D02*
D03*
X34738D02*
D03*
X35238D02*
D03*
X35738D02*
D03*
Y20109D02*
D03*
X35238D02*
D03*
X34738D02*
D03*
X34238D02*
D03*
D148*
X34988Y21559D02*
D03*
D149*
X36707Y31872D02*
D03*
Y29672D02*
D03*
X35107D02*
D03*
Y31872D02*
D03*
D150*
X16725Y48450D02*
D03*
Y51050D02*
D03*
D151*
X16075Y63955D02*
D03*
D152*
X43100Y95525D02*
D03*
X43750D02*
D03*
X44400D02*
D03*
X45050D02*
D03*
X45700D02*
D03*
D153*
X45549Y98325D02*
D03*
X43251D02*
D03*
D154*
X2350Y2350D02*
D03*
X57650D02*
D03*
X2350Y97650D02*
D03*
X57650D02*
D03*
D155*
X16190Y29957D02*
D03*
Y32497D02*
D03*
Y35037D02*
D03*
Y37577D02*
D03*
Y27497D02*
D03*
D156*
X9085Y34555D02*
D03*
X2222Y40790D02*
D03*
Y38250D02*
D03*
Y33170D02*
D03*
Y35710D02*
D03*
Y45870D02*
D03*
Y43330D02*
D03*
Y48410D02*
D03*
Y50950D02*
D03*
X8700Y61075D02*
D03*
X8600Y70043D02*
D03*
X4000Y80060D02*
D03*
X53030Y71270D02*
D03*
Y35710D02*
D03*
Y86510D02*
D03*
X4000Y90590D02*
D03*
X2222Y64430D02*
D03*
X50482Y60094D02*
D03*
Y57554D02*
D03*
Y37234D02*
D03*
Y39774D02*
D03*
Y44854D02*
D03*
Y42314D02*
D03*
Y52474D02*
D03*
Y55014D02*
D03*
Y49934D02*
D03*
Y47394D02*
D03*
Y25550D02*
D03*
Y28090D02*
D03*
Y33170D02*
D03*
Y30630D02*
D03*
Y20470D02*
D03*
Y23010D02*
D03*
Y17930D02*
D03*
Y15390D02*
D03*
X2222Y28090D02*
D03*
Y25550D02*
D03*
Y20470D02*
D03*
Y23010D02*
D03*
Y15390D02*
D03*
Y17930D02*
D03*
D157*
X9085Y32015D02*
D03*
X30111Y12710D02*
D03*
X27571D02*
D03*
X25031D02*
D03*
X27571Y15250D02*
D03*
X25031D02*
D03*
X8700Y58535D02*
D03*
X8600Y72582D02*
D03*
X4000Y82600D02*
D03*
X39475Y87475D02*
D03*
X36935D02*
D03*
X18570Y4430D02*
D03*
X28730Y6970D02*
D03*
Y4430D02*
D03*
X26190D02*
D03*
Y6970D02*
D03*
X23650Y4430D02*
D03*
Y6970D02*
D03*
X21110Y4430D02*
D03*
Y6970D02*
D03*
X18570D02*
D03*
X31270D02*
D03*
X33810D02*
D03*
Y4430D02*
D03*
X36350Y6970D02*
D03*
Y4430D02*
D03*
X38890Y6970D02*
D03*
Y4430D02*
D03*
X41430D02*
D03*
X31270D02*
D03*
X55570Y61110D02*
D03*
Y71270D02*
D03*
Y68730D02*
D03*
X53030D02*
D03*
X55570Y66190D02*
D03*
X53030D02*
D03*
X55570Y63650D02*
D03*
X53030D02*
D03*
Y61110D02*
D03*
Y48410D02*
D03*
Y50950D02*
D03*
X55570D02*
D03*
X53030Y53490D02*
D03*
X55570D02*
D03*
X53030Y56030D02*
D03*
X55570D02*
D03*
Y58570D02*
D03*
X53030D02*
D03*
X55570Y48410D02*
D03*
X8635Y42865D02*
D03*
X11175D02*
D03*
X13715D02*
D03*
X11175Y40325D02*
D03*
X13715D02*
D03*
X55570Y25550D02*
D03*
Y35710D02*
D03*
Y33170D02*
D03*
X53030D02*
D03*
X55570Y30630D02*
D03*
X53030D02*
D03*
X55570Y28090D02*
D03*
X53030D02*
D03*
Y25550D02*
D03*
Y12850D02*
D03*
Y15390D02*
D03*
X55570D02*
D03*
X53030Y17930D02*
D03*
X55570D02*
D03*
X53030Y20470D02*
D03*
X55570D02*
D03*
Y23010D02*
D03*
X53030D02*
D03*
X55570Y12850D02*
D03*
Y86510D02*
D03*
Y83970D02*
D03*
X53030D02*
D03*
X4000Y93130D02*
D03*
X2222Y66970D02*
D03*
Y69510D02*
D03*
D158*
X30111Y15250D02*
D03*
X42015Y87475D02*
D03*
X41430Y6970D02*
D03*
X8635Y40325D02*
D03*
X18730Y89050D02*
D03*
X21270D02*
D03*
D159*
X57550Y78695D02*
D03*
X56280D02*
D03*
X55010D02*
D03*
X53740D02*
D03*
Y77425D02*
D03*
X55010D02*
D03*
X56280D02*
D03*
X57550D02*
D03*
X52470D02*
D03*
Y78695D02*
D03*
D160*
X48050Y98325D02*
D03*
X40750D02*
D03*
D161*
X42175Y95200D02*
D03*
X46625D02*
D03*
D162*
X10675Y89909D02*
D03*
M02*
