G04 Layer_Color=128*
%FSLAX43Y43*%
%MOMM*%
G71*
G01*
G75*
%ADD11R,0.600X0.900*%
%ADD12R,0.900X0.600*%
%ADD13R,0.650X0.800*%
%ADD14R,0.800X0.650*%
%ADD18R,1.500X1.350*%
%ADD22R,0.550X0.600*%
%ADD24R,0.500X0.650*%
%ADD25R,0.700X0.700*%
%ADD26R,0.600X0.550*%
%ADD33R,0.400X1.000*%
%ADD79C,0.800*%
%ADD80R,1.000X0.400*%
%ADD81R,1.050X0.600*%
%ADD82R,0.650X0.500*%
%ADD83R,0.720X1.050*%
%ADD84R,0.350X0.300*%
%ADD85R,0.700X0.900*%
%ADD86R,1.050X0.720*%
%ADD87R,0.300X0.350*%
%ADD88R,0.950X1.750*%
%ADD89R,1.200X1.350*%
%ADD90R,0.600X1.400*%
%ADD91R,0.350X0.850*%
%ADD92R,1.300X0.600*%
%ADD93R,2.200X0.600*%
%ADD94R,1.050X0.650*%
%ADD95C,0.280*%
%ADD96R,0.400X0.250*%
%ADD97R,0.250X0.400*%
%ADD98R,1.300X1.600*%
D11*
X38850Y91750D02*
D03*
Y90650D02*
D03*
D12*
X20950Y87035D02*
D03*
X19850D02*
D03*
X42850Y93450D02*
D03*
X43950D02*
D03*
X30000Y91400D02*
D03*
X31100D02*
D03*
D13*
X34400Y93100D02*
D03*
Y94300D02*
D03*
X16862Y83435D02*
D03*
Y84635D02*
D03*
X48675Y68650D02*
D03*
Y69850D02*
D03*
X46650Y63975D02*
D03*
Y65175D02*
D03*
X24675Y89050D02*
D03*
Y87850D02*
D03*
X23400Y87850D02*
D03*
Y89050D02*
D03*
X33050Y88738D02*
D03*
Y87537D02*
D03*
X54800Y91400D02*
D03*
Y90200D02*
D03*
X58800Y90200D02*
D03*
Y91400D02*
D03*
X18212Y83435D02*
D03*
Y84635D02*
D03*
X23800Y81975D02*
D03*
Y80775D02*
D03*
X25100Y80775D02*
D03*
Y81975D02*
D03*
X51050Y86525D02*
D03*
Y85325D02*
D03*
X48700Y72488D02*
D03*
Y71287D02*
D03*
D14*
X37075Y44500D02*
D03*
X38275D02*
D03*
X15225Y70225D02*
D03*
X16425D02*
D03*
X58400Y88900D02*
D03*
X57200D02*
D03*
X55900D02*
D03*
X54700D02*
D03*
X53000Y73500D02*
D03*
X54200D02*
D03*
X53000Y74800D02*
D03*
X54200D02*
D03*
X49763D02*
D03*
X50963D02*
D03*
X47775Y87550D02*
D03*
X46575D02*
D03*
X46725Y89300D02*
D03*
X47925D02*
D03*
X37075Y46000D02*
D03*
X38275D02*
D03*
D18*
X21388Y82988D02*
D03*
Y81338D02*
D03*
D22*
X30200Y64975D02*
D03*
Y63975D02*
D03*
X35650Y64025D02*
D03*
Y65025D02*
D03*
X37725Y69750D02*
D03*
Y68750D02*
D03*
X32250Y68675D02*
D03*
Y69675D02*
D03*
X26800Y69625D02*
D03*
Y68625D02*
D03*
X43225Y68750D02*
D03*
Y69750D02*
D03*
X14738Y61750D02*
D03*
Y62750D02*
D03*
X41225Y64025D02*
D03*
Y65025D02*
D03*
X39700Y83800D02*
D03*
Y82800D02*
D03*
Y80800D02*
D03*
Y81800D02*
D03*
X43104Y83134D02*
D03*
Y82134D02*
D03*
X19875Y61237D02*
D03*
Y60237D02*
D03*
X14875Y64213D02*
D03*
Y65213D02*
D03*
D24*
X31475Y64950D02*
D03*
Y64000D02*
D03*
X17975Y71225D02*
D03*
Y72175D02*
D03*
X22700Y72175D02*
D03*
Y71225D02*
D03*
X33550Y69675D02*
D03*
Y68725D02*
D03*
X22712Y69550D02*
D03*
Y68600D02*
D03*
X28075Y69600D02*
D03*
Y68650D02*
D03*
X17975Y74150D02*
D03*
Y75100D02*
D03*
X22625Y75125D02*
D03*
Y74175D02*
D03*
X44500Y69675D02*
D03*
Y68725D02*
D03*
X42475Y65000D02*
D03*
Y64050D02*
D03*
X36975Y65000D02*
D03*
Y64050D02*
D03*
X39050Y69675D02*
D03*
Y68725D02*
D03*
X43135Y77370D02*
D03*
Y78320D02*
D03*
X43093Y80701D02*
D03*
Y79751D02*
D03*
X42204Y83109D02*
D03*
Y82159D02*
D03*
X30000Y78575D02*
D03*
Y77625D02*
D03*
X29125Y78575D02*
D03*
Y77625D02*
D03*
X16862Y86162D02*
D03*
Y87113D02*
D03*
X26025Y64900D02*
D03*
Y63950D02*
D03*
D25*
X27225Y80000D02*
D03*
X28625D02*
D03*
D26*
X29200Y62375D02*
D03*
X28200D02*
D03*
X34513Y62288D02*
D03*
X33513D02*
D03*
X36725Y67150D02*
D03*
X35725D02*
D03*
X25800Y67025D02*
D03*
X24800D02*
D03*
X31250Y67075D02*
D03*
X30250D02*
D03*
X47675Y67150D02*
D03*
X46675D02*
D03*
X19450Y69725D02*
D03*
X18450D02*
D03*
X45650Y62475D02*
D03*
X44650D02*
D03*
X42225Y67150D02*
D03*
X41225D02*
D03*
X19250Y65025D02*
D03*
X18250D02*
D03*
X36000Y62450D02*
D03*
X37000D02*
D03*
X35975Y61175D02*
D03*
X36975D02*
D03*
D33*
X32900Y63925D02*
D03*
X33550D02*
D03*
X34200D02*
D03*
Y65625D02*
D03*
X33550D02*
D03*
X32900D02*
D03*
X34975Y68650D02*
D03*
X35625D02*
D03*
X36275D02*
D03*
Y70350D02*
D03*
X35625D02*
D03*
X34975D02*
D03*
X24050Y68525D02*
D03*
X24700D02*
D03*
X25350D02*
D03*
Y70225D02*
D03*
X24700D02*
D03*
X24050D02*
D03*
X29500Y68575D02*
D03*
X30150D02*
D03*
X30800D02*
D03*
Y70275D02*
D03*
X30150D02*
D03*
X29500D02*
D03*
X45925Y68650D02*
D03*
X46575D02*
D03*
X47225D02*
D03*
Y70350D02*
D03*
X46575D02*
D03*
X45925D02*
D03*
X22000Y63825D02*
D03*
X22650D02*
D03*
X23300D02*
D03*
Y65525D02*
D03*
X22650D02*
D03*
X22000D02*
D03*
X43900Y63975D02*
D03*
X44550D02*
D03*
X45200D02*
D03*
Y65675D02*
D03*
X44550D02*
D03*
X43900D02*
D03*
X38400Y63975D02*
D03*
X39050D02*
D03*
X39700D02*
D03*
Y65675D02*
D03*
X39050D02*
D03*
X38400D02*
D03*
X40475Y68650D02*
D03*
X41125D02*
D03*
X41775D02*
D03*
Y70350D02*
D03*
X41125D02*
D03*
X40475D02*
D03*
X27450Y63875D02*
D03*
X28100D02*
D03*
X28750D02*
D03*
Y65575D02*
D03*
X28100D02*
D03*
X27450D02*
D03*
D79*
X38974Y96441D02*
D03*
D80*
X19450Y72250D02*
D03*
Y71600D02*
D03*
Y70950D02*
D03*
X21150D02*
D03*
Y71600D02*
D03*
Y72250D02*
D03*
X19450Y75175D02*
D03*
Y74525D02*
D03*
Y73875D02*
D03*
X21150D02*
D03*
Y74525D02*
D03*
Y75175D02*
D03*
D81*
X18150Y66575D02*
D03*
Y67525D02*
D03*
Y68475D02*
D03*
X15700D02*
D03*
Y67525D02*
D03*
Y66575D02*
D03*
X18575Y63675D02*
D03*
Y62725D02*
D03*
Y61775D02*
D03*
X16125D02*
D03*
Y62725D02*
D03*
Y63675D02*
D03*
D82*
X27525Y67050D02*
D03*
X28475D02*
D03*
X32975Y67100D02*
D03*
X33925D02*
D03*
X35050Y71825D02*
D03*
X36000D02*
D03*
X24125Y71700D02*
D03*
X25075D02*
D03*
X29575Y71750D02*
D03*
X30525D02*
D03*
X46000Y71825D02*
D03*
X46950D02*
D03*
X23000Y62325D02*
D03*
X22050D02*
D03*
X22175Y67025D02*
D03*
X23125D02*
D03*
X43975Y67150D02*
D03*
X44925D02*
D03*
X38475Y67150D02*
D03*
X39425D02*
D03*
X40550Y71825D02*
D03*
X41500D02*
D03*
X41650Y60175D02*
D03*
X40700D02*
D03*
X37500Y59925D02*
D03*
X36550D02*
D03*
X28800Y81100D02*
D03*
X27850D02*
D03*
X34975Y84900D02*
D03*
X34025D02*
D03*
X34975Y84000D02*
D03*
X34025D02*
D03*
X36125Y84900D02*
D03*
X37075D02*
D03*
X36125Y84000D02*
D03*
X37075D02*
D03*
X39725Y78700D02*
D03*
X40675D02*
D03*
X34150Y74500D02*
D03*
X35100D02*
D03*
X34150Y73600D02*
D03*
X35100D02*
D03*
D83*
X50415Y88425D02*
D03*
X49435Y88425D02*
D03*
D84*
X49275Y87550D02*
D03*
X49925D02*
D03*
X50575D02*
D03*
Y89300D02*
D03*
X49925D02*
D03*
X49275D02*
D03*
D85*
X36350Y96250D02*
D03*
X34850D02*
D03*
X32850Y91300D02*
D03*
X34350D02*
D03*
D86*
X20475Y85850D02*
D03*
X20475Y84870D02*
D03*
X49050Y85400D02*
D03*
X49050Y86380D02*
D03*
D87*
X21350Y84710D02*
D03*
Y85360D02*
D03*
Y86010D02*
D03*
X19600D02*
D03*
Y85360D02*
D03*
Y84710D02*
D03*
X48175Y86540D02*
D03*
Y85890D02*
D03*
Y85240D02*
D03*
X49925D02*
D03*
Y85890D02*
D03*
Y86540D02*
D03*
D88*
X39625Y94250D02*
D03*
X36675D02*
D03*
D89*
X49453Y81606D02*
D03*
X51353D02*
D03*
D90*
X14312Y86400D02*
D03*
X13363Y84500D02*
D03*
X15262D02*
D03*
D91*
X56125Y90275D02*
D03*
X56775D02*
D03*
X57425D02*
D03*
Y92125D02*
D03*
X56775D02*
D03*
X56125D02*
D03*
D92*
X31350Y88975D02*
D03*
Y87075D02*
D03*
X29250Y88025D02*
D03*
D93*
X32375Y96880D02*
D03*
Y95610D02*
D03*
Y94340D02*
D03*
Y93070D02*
D03*
X27525Y96880D02*
D03*
Y95610D02*
D03*
Y94340D02*
D03*
Y93070D02*
D03*
D94*
X42825Y91853D02*
D03*
X42825Y90900D02*
D03*
X42825Y89947D02*
D03*
X40375D02*
D03*
Y91853D02*
D03*
D95*
X37900Y76300D02*
D03*
Y76950D02*
D03*
Y77600D02*
D03*
Y78250D02*
D03*
Y79550D02*
D03*
Y80200D02*
D03*
Y80850D02*
D03*
Y78900D02*
D03*
X37250D02*
D03*
X36600D02*
D03*
X35950D02*
D03*
X35300D02*
D03*
X34650D02*
D03*
X34000D02*
D03*
X33350D02*
D03*
X32700D02*
D03*
X32050D02*
D03*
X37250Y76300D02*
D03*
X36600D02*
D03*
X35950D02*
D03*
X35300D02*
D03*
X34650D02*
D03*
X34000D02*
D03*
X33350D02*
D03*
X32700D02*
D03*
X32050D02*
D03*
X37250Y76950D02*
D03*
X36600D02*
D03*
X35950D02*
D03*
X35300D02*
D03*
X34650D02*
D03*
X34000D02*
D03*
X33350D02*
D03*
X32700D02*
D03*
X32050D02*
D03*
X37250Y77600D02*
D03*
X36600D02*
D03*
X35950D02*
D03*
X35300D02*
D03*
X34650D02*
D03*
X34000D02*
D03*
X33350D02*
D03*
X32700D02*
D03*
X32050D02*
D03*
X37250Y78250D02*
D03*
X36600D02*
D03*
X35950D02*
D03*
X35300D02*
D03*
X34650D02*
D03*
X34000D02*
D03*
X33350D02*
D03*
X32700D02*
D03*
X32050D02*
D03*
X37250Y79550D02*
D03*
X36600D02*
D03*
X35950D02*
D03*
X35300D02*
D03*
X34650D02*
D03*
X34000D02*
D03*
X33350D02*
D03*
X32050D02*
D03*
X37250Y80200D02*
D03*
X36600D02*
D03*
X35950D02*
D03*
X35300D02*
D03*
X34650D02*
D03*
X34000D02*
D03*
X33350D02*
D03*
X32700D02*
D03*
X32050D02*
D03*
X37250Y80850D02*
D03*
X36600D02*
D03*
X35950D02*
D03*
X35300D02*
D03*
X34650D02*
D03*
X34000D02*
D03*
X33350D02*
D03*
X32700D02*
D03*
X32050D02*
D03*
X37900Y81500D02*
D03*
X37250D02*
D03*
X36600D02*
D03*
X35950D02*
D03*
X35300D02*
D03*
X34650D02*
D03*
X34000D02*
D03*
X33350D02*
D03*
X32700D02*
D03*
X32050D02*
D03*
X37900Y82150D02*
D03*
X37250D02*
D03*
X36600D02*
D03*
X35950D02*
D03*
X35300D02*
D03*
X34650D02*
D03*
X34000D02*
D03*
X33350D02*
D03*
X32700D02*
D03*
X32050D02*
D03*
X32700Y79550D02*
D03*
D96*
X41230Y61950D02*
D03*
Y62450D02*
D03*
Y61450D02*
D03*
X40020D02*
D03*
Y62450D02*
D03*
Y61950D02*
D03*
D97*
X40625Y61350D02*
D03*
Y62550D02*
D03*
D98*
X46900Y77550D02*
D03*
Y81350D02*
D03*
X44600D02*
D03*
Y77550D02*
D03*
M02*
