G04 Layer_Physical_Order=4*
G04 Layer_Color=16711680*
%FSLAX43Y43*%
%MOMM*%
G71*
G01*
G75*
%ADD11R,0.600X0.900*%
%ADD12R,0.900X0.600*%
%ADD13R,0.650X0.800*%
%ADD14R,0.800X0.650*%
%ADD18R,1.500X1.350*%
%ADD19R,0.950X1.000*%
%ADD21R,1.000X0.950*%
%ADD22R,0.550X0.600*%
%ADD24R,0.500X0.650*%
%ADD25R,0.700X0.700*%
%ADD26R,0.600X0.550*%
%ADD33R,0.400X1.000*%
%ADD41C,1.270*%
%ADD43C,0.175*%
%ADD44C,0.200*%
%ADD45C,0.300*%
%ADD46C,0.250*%
%ADD47C,0.500*%
%ADD48C,0.150*%
%ADD49C,0.125*%
%ADD50R,0.300X0.900*%
%ADD51R,0.900X0.300*%
%ADD53C,3.600*%
%ADD55R,1.700X1.700*%
%ADD56C,1.700*%
%ADD57R,1.700X1.700*%
%ADD58C,1.050*%
G04:AMPARAMS|DCode=59|XSize=2.1mm|YSize=1.9mm|CornerRadius=0.494mm|HoleSize=0mm|Usage=FLASHONLY|Rotation=0.000|XOffset=0mm|YOffset=0mm|HoleType=Round|Shape=RoundedRectangle|*
%AMROUNDEDRECTD59*
21,1,2.100,0.912,0,0,0.0*
21,1,1.112,1.900,0,0,0.0*
1,1,0.988,0.556,-0.456*
1,1,0.988,-0.556,-0.456*
1,1,0.988,-0.556,0.456*
1,1,0.988,0.556,0.456*
%
%ADD59ROUNDEDRECTD59*%
G04:AMPARAMS|DCode=60|XSize=1.05mm|YSize=1.25mm|CornerRadius=0.525mm|HoleSize=0mm|Usage=FLASHONLY|Rotation=180.000|XOffset=0mm|YOffset=0mm|HoleType=Round|Shape=RoundedRectangle|*
%AMROUNDEDRECTD60*
21,1,1.050,0.200,0,0,180.0*
21,1,0.000,1.250,0,0,180.0*
1,1,1.050,0.000,0.100*
1,1,1.050,0.000,0.100*
1,1,1.050,0.000,-0.100*
1,1,1.050,0.000,-0.100*
%
%ADD60ROUNDEDRECTD60*%
%ADD61C,0.550*%
%ADD62C,0.600*%
%ADD63C,0.400*%
%ADD79C,0.800*%
%ADD80R,1.000X0.400*%
%ADD81R,1.050X0.600*%
%ADD82R,0.650X0.500*%
%ADD83R,0.720X1.050*%
%ADD84R,0.350X0.300*%
%ADD85R,0.700X0.900*%
%ADD86R,1.050X0.720*%
%ADD87R,0.300X0.350*%
%ADD88R,0.950X1.750*%
%ADD89R,1.200X1.350*%
%ADD90R,0.600X1.400*%
%ADD91R,0.350X0.850*%
%ADD92R,1.300X0.600*%
%ADD93R,2.200X0.600*%
%ADD94R,1.050X0.650*%
%ADD95C,0.280*%
%ADD96R,0.400X0.250*%
%ADD97R,0.250X0.400*%
%ADD98R,1.300X1.600*%
%ADD99C,0.180*%
%ADD100R,1.000X1.000*%
%ADD101R,1.000X1.000*%
G36*
X59471Y93697D02*
X59344Y93659D01*
X59340Y93665D01*
X59149Y93792D01*
X58925Y93836D01*
X58701Y93792D01*
X58510Y93665D01*
X58383Y93474D01*
X58339Y93250D01*
X58383Y93026D01*
X58510Y92835D01*
X58657Y92737D01*
Y91975D01*
X58300D01*
Y91244D01*
X58183Y91196D01*
X57775Y91604D01*
Y92725D01*
X57693D01*
Y93187D01*
X57840Y93285D01*
X57967Y93476D01*
X58011Y93700D01*
X57967Y93924D01*
X57840Y94115D01*
X57649Y94242D01*
X57425Y94286D01*
X57201Y94242D01*
X57010Y94115D01*
X56883Y93924D01*
X56839Y93700D01*
X56883Y93476D01*
X57010Y93285D01*
X57157Y93187D01*
Y92725D01*
X56500D01*
Y92750D01*
X56225D01*
Y92125D01*
X56125D01*
Y92025D01*
X55750D01*
Y91668D01*
X55300D01*
Y91975D01*
X54300D01*
Y91668D01*
X53737D01*
X53699Y91724D01*
X53551Y91824D01*
X53375Y91859D01*
X53199Y91824D01*
X53051Y91724D01*
X52951Y91576D01*
X52916Y91400D01*
X52951Y91224D01*
X53051Y91076D01*
X53199Y90976D01*
X53375Y90941D01*
X53551Y90976D01*
X53699Y91076D01*
X53737Y91132D01*
X54300D01*
Y90825D01*
X54300D01*
Y90775D01*
X54300D01*
Y89625D01*
X55300D01*
Y89671D01*
X55398Y89751D01*
X55450Y89741D01*
X55626Y89776D01*
X55648Y89791D01*
X55775Y89723D01*
Y89675D01*
X55857D01*
Y89400D01*
X55402D01*
X55325Y89400D01*
X55198Y89400D01*
X54125D01*
Y89168D01*
X53936D01*
X53827Y89277D01*
X53861Y89450D01*
X53817Y89674D01*
X53690Y89865D01*
X53499Y89992D01*
X53275Y90036D01*
X53051Y89992D01*
X52860Y89865D01*
X52733Y89674D01*
X52689Y89450D01*
X52733Y89226D01*
X52860Y89035D01*
X53051Y88908D01*
X53275Y88864D01*
X53448Y88898D01*
X53636Y88711D01*
X53723Y88653D01*
X53825Y88632D01*
X54125D01*
Y88400D01*
X55198D01*
X55275Y88400D01*
X55402Y88400D01*
X55632D01*
Y88325D01*
X55653Y88223D01*
X55711Y88136D01*
X56411Y87435D01*
X56395Y87338D01*
X56268Y87298D01*
X56100Y87427D01*
X55844Y87533D01*
X55670Y87556D01*
Y86610D01*
X56616D01*
X56612Y86640D01*
X56730Y86714D01*
X56776Y86683D01*
X57000Y86639D01*
X57224Y86683D01*
X57415Y86810D01*
X57542Y87001D01*
X57586Y87225D01*
X57542Y87449D01*
X57415Y87640D01*
X57224Y87767D01*
X57000Y87811D01*
X56827Y87777D01*
X56321Y88283D01*
X56369Y88400D01*
X56475D01*
Y88957D01*
X56535Y89009D01*
X56602Y89024D01*
X56625Y88995D01*
Y88400D01*
X57321D01*
X58252Y87469D01*
X58214Y87275D01*
X58258Y87051D01*
X58385Y86860D01*
X58576Y86733D01*
X58800Y86689D01*
X59024Y86733D01*
X59215Y86860D01*
X59342Y87051D01*
X59344Y87060D01*
X59471Y87048D01*
Y529D01*
X16400D01*
Y12675D01*
X14171D01*
Y21246D01*
X14298Y21299D01*
X20535Y15061D01*
X20622Y15003D01*
X20724Y14983D01*
X24033D01*
X24136Y14733D01*
X24300Y14519D01*
X24475Y14385D01*
X24432Y14258D01*
X23475D01*
X23454Y14290D01*
X23305Y14389D01*
X23129Y14424D01*
X22954Y14389D01*
X22805Y14290D01*
X22705Y14141D01*
X22670Y13966D01*
X22705Y13790D01*
X22805Y13641D01*
X22954Y13542D01*
X23129Y13507D01*
X23305Y13542D01*
X23454Y13641D01*
X23508Y13723D01*
X24418D01*
X24461Y13596D01*
X24282Y13459D01*
X24114Y13240D01*
X24008Y12984D01*
X23985Y12810D01*
X25031D01*
X26077D01*
X26054Y12984D01*
X25948Y13240D01*
X25780Y13459D01*
X25602Y13596D01*
X25645Y13723D01*
X27006D01*
X27041Y13638D01*
X27042Y13596D01*
X26840Y13441D01*
X26676Y13227D01*
X26573Y12978D01*
X26537Y12710D01*
X26573Y12443D01*
X26676Y12193D01*
X26840Y11979D01*
X27054Y11815D01*
X27304Y11712D01*
X27571Y11676D01*
X27839Y11712D01*
X28088Y11815D01*
X28766Y11137D01*
X28853Y11079D01*
X28955Y11059D01*
X30742D01*
X30845Y11079D01*
X30932Y11137D01*
X31373Y11579D01*
X31431Y11665D01*
X31451Y11768D01*
Y13255D01*
X31950Y13753D01*
X32017Y13740D01*
X32192Y13775D01*
X32341Y13875D01*
X32441Y14023D01*
X32476Y14199D01*
X32441Y14375D01*
X32341Y14523D01*
X32192Y14623D01*
X32017Y14658D01*
X31841Y14623D01*
X31692Y14523D01*
X31593Y14375D01*
X31558Y14199D01*
X31571Y14132D01*
X30994Y13555D01*
X30957Y13500D01*
X30927Y13484D01*
X30848Y13468D01*
X30807Y13468D01*
X30628Y13606D01*
X30379Y13709D01*
X30111Y13744D01*
X29844Y13709D01*
X29594Y13606D01*
X29380Y13441D01*
X29216Y13227D01*
X29113Y12978D01*
X29077Y12710D01*
X29113Y12443D01*
X29216Y12193D01*
X29380Y11979D01*
X29594Y11815D01*
X29844Y11712D01*
X29813Y11594D01*
X29066D01*
X28467Y12193D01*
X28570Y12443D01*
X28605Y12710D01*
X28570Y12978D01*
X28467Y13227D01*
X28302Y13441D01*
X28101Y13596D01*
X28102Y13638D01*
X28137Y13723D01*
X28852D01*
X28954Y13743D01*
X29041Y13801D01*
X29465Y14225D01*
X31136D01*
Y16275D01*
X29086D01*
Y14604D01*
X28741Y14258D01*
X28171D01*
X28128Y14385D01*
X28302Y14519D01*
X28467Y14733D01*
X28570Y14983D01*
X28605Y15250D01*
X28570Y15518D01*
X28467Y15767D01*
X28302Y15981D01*
X28088Y16146D01*
X27839Y16249D01*
X27571Y16284D01*
X27304Y16249D01*
X27054Y16146D01*
X26840Y15981D01*
X26676Y15767D01*
X26573Y15518D01*
X26537Y15250D01*
X26573Y14983D01*
X26676Y14733D01*
X26840Y14519D01*
X27015Y14385D01*
X26972Y14258D01*
X25631D01*
X25588Y14385D01*
X25762Y14519D01*
X25927Y14733D01*
X26030Y14983D01*
X26065Y15250D01*
X26030Y15518D01*
X25927Y15767D01*
X25762Y15981D01*
X25548Y16146D01*
X25299Y16249D01*
X25031Y16284D01*
X24764Y16249D01*
X24514Y16146D01*
X24300Y15981D01*
X24136Y15767D01*
X24033Y15518D01*
X20835D01*
X14684Y21669D01*
Y34251D01*
X14741Y34289D01*
X14840Y34438D01*
X14875Y34614D01*
X14840Y34789D01*
X14741Y34938D01*
X14592Y35038D01*
X14417Y35072D01*
X14298Y35049D01*
X14171Y35132D01*
Y36173D01*
X15397Y37399D01*
X15515Y37351D01*
Y36902D01*
X16865D01*
Y37310D01*
X17587D01*
X17690Y37330D01*
X17777Y37388D01*
X18980Y38592D01*
X19118Y38550D01*
X19126Y38510D01*
X19226Y38361D01*
X19374Y38262D01*
X19550Y38227D01*
X19653Y38247D01*
X19780Y38157D01*
Y37252D01*
X17833Y35305D01*
X16865D01*
Y35712D01*
X15515D01*
Y34362D01*
X16865D01*
Y34770D01*
X17944D01*
X18046Y34790D01*
X18133Y34848D01*
X20183Y36898D01*
X20310Y36845D01*
Y34509D01*
X18566Y32765D01*
X16865D01*
Y33172D01*
X15515D01*
Y31822D01*
X16865D01*
Y32230D01*
X18677D01*
X18779Y32250D01*
X18866Y32308D01*
X20678Y34120D01*
X20805Y34068D01*
Y30910D01*
X20825Y30808D01*
X20883Y30721D01*
X26079Y25526D01*
Y21980D01*
X26099Y21877D01*
X26157Y21791D01*
X38622Y9325D01*
Y7969D01*
X38373Y7865D01*
X38159Y7701D01*
X37995Y7487D01*
X37891Y7238D01*
X37856Y6970D01*
X37891Y6702D01*
X37995Y6453D01*
X38159Y6239D01*
X38373Y6075D01*
X38622Y5971D01*
X38890Y5936D01*
X39158Y5971D01*
X39407Y6075D01*
X39621Y6239D01*
X39750Y6406D01*
X39877Y6363D01*
Y5795D01*
X39407Y5325D01*
X39158Y5429D01*
X38890Y5464D01*
X38622Y5429D01*
X38373Y5325D01*
X38159Y5161D01*
X37995Y4947D01*
X37891Y4698D01*
X37856Y4430D01*
X37891Y4162D01*
X37995Y3913D01*
X38159Y3699D01*
X38373Y3535D01*
X38622Y3431D01*
X38890Y3396D01*
X39158Y3431D01*
X39407Y3535D01*
X39621Y3699D01*
X39785Y3913D01*
X39889Y4162D01*
X39924Y4430D01*
X39889Y4698D01*
X39785Y4947D01*
X40333Y5495D01*
X40392Y5582D01*
X40412Y5684D01*
Y5945D01*
X42455D01*
Y7995D01*
X40412D01*
Y8620D01*
X40392Y8723D01*
X40333Y8810D01*
X39517Y9627D01*
X39542Y9703D01*
X39579Y9744D01*
X39643Y9731D01*
X48257D01*
X48360Y9751D01*
X48446Y9809D01*
X51946Y13309D01*
X52054Y13237D01*
X52007Y13124D01*
X51984Y12950D01*
X53030D01*
X54076D01*
X54053Y13124D01*
X53947Y13380D01*
X53779Y13599D01*
X53679Y13675D01*
X53722Y13802D01*
X54250D01*
X54353Y13823D01*
X54439Y13881D01*
X55053Y14495D01*
X55302Y14391D01*
X55570Y14356D01*
X55838Y14391D01*
X56087Y14495D01*
X56301Y14659D01*
X56465Y14873D01*
X56569Y15122D01*
X56604Y15390D01*
X56569Y15658D01*
X56465Y15907D01*
X56301Y16121D01*
X56087Y16285D01*
X55838Y16389D01*
X55570Y16424D01*
X55302Y16389D01*
X55053Y16285D01*
X54839Y16121D01*
X54675Y15907D01*
X54571Y15658D01*
X54536Y15390D01*
X54571Y15122D01*
X54675Y14873D01*
X54139Y14338D01*
X53500D01*
X53475Y14465D01*
X53547Y14495D01*
X53761Y14659D01*
X53925Y14873D01*
X54029Y15122D01*
X54064Y15390D01*
X54029Y15658D01*
X53925Y15907D01*
X53761Y16121D01*
X53547Y16285D01*
X53298Y16389D01*
X53030Y16424D01*
X52762Y16389D01*
X52513Y16285D01*
X52299Y16121D01*
X52135Y15907D01*
X52031Y15658D01*
X51996Y15390D01*
X52031Y15122D01*
X52135Y14873D01*
X48220Y10958D01*
X39651D01*
X39569Y11085D01*
X39574Y11105D01*
X39691Y11182D01*
X39791Y11331D01*
X39825Y11507D01*
X39791Y11682D01*
X39691Y11831D01*
X39560Y11919D01*
X39538Y11952D01*
X39517Y12065D01*
X39590Y12174D01*
X39625Y12350D01*
X39590Y12526D01*
X39491Y12674D01*
X39342Y12774D01*
X39166Y12809D01*
X39088Y12793D01*
X30041Y21841D01*
Y22372D01*
X30158Y22421D01*
X32748Y19832D01*
X32834Y19774D01*
X32937Y19753D01*
X46754D01*
X47876Y18631D01*
Y17339D01*
X47897Y17236D01*
X47955Y17149D01*
X48480Y16624D01*
X48567Y16566D01*
X48669Y16546D01*
X50438D01*
X50446Y16419D01*
X50396Y16413D01*
X50214Y16389D01*
X49965Y16285D01*
X49751Y16121D01*
X49587Y15907D01*
X49483Y15658D01*
X49448Y15390D01*
X49483Y15122D01*
X49587Y14873D01*
X49751Y14659D01*
X49965Y14495D01*
X50214Y14391D01*
X50482Y14356D01*
X50750Y14391D01*
X50999Y14495D01*
X51213Y14659D01*
X51377Y14873D01*
X51481Y15122D01*
X51516Y15390D01*
X51481Y15658D01*
X51377Y15907D01*
X51213Y16121D01*
X50999Y16285D01*
X50750Y16389D01*
X50568Y16413D01*
X50518Y16419D01*
X50526Y16546D01*
X51914D01*
X52016Y16566D01*
X52103Y16624D01*
X52513Y17035D01*
X52762Y16931D01*
X53030Y16896D01*
X53298Y16931D01*
X53547Y17035D01*
X53761Y17199D01*
X53925Y17413D01*
X54029Y17662D01*
X54064Y17930D01*
X54029Y18198D01*
X53925Y18447D01*
X53802Y18608D01*
X53864Y18735D01*
X54387D01*
X54675Y18447D01*
X54571Y18198D01*
X54536Y17930D01*
X54571Y17662D01*
X54675Y17413D01*
X54839Y17199D01*
X55053Y17035D01*
X55302Y16931D01*
X55570Y16896D01*
X55838Y16931D01*
X56087Y17035D01*
X56301Y17199D01*
X56465Y17413D01*
X56569Y17662D01*
X56604Y17930D01*
X56569Y18198D01*
X56465Y18447D01*
X56301Y18661D01*
X56087Y18825D01*
X55838Y18929D01*
X55570Y18964D01*
X55302Y18929D01*
X55053Y18825D01*
X54687Y19192D01*
X54600Y19250D01*
X54498Y19270D01*
X48433D01*
X47183Y20520D01*
X47096Y20578D01*
X46994Y20598D01*
X44944D01*
X44906Y20725D01*
X44964Y20764D01*
X45002Y20821D01*
X47674D01*
X48214Y20281D01*
X48301Y20223D01*
X48404Y20202D01*
X49483D01*
X49587Y19953D01*
X49751Y19739D01*
X49965Y19575D01*
X50214Y19471D01*
X50482Y19436D01*
X50750Y19471D01*
X50999Y19575D01*
X51213Y19739D01*
X51377Y19953D01*
X51481Y20202D01*
X51516Y20470D01*
X51481Y20738D01*
X51377Y20987D01*
X51213Y21201D01*
X51163Y21240D01*
X51204Y21360D01*
X52308D01*
X52349Y21240D01*
X52299Y21201D01*
X52135Y20987D01*
X52031Y20738D01*
X51996Y20470D01*
X52031Y20202D01*
X52135Y19953D01*
X52299Y19739D01*
X52513Y19575D01*
X52762Y19471D01*
X53030Y19436D01*
X53298Y19471D01*
X53547Y19575D01*
X53761Y19739D01*
X53925Y19953D01*
X54029Y20202D01*
X54064Y20470D01*
X54029Y20738D01*
X53925Y20987D01*
X53761Y21201D01*
X53711Y21240D01*
X53752Y21360D01*
X54188D01*
X54290Y21380D01*
X54377Y21438D01*
X55053Y22115D01*
X55302Y22011D01*
X55570Y21976D01*
X55838Y22011D01*
X56087Y22115D01*
X56301Y22279D01*
X56465Y22493D01*
X56569Y22742D01*
X56604Y23010D01*
X56569Y23278D01*
X56465Y23527D01*
X57936Y24998D01*
X57994Y25084D01*
X58015Y25187D01*
Y40479D01*
X57994Y40582D01*
X57936Y40669D01*
X56369Y42236D01*
X56282Y42294D01*
X56180Y42314D01*
X55147D01*
X55045Y42294D01*
X54958Y42236D01*
X54707Y41984D01*
X54640Y41998D01*
X54464Y41963D01*
X54315Y41863D01*
X54216Y41714D01*
X54181Y41539D01*
X54181Y41537D01*
X54085Y41424D01*
X51204D01*
X51163Y41544D01*
X51213Y41583D01*
X51377Y41797D01*
X51481Y42046D01*
X51516Y42314D01*
X51481Y42582D01*
X51377Y42831D01*
X51248Y43000D01*
X51306Y43127D01*
X55055D01*
X55157Y43147D01*
X55244Y43205D01*
X57944Y45905D01*
X58002Y45992D01*
X58023Y46094D01*
Y53845D01*
X58002Y53947D01*
X57944Y54034D01*
X56465Y55513D01*
X56569Y55762D01*
X56604Y56030D01*
X56569Y56298D01*
X56465Y56547D01*
X56301Y56761D01*
X56087Y56925D01*
X55838Y57029D01*
X55570Y57064D01*
X55302Y57029D01*
X55053Y56925D01*
X54839Y56761D01*
X54675Y56547D01*
X54571Y56298D01*
X54536Y56030D01*
X54571Y55762D01*
X54675Y55513D01*
X54839Y55299D01*
X54977Y55193D01*
X54934Y55066D01*
X54675D01*
X54014Y55727D01*
X54029Y55762D01*
X54064Y56030D01*
X54029Y56298D01*
X53925Y56547D01*
X53761Y56761D01*
X53613Y56875D01*
X53656Y57002D01*
X54270D01*
X54372Y57022D01*
X54459Y57080D01*
X55053Y57675D01*
X55302Y57571D01*
X55570Y57536D01*
X55838Y57571D01*
X56087Y57675D01*
X56301Y57839D01*
X56465Y58053D01*
X56569Y58302D01*
X56604Y58570D01*
X56569Y58838D01*
X56465Y59087D01*
X56301Y59301D01*
X56087Y59465D01*
X55863Y59558D01*
X55862Y59665D01*
X55868Y59687D01*
X55949Y59697D01*
X56301Y59843D01*
X56604Y60076D01*
X56837Y60379D01*
X56983Y60731D01*
X57033Y61110D01*
X56983Y61489D01*
X56837Y61841D01*
X56604Y62144D01*
X56401Y62300D01*
Y62460D01*
X56604Y62616D01*
X56837Y62919D01*
X56983Y63271D01*
X57033Y63650D01*
X56983Y64029D01*
X56837Y64381D01*
X56604Y64684D01*
X56401Y64840D01*
Y65000D01*
X56604Y65156D01*
X56837Y65459D01*
X56983Y65811D01*
X57033Y66190D01*
X56983Y66569D01*
X56837Y66921D01*
X56604Y67224D01*
X56401Y67380D01*
Y67540D01*
X56604Y67696D01*
X56837Y67999D01*
X56983Y68351D01*
X57033Y68730D01*
X56983Y69109D01*
X56837Y69461D01*
X56604Y69764D01*
X56301Y69997D01*
X55949Y70143D01*
X55930Y70145D01*
X55913Y70275D01*
X56100Y70353D01*
X56319Y70521D01*
X56487Y70740D01*
X56593Y70996D01*
X56616Y71170D01*
X55570D01*
X54524D01*
X54547Y70996D01*
X54653Y70740D01*
X54758Y70603D01*
X54752Y70579D01*
X54677Y70472D01*
X54498Y70496D01*
X54055D01*
Y72295D01*
X53268D01*
Y73000D01*
X53575D01*
X53575Y73000D01*
X53625D01*
Y73000D01*
X53702Y73000D01*
X54775D01*
Y73023D01*
X54902Y73091D01*
X54924Y73076D01*
X55100Y73041D01*
X55276Y73076D01*
X55424Y73176D01*
X55524Y73324D01*
X55559Y73500D01*
X55524Y73676D01*
X55502Y73708D01*
X55564Y73834D01*
X55653Y73844D01*
X56622Y72875D01*
X56608Y72808D01*
X56643Y72632D01*
X56743Y72483D01*
X56892Y72384D01*
X57067Y72349D01*
X57243Y72384D01*
X57392Y72483D01*
X57491Y72632D01*
X57526Y72808D01*
X57491Y72983D01*
X57392Y73132D01*
X57243Y73231D01*
X57067Y73266D01*
X57000Y73253D01*
X56858Y73395D01*
X56921Y73512D01*
X56963Y73504D01*
X57138Y73539D01*
X57287Y73638D01*
X57386Y73787D01*
X57421Y73963D01*
X57386Y74138D01*
X57287Y74287D01*
X57138Y74386D01*
X56963Y74421D01*
X56896Y74408D01*
X55614Y75689D01*
X55527Y75747D01*
X55425Y75768D01*
X50463D01*
X50360Y75747D01*
X50273Y75689D01*
X49884Y75300D01*
X49188D01*
Y75068D01*
X46289D01*
X44988Y76368D01*
X44901Y76426D01*
X44799Y76447D01*
X41627D01*
X41601Y76487D01*
X41662Y76628D01*
X41749Y76646D01*
X41940Y76773D01*
X42067Y76963D01*
X42111Y77188D01*
X42067Y77412D01*
X41940Y77602D01*
X41749Y77729D01*
X41525Y77774D01*
X41352Y77739D01*
X40977Y78114D01*
X40964Y78123D01*
X41002Y78250D01*
X41200D01*
Y78600D01*
X40675D01*
Y78800D01*
X41200D01*
Y78930D01*
X42206D01*
X42710Y78426D01*
Y77895D01*
X42685D01*
Y77470D01*
X43135D01*
X43585D01*
Y77672D01*
X43775D01*
Y76575D01*
X45425D01*
Y78525D01*
X43775D01*
Y78182D01*
X43634D01*
X43560Y78255D01*
Y78820D01*
X43037D01*
X42733Y79124D01*
X42785Y79251D01*
X43518D01*
Y79421D01*
X45467D01*
X45565Y79441D01*
X45648Y79496D01*
X46527Y80375D01*
X47725D01*
X47828Y80317D01*
X47832Y80296D01*
X47904Y80188D01*
X48215Y79877D01*
X48323Y79805D01*
X48450Y79780D01*
X54865D01*
X54992Y79805D01*
X55099Y79877D01*
X55804Y80582D01*
X55876Y80689D01*
X55901Y80816D01*
Y82998D01*
X56087Y83075D01*
X56301Y83239D01*
X56465Y83453D01*
X56569Y83702D01*
X56604Y83970D01*
X56569Y84238D01*
X56465Y84487D01*
X56301Y84701D01*
X56087Y84865D01*
X55838Y84969D01*
X55570Y85004D01*
X55302Y84969D01*
X55053Y84865D01*
X54839Y84701D01*
X54675Y84487D01*
X54571Y84238D01*
X54536Y83970D01*
X54571Y83702D01*
X54675Y83453D01*
X54839Y83239D01*
X55053Y83075D01*
X55239Y82998D01*
Y80953D01*
X54728Y80442D01*
X48587D01*
X48470Y80560D01*
Y82111D01*
X48587Y82160D01*
X48678Y82069D01*
Y80756D01*
X50228D01*
Y82456D01*
X49228D01*
X49090Y82594D01*
X49139Y82711D01*
X50743D01*
X50743Y82711D01*
X50860Y82734D01*
X50959Y82800D01*
X51793Y83634D01*
X52060D01*
X52135Y83453D01*
X52299Y83239D01*
X52513Y83075D01*
X52699Y82998D01*
Y82478D01*
X52255Y82034D01*
X52128Y82086D01*
Y82456D01*
X50578D01*
Y80756D01*
X52128D01*
Y81275D01*
X52296D01*
X52422Y81300D01*
X52530Y81372D01*
X53264Y82106D01*
X53336Y82214D01*
X53361Y82341D01*
Y82998D01*
X53547Y83075D01*
X53761Y83239D01*
X53925Y83453D01*
X54029Y83702D01*
X54064Y83970D01*
X54029Y84238D01*
X53925Y84487D01*
X53761Y84701D01*
X53547Y84865D01*
X53298Y84969D01*
X53030Y85004D01*
X52762Y84969D01*
X52513Y84865D01*
X52299Y84701D01*
X52135Y84487D01*
X52035Y84246D01*
X51666D01*
X51666Y84246D01*
X51549Y84223D01*
X51450Y84156D01*
X51450Y84156D01*
X50617Y83323D01*
X49079D01*
X49004Y83413D01*
X49043Y83532D01*
X49174Y83558D01*
X49365Y83685D01*
X49492Y83876D01*
X49533Y84083D01*
X49593Y84126D01*
X49655Y84155D01*
X49714Y84115D01*
X49890Y84080D01*
X50065Y84115D01*
X50214Y84214D01*
X50314Y84363D01*
X50349Y84539D01*
X50335Y84606D01*
X50412Y84682D01*
X50525Y84725D01*
Y84725D01*
X50525Y84725D01*
X50950D01*
Y85325D01*
X51050D01*
Y85425D01*
X51575D01*
Y85925D01*
X51575D01*
X51550Y85950D01*
Y86219D01*
X52005D01*
Y85485D01*
X54055D01*
Y87535D01*
X53310D01*
Y87607D01*
X53289Y87715D01*
X53228Y87806D01*
X50711Y90323D01*
X50620Y90384D01*
X50513Y90405D01*
X50205D01*
Y93966D01*
X50184Y94073D01*
X50123Y94164D01*
X47570Y96718D01*
X47479Y96778D01*
X47372Y96800D01*
X39937D01*
X38455Y98281D01*
X38364Y98342D01*
X38257Y98363D01*
X35607D01*
X35526Y98461D01*
X35534Y98500D01*
X35499Y98676D01*
X35399Y98824D01*
X35251Y98924D01*
X35075Y98959D01*
X34899Y98924D01*
X34852Y98892D01*
X34708Y98909D01*
X34578Y99078D01*
X34409Y99208D01*
X34211Y99289D01*
X34000Y99317D01*
X33789Y99289D01*
X33592Y99208D01*
X33422Y99078D01*
X33292Y98909D01*
X33211Y98711D01*
X33183Y98500D01*
X33211Y98289D01*
X33292Y98092D01*
X33398Y97954D01*
X33353Y97827D01*
X27647D01*
X27602Y97954D01*
X27708Y98092D01*
X27756Y98207D01*
X29563D01*
X29601Y98151D01*
X29749Y98051D01*
X29925Y98016D01*
X30101Y98051D01*
X30249Y98151D01*
X30349Y98299D01*
X30384Y98475D01*
X30349Y98651D01*
X30249Y98799D01*
X30101Y98899D01*
X29925Y98934D01*
X29749Y98899D01*
X29601Y98799D01*
X29563Y98743D01*
X27776D01*
X27708Y98909D01*
X27578Y99078D01*
X27408Y99208D01*
X27211Y99289D01*
X27000Y99317D01*
X26789Y99289D01*
X26591Y99208D01*
X26422Y99078D01*
X26292Y98909D01*
X26211Y98711D01*
X26183Y98500D01*
X26211Y98289D01*
X26292Y98092D01*
X26398Y97954D01*
X26352Y97827D01*
X24619D01*
X24298Y98148D01*
X24309Y98200D01*
X24274Y98376D01*
X24174Y98524D01*
X24026Y98624D01*
X23850Y98659D01*
X23674Y98624D01*
X23526Y98524D01*
X23426Y98376D01*
X23410Y98296D01*
X23273Y98254D01*
X22174Y99353D01*
X22222Y99471D01*
X38517D01*
X38522Y99465D01*
X38685Y99339D01*
X38875Y99261D01*
X39079Y99234D01*
X39283Y99261D01*
X39471Y99339D01*
X39622D01*
X39681Y99212D01*
X39610Y99118D01*
X39542Y98956D01*
X39534Y98893D01*
X39528Y98861D01*
X39529Y98852D01*
X39526Y98843D01*
X39524Y98820D01*
X39519Y98781D01*
Y97869D01*
X39525Y97828D01*
X39526Y97809D01*
X39528Y97802D01*
X39528Y97795D01*
X39535Y97750D01*
X39535Y97748D01*
X39542Y97694D01*
X39566Y97637D01*
X39572Y97620D01*
X39574Y97618D01*
X39577Y97610D01*
X39578Y97607D01*
X39581Y97601D01*
X39610Y97532D01*
X39717Y97392D01*
X39857Y97285D01*
X40019Y97217D01*
X40072Y97210D01*
X40076Y97209D01*
X40129Y97202D01*
X40132Y97202D01*
X40134Y97202D01*
X40137Y97201D01*
X40148Y97200D01*
X40194Y97194D01*
X41306D01*
X41324Y97197D01*
X41800D01*
X41868Y97210D01*
X41926Y97249D01*
X41965Y97307D01*
X41978Y97375D01*
Y97851D01*
X41981Y97869D01*
Y98781D01*
X41978Y98799D01*
Y99275D01*
X42031Y99339D01*
X46769D01*
X46822Y99275D01*
Y98799D01*
X46819Y98781D01*
Y97869D01*
X46822Y97851D01*
Y97375D01*
X46835Y97307D01*
X46874Y97249D01*
X46932Y97210D01*
X47000Y97197D01*
X47476D01*
X47494Y97194D01*
X48606D01*
X48665Y97202D01*
X48711Y97206D01*
X48721Y97209D01*
X48781Y97217D01*
X48852Y97247D01*
X48855Y97247D01*
X48865Y97252D01*
X48943Y97285D01*
X49083Y97392D01*
X49190Y97532D01*
X49258Y97694D01*
X49266Y97757D01*
X49272Y97789D01*
X49271Y97798D01*
X49274Y97807D01*
X49276Y97830D01*
X49281Y97869D01*
Y98781D01*
X49275Y98822D01*
X49274Y98841D01*
X49272Y98848D01*
X49272Y98855D01*
X49265Y98900D01*
X49265Y98902D01*
X49258Y98956D01*
X49234Y99013D01*
X49228Y99030D01*
X49226Y99032D01*
X49223Y99040D01*
X49222Y99043D01*
X49219Y99049D01*
X49190Y99118D01*
X49119Y99212D01*
X49178Y99339D01*
X49330D01*
X49518Y99261D01*
X49722Y99234D01*
X49925Y99261D01*
X50115Y99339D01*
X50278Y99465D01*
X50283Y99471D01*
X59471D01*
Y93697D01*
D02*
G37*
G36*
X20734Y98963D02*
X20692Y98909D01*
X20611Y98711D01*
X20583Y98500D01*
X20611Y98289D01*
X20692Y98092D01*
X20822Y97922D01*
X20992Y97792D01*
X21189Y97711D01*
X21400Y97683D01*
X21611Y97711D01*
X21752Y97769D01*
X23297Y96224D01*
Y95872D01*
X23180Y95823D01*
X22314Y96689D01*
X22227Y96747D01*
X22170Y96759D01*
X22108Y96909D01*
X21978Y97078D01*
X21809Y97208D01*
X21611Y97289D01*
X21400Y97317D01*
X21189Y97289D01*
X20992Y97208D01*
X20822Y97078D01*
X20692Y96909D01*
X20611Y96711D01*
X20583Y96500D01*
X20611Y96289D01*
X20692Y96091D01*
X20822Y95922D01*
X20858Y95895D01*
X20815Y95768D01*
X19511D01*
X19131Y96148D01*
X19189Y96289D01*
X19217Y96500D01*
X19189Y96711D01*
X19108Y96909D01*
X18978Y97078D01*
X18809Y97208D01*
X18611Y97289D01*
X18400Y97317D01*
X18189Y97289D01*
X17992Y97208D01*
X17822Y97078D01*
X17692Y96909D01*
X17611Y96711D01*
X17583Y96500D01*
X17611Y96289D01*
X17692Y96091D01*
X17822Y95922D01*
X17992Y95792D01*
X18189Y95711D01*
X18400Y95683D01*
X18611Y95711D01*
X18752Y95769D01*
X19211Y95311D01*
X19298Y95253D01*
X19400Y95232D01*
X20815D01*
X20858Y95105D01*
X20822Y95078D01*
X20692Y94909D01*
X20611Y94711D01*
X20583Y94500D01*
X20611Y94289D01*
X20692Y94092D01*
X20822Y93922D01*
X20876Y93881D01*
X20833Y93754D01*
X19524D01*
X19131Y94148D01*
X19189Y94289D01*
X19217Y94500D01*
X19189Y94711D01*
X19108Y94909D01*
X18978Y95078D01*
X18809Y95208D01*
X18611Y95289D01*
X18400Y95317D01*
X18189Y95289D01*
X17992Y95208D01*
X17822Y95078D01*
X17692Y94909D01*
X17611Y94711D01*
X17583Y94500D01*
X17611Y94289D01*
X17692Y94092D01*
X17822Y93922D01*
X17992Y93792D01*
X18189Y93711D01*
X18400Y93683D01*
X18611Y93711D01*
X18752Y93769D01*
X19224Y93297D01*
X19311Y93239D01*
X19413Y93219D01*
X20798D01*
X20841Y93092D01*
X20822Y93078D01*
X20692Y92909D01*
X20611Y92711D01*
X20583Y92500D01*
X20611Y92289D01*
X20692Y92091D01*
X20822Y91922D01*
X20992Y91792D01*
X21189Y91711D01*
X21312Y91695D01*
X21303Y91568D01*
X19711D01*
X19131Y92148D01*
X19189Y92289D01*
X19217Y92500D01*
X19189Y92711D01*
X19108Y92909D01*
X18978Y93078D01*
X18809Y93208D01*
X18611Y93289D01*
X18400Y93317D01*
X18189Y93289D01*
X17992Y93208D01*
X17822Y93078D01*
X17692Y92909D01*
X17611Y92711D01*
X17583Y92500D01*
X17611Y92289D01*
X17692Y92091D01*
X17822Y91922D01*
X17992Y91792D01*
X18189Y91711D01*
X18400Y91683D01*
X18611Y91711D01*
X18752Y91769D01*
X19411Y91111D01*
X19498Y91053D01*
X19475Y90928D01*
X17316D01*
X17213Y90907D01*
X17126Y90849D01*
X17101Y90824D01*
X16980Y90882D01*
X16942Y91074D01*
X16815Y91265D01*
X16624Y91392D01*
X16400Y91436D01*
X16176Y91392D01*
X15985Y91265D01*
X15858Y91074D01*
X15814Y90850D01*
X15848Y90677D01*
X15694Y90523D01*
X15212D01*
X15110Y90502D01*
X15023Y90444D01*
X15004Y90425D01*
X13401D01*
X13299Y90405D01*
X13212Y90347D01*
X12706Y89841D01*
X12648Y89755D01*
X12628Y89652D01*
Y88141D01*
X12241Y87754D01*
X11870D01*
X11818Y87881D01*
X11920Y88033D01*
X11965Y88257D01*
X11920Y88482D01*
X11793Y88672D01*
X11603Y88799D01*
X11378Y88844D01*
X11154Y88799D01*
X10964Y88672D01*
X10837Y88482D01*
X10792Y88257D01*
X10837Y88033D01*
X10938Y87881D01*
X10886Y87754D01*
X10846D01*
X10743Y87733D01*
X10656Y87675D01*
X10320Y87339D01*
X10202Y87387D01*
Y89380D01*
X10329Y89448D01*
X10451Y89367D01*
X10675Y89322D01*
X10899Y89367D01*
X11090Y89494D01*
X11217Y89684D01*
X11261Y89909D01*
X11217Y90133D01*
X11090Y90323D01*
X10899Y90450D01*
X10675Y90495D01*
X10451Y90450D01*
X10329Y90369D01*
X10202Y90437D01*
Y91124D01*
X12670Y93592D01*
X13630D01*
X13733Y93612D01*
X13820Y93670D01*
X14155Y94006D01*
X14328Y93971D01*
X14553Y94016D01*
X14743Y94143D01*
X14870Y94333D01*
X14915Y94557D01*
X14870Y94782D01*
X14743Y94972D01*
X14553Y95099D01*
X14328Y95144D01*
X14104Y95099D01*
X13914Y94972D01*
X13787Y94782D01*
X13652Y94758D01*
X13608Y94824D01*
X13460Y94924D01*
X13284Y94959D01*
X13108Y94924D01*
X12960Y94824D01*
X12860Y94676D01*
X12825Y94500D01*
X12860Y94324D01*
X12907Y94254D01*
X12839Y94127D01*
X12559D01*
X12457Y94107D01*
X12370Y94049D01*
X9745Y91424D01*
X9687Y91337D01*
X9667Y91235D01*
Y75690D01*
X9555Y75631D01*
X9534Y75645D01*
X9358Y75680D01*
X9183Y75645D01*
X9034Y75545D01*
X9005Y75501D01*
X8763D01*
X8656Y75480D01*
X8565Y75419D01*
X4798Y71653D01*
X4681Y71701D01*
Y72012D01*
X4659Y72119D01*
X4599Y72210D01*
X2143Y74666D01*
Y85171D01*
X6980Y90008D01*
X6980Y90008D01*
X7041Y90099D01*
X7062Y90207D01*
Y95498D01*
X8506Y96942D01*
X15847D01*
X15954Y96964D01*
X16045Y97024D01*
X17440Y98420D01*
X17574Y98374D01*
X17586Y98282D01*
X17671Y98079D01*
X17804Y97904D01*
X17979Y97771D01*
X18182Y97686D01*
X18300Y97671D01*
Y98500D01*
X18400D01*
Y98600D01*
X19229D01*
X19214Y98718D01*
X19129Y98921D01*
X19087Y98976D01*
X19143Y99090D01*
X20672D01*
X20734Y98963D01*
D02*
G37*
G36*
X17581Y99353D02*
X15731Y97503D01*
X8390D01*
X8390Y97503D01*
X8283Y97482D01*
X8192Y97421D01*
X8192Y97421D01*
X6583Y95812D01*
X6523Y95721D01*
X6501Y95614D01*
Y90323D01*
X1664Y85486D01*
X1603Y85395D01*
X1582Y85287D01*
Y74550D01*
X1603Y74443D01*
X1664Y74352D01*
X4120Y71896D01*
Y44370D01*
X3360Y43610D01*
X3215D01*
X3117Y43847D01*
X2953Y44061D01*
X2739Y44225D01*
X2490Y44329D01*
X2222Y44364D01*
X1954Y44329D01*
X1705Y44225D01*
X1491Y44061D01*
X1327Y43847D01*
X1223Y43598D01*
X1188Y43330D01*
X1223Y43062D01*
X1327Y42813D01*
X1491Y42599D01*
X1705Y42435D01*
X1954Y42331D01*
X2222Y42296D01*
X2490Y42331D01*
X2739Y42435D01*
X2953Y42599D01*
X3117Y42813D01*
X3215Y43050D01*
X3477D01*
X3584Y43071D01*
X3675Y43132D01*
X4338Y43795D01*
X4455Y43746D01*
Y42026D01*
X3500Y41070D01*
X3215D01*
X3117Y41307D01*
X2953Y41521D01*
X2739Y41685D01*
X2490Y41789D01*
X2222Y41824D01*
X1954Y41789D01*
X1705Y41685D01*
X1491Y41521D01*
X1327Y41307D01*
X1223Y41058D01*
X1188Y40790D01*
X1223Y40522D01*
X1327Y40273D01*
X1491Y40059D01*
X1705Y39895D01*
X1954Y39791D01*
X2222Y39756D01*
X2490Y39791D01*
X2739Y39895D01*
X2953Y40059D01*
X3117Y40273D01*
X3215Y40510D01*
X3616D01*
X3723Y40531D01*
X3814Y40592D01*
X4673Y41450D01*
X4790Y41402D01*
Y34390D01*
X3850Y33450D01*
X3215D01*
X3117Y33687D01*
X2953Y33901D01*
X2739Y34065D01*
X2490Y34169D01*
X2222Y34204D01*
X1954Y34169D01*
X1705Y34065D01*
X1491Y33901D01*
X1327Y33687D01*
X1223Y33438D01*
X1188Y33170D01*
X1223Y32902D01*
X1327Y32653D01*
X1491Y32439D01*
X1705Y32275D01*
X1954Y32171D01*
X2222Y32136D01*
X2490Y32171D01*
X2739Y32275D01*
X2953Y32439D01*
X3117Y32653D01*
X3215Y32890D01*
X3966D01*
X4074Y32911D01*
X4165Y32972D01*
X5008Y33815D01*
X5125Y33766D01*
Y24245D01*
X4158Y23278D01*
X3221D01*
X3117Y23527D01*
X2953Y23741D01*
X2739Y23905D01*
X2515Y23998D01*
X2514Y24105D01*
X2520Y24127D01*
X2601Y24137D01*
X2953Y24283D01*
X3256Y24516D01*
X3489Y24819D01*
X3635Y25171D01*
X3685Y25550D01*
X3635Y25929D01*
X3489Y26281D01*
X3256Y26584D01*
X3053Y26740D01*
Y26900D01*
X3256Y27056D01*
X3489Y27359D01*
X3635Y27711D01*
X3685Y28090D01*
X3635Y28469D01*
X3489Y28821D01*
X3256Y29124D01*
X2953Y29357D01*
X2601Y29503D01*
X2222Y29553D01*
X1843Y29503D01*
X1491Y29357D01*
X1188Y29124D01*
X955Y28821D01*
X809Y28469D01*
X759Y28090D01*
X809Y27711D01*
X955Y27359D01*
X1188Y27056D01*
X1391Y26900D01*
Y26740D01*
X1188Y26584D01*
X955Y26281D01*
X809Y25929D01*
X759Y25550D01*
X809Y25171D01*
X955Y24819D01*
X1188Y24516D01*
X1491Y24283D01*
X1843Y24137D01*
X1924Y24127D01*
X1930Y24105D01*
X1929Y23998D01*
X1705Y23905D01*
X1491Y23741D01*
X1327Y23527D01*
X1223Y23278D01*
X1188Y23010D01*
X1223Y22742D01*
X1327Y22493D01*
X1491Y22279D01*
X1705Y22115D01*
X1954Y22011D01*
X2222Y21976D01*
X2490Y22011D01*
X2739Y22115D01*
X2953Y22279D01*
X3117Y22493D01*
X3221Y22742D01*
X4269D01*
X4371Y22763D01*
X4458Y22821D01*
X5318Y23681D01*
X5435Y23632D01*
Y22364D01*
X3809Y20738D01*
X3221D01*
X3117Y20987D01*
X2953Y21201D01*
X2739Y21365D01*
X2490Y21469D01*
X2222Y21504D01*
X1954Y21469D01*
X1705Y21365D01*
X1491Y21201D01*
X1327Y20987D01*
X1223Y20738D01*
X1188Y20470D01*
X1223Y20202D01*
X1327Y19953D01*
X1491Y19739D01*
X1705Y19575D01*
X1954Y19471D01*
X2222Y19436D01*
X2490Y19471D01*
X2739Y19575D01*
X2953Y19739D01*
X3117Y19953D01*
X3221Y20202D01*
X3920D01*
X4022Y20223D01*
X4109Y20281D01*
X5628Y21800D01*
X5745Y21751D01*
Y20368D01*
X3575Y18198D01*
X3221D01*
X3117Y18447D01*
X2953Y18661D01*
X2739Y18825D01*
X2490Y18929D01*
X2222Y18964D01*
X1954Y18929D01*
X1705Y18825D01*
X1491Y18661D01*
X1327Y18447D01*
X1223Y18198D01*
X1188Y17930D01*
X1223Y17662D01*
X1327Y17413D01*
X1491Y17199D01*
X1705Y17035D01*
X1954Y16931D01*
X2222Y16896D01*
X2490Y16931D01*
X2739Y17035D01*
X2953Y17199D01*
X3117Y17413D01*
X3221Y17662D01*
X3686D01*
X3788Y17683D01*
X3875Y17741D01*
X5938Y19804D01*
X6055Y19755D01*
Y17581D01*
X4132Y15658D01*
X3221D01*
X3117Y15907D01*
X2953Y16121D01*
X2739Y16285D01*
X2490Y16389D01*
X2222Y16424D01*
X1954Y16389D01*
X1705Y16285D01*
X1491Y16121D01*
X1327Y15907D01*
X1223Y15658D01*
X1188Y15390D01*
X1223Y15122D01*
X1327Y14873D01*
X1491Y14659D01*
X1705Y14495D01*
X1954Y14391D01*
X2222Y14356D01*
X2490Y14391D01*
X2739Y14495D01*
X2953Y14659D01*
X3117Y14873D01*
X3221Y15122D01*
X4243D01*
X4345Y15143D01*
X4432Y15201D01*
X6512Y17281D01*
X6570Y17368D01*
X6591Y17470D01*
Y43264D01*
X9535Y46208D01*
X19098D01*
X19146Y46091D01*
X16892Y43836D01*
X16834Y43749D01*
X16813Y43647D01*
Y41345D01*
X10291Y34823D01*
X10110D01*
Y35580D01*
X8060D01*
Y33530D01*
X10110D01*
Y34287D01*
X10401D01*
X10504Y34308D01*
X10591Y34366D01*
X12657Y36432D01*
X12784Y36379D01*
Y12675D01*
X4400D01*
Y529D01*
X529D01*
Y99471D01*
X17532D01*
X17581Y99353D01*
D02*
G37*
G36*
X48648Y99271D02*
X48701Y99264D01*
X48754Y99249D01*
X48797Y99233D01*
X48839Y99213D01*
X48883Y99185D01*
X48921Y99156D01*
X48960Y99122D01*
X48989Y99086D01*
X49017Y99049D01*
X49041Y99008D01*
X49061Y98966D01*
X49077Y98924D01*
X49089Y98873D01*
X49096Y98828D01*
X49100Y98775D01*
Y97875D01*
X49096Y97820D01*
X49088Y97775D01*
X49076Y97725D01*
X49060Y97685D01*
X49047Y97652D01*
X49022Y97609D01*
X48996Y97572D01*
X48965Y97534D01*
X48920Y97493D01*
X48880Y97463D01*
X48834Y97434D01*
X48781Y97410D01*
X48694Y97384D01*
X48600Y97375D01*
X47000D01*
Y99275D01*
X48600D01*
X48648Y99271D01*
D02*
G37*
G36*
X41800Y97375D02*
X40200D01*
X40152Y97379D01*
X40099Y97386D01*
X40046Y97401D01*
X40003Y97417D01*
X39961Y97437D01*
X39917Y97465D01*
X39879Y97494D01*
X39840Y97528D01*
X39811Y97564D01*
X39783Y97601D01*
X39759Y97642D01*
X39739Y97684D01*
X39723Y97726D01*
X39711Y97777D01*
X39704Y97822D01*
X39700Y97875D01*
Y98775D01*
X39704Y98830D01*
X39712Y98875D01*
X39724Y98925D01*
X39740Y98965D01*
X39753Y98998D01*
X39778Y99041D01*
X39804Y99078D01*
X39835Y99116D01*
X39880Y99157D01*
X39920Y99187D01*
X39966Y99216D01*
X40019Y99240D01*
X40106Y99266D01*
X40200Y99275D01*
X41800D01*
Y97375D01*
D02*
G37*
G36*
X49645Y93850D02*
Y90113D01*
Y89625D01*
X48925D01*
Y89568D01*
X48500D01*
Y89800D01*
X47442D01*
X47325Y89825D01*
X47233Y89825D01*
X46825D01*
Y89300D01*
Y88775D01*
X47233D01*
X47325Y88775D01*
X47388Y88788D01*
X47450Y88673D01*
X47401Y88601D01*
X47366Y88425D01*
X47401Y88249D01*
X47450Y88177D01*
X47382Y88050D01*
X47292D01*
X47175Y88075D01*
Y88075D01*
X47175Y88075D01*
X46675D01*
Y87550D01*
X46475D01*
Y88075D01*
X45975D01*
Y88075D01*
X45850Y88080D01*
Y88512D01*
X44550D01*
Y88169D01*
X44008D01*
X43882Y88144D01*
X43774Y88072D01*
X43509Y87806D01*
X43040D01*
Y88500D01*
X42346D01*
Y88649D01*
X42321Y88775D01*
X42249Y88883D01*
X41877Y89256D01*
Y89478D01*
X41998Y89599D01*
X42125Y89576D01*
Y89447D01*
X43525D01*
Y90375D01*
X43550D01*
Y90590D01*
X43677Y90658D01*
X43724Y90626D01*
X43900Y90591D01*
X44076Y90626D01*
X44214Y90719D01*
X45100D01*
X45227Y90744D01*
X45334Y90816D01*
X46552Y92033D01*
X46650Y92014D01*
X46874Y92058D01*
X47065Y92185D01*
X47192Y92376D01*
X47236Y92600D01*
X47192Y92824D01*
X47065Y93015D01*
X46874Y93142D01*
X46650Y93186D01*
X46498Y93156D01*
X46389Y93258D01*
X46399Y93310D01*
X46364Y93485D01*
X46265Y93634D01*
X46116Y93733D01*
X45940Y93768D01*
X45765Y93733D01*
X45626Y93641D01*
X45328D01*
X45202Y93616D01*
X45094Y93544D01*
X44717Y93167D01*
X44600Y93216D01*
Y93350D01*
X43950D01*
Y93450D01*
X43850D01*
Y93950D01*
X43300D01*
Y93925D01*
X42225D01*
Y93781D01*
X42037D01*
X41877Y93942D01*
Y94174D01*
X41851Y94301D01*
X41816Y94354D01*
X41900Y94456D01*
X41992Y94418D01*
X42175Y94394D01*
X42358Y94418D01*
X42528Y94489D01*
X42674Y94601D01*
X42786Y94747D01*
X42857Y94917D01*
X42881Y95100D01*
Y95300D01*
X42857Y95483D01*
X42786Y95653D01*
X42674Y95799D01*
X42528Y95911D01*
X42358Y95982D01*
X42175Y96006D01*
X41992Y95982D01*
X41822Y95911D01*
X41676Y95799D01*
X41564Y95653D01*
X41505Y95512D01*
X41473Y95494D01*
X41424Y95481D01*
X41364Y95479D01*
X40774Y96070D01*
X40711Y96112D01*
X40749Y96239D01*
X47256D01*
X49645Y93850D01*
D02*
G37*
G36*
X24305Y97348D02*
X24396Y97288D01*
X24503Y97266D01*
X26225D01*
Y96980D01*
X27525D01*
X28825D01*
Y97266D01*
X31100D01*
Y96405D01*
X33650D01*
Y96549D01*
X34083D01*
X34325Y96306D01*
Y96194D01*
X34073Y95941D01*
X33650D01*
Y96085D01*
X31100D01*
Y95135D01*
X33650D01*
Y95279D01*
X34210D01*
X34337Y95304D01*
X34444Y95376D01*
X34694Y95625D01*
X35375D01*
Y96536D01*
X35673Y96834D01*
X35800Y96781D01*
Y96350D01*
X36350D01*
X36900D01*
Y96890D01*
X38056D01*
X38408Y96539D01*
X38388Y96441D01*
X38433Y96216D01*
X38560Y96026D01*
X38750Y95899D01*
X38974Y95855D01*
X39073Y95874D01*
X39345Y95601D01*
X39453Y95529D01*
X39580Y95504D01*
X40402D01*
X40830Y95077D01*
Y94558D01*
X40855Y94431D01*
X40927Y94324D01*
X41214Y94037D01*
Y93095D01*
Y90279D01*
Y89118D01*
X41239Y88992D01*
X41311Y88884D01*
X41568Y88627D01*
X41515Y88500D01*
X40990D01*
Y86608D01*
X40863Y86556D01*
X40397Y87022D01*
X40474Y87207D01*
X40509Y87475D01*
X40474Y87743D01*
X40370Y87992D01*
X40206Y88206D01*
X39992Y88370D01*
X39743Y88474D01*
X39475Y88509D01*
X39207Y88474D01*
X38958Y88370D01*
X38744Y88206D01*
X38580Y87992D01*
X38476Y87743D01*
X38441Y87475D01*
X38476Y87207D01*
X38553Y87022D01*
X37788Y86256D01*
X37139D01*
X37035Y86326D01*
X37057Y86457D01*
X37203Y86476D01*
X37452Y86580D01*
X37666Y86744D01*
X37830Y86958D01*
X37934Y87207D01*
X37969Y87475D01*
X37934Y87743D01*
X37830Y87992D01*
X37666Y88206D01*
X37452Y88370D01*
X37203Y88474D01*
X36935Y88509D01*
X36667Y88474D01*
X36482Y88397D01*
X36181Y88697D01*
Y89475D01*
X36500D01*
Y90825D01*
X36178D01*
Y91175D01*
X36500D01*
Y91887D01*
X36683Y92070D01*
X36800Y92021D01*
Y91175D01*
X37122D01*
Y90825D01*
X36800D01*
Y89475D01*
X36916D01*
X36996Y89377D01*
X36991Y89350D01*
X37026Y89174D01*
X37125Y89025D01*
X37274Y88926D01*
X37450Y88891D01*
X37626Y88926D01*
X37774Y89025D01*
X37874Y89174D01*
X37909Y89350D01*
X37903Y89377D01*
X37984Y89475D01*
X38100D01*
Y90825D01*
X37778D01*
Y91175D01*
X38100D01*
Y91419D01*
X38330D01*
X38350Y91300D01*
X38350Y91300D01*
X38350Y91300D01*
Y90750D01*
X38850D01*
X39350D01*
Y91300D01*
X39325D01*
Y91522D01*
X39675D01*
Y91353D01*
X41075D01*
Y92353D01*
X39675D01*
Y92184D01*
X39325D01*
Y92375D01*
X38375D01*
Y92081D01*
X38100D01*
Y92525D01*
X37179D01*
X37098Y92623D01*
X37108Y92675D01*
Y93200D01*
X37325D01*
Y95300D01*
X36025D01*
Y94683D01*
X34900D01*
Y94875D01*
X33900D01*
Y94773D01*
X33650D01*
Y94815D01*
X31100D01*
Y93865D01*
X33650D01*
Y93907D01*
X33900D01*
Y93725D01*
X33900D01*
Y93675D01*
X33900D01*
Y92525D01*
X34069D01*
Y91925D01*
X33825D01*
Y90678D01*
X33400D01*
Y91200D01*
X32850D01*
X32300D01*
Y90678D01*
X28126D01*
X26351Y92453D01*
X26400Y92570D01*
X27425D01*
Y92970D01*
X26225D01*
Y92745D01*
X26108Y92696D01*
X24168Y94636D01*
Y97243D01*
X24152Y97322D01*
X24253Y97395D01*
X24257Y97397D01*
X24305Y97348D01*
D02*
G37*
G36*
X59471Y92803D02*
Y87502D01*
X59344Y87490D01*
X59342Y87499D01*
X59215Y87690D01*
X59024Y87817D01*
X58800Y87861D01*
X58648Y87831D01*
X58221Y88258D01*
X58269Y88375D01*
X58300D01*
Y88900D01*
Y89425D01*
X57800D01*
Y89425D01*
X57775Y89400D01*
X57078D01*
X57043Y89436D01*
Y89526D01*
X57050Y89650D01*
X57325D01*
Y90275D01*
X57425D01*
Y90375D01*
X57800D01*
Y90656D01*
X57917Y90704D01*
X58300Y90322D01*
Y89625D01*
X59300D01*
Y90698D01*
X59300Y90775D01*
X59300D01*
Y90825D01*
X59300D01*
Y91975D01*
X59193D01*
Y92737D01*
X59340Y92835D01*
X59344Y92841D01*
X59471Y92803D01*
D02*
G37*
G36*
X18062Y89829D02*
X17999Y89781D01*
X17835Y89567D01*
X17731Y89318D01*
X17696Y89050D01*
X17731Y88782D01*
X17835Y88533D01*
X17999Y88319D01*
X18145Y88207D01*
X18102Y88080D01*
X17375D01*
X17273Y88060D01*
X17186Y88002D01*
X16796Y87613D01*
X16438D01*
Y86355D01*
X14788D01*
Y87275D01*
X13837D01*
Y86706D01*
X11965D01*
X11910Y86794D01*
X11972Y86908D01*
X12480D01*
X12583Y86929D01*
X12669Y86987D01*
X13395Y87712D01*
X13453Y87799D01*
X13473Y87901D01*
Y88765D01*
X13600Y88849D01*
X13728Y88823D01*
X13835Y88844D01*
X13962Y88752D01*
Y88500D01*
X15312D01*
Y88822D01*
X15663D01*
Y88500D01*
X17013D01*
Y89206D01*
X17762Y89956D01*
X18019D01*
X18062Y89829D01*
D02*
G37*
G36*
X41549Y84932D02*
X41497Y84805D01*
X41136D01*
X40827Y85114D01*
X40740Y85172D01*
X40638Y85193D01*
X39313D01*
X39215Y85340D01*
X39024Y85467D01*
X38800Y85511D01*
X38576Y85467D01*
X38385Y85340D01*
X38258Y85149D01*
X38214Y84925D01*
X38258Y84701D01*
X38385Y84510D01*
X38576Y84383D01*
X38659Y84367D01*
X38701Y84229D01*
X37711Y83239D01*
X37653Y83152D01*
X37632Y83050D01*
X37653Y82948D01*
X37658Y82940D01*
Y82594D01*
X37598Y82493D01*
X37425Y82470D01*
X37399Y82460D01*
X37383Y82470D01*
X37250Y82497D01*
X37167Y82565D01*
Y82975D01*
X37167Y82975D01*
X37149Y83068D01*
X37096Y83146D01*
X37065Y83178D01*
X37084Y83275D01*
X37054Y83423D01*
X37124Y83550D01*
X37600D01*
Y83900D01*
X37075D01*
Y84100D01*
X37600D01*
Y84323D01*
X37600Y84450D01*
X37600D01*
Y84450D01*
X37600D01*
Y84800D01*
X37075D01*
Y84900D01*
X36975D01*
Y85350D01*
X36892D01*
X36879Y85477D01*
X37001Y85501D01*
X37139Y85594D01*
X37925D01*
X38052Y85619D01*
X38159Y85691D01*
X39022Y86553D01*
X39207Y86476D01*
X39475Y86441D01*
X39743Y86476D01*
X39928Y86553D01*
X41549Y84932D01*
D02*
G37*
G36*
X19200Y87535D02*
Y87135D01*
X19850D01*
Y87035D01*
X19950D01*
Y86535D01*
X20500D01*
Y86560D01*
X21070D01*
Y86385D01*
X19775D01*
Y86360D01*
X19275D01*
Y85898D01*
X19148Y85859D01*
X19092Y85942D01*
X18935Y86047D01*
X18750Y86084D01*
X18662Y86067D01*
X18377Y86352D01*
X18290Y86410D01*
X18188Y86430D01*
X17288D01*
Y87346D01*
X17486Y87545D01*
X19077D01*
X19200Y87535D01*
D02*
G37*
G36*
X13837Y85525D02*
X14788D01*
Y85820D01*
X16438D01*
Y85662D01*
X17257D01*
X17325Y85551D01*
X16984Y85210D01*
X16362D01*
Y84479D01*
X16245Y84431D01*
X15987Y84689D01*
X15900Y84747D01*
X15797Y84768D01*
X15738D01*
Y85375D01*
X14788D01*
Y83625D01*
X15738D01*
Y84016D01*
X15855Y84064D01*
X16362Y83557D01*
Y82860D01*
X17362D01*
Y83167D01*
X17712D01*
Y82860D01*
X17855D01*
X17893Y82733D01*
X17870Y82717D01*
X17765Y82560D01*
X17728Y82375D01*
X17765Y82190D01*
X17870Y82033D01*
X17920Y81999D01*
X17870Y81880D01*
X17850Y81884D01*
X17674Y81849D01*
X17526Y81749D01*
X17426Y81601D01*
X17391Y81425D01*
X17426Y81249D01*
X17526Y81101D01*
X17570Y81071D01*
Y80138D01*
X12962Y75530D01*
X11520D01*
X11491Y75574D01*
X11342Y75674D01*
X11166Y75709D01*
X10991Y75674D01*
X10949Y75646D01*
X10822Y75714D01*
Y86054D01*
X10949Y86093D01*
X10996Y86023D01*
X11186Y85896D01*
X11410Y85852D01*
X11635Y85896D01*
X11825Y86023D01*
X11923Y86170D01*
X13837D01*
Y85525D01*
D02*
G37*
G36*
X32550Y88254D02*
X32525Y88137D01*
X32525Y88046D01*
Y87637D01*
X33050D01*
Y87537D01*
X33150D01*
Y86938D01*
X33442D01*
X33494Y86811D01*
X33036Y86352D01*
X32978Y86265D01*
X32957Y86162D01*
Y84284D01*
X32830Y84231D01*
X32022Y85039D01*
X32057Y85213D01*
X32012Y85437D01*
X31885Y85627D01*
X31695Y85754D01*
X31471Y85799D01*
X31297Y85764D01*
X30614Y86448D01*
X30661Y86575D01*
X31250D01*
Y87075D01*
Y87575D01*
X30580D01*
Y88177D01*
X30903Y88500D01*
X32175D01*
Y88657D01*
X32550D01*
Y88254D01*
D02*
G37*
G36*
X24175Y87275D02*
X24853D01*
X25087Y87042D01*
Y84183D01*
X25108Y84076D01*
X25169Y83985D01*
X26020Y83133D01*
X25989Y82975D01*
X26033Y82751D01*
X26160Y82560D01*
X26351Y82433D01*
X26575Y82389D01*
X26799Y82433D01*
X26990Y82560D01*
X27117Y82751D01*
X27161Y82975D01*
X27117Y83199D01*
X26990Y83390D01*
X26799Y83517D01*
X26575Y83561D01*
X26417Y83530D01*
X25648Y84299D01*
Y84755D01*
X25775Y84807D01*
X27814Y82768D01*
Y82609D01*
X27757Y82571D01*
X27657Y82422D01*
X27622Y82246D01*
X27657Y82071D01*
X27757Y81922D01*
X27906Y81822D01*
X28081Y81787D01*
X28257Y81822D01*
X28406Y81922D01*
X28505Y82071D01*
X28540Y82246D01*
X28505Y82422D01*
X28406Y82571D01*
X28349Y82609D01*
Y82743D01*
X28476Y82796D01*
X30902Y80370D01*
X30854Y80243D01*
X30613D01*
X30515Y80390D01*
X30324Y80517D01*
X30100Y80561D01*
X29876Y80517D01*
X29685Y80390D01*
X29587Y80243D01*
X29150D01*
Y80525D01*
X28893D01*
Y80675D01*
X29300D01*
Y81525D01*
X28375D01*
Y81550D01*
X27950D01*
Y81100D01*
X27850D01*
Y81000D01*
X27325D01*
Y80652D01*
X27325Y80650D01*
X27320Y80525D01*
X26700D01*
Y80268D01*
X26462D01*
X26424Y80324D01*
X26276Y80424D01*
X26100Y80459D01*
X25924Y80424D01*
X25776Y80324D01*
X25727Y80252D01*
X25600Y80290D01*
Y81258D01*
X25625Y81375D01*
X25625Y81467D01*
Y81875D01*
X25100D01*
X24575D01*
Y81467D01*
X24575Y81375D01*
X24600Y81258D01*
Y81017D01*
X24300D01*
Y81350D01*
X24300D01*
Y81400D01*
X24300D01*
Y82550D01*
X24184D01*
X24150Y82615D01*
X24134Y82677D01*
X24224Y82812D01*
X24259Y82988D01*
X24224Y83163D01*
X24124Y83312D01*
X23976Y83411D01*
X23800Y83446D01*
X23624Y83411D01*
X23476Y83312D01*
X23463Y83293D01*
X22312D01*
Y83838D01*
X20462D01*
Y83462D01*
X20336Y83410D01*
X19906Y83839D01*
Y84335D01*
X21175D01*
Y84360D01*
X21675D01*
Y84430D01*
X22585D01*
X22692Y84451D01*
X22783Y84512D01*
X22867Y84595D01*
X23025Y84564D01*
X23249Y84608D01*
X23440Y84735D01*
X23567Y84926D01*
X23604Y85112D01*
X23727Y85169D01*
X23857Y85038D01*
Y84679D01*
X23813Y84649D01*
X23714Y84501D01*
X23679Y84325D01*
X23714Y84149D01*
X23813Y84001D01*
X23962Y83901D01*
X24138Y83866D01*
X24313Y83901D01*
X24462Y84001D01*
X24561Y84149D01*
X24596Y84325D01*
X24561Y84501D01*
X24462Y84649D01*
X24393Y84696D01*
Y85149D01*
X24372Y85252D01*
X24314Y85339D01*
X23668Y85985D01*
Y86638D01*
X23724Y86676D01*
X23824Y86824D01*
X23859Y87000D01*
X23829Y87148D01*
X23899Y87275D01*
X23900D01*
Y87570D01*
X24175D01*
Y87275D01*
D02*
G37*
G36*
X19275Y84360D02*
X19294D01*
Y83713D01*
X19294Y83713D01*
X19317Y83595D01*
X19384Y83496D01*
X20109Y82771D01*
X20208Y82705D01*
X20325Y82682D01*
X20462D01*
Y82213D01*
X20438D01*
Y81438D01*
X21388D01*
X22337D01*
Y82213D01*
X22312D01*
Y82682D01*
X23336D01*
X23344Y82677D01*
X23348Y82663D01*
X23300Y82550D01*
X23300D01*
Y81400D01*
X23300D01*
Y81350D01*
X23300D01*
Y80200D01*
X24300D01*
Y80533D01*
X24600D01*
Y80200D01*
X24832D01*
Y79663D01*
X24685Y79565D01*
X24558Y79374D01*
X24514Y79150D01*
X24558Y78926D01*
X24685Y78735D01*
X24821Y78645D01*
X24783Y78518D01*
X18193D01*
X18091Y78497D01*
X18004Y78439D01*
X16731Y77167D01*
X16593Y77208D01*
X16565Y77351D01*
X16438Y77541D01*
X16248Y77668D01*
X16102Y77697D01*
X16060Y77835D01*
X18048Y79823D01*
X18109Y79914D01*
X18130Y80021D01*
Y81071D01*
X18174Y81101D01*
X18274Y81249D01*
X18309Y81425D01*
X18274Y81601D01*
X18174Y81749D01*
X18133Y81777D01*
X18183Y81897D01*
X18212Y81891D01*
X18398Y81928D01*
X18555Y82033D01*
X18660Y82190D01*
X18697Y82375D01*
X18660Y82560D01*
X18555Y82717D01*
X18532Y82733D01*
X18570Y82860D01*
X18712D01*
Y84010D01*
X18712D01*
Y84060D01*
X18712D01*
Y84430D01*
X19275D01*
Y84360D01*
D02*
G37*
G36*
X44336Y83467D02*
X44301Y83294D01*
X44346Y83069D01*
X44473Y82879D01*
X44663Y82752D01*
X44888Y82707D01*
X45112Y82752D01*
X45302Y82879D01*
X45429Y83069D01*
X45450Y83174D01*
X45588Y83215D01*
X45943Y82861D01*
X45929Y82794D01*
X45964Y82618D01*
X46064Y82469D01*
X46089Y82452D01*
X46075Y82325D01*
X46075Y82325D01*
X46075Y82325D01*
Y80644D01*
X45362Y79931D01*
X43518D01*
Y80176D01*
X43543D01*
Y80601D01*
X42643D01*
Y80176D01*
X42668D01*
Y79805D01*
X41648D01*
X41609Y79932D01*
X41615Y79935D01*
X41742Y80126D01*
X41786Y80350D01*
X41742Y80574D01*
X41615Y80765D01*
X41468Y80863D01*
Y80984D01*
X41591Y81036D01*
X41774Y81176D01*
X41914Y81359D01*
X42002Y81572D01*
X42011Y81634D01*
X42104D01*
Y82159D01*
X42304D01*
Y81634D01*
X42654D01*
Y81634D01*
X43004D01*
Y82134D01*
X43104D01*
Y82234D01*
X43579D01*
Y82634D01*
X43579D01*
X43554Y82659D01*
Y83609D01*
X42654D01*
Y83609D01*
X42629D01*
Y83609D01*
X41779D01*
X41779Y83609D01*
Y83609D01*
X41655Y83615D01*
X41591Y83664D01*
X41378Y83752D01*
X41150Y83783D01*
X40922Y83752D01*
X40709Y83664D01*
X40685Y83646D01*
X40646Y83665D01*
X40575Y83722D01*
Y83960D01*
X43843D01*
X44336Y83467D01*
D02*
G37*
G36*
X28047Y78730D02*
X28016Y78575D01*
X28051Y78399D01*
X28151Y78251D01*
X28299Y78151D01*
X28475Y78116D01*
X28548Y78131D01*
X28675Y78026D01*
Y77725D01*
X29125D01*
Y77525D01*
X28675D01*
Y77293D01*
X28163D01*
X28065Y77440D01*
X27874Y77567D01*
X27650Y77611D01*
X27426Y77567D01*
X27235Y77440D01*
X27108Y77249D01*
X27064Y77025D01*
X27098Y76852D01*
X23962Y73715D01*
X23075D01*
Y74075D01*
X22625D01*
Y74275D01*
X23075D01*
Y74700D01*
X23050D01*
Y74932D01*
X23488D01*
X23526Y74876D01*
X23674Y74776D01*
X23850Y74741D01*
X24026Y74776D01*
X24174Y74876D01*
X24274Y75024D01*
X24309Y75200D01*
X24274Y75376D01*
X24174Y75524D01*
X24026Y75624D01*
X23850Y75659D01*
X23674Y75624D01*
X23526Y75524D01*
X23488Y75468D01*
X23050D01*
Y75625D01*
X22200D01*
Y75443D01*
X21825D01*
Y75550D01*
X20475D01*
Y74925D01*
X20450D01*
Y74625D01*
X21150D01*
Y74425D01*
X20450D01*
Y74125D01*
X20475D01*
Y73500D01*
X20560D01*
X20598Y73373D01*
X20524Y73323D01*
X20424Y73174D01*
X20389Y72999D01*
X20403Y72932D01*
X20096Y72625D01*
X19740D01*
X19702Y72752D01*
X19774Y72801D01*
X19874Y72949D01*
X19909Y73125D01*
X19874Y73301D01*
X19826Y73373D01*
X19893Y73500D01*
X20125D01*
Y74125D01*
X20150D01*
Y74425D01*
X19450D01*
X18750D01*
Y74125D01*
X18775D01*
Y73500D01*
X19007D01*
X19074Y73373D01*
X19026Y73301D01*
X18991Y73125D01*
X19026Y72949D01*
X19126Y72801D01*
X19198Y72752D01*
X19160Y72625D01*
X18775D01*
Y72518D01*
X18400D01*
Y72675D01*
X17550D01*
Y72518D01*
X17237D01*
X17199Y72574D01*
X17143Y72612D01*
Y73436D01*
X17408Y73701D01*
X17525Y73653D01*
Y73625D01*
X17875D01*
Y74150D01*
X17975D01*
Y74250D01*
X18425D01*
Y74675D01*
X18400D01*
Y74907D01*
X18750D01*
Y74625D01*
X19450D01*
X20150D01*
Y74925D01*
X20125D01*
Y75550D01*
X18775D01*
Y75443D01*
X18400D01*
Y75600D01*
X17800D01*
X17751Y75717D01*
X18064Y76030D01*
X18237Y75995D01*
X18461Y76040D01*
X18652Y76167D01*
X18779Y76357D01*
X18823Y76582D01*
X18779Y76806D01*
X18652Y76996D01*
X18577Y77046D01*
X18616Y77173D01*
X26078D01*
X26116Y77116D01*
X26265Y77017D01*
X26440Y76982D01*
X26616Y77017D01*
X26765Y77116D01*
X26864Y77265D01*
X26899Y77440D01*
X26864Y77616D01*
X26765Y77765D01*
X26752Y77773D01*
Y77900D01*
X26791Y77926D01*
X26890Y78074D01*
X26925Y78250D01*
X26890Y78426D01*
X26791Y78574D01*
X26642Y78674D01*
X26466Y78709D01*
X26291Y78674D01*
X26142Y78574D01*
X26104Y78518D01*
X25417D01*
X25379Y78645D01*
X25515Y78735D01*
X25596Y78857D01*
X27986D01*
X28047Y78730D01*
D02*
G37*
G36*
X46189Y73311D02*
X46276Y73253D01*
X46379Y73232D01*
X52425D01*
Y73000D01*
X52732D01*
Y72295D01*
X52005D01*
Y70476D01*
X51979Y70472D01*
X51812Y70403D01*
X51668Y70293D01*
X50002Y68627D01*
X49892Y68483D01*
X49851Y68385D01*
X49823Y68316D01*
X49799Y68137D01*
Y67792D01*
X49672Y67754D01*
X49615Y67840D01*
X49468Y67938D01*
Y68125D01*
X49447Y68227D01*
X49389Y68314D01*
X49175Y68529D01*
Y69148D01*
X49175Y69225D01*
X49175Y69352D01*
Y70425D01*
X48943D01*
Y70713D01*
X49200D01*
Y71020D01*
X49713D01*
X49775Y71032D01*
X50338D01*
X50376Y70976D01*
X50524Y70876D01*
X50700Y70841D01*
X50876Y70876D01*
X51024Y70976D01*
X51124Y71124D01*
X51159Y71300D01*
X51124Y71476D01*
X51024Y71624D01*
X50876Y71724D01*
X50700Y71759D01*
X50524Y71724D01*
X50376Y71624D01*
X50338Y71568D01*
X49725D01*
X49662Y71555D01*
X49290D01*
X49200Y71645D01*
X49200Y71863D01*
X49200Y71990D01*
Y72220D01*
X49363D01*
X49401Y72163D01*
X49549Y72064D01*
X49725Y72029D01*
X49901Y72064D01*
X50049Y72163D01*
X50149Y72312D01*
X50184Y72488D01*
X50149Y72663D01*
X50049Y72812D01*
X49901Y72911D01*
X49725Y72946D01*
X49549Y72911D01*
X49401Y72812D01*
X49363Y72755D01*
X49200D01*
Y73062D01*
X48200D01*
Y71990D01*
X48200Y71912D01*
X48200Y71785D01*
Y70713D01*
X48407D01*
Y70425D01*
X48175D01*
Y69352D01*
X48175Y69275D01*
X48175Y69148D01*
Y68918D01*
X47600D01*
Y69325D01*
X47460D01*
X47459Y69328D01*
X47425Y69452D01*
X47472Y69523D01*
X47493Y69625D01*
Y69675D01*
X47600D01*
Y71025D01*
X46975D01*
Y71050D01*
X46675D01*
Y70350D01*
X46475D01*
Y71050D01*
X46193D01*
Y71400D01*
X46425D01*
Y71375D01*
X46850D01*
Y71825D01*
Y72275D01*
X46425D01*
X46339Y72367D01*
X46334Y72377D01*
X46349Y72399D01*
X46384Y72575D01*
X46349Y72751D01*
X46249Y72899D01*
X46101Y72999D01*
X45925Y73034D01*
X45749Y72999D01*
X45601Y72899D01*
X45501Y72751D01*
X45466Y72575D01*
X45490Y72454D01*
X45371Y72405D01*
X45364Y72414D01*
X43983Y73795D01*
X44011Y73938D01*
X43967Y74162D01*
X43840Y74352D01*
X43649Y74479D01*
X43518Y74505D01*
X43530Y74632D01*
X43888D01*
X43926Y74576D01*
X44074Y74476D01*
X44250Y74441D01*
X44426Y74476D01*
X44574Y74576D01*
X44643Y74678D01*
X44791Y74710D01*
X46189Y73311D01*
D02*
G37*
G36*
X9034Y74896D02*
X9183Y74797D01*
X9358Y74762D01*
X9534Y74797D01*
X9555Y74811D01*
X9667Y74751D01*
Y73017D01*
X9540Y72991D01*
X9495Y73099D01*
X9331Y73314D01*
X9117Y73478D01*
X8868Y73581D01*
X8600Y73616D01*
X8332Y73581D01*
X8083Y73478D01*
X7869Y73314D01*
X7705Y73099D01*
X7601Y72850D01*
X7566Y72582D01*
X7601Y72315D01*
X7705Y72066D01*
X7869Y71851D01*
X8083Y71687D01*
X8332Y71584D01*
X8600Y71549D01*
X8868Y71584D01*
X9117Y71687D01*
X9331Y71851D01*
X9495Y72066D01*
X9540Y72174D01*
X9667Y72148D01*
Y71177D01*
X9625Y71068D01*
X9540Y71067D01*
X7575D01*
Y69018D01*
X9540D01*
X9625Y69018D01*
X9667Y68908D01*
Y68711D01*
X8963Y68007D01*
X8905Y67920D01*
X8885Y67818D01*
Y63933D01*
X8905Y63831D01*
X8963Y63744D01*
X10103Y62604D01*
Y60724D01*
X10123Y60622D01*
X10181Y60535D01*
X21151Y49565D01*
X21142Y49475D01*
X21016Y49414D01*
X21001Y49424D01*
X20825Y49459D01*
X20649Y49424D01*
X20501Y49324D01*
X20478Y49290D01*
X19194D01*
X19092Y49270D01*
X19005Y49212D01*
X17467Y47674D01*
X9039D01*
X8937Y47653D01*
X8850Y47595D01*
X5468Y44214D01*
X5351Y44262D01*
Y70354D01*
X5998Y71002D01*
X6050Y70991D01*
X6226Y71026D01*
X6374Y71126D01*
X6474Y71274D01*
X6509Y71450D01*
X6474Y71626D01*
X6374Y71774D01*
X6226Y71874D01*
X6050Y71909D01*
X6021Y71903D01*
X5959Y72020D01*
X8879Y74940D01*
X9005D01*
X9034Y74896D01*
D02*
G37*
G36*
X28394Y76252D02*
X28436Y76114D01*
X26486Y74164D01*
X26428Y74077D01*
X26407Y73975D01*
Y73438D01*
X26260Y73340D01*
X26133Y73149D01*
X26089Y72925D01*
X26133Y72701D01*
X26260Y72510D01*
X26407Y72412D01*
Y71986D01*
X25727Y71306D01*
X25600Y71358D01*
Y71600D01*
X25075D01*
Y71700D01*
X24975D01*
Y72150D01*
X24577D01*
X24544Y72174D01*
X24487Y72237D01*
X24479Y72252D01*
X24509Y72400D01*
X24474Y72576D01*
X24374Y72724D01*
X24226Y72824D01*
X24050Y72859D01*
X23874Y72824D01*
X23726Y72724D01*
X23688Y72668D01*
X23450D01*
X23348Y72647D01*
X23261Y72589D01*
X23242Y72571D01*
X23125Y72619D01*
Y72675D01*
X22275D01*
Y72518D01*
X21825D01*
Y72625D01*
X21292D01*
X21224Y72752D01*
X21272Y72823D01*
X21307Y72999D01*
X21272Y73174D01*
X21173Y73323D01*
X21098Y73373D01*
X21136Y73500D01*
X21447D01*
X21688Y73258D01*
X21775Y73200D01*
X21877Y73180D01*
X24073D01*
X24175Y73200D01*
X24262Y73258D01*
X24579Y73576D01*
X24692Y73509D01*
X24733Y73301D01*
X24860Y73110D01*
X25051Y72983D01*
X25275Y72939D01*
X25499Y72983D01*
X25690Y73110D01*
X25817Y73301D01*
X25861Y73525D01*
X25827Y73698D01*
X28383Y76254D01*
X28394Y76252D01*
D02*
G37*
G36*
X33357Y72161D02*
X33429Y72113D01*
X33446Y72038D01*
X33447Y71973D01*
X33323Y71890D01*
X33196Y71699D01*
X33151Y71475D01*
X33196Y71251D01*
X33323Y71060D01*
X33513Y70933D01*
X33737Y70889D01*
X33962Y70933D01*
X34152Y71060D01*
X34279Y71251D01*
X34324Y71475D01*
X34279Y71699D01*
X34152Y71890D01*
X34054Y71955D01*
X34092Y72082D01*
X34550D01*
Y71400D01*
X34550Y71400D01*
X34532Y71280D01*
X34516Y71200D01*
X34551Y71024D01*
X34600Y70951D01*
Y69675D01*
X35225D01*
Y69650D01*
X35525D01*
Y70350D01*
X35725D01*
Y69650D01*
X36025D01*
X36087Y69549D01*
X36091Y69522D01*
X36129Y69431D01*
X36058Y69325D01*
X34600D01*
Y69149D01*
X34473Y69079D01*
X34325Y69109D01*
X34149Y69074D01*
X34102Y69042D01*
X34078Y69055D01*
X34000Y69150D01*
Y69575D01*
X33550D01*
Y69675D01*
X33450D01*
Y70200D01*
X33168D01*
Y70321D01*
X33147Y70424D01*
X33089Y70511D01*
X32985Y70614D01*
X33084Y70762D01*
X33119Y70938D01*
X33084Y71114D01*
X32985Y71262D01*
X32836Y71362D01*
X32660Y71397D01*
X32485Y71362D01*
X32336Y71262D01*
X32236Y71114D01*
X32202Y70938D01*
X32236Y70762D01*
X32336Y70614D01*
X32393Y70576D01*
Y70561D01*
X32413Y70459D01*
X32471Y70372D01*
X32566Y70277D01*
X32513Y70150D01*
X31800D01*
Y69604D01*
X31771Y69575D01*
X31375D01*
Y69179D01*
X31286Y69106D01*
X31175Y69153D01*
Y69250D01*
X29125D01*
Y68843D01*
X28500D01*
Y69075D01*
X28525D01*
Y69500D01*
X28075D01*
Y69600D01*
X27975D01*
Y70125D01*
X27925D01*
X27884Y70175D01*
X27849Y70351D01*
X27749Y70499D01*
X27682Y70545D01*
X27650Y70675D01*
X27664Y70698D01*
X27749Y70824D01*
X27784Y71000D01*
X27749Y71176D01*
X27649Y71324D01*
X27501Y71424D01*
X27402Y71444D01*
X27360Y71581D01*
X28086Y72307D01*
X28544D01*
X28557Y72180D01*
X28524Y72174D01*
X28376Y72074D01*
X28276Y71926D01*
X28241Y71750D01*
X28276Y71574D01*
X28376Y71426D01*
X28524Y71326D01*
X28700Y71291D01*
X28876Y71326D01*
X28948Y71374D01*
X29075Y71325D01*
Y71325D01*
X29232D01*
Y70950D01*
X29125D01*
Y69600D01*
X29750D01*
Y69575D01*
X30050D01*
Y70275D01*
X30250D01*
Y69575D01*
X30550D01*
Y69600D01*
X31175D01*
Y70471D01*
X31329Y70625D01*
X31375Y70616D01*
X31551Y70651D01*
X31699Y70751D01*
X31799Y70899D01*
X31834Y71075D01*
X31799Y71251D01*
X31699Y71399D01*
X31551Y71499D01*
X31375Y71534D01*
X31199Y71499D01*
X31177Y71484D01*
X31050Y71552D01*
Y71650D01*
X30525D01*
Y71850D01*
X31050D01*
Y72180D01*
X31050Y72200D01*
X31097Y72307D01*
X31737D01*
X31835Y72160D01*
X32026Y72033D01*
X32250Y71989D01*
X32474Y72033D01*
X32665Y72160D01*
X32792Y72351D01*
X32824Y72514D01*
X32959Y72559D01*
X33357Y72161D01*
D02*
G37*
G36*
X40121Y72805D02*
X40051Y72701D01*
X40016Y72525D01*
X40046Y72375D01*
X40050Y72250D01*
X40050Y72250D01*
X40050Y72250D01*
Y71400D01*
X40207D01*
Y71025D01*
X40100D01*
Y69675D01*
X40725D01*
Y69650D01*
X41025D01*
Y70350D01*
X41225D01*
Y69650D01*
X41525D01*
Y69675D01*
X42150D01*
Y70382D01*
X42275D01*
X42377Y70403D01*
X42464Y70461D01*
X42648Y70644D01*
X42786Y70602D01*
X42801Y70524D01*
X42901Y70376D01*
X42936Y70352D01*
X42922Y70225D01*
X42775D01*
Y69275D01*
X42775D01*
Y69225D01*
X42775D01*
Y68918D01*
X42150D01*
Y69325D01*
X40100D01*
Y69149D01*
X39973Y69079D01*
X39825Y69109D01*
X39649Y69074D01*
X39602Y69042D01*
X39578Y69055D01*
X39500Y69150D01*
Y69575D01*
X39050D01*
Y69675D01*
X38950D01*
Y70200D01*
X38934D01*
X38853Y70298D01*
X38859Y70325D01*
X38824Y70501D01*
X38724Y70649D01*
X38576Y70749D01*
X38400Y70784D01*
X38273Y70759D01*
X38203Y70874D01*
X38304Y71026D01*
X38349Y71250D01*
X38304Y71474D01*
X38177Y71665D01*
X37987Y71792D01*
X37763Y71836D01*
X37538Y71792D01*
X37348Y71665D01*
X37250Y71518D01*
X36912D01*
X36810Y71497D01*
X36723Y71439D01*
X36647Y71363D01*
X36525Y71421D01*
Y71725D01*
X36000D01*
Y71925D01*
X36525D01*
Y72082D01*
X36650D01*
X36752Y72103D01*
X36839Y72161D01*
X37327Y72648D01*
X37500Y72614D01*
X37724Y72658D01*
X37915Y72785D01*
X38013Y72932D01*
X38557D01*
X38569Y72805D01*
X38563Y72804D01*
X38373Y72677D01*
X38246Y72487D01*
X38201Y72262D01*
X38246Y72038D01*
X38373Y71848D01*
X38563Y71721D01*
X38787Y71676D01*
X39012Y71721D01*
X39202Y71848D01*
X39329Y72038D01*
X39374Y72262D01*
X39329Y72487D01*
X39202Y72677D01*
X39012Y72804D01*
X39006Y72805D01*
X39018Y72932D01*
X40063D01*
X40121Y72805D01*
D02*
G37*
G36*
X42879Y74142D02*
X42839Y73938D01*
X42883Y73713D01*
X43010Y73523D01*
X43201Y73396D01*
X43425Y73351D01*
X43630Y73392D01*
X44907Y72114D01*
Y70200D01*
X44600D01*
Y69675D01*
X44400D01*
Y70200D01*
X44379D01*
X44359Y70225D01*
X44324Y70401D01*
X44224Y70549D01*
X44076Y70649D01*
X43900Y70684D01*
X43806Y70665D01*
X43703Y70695D01*
X43672Y70758D01*
X43649Y70876D01*
X43549Y71024D01*
X43401Y71124D01*
X43323Y71139D01*
X43281Y71277D01*
X43289Y71286D01*
X43347Y71373D01*
X43352Y71395D01*
X43387Y71416D01*
X43490Y71441D01*
X43651Y71333D01*
X43875Y71289D01*
X44099Y71333D01*
X44290Y71460D01*
X44417Y71651D01*
X44461Y71875D01*
X44417Y72099D01*
X44290Y72290D01*
X44099Y72417D01*
X43875Y72461D01*
X43651Y72417D01*
X43495Y72312D01*
X43368Y72362D01*
Y72525D01*
X43347Y72627D01*
X43289Y72714D01*
X41964Y74039D01*
X41877Y74097D01*
X41775Y74118D01*
X40473D01*
X40466Y74130D01*
X40538Y74257D01*
X42764D01*
X42879Y74142D01*
D02*
G37*
G36*
X16748Y69536D02*
X16835Y69478D01*
X16938Y69457D01*
X17975D01*
Y69275D01*
X18925D01*
X18925Y69275D01*
X18975D01*
Y69275D01*
X19052Y69275D01*
X19925D01*
Y69457D01*
X20202D01*
Y68341D01*
X20075Y68302D01*
X20035Y68362D01*
X19886Y68462D01*
X19710Y68497D01*
X19535Y68462D01*
X19386Y68362D01*
X19286Y68214D01*
X19252Y68038D01*
X19286Y67862D01*
X19386Y67714D01*
X19535Y67614D01*
X19710Y67579D01*
X19777Y67593D01*
X19892Y67478D01*
Y64314D01*
X19765Y64251D01*
X19718Y64287D01*
Y64575D01*
X19725D01*
Y65475D01*
X18965D01*
X18884Y65602D01*
X18909Y65725D01*
X18874Y65901D01*
X18826Y65973D01*
X18850Y66100D01*
X18850Y66100D01*
Y67025D01*
X18875D01*
Y67425D01*
X18150D01*
Y67625D01*
X18875D01*
Y68025D01*
X18850D01*
Y68950D01*
X17450D01*
Y68514D01*
X16517Y67581D01*
X16400Y67630D01*
Y68950D01*
X15968D01*
Y69150D01*
X15947Y69252D01*
X15889Y69339D01*
X15621Y69608D01*
X15669Y69725D01*
X15800D01*
X15800Y69725D01*
X15850D01*
Y69725D01*
X15927Y69725D01*
X16559D01*
X16748Y69536D01*
D02*
G37*
G36*
X23625Y72017D02*
Y71275D01*
X23782D01*
Y70900D01*
X23675D01*
Y69550D01*
X24300D01*
Y69525D01*
X24506D01*
X24554Y69408D01*
X24511Y69364D01*
X24453Y69277D01*
X24437Y69200D01*
X23675D01*
Y68793D01*
X23138D01*
Y69025D01*
X23163D01*
Y69450D01*
X22712D01*
Y69550D01*
X22612D01*
Y70075D01*
X22463D01*
Y70700D01*
X22600D01*
Y71225D01*
X22700D01*
Y71325D01*
X23150D01*
Y71750D01*
X23125D01*
Y71907D01*
X23225D01*
X23327Y71928D01*
X23414Y71986D01*
X23498Y72069D01*
X23625Y72017D01*
D02*
G37*
G36*
X15442Y70842D02*
X15393Y70725D01*
X14650D01*
Y69725D01*
X14957D01*
Y69625D01*
X14978Y69523D01*
X15036Y69436D01*
X15394Y69077D01*
X15342Y68950D01*
X15000D01*
Y68743D01*
X14275D01*
X14177Y68890D01*
X13987Y69017D01*
X13762Y69061D01*
X13538Y69017D01*
X13348Y68890D01*
X13295Y68810D01*
X13168Y68848D01*
Y69264D01*
X14314Y70411D01*
X14372Y70498D01*
X14393Y70600D01*
Y70863D01*
X14449Y70901D01*
X14487Y70957D01*
X15327D01*
X15442Y70842D01*
D02*
G37*
G36*
X48175Y68075D02*
X48777D01*
X48833Y68016D01*
X48816Y67860D01*
X48785Y67840D01*
X48658Y67649D01*
X48614Y67425D01*
X48658Y67201D01*
X48785Y67010D01*
X48976Y66883D01*
X49200Y66839D01*
X49424Y66883D01*
X49615Y67010D01*
X49672Y67096D01*
X49799Y67058D01*
Y65595D01*
X49635Y65562D01*
X49486Y65462D01*
X49481Y65455D01*
X49088D01*
X49086Y65461D01*
X49058Y65582D01*
X49179Y65763D01*
X49224Y65988D01*
X49179Y66212D01*
X49052Y66402D01*
X48862Y66529D01*
X48638Y66574D01*
X48413Y66529D01*
X48223Y66402D01*
X48125Y66255D01*
X47298D01*
X46980Y66573D01*
X47033Y66700D01*
X47058D01*
X47175Y66675D01*
X47267Y66675D01*
X47575D01*
Y67150D01*
Y67625D01*
X47267D01*
X47175Y67625D01*
X47114Y67612D01*
X47019Y67727D01*
X47034Y67800D01*
X47019Y67877D01*
X47099Y67975D01*
X47600D01*
Y68382D01*
X48175D01*
Y68075D01*
D02*
G37*
G36*
X42775Y68275D02*
X43632D01*
Y67575D01*
X43475D01*
Y66725D01*
X43632D01*
Y66350D01*
X43525D01*
Y65000D01*
X44150D01*
Y64975D01*
X44450D01*
Y65675D01*
Y66375D01*
X44168D01*
Y66725D01*
X44400D01*
Y66700D01*
X44825D01*
Y67150D01*
Y67600D01*
X44400D01*
Y67575D01*
X44168D01*
Y68225D01*
X44925D01*
X44925Y68225D01*
Y68225D01*
X45052Y68241D01*
X45074Y68226D01*
X45250Y68191D01*
X45423Y68226D01*
X45446Y68230D01*
X45550Y68158D01*
Y67975D01*
X46051D01*
X46131Y67877D01*
X46116Y67800D01*
X46151Y67624D01*
X46200Y67551D01*
Y66804D01*
X46102Y66724D01*
X46050Y66734D01*
X45874Y66699D01*
X45726Y66599D01*
X45626Y66451D01*
X45575Y66350D01*
X45492Y66350D01*
X44950D01*
Y66375D01*
X44650D01*
Y65675D01*
Y64975D01*
X44950D01*
Y65000D01*
X45575D01*
Y65245D01*
X45825D01*
X45927Y65265D01*
X46014Y65323D01*
X46033Y65342D01*
X46150Y65293D01*
Y64600D01*
X46150Y64600D01*
Y64550D01*
X46150D01*
X46150Y64473D01*
Y64243D01*
X45575D01*
Y64650D01*
X43525D01*
Y64442D01*
X43421Y64370D01*
X43398Y64374D01*
X43225Y64409D01*
X43049Y64374D01*
X43027Y64359D01*
X42994Y64377D01*
X42925Y64475D01*
Y64900D01*
X42475D01*
X42025D01*
Y64475D01*
X42050D01*
Y63550D01*
X42900D01*
X42900Y63550D01*
Y63550D01*
X43024Y63543D01*
X43049Y63526D01*
X43225Y63491D01*
X43398Y63526D01*
X43421Y63530D01*
X43525Y63458D01*
Y63300D01*
X44021D01*
X44101Y63202D01*
X44091Y63150D01*
X44126Y62974D01*
X44116Y62954D01*
X44112Y62950D01*
X43957Y62919D01*
X43876Y62974D01*
X43700Y63009D01*
X43524Y62974D01*
X43392Y62885D01*
X43374Y62875D01*
X43241Y62901D01*
X43165Y63015D01*
X42974Y63142D01*
X42750Y63186D01*
X42526Y63142D01*
X42335Y63015D01*
X42237Y62868D01*
X41965D01*
X41863Y62847D01*
X41776Y62789D01*
X41732Y62745D01*
X41605Y62750D01*
X41605D01*
X41498Y62797D01*
Y63550D01*
X41675D01*
Y64408D01*
X41700Y64525D01*
X41700Y64617D01*
Y64925D01*
X41225D01*
X40750D01*
Y64617D01*
X40750Y64525D01*
X40773Y64417D01*
X40648Y64351D01*
X40576Y64399D01*
X40400Y64434D01*
X40224Y64399D01*
X40202Y64384D01*
X40075Y64452D01*
Y64650D01*
X39450D01*
Y64675D01*
X39150D01*
Y63975D01*
Y63275D01*
X39450D01*
Y63300D01*
X40075D01*
Y63498D01*
X40202Y63566D01*
X40224Y63551D01*
X40400Y63516D01*
X40576Y63551D01*
X40648Y63599D01*
X40775Y63550D01*
Y63550D01*
X40962D01*
Y63072D01*
X40950Y62950D01*
X40725D01*
Y62550D01*
X40525D01*
Y62950D01*
X40300D01*
Y62750D01*
X39645D01*
Y62718D01*
X38958D01*
X38877Y62840D01*
X38687Y62967D01*
X38462Y63011D01*
X38238Y62967D01*
X38048Y62840D01*
X37950Y62693D01*
X37475D01*
Y62900D01*
X36525D01*
Y62900D01*
X36475D01*
X36407Y62999D01*
X36392Y63027D01*
X36415Y63061D01*
X36450Y63237D01*
X36415Y63412D01*
X36316Y63561D01*
X36167Y63661D01*
X36100Y63674D01*
Y64500D01*
X36100Y64500D01*
Y64550D01*
X36100D01*
X36100Y64627D01*
Y65500D01*
X35475D01*
X35376Y65627D01*
X35378Y65638D01*
X35358Y65740D01*
X35345Y65759D01*
X35334Y65814D01*
X35235Y65962D01*
X35086Y66062D01*
X34910Y66097D01*
X34735Y66062D01*
X34702Y66040D01*
X34575Y66108D01*
Y66300D01*
X33950D01*
Y66325D01*
X33650D01*
Y65625D01*
X33450D01*
Y66325D01*
X33168D01*
Y66675D01*
X33400D01*
Y66650D01*
X33825D01*
Y67100D01*
X34025D01*
Y66650D01*
X34450D01*
Y67047D01*
X34577Y67060D01*
X34586Y67012D01*
X34686Y66864D01*
X34835Y66764D01*
X35010Y66729D01*
X35123Y66752D01*
X35250Y66700D01*
Y66700D01*
X36108D01*
X36225Y66675D01*
X36317Y66675D01*
X36625D01*
Y67150D01*
X36725D01*
Y67250D01*
X37225D01*
Y67452D01*
X37258Y67476D01*
X37352Y67508D01*
X37474Y67426D01*
X37650Y67391D01*
X37826Y67426D01*
X37848Y67441D01*
X37975Y67373D01*
Y66725D01*
X38132D01*
Y66350D01*
X38025D01*
Y65000D01*
X38650D01*
Y64975D01*
X38950D01*
Y65675D01*
X39150D01*
Y64975D01*
X39450D01*
Y65000D01*
X40075D01*
Y65407D01*
X40189D01*
X40291Y65428D01*
X40378Y65486D01*
X40652Y65759D01*
X40710Y65846D01*
X40730Y65948D01*
X40857Y66013D01*
X40949Y65951D01*
X41125Y65916D01*
X41301Y65951D01*
X41449Y66051D01*
X41549Y66199D01*
X41584Y66375D01*
X41549Y66551D01*
X41534Y66573D01*
X41602Y66700D01*
X41608D01*
X41725Y66675D01*
X41817Y66675D01*
X42125D01*
Y67150D01*
Y67625D01*
X41817D01*
X41725Y67625D01*
X41608Y67600D01*
X41482D01*
X41393Y67690D01*
Y67975D01*
X42150D01*
Y68382D01*
X42775D01*
Y68275D01*
D02*
G37*
G36*
X23675Y67850D02*
X24432D01*
Y67475D01*
X24325D01*
Y66575D01*
X24856D01*
X24904Y66458D01*
X24239Y65793D01*
X23675D01*
Y66200D01*
X23050D01*
Y66225D01*
X22750D01*
Y65525D01*
Y64825D01*
X23050D01*
Y64850D01*
X23675D01*
Y65257D01*
X24350D01*
X24452Y65278D01*
X24539Y65336D01*
X25484Y66281D01*
X25542Y66368D01*
X25563Y66470D01*
X25628Y66550D01*
X25700D01*
Y67025D01*
X25800D01*
Y67125D01*
X26300D01*
Y67457D01*
X26421D01*
X26476Y67376D01*
X26624Y67276D01*
X26800Y67241D01*
X26898Y67261D01*
X27025Y67168D01*
Y66625D01*
X27182D01*
Y66250D01*
X27075D01*
Y64900D01*
X27700D01*
Y64875D01*
X28000D01*
Y65575D01*
X28200D01*
Y64875D01*
X28500D01*
Y64900D01*
X29125D01*
Y65871D01*
X29564Y66311D01*
X29622Y66398D01*
X29643Y66500D01*
Y66977D01*
X29648Y66980D01*
X29775Y66909D01*
Y66625D01*
X29882D01*
Y66600D01*
X29903Y66498D01*
X29961Y66411D01*
X30136Y66236D01*
X30114Y66125D01*
X30158Y65901D01*
X30285Y65710D01*
X30476Y65583D01*
X30508Y65577D01*
X30495Y65450D01*
X29750D01*
Y64500D01*
X29750D01*
Y64450D01*
X29750D01*
Y64143D01*
X29125D01*
Y64550D01*
X27075D01*
Y64143D01*
X26450D01*
Y64375D01*
X26475D01*
Y64800D01*
X26025D01*
X25575D01*
Y64375D01*
X25600D01*
Y63450D01*
X26306D01*
X26376Y63326D01*
X26376Y63323D01*
X26341Y63150D01*
X26376Y62974D01*
X26476Y62826D01*
X26624Y62726D01*
X26800Y62691D01*
X26976Y62726D01*
X27124Y62826D01*
X27224Y62974D01*
X27259Y63150D01*
X27300Y63200D01*
X27832D01*
Y62825D01*
X27725D01*
Y61925D01*
X27725D01*
X27772Y61798D01*
X27750Y61688D01*
X27785Y61512D01*
X27884Y61363D01*
X28033Y61264D01*
X28209Y61229D01*
X28384Y61264D01*
X28533Y61363D01*
X28633Y61512D01*
X28668Y61688D01*
X28646Y61795D01*
X28749Y61900D01*
X28792Y61900D01*
X29100D01*
Y62375D01*
Y62850D01*
X28792D01*
X28700Y62850D01*
X28583Y62825D01*
X28457D01*
X28368Y62915D01*
Y63200D01*
X29125D01*
Y63607D01*
X29750D01*
Y63500D01*
X30568D01*
Y62954D01*
X30588Y62852D01*
X30646Y62765D01*
X30831Y62580D01*
X30769Y62463D01*
X30710Y62474D01*
X30486Y62430D01*
X30296Y62303D01*
X30169Y62112D01*
X30124Y61888D01*
X30169Y61664D01*
X30296Y61473D01*
X30486Y61346D01*
X30710Y61302D01*
X30720Y61293D01*
X30691Y61150D01*
X30726Y60974D01*
X30826Y60825D01*
X30882Y60787D01*
Y58527D01*
X29277Y56922D01*
X29219Y56835D01*
X29199Y56733D01*
Y54519D01*
X27311Y52630D01*
X27253Y52544D01*
X27232Y52441D01*
Y50637D01*
X27176Y50599D01*
X27076Y50450D01*
X27053Y50333D01*
X26919Y50287D01*
X26393Y50813D01*
Y53138D01*
X26449Y53176D01*
X26485Y53228D01*
X26637D01*
X26676Y53171D01*
X26824Y53072D01*
X27000Y53037D01*
X27176Y53072D01*
X27324Y53171D01*
X27424Y53320D01*
X27459Y53496D01*
X27448Y53548D01*
X28403Y54502D01*
X28463Y54593D01*
X28485Y54700D01*
Y56491D01*
X29848Y57854D01*
X29848Y57854D01*
X29909Y57945D01*
X29930Y58053D01*
X29930Y58053D01*
Y60796D01*
X29974Y60826D01*
X30074Y60974D01*
X30109Y61150D01*
X30074Y61326D01*
X29974Y61474D01*
X29826Y61574D01*
X29650Y61609D01*
X29474Y61574D01*
X29326Y61474D01*
X29226Y61326D01*
X29191Y61150D01*
X29226Y60974D01*
X29326Y60826D01*
X29370Y60796D01*
Y58169D01*
X28006Y56805D01*
X27945Y56714D01*
X27924Y56607D01*
Y54816D01*
X27450Y54342D01*
X27312Y54384D01*
X27299Y54451D01*
X27199Y54599D01*
X27051Y54699D01*
X26875Y54734D01*
X26699Y54699D01*
X26551Y54599D01*
X26451Y54451D01*
X26416Y54275D01*
X26451Y54099D01*
X26551Y53951D01*
X26600Y53918D01*
X26618Y53894D01*
X26591Y53840D01*
X26451Y53825D01*
X26444Y53828D01*
X26301Y53924D01*
X26125Y53959D01*
X25949Y53924D01*
X25801Y53824D01*
X25701Y53676D01*
X25666Y53500D01*
X25701Y53324D01*
X25801Y53176D01*
X25857Y53138D01*
Y51076D01*
X25740Y51028D01*
X25057Y51711D01*
Y53799D01*
X25184Y53871D01*
X25327Y53843D01*
X25502Y53878D01*
X25651Y53977D01*
X25751Y54126D01*
X25786Y54301D01*
X25751Y54477D01*
X25651Y54626D01*
X25502Y54725D01*
X25327Y54760D01*
X25184Y54732D01*
X25057Y54804D01*
Y59158D01*
X26580Y60682D01*
X26754Y60648D01*
X26978Y60692D01*
X27168Y60819D01*
X27295Y61009D01*
X27340Y61234D01*
X27295Y61458D01*
X27168Y61648D01*
X26978Y61775D01*
X26754Y61820D01*
X26529Y61775D01*
X26339Y61648D01*
X26212Y61458D01*
X26168Y61234D01*
X26202Y61061D01*
X24743Y59601D01*
X24625Y59650D01*
Y60577D01*
X24754Y60663D01*
X24881Y60853D01*
X24926Y61077D01*
X24881Y61302D01*
X24754Y61492D01*
X24564Y61619D01*
X24340Y61664D01*
X24217Y61639D01*
X24213Y61641D01*
X24119Y61749D01*
X24127Y61791D01*
Y62532D01*
X24107Y62634D01*
X24049Y62721D01*
X23727Y63043D01*
X23675Y63150D01*
X23675D01*
X23675Y63150D01*
Y64500D01*
X23050D01*
Y64525D01*
X22750D01*
Y63825D01*
X22550D01*
Y64525D01*
X22250D01*
Y64500D01*
X21735D01*
X21701Y64669D01*
X21665Y64723D01*
X21733Y64850D01*
X22250D01*
Y64825D01*
X22550D01*
Y65525D01*
Y66225D01*
X22268D01*
Y66600D01*
X22600D01*
Y66575D01*
X23025D01*
Y67025D01*
X23125D01*
Y67125D01*
X23650D01*
Y67475D01*
X23098D01*
X23074Y67508D01*
X23042Y67602D01*
X23124Y67724D01*
X23159Y67900D01*
X23144Y67976D01*
X23138Y68100D01*
X23138Y68100D01*
X23138Y68100D01*
Y68257D01*
X23675D01*
Y67850D01*
D02*
G37*
G36*
X21825Y70575D02*
X21927Y70516D01*
Y67450D01*
X21675D01*
Y66600D01*
X21732D01*
Y66200D01*
X21625D01*
Y65793D01*
X21500D01*
X21398Y65772D01*
X21311Y65714D01*
X21174Y65578D01*
X21047Y65630D01*
Y69870D01*
X21027Y69973D01*
X20969Y70060D01*
X20581Y70448D01*
X20633Y70575D01*
X21825D01*
D02*
G37*
G36*
X13743Y70987D02*
X13801Y70901D01*
X13857Y70863D01*
Y70711D01*
X12711Y69564D01*
X12653Y69477D01*
X12632Y69375D01*
Y64354D01*
X12505Y64316D01*
X12499Y64324D01*
X12351Y64424D01*
X12175Y64459D01*
X12068Y64560D01*
Y69464D01*
X13589Y70986D01*
X13593Y70991D01*
X13743Y70987D01*
D02*
G37*
G36*
X12632Y63646D02*
Y63112D01*
X12653Y63010D01*
X12711Y62923D01*
X13257Y62377D01*
Y59969D01*
X13201Y59931D01*
X13135Y59833D01*
X12986Y59803D01*
X11758Y61031D01*
Y63603D01*
X11885Y63653D01*
X11999Y63576D01*
X12175Y63541D01*
X12351Y63576D01*
X12499Y63676D01*
X12505Y63684D01*
X12632Y63646D01*
D02*
G37*
G36*
X17425Y67566D02*
Y67025D01*
X17450D01*
Y66100D01*
X18007D01*
X18074Y65973D01*
X18026Y65901D01*
X17991Y65725D01*
X18016Y65602D01*
X17935Y65475D01*
X17775D01*
Y64575D01*
X18648D01*
X18725Y64575D01*
Y64575D01*
X18775D01*
Y64575D01*
X19182D01*
Y64150D01*
X17875D01*
Y63659D01*
X16967Y62751D01*
X16850Y62800D01*
Y63225D01*
X16825D01*
Y64150D01*
X15425D01*
X15350Y64246D01*
Y64713D01*
X15350D01*
X15325Y64738D01*
Y65688D01*
X15143D01*
Y65827D01*
X15416Y66100D01*
X16400D01*
Y66707D01*
X17308Y67615D01*
X17425Y67566D01*
D02*
G37*
G36*
X46415Y62898D02*
X46380Y62725D01*
X46425Y62500D01*
X46552Y62310D01*
X46699Y62212D01*
Y61526D01*
X44085Y58911D01*
X43968Y58960D01*
Y62175D01*
X44059Y62249D01*
X44175Y62209D01*
Y62025D01*
X45033D01*
X45150Y62000D01*
Y62000D01*
X45150Y62000D01*
X45550D01*
Y62475D01*
X45650D01*
Y62575D01*
X46150D01*
Y62903D01*
X46193Y62955D01*
X46352Y62961D01*
X46415Y62898D01*
D02*
G37*
G36*
X13348Y68060D02*
X13495Y67962D01*
Y64391D01*
X13515Y64288D01*
X13573Y64201D01*
X14351Y63423D01*
X14421Y63377D01*
X14418Y63305D01*
X14399Y63250D01*
X14262D01*
Y62850D01*
X14738D01*
Y62650D01*
X14262D01*
Y62342D01*
X14262Y62250D01*
X14288Y62133D01*
Y61275D01*
X14470D01*
Y60638D01*
X14323Y60540D01*
X14196Y60349D01*
X14151Y60125D01*
X14196Y59901D01*
X14323Y59710D01*
X14513Y59583D01*
X14738Y59539D01*
X14962Y59583D01*
X15152Y59710D01*
X15279Y59901D01*
X15324Y60125D01*
X15279Y60349D01*
X15152Y60540D01*
X15005Y60638D01*
Y61275D01*
X15188D01*
Y61495D01*
X15425D01*
Y61300D01*
X16825D01*
Y61816D01*
X17758Y62749D01*
X17875Y62700D01*
Y62250D01*
Y61300D01*
X18307D01*
Y60707D01*
X18328Y60605D01*
X18386Y60518D01*
X18855Y60048D01*
X18942Y59990D01*
X19045Y59970D01*
X19425D01*
Y59763D01*
X19575D01*
X19594Y59636D01*
X19335Y59376D01*
X14054D01*
X13963Y59503D01*
X13984Y59606D01*
X13949Y59782D01*
X13849Y59931D01*
X13793Y59969D01*
Y62487D01*
X13772Y62590D01*
X13714Y62677D01*
X13168Y63223D01*
Y68102D01*
X13295Y68140D01*
X13348Y68060D01*
D02*
G37*
G36*
X36269Y60502D02*
X36217Y60375D01*
X36025D01*
Y60025D01*
X36550D01*
Y59925D01*
X36650D01*
Y59475D01*
X37075D01*
Y59500D01*
X38000D01*
Y59657D01*
X38495D01*
X38597Y59678D01*
X38684Y59736D01*
X38813Y59864D01*
X38969Y59841D01*
X38996Y59805D01*
Y58423D01*
X38925Y58330D01*
X38837Y58117D01*
X38807Y57889D01*
X38831Y57707D01*
X38748Y57580D01*
X34406D01*
X34295Y57707D01*
X34308Y57812D01*
X34278Y58040D01*
X34190Y58253D01*
X34119Y58345D01*
Y58500D01*
X34740Y59121D01*
X34851Y59265D01*
X34865Y59299D01*
X34893Y59308D01*
X35034Y59251D01*
X35092Y59164D01*
X36207Y58050D01*
X36294Y57992D01*
X36396Y57971D01*
X37627D01*
X37665Y57914D01*
X37814Y57815D01*
X37990Y57780D01*
X38165Y57815D01*
X38314Y57914D01*
X38414Y58063D01*
X38449Y58239D01*
X38414Y58414D01*
X38314Y58563D01*
X38165Y58663D01*
X37990Y58698D01*
X37814Y58663D01*
X37665Y58563D01*
X37627Y58507D01*
X36507D01*
X35549Y59464D01*
Y60725D01*
X36046D01*
X36269Y60502D01*
D02*
G37*
G36*
X31380Y58088D02*
Y57545D01*
X30584Y56749D01*
X30526Y56662D01*
X30506Y56560D01*
Y55052D01*
X29861Y54407D01*
X29734Y54460D01*
Y56622D01*
X31253Y58141D01*
X31380Y58088D01*
D02*
G37*
G36*
X22004Y58557D02*
Y50087D01*
X21877Y50034D01*
X18796Y53115D01*
X18845Y53232D01*
X20554D01*
X20652Y53085D01*
X20842Y52958D01*
X21066Y52914D01*
X21291Y52958D01*
X21481Y53085D01*
X21608Y53276D01*
X21653Y53500D01*
X21608Y53724D01*
X21481Y53915D01*
X21291Y54042D01*
X21066Y54086D01*
X20842Y54042D01*
X20652Y53915D01*
X20554Y53768D01*
X18582D01*
X13626Y58724D01*
X13675Y58841D01*
X19446D01*
X19548Y58861D01*
X19635Y58919D01*
X20064Y59349D01*
X20122Y59436D01*
X20143Y59538D01*
Y59763D01*
X20325D01*
Y60068D01*
X20422Y60107D01*
X20452Y60110D01*
X22004Y58557D01*
D02*
G37*
G36*
X51617Y53301D02*
X51704Y53243D01*
X51806Y53222D01*
X52031D01*
X52135Y52973D01*
X52299Y52759D01*
X52513Y52595D01*
X52762Y52491D01*
X53030Y52456D01*
X53298Y52491D01*
X53547Y52595D01*
X53761Y52759D01*
X53925Y52973D01*
X54018Y53197D01*
X54125Y53198D01*
X54147Y53192D01*
X54157Y53111D01*
X54303Y52759D01*
X54536Y52456D01*
X54739Y52300D01*
Y52140D01*
X54536Y51984D01*
X54303Y51681D01*
X54157Y51329D01*
X54147Y51248D01*
X54125Y51242D01*
X54018Y51243D01*
X53925Y51467D01*
X53761Y51681D01*
X53547Y51845D01*
X53298Y51949D01*
X53030Y51984D01*
X52762Y51949D01*
X52513Y51845D01*
X52299Y51681D01*
X52135Y51467D01*
X52091Y51363D01*
X51967Y51338D01*
X51907Y51398D01*
X51820Y51456D01*
X51717Y51476D01*
X51115D01*
X51072Y51603D01*
X51231Y51725D01*
X51399Y51944D01*
X51505Y52200D01*
X51528Y52374D01*
X50482D01*
X49436D01*
X49459Y52200D01*
X49565Y51944D01*
X49733Y51725D01*
X49892Y51603D01*
X49849Y51476D01*
X47951D01*
X46774Y52653D01*
X46688Y52711D01*
X46585Y52732D01*
X39135D01*
X39086Y52849D01*
X39255Y53018D01*
X45683D01*
X45785Y53038D01*
X45872Y53096D01*
X46283Y53507D01*
X49903D01*
X49936Y53429D01*
X49938Y53380D01*
X49733Y53223D01*
X49565Y53004D01*
X49459Y52748D01*
X49436Y52574D01*
X50482D01*
X51528D01*
X51505Y52748D01*
X51399Y53004D01*
X51231Y53223D01*
X51026Y53380D01*
X51028Y53429D01*
X51061Y53507D01*
X51410D01*
X51617Y53301D01*
D02*
G37*
G36*
X28745Y53128D02*
X28831Y52999D01*
X28962Y52912D01*
X28989Y52839D01*
X29000Y52766D01*
X28953Y52695D01*
X28933Y52593D01*
Y49591D01*
X28880Y49558D01*
X28806Y49537D01*
X28676Y49624D01*
X28500Y49659D01*
X28324Y49624D01*
X28176Y49524D01*
X28138Y49468D01*
X27738D01*
X27513Y49693D01*
X27528Y49775D01*
X27559Y49827D01*
X27676Y49850D01*
X27824Y49950D01*
X27924Y50099D01*
X27959Y50274D01*
X27924Y50450D01*
X27824Y50599D01*
X27768Y50637D01*
Y52330D01*
X28608Y53170D01*
X28745Y53128D01*
D02*
G37*
G36*
X48307Y49745D02*
X48394Y49687D01*
X48496Y49666D01*
X49483D01*
X49587Y49417D01*
X49751Y49203D01*
X49965Y49039D01*
X50214Y48935D01*
X50482Y48900D01*
X50750Y48935D01*
X50999Y49039D01*
X51213Y49203D01*
X51377Y49417D01*
X51481Y49666D01*
X51516Y49934D01*
X51481Y50202D01*
X51377Y50451D01*
X51213Y50665D01*
X51019Y50814D01*
X51029Y50891D01*
X51053Y50941D01*
X51607D01*
X51787Y50761D01*
X51874Y50703D01*
X51976Y50682D01*
X52031D01*
X52135Y50433D01*
X52299Y50219D01*
X52513Y50055D01*
X52762Y49951D01*
X53030Y49916D01*
X53298Y49951D01*
X53547Y50055D01*
X53742Y50205D01*
X53808Y50176D01*
X53851Y50136D01*
X53812Y50042D01*
X53789Y49862D01*
Y49311D01*
X53662Y49249D01*
X53560Y49327D01*
X53304Y49433D01*
X53130Y49456D01*
Y48410D01*
X53030D01*
Y48310D01*
X51984D01*
X52007Y48136D01*
X52113Y47880D01*
X52281Y47661D01*
X52500Y47493D01*
X52756Y47387D01*
X52942Y47362D01*
X52988Y47228D01*
X52733Y46974D01*
X51532D01*
X51461Y47080D01*
X51481Y47126D01*
X51516Y47394D01*
X51481Y47662D01*
X51377Y47911D01*
X51213Y48125D01*
X50999Y48289D01*
X50750Y48393D01*
X50482Y48428D01*
X50214Y48393D01*
X49965Y48289D01*
X49751Y48125D01*
X49587Y47911D01*
X49483Y47662D01*
X48802D01*
X48700Y47641D01*
X48613Y47583D01*
X44041Y43012D01*
X43499D01*
X43419Y43139D01*
X43444Y43264D01*
X43409Y43440D01*
X43310Y43589D01*
X43161Y43688D01*
X42985Y43723D01*
X42810Y43688D01*
X42661Y43589D01*
X42623Y43532D01*
X39621D01*
X38850Y44304D01*
Y45000D01*
X38543D01*
Y45500D01*
X38850D01*
Y46500D01*
X38850D01*
X38864Y46621D01*
X40100D01*
X41705Y45017D01*
X41691Y44950D01*
X41726Y44774D01*
X41826Y44626D01*
X41974Y44526D01*
X42150Y44491D01*
X42326Y44526D01*
X42474Y44626D01*
X42545Y44731D01*
X42629Y44727D01*
X42682Y44716D01*
X42776Y44576D01*
X42924Y44476D01*
X43100Y44441D01*
X43276Y44476D01*
X43424Y44576D01*
X43432Y44587D01*
X43585D01*
X43626Y44526D01*
X43774Y44426D01*
X43950Y44391D01*
X44126Y44426D01*
X44274Y44526D01*
X44374Y44674D01*
X44409Y44850D01*
X44374Y45026D01*
X44274Y45174D01*
X44126Y45274D01*
X43950Y45309D01*
X43883Y45295D01*
X43620Y45559D01*
X43635Y45620D01*
X43676Y45682D01*
X44138D01*
X44176Y45626D01*
X44324Y45526D01*
X44500Y45491D01*
X44676Y45526D01*
X44824Y45626D01*
X44924Y45774D01*
X44959Y45950D01*
X44933Y46080D01*
X45010Y46207D01*
X45231D01*
X45372Y46067D01*
X45358Y46000D01*
X45393Y45824D01*
X45493Y45676D01*
X45642Y45576D01*
X45817Y45541D01*
X45993Y45576D01*
X46142Y45676D01*
X46241Y45824D01*
X46276Y46000D01*
X46241Y46176D01*
X46142Y46324D01*
X45993Y46424D01*
X45817Y46459D01*
X45750Y46445D01*
X45531Y46664D01*
X45444Y46722D01*
X45342Y46743D01*
X43845D01*
X43262Y47326D01*
X43318Y47440D01*
X43346Y47436D01*
X43574Y47466D01*
X43787Y47554D01*
X43879Y47625D01*
X44583D01*
X44649Y47575D01*
X44861Y47486D01*
X45090Y47456D01*
X45318Y47486D01*
X45531Y47575D01*
X45714Y47715D01*
X45854Y47898D01*
X45942Y48110D01*
X45972Y48339D01*
X45942Y48567D01*
X45854Y48780D01*
X45714Y48963D01*
X45531Y49103D01*
X45318Y49191D01*
X45309Y49193D01*
X45300Y49262D01*
X45212Y49475D01*
X45072Y49658D01*
X44889Y49798D01*
X44676Y49886D01*
X44448Y49916D01*
X44219Y49886D01*
X44007Y49798D01*
X43914Y49727D01*
X43403D01*
X43361Y49854D01*
X43390Y49880D01*
X43565Y49915D01*
X43714Y50014D01*
X43814Y50163D01*
X43849Y50339D01*
X43814Y50514D01*
X43733Y50635D01*
X43723Y50725D01*
X43734Y50803D01*
X43817Y50926D01*
X43852Y51102D01*
X43829Y51213D01*
X43916Y51340D01*
X46712D01*
X48307Y49745D01*
D02*
G37*
G36*
X35765Y46564D02*
X35914Y46465D01*
X36090Y46430D01*
X36265Y46465D01*
X36394Y46551D01*
X36497Y46484D01*
X36500Y46481D01*
Y46268D01*
X36324D01*
X36222Y46247D01*
X36135Y46189D01*
X35798Y45853D01*
X35731Y45866D01*
X35556Y45831D01*
X35407Y45732D01*
X35308Y45583D01*
X35273Y45407D01*
X35308Y45232D01*
X35407Y45083D01*
X35487Y45029D01*
X35488Y44877D01*
X35409Y44824D01*
X35310Y44676D01*
X35275Y44500D01*
X35310Y44324D01*
X35409Y44176D01*
X35558Y44076D01*
X35734Y44041D01*
X35909Y44076D01*
X36058Y44176D01*
X36096Y44232D01*
X36500D01*
Y44000D01*
X37573D01*
X37650Y44000D01*
X37777Y44000D01*
X38396D01*
X39258Y43139D01*
X39205Y43012D01*
X35513D01*
X35500Y43017D01*
X35272Y43047D01*
X35043Y43017D01*
X35031Y43012D01*
X33845D01*
X33742Y42991D01*
X33656Y42933D01*
X33266Y42544D01*
X33125Y42581D01*
X33130Y42600D01*
X34837Y44307D01*
X34895Y44394D01*
X34915Y44497D01*
Y46390D01*
X35042Y46459D01*
X35190Y46430D01*
X35365Y46465D01*
X35514Y46564D01*
X35563Y46638D01*
X35716D01*
X35765Y46564D01*
D02*
G37*
G36*
X20302Y46227D02*
X20379Y46138D01*
X20388Y46111D01*
X20366Y46000D01*
X20401Y45824D01*
X20501Y45676D01*
X20649Y45576D01*
X20825Y45541D01*
X20850Y45546D01*
X21693Y44704D01*
Y42916D01*
X21566Y42863D01*
X20770Y43658D01*
X20784Y43725D01*
X20749Y43901D01*
X20649Y44049D01*
X20501Y44149D01*
X20325Y44184D01*
X20149Y44149D01*
X20001Y44049D01*
X19901Y43901D01*
X19866Y43725D01*
X19901Y43549D01*
X20001Y43401D01*
X20149Y43301D01*
X20207Y43290D01*
Y43160D01*
X20149Y43149D01*
X20001Y43049D01*
X19901Y42901D01*
X19866Y42725D01*
X19901Y42549D01*
X20001Y42401D01*
X20149Y42301D01*
X20325Y42266D01*
X20392Y42280D01*
X20807Y41864D01*
Y40622D01*
X20680Y40532D01*
X20577Y40552D01*
X20402Y40517D01*
X20253Y40418D01*
X20153Y40269D01*
X20118Y40093D01*
X20132Y40027D01*
X19858Y39753D01*
X19800Y39666D01*
X19780Y39564D01*
Y39214D01*
X19653Y39124D01*
X19550Y39144D01*
X19389Y39112D01*
X19328Y39148D01*
X19272Y39194D01*
X19283Y39276D01*
X19252Y39504D01*
X19240Y39534D01*
Y44537D01*
X19758Y45055D01*
X19825Y45041D01*
X20001Y45076D01*
X20149Y45176D01*
X20249Y45324D01*
X20284Y45500D01*
X20249Y45676D01*
X20149Y45824D01*
X20001Y45924D01*
X19930Y45938D01*
X19888Y46076D01*
X20045Y46232D01*
X20293D01*
X20302Y46227D01*
D02*
G37*
G36*
X21374Y47801D02*
X24075Y45100D01*
Y44676D01*
X23948Y44566D01*
X23825Y44583D01*
X23597Y44552D01*
X23384Y44464D01*
X23201Y44324D01*
X23061Y44141D01*
X22973Y43928D01*
X22957Y43813D01*
X22345Y43201D01*
X22228Y43249D01*
Y44815D01*
X22207Y44917D01*
X22149Y45004D01*
X21262Y45891D01*
X21284Y46000D01*
X21249Y46176D01*
X21149Y46324D01*
X21001Y46424D01*
X20943Y46435D01*
Y46565D01*
X21001Y46576D01*
X21149Y46676D01*
X21249Y46824D01*
X21284Y47000D01*
X21249Y47176D01*
X21149Y47324D01*
X21001Y47424D01*
X20943Y47435D01*
Y47565D01*
X21001Y47576D01*
X21149Y47676D01*
X21217Y47777D01*
X21349Y47805D01*
X21374Y47801D01*
D02*
G37*
G36*
X55793Y45197D02*
X54591Y43995D01*
X51244D01*
X51203Y44115D01*
X51213Y44123D01*
X51377Y44337D01*
X51481Y44586D01*
X51516Y44854D01*
X51481Y45122D01*
X51470Y45147D01*
X51541Y45253D01*
X55473D01*
X55653Y45277D01*
X55721Y45305D01*
X55793Y45197D01*
D02*
G37*
G36*
X18668Y44778D02*
X18721Y44729D01*
X18705Y44648D01*
Y40220D01*
X18578Y40135D01*
X18400Y40159D01*
X18172Y40129D01*
X17959Y40040D01*
X17866Y39969D01*
X16374D01*
X16321Y40096D01*
X17270Y41045D01*
X17328Y41132D01*
X17349Y41234D01*
Y43536D01*
X18616Y44804D01*
X18668Y44778D01*
D02*
G37*
G36*
X28699Y40341D02*
X28814Y40326D01*
X31313Y37827D01*
X31456Y37717D01*
X31624Y37648D01*
X31803Y37624D01*
X40788D01*
X40808Y37524D01*
X40907Y37376D01*
X41056Y37276D01*
X41232Y37241D01*
X41407Y37276D01*
X41556Y37376D01*
X41656Y37524D01*
X41676Y37624D01*
X49405D01*
X49484Y37524D01*
X49483Y37497D01*
X49448Y37234D01*
X49483Y36966D01*
X49587Y36717D01*
X49751Y36503D01*
X49965Y36339D01*
X50214Y36235D01*
X50482Y36200D01*
X50750Y36235D01*
X50999Y36339D01*
X51213Y36503D01*
X51377Y36717D01*
X51481Y36966D01*
X51516Y37234D01*
X51481Y37497D01*
X51480Y37524D01*
X51559Y37624D01*
X54847D01*
X55027Y37648D01*
X55096Y37677D01*
X55194Y37717D01*
X55338Y37827D01*
X55635Y38124D01*
X55750Y38140D01*
X55963Y38228D01*
X56146Y38368D01*
X56240Y38491D01*
X56397Y38513D01*
X56859Y38051D01*
Y34080D01*
X56732Y34037D01*
X56604Y34204D01*
X56301Y34437D01*
X55949Y34583D01*
X55930Y34585D01*
X55913Y34715D01*
X56100Y34793D01*
X56319Y34961D01*
X56487Y35180D01*
X56593Y35436D01*
X56616Y35610D01*
X55570D01*
X54524D01*
X54547Y35436D01*
X54653Y35180D01*
X54758Y35043D01*
X54752Y35019D01*
X54677Y34912D01*
X54498Y34936D01*
X54055D01*
Y36735D01*
X52005D01*
Y34936D01*
X46574D01*
X46574Y34936D01*
X46484Y34924D01*
X46394Y34912D01*
X46227Y34843D01*
X46083Y34733D01*
X46083Y34733D01*
X42375Y31024D01*
X42211Y31041D01*
X42181Y31085D01*
X42033Y31185D01*
X41857Y31220D01*
X41681Y31185D01*
X41533Y31085D01*
X41433Y30937D01*
X41398Y30761D01*
X41433Y30585D01*
X41533Y30437D01*
X41577Y30407D01*
X41593Y30243D01*
X40656Y29306D01*
X30241D01*
X29959Y29588D01*
X29982Y29744D01*
X30062Y29798D01*
X30162Y29947D01*
X30197Y30123D01*
X30162Y30298D01*
X30126Y30352D01*
X30190Y30468D01*
X30365Y30503D01*
X30514Y30603D01*
X30614Y30752D01*
X30649Y30927D01*
X30635Y30994D01*
X33679Y34038D01*
X33679Y34038D01*
X33699Y34058D01*
X33840Y34030D01*
X34015Y34065D01*
X34164Y34164D01*
X34264Y34313D01*
X34299Y34489D01*
X34264Y34664D01*
X34164Y34813D01*
X34015Y34913D01*
X33840Y34948D01*
X33664Y34913D01*
X33515Y34813D01*
X33416Y34664D01*
X33383Y34499D01*
X33301Y34417D01*
X33301Y34417D01*
X30257Y31373D01*
X30190Y31386D01*
X30014Y31351D01*
X29865Y31252D01*
X29766Y31103D01*
X29731Y30927D01*
X29764Y30760D01*
X29763Y30746D01*
X29697Y30627D01*
X29624Y30615D01*
X29305Y30934D01*
Y33214D01*
X29432Y33252D01*
X29465Y33203D01*
X29614Y33103D01*
X29790Y33068D01*
X29965Y33103D01*
X30114Y33203D01*
X30214Y33352D01*
X30249Y33527D01*
X30214Y33703D01*
X30114Y33852D01*
X29965Y33951D01*
X29872Y33970D01*
X29830Y34108D01*
X29933Y34210D01*
X30000Y34197D01*
X30176Y34232D01*
X30324Y34331D01*
X30424Y34480D01*
X30459Y34656D01*
X30424Y34831D01*
X30324Y34980D01*
X30176Y35080D01*
X30000Y35115D01*
X29824Y35080D01*
X29676Y34980D01*
X29576Y34831D01*
X29541Y34656D01*
X29555Y34589D01*
X28848Y33883D01*
X28790Y33796D01*
X28770Y33694D01*
Y30823D01*
X28790Y30720D01*
X28727Y30612D01*
X28652Y30592D01*
X28542Y30669D01*
Y40292D01*
X28648Y40362D01*
X28699Y40341D01*
D02*
G37*
G36*
X23973Y41621D02*
X24075Y41524D01*
Y34403D01*
X24095Y34300D01*
X24153Y34213D01*
X24596Y33770D01*
X24583Y33703D01*
X24618Y33528D01*
X24717Y33379D01*
X24866Y33279D01*
X25042Y33244D01*
X25217Y33279D01*
X25288Y33327D01*
X25415Y33259D01*
Y32436D01*
X24977Y31998D01*
X24919Y31911D01*
X24899Y31809D01*
Y31213D01*
X24752Y31115D01*
X24625Y30924D01*
X24580Y30700D01*
X24625Y30476D01*
X24752Y30285D01*
X24942Y30158D01*
X25166Y30114D01*
X25391Y30158D01*
X25581Y30285D01*
X25708Y30476D01*
X25753Y30700D01*
X25708Y30924D01*
X25581Y31115D01*
X25434Y31213D01*
Y31698D01*
X25617Y31881D01*
X25720Y31849D01*
X25745Y31830D01*
X25838Y31691D01*
X25987Y31591D01*
X26163Y31556D01*
X26330Y31589D01*
X26358Y31589D01*
X26457Y31536D01*
Y29221D01*
X26330Y29136D01*
X26216Y29159D01*
X26041Y29124D01*
X25892Y29024D01*
X25854Y28968D01*
X24271D01*
X23052Y30187D01*
X23069Y30275D01*
X23095Y30323D01*
X23264Y30453D01*
X23404Y30636D01*
X23492Y30849D01*
X23522Y31077D01*
X23492Y31306D01*
X23404Y31519D01*
X23264Y31701D01*
X23208Y31744D01*
X23196Y31880D01*
X23326Y32049D01*
X23414Y32262D01*
X23444Y32490D01*
X23414Y32719D01*
X23326Y32931D01*
X23267Y33007D01*
Y40944D01*
X23948Y41624D01*
X23973Y41621D01*
D02*
G37*
G36*
X45417Y27837D02*
X45457Y27740D01*
X45019Y27302D01*
X42509D01*
X42471Y27359D01*
X42322Y27459D01*
X42147Y27493D01*
X41971Y27459D01*
X41822Y27359D01*
X41723Y27210D01*
X41688Y27035D01*
X41723Y26859D01*
X41822Y26710D01*
X41971Y26611D01*
X42147Y26576D01*
X42322Y26611D01*
X42471Y26710D01*
X42509Y26767D01*
X45130D01*
X45233Y26787D01*
X45319Y26845D01*
X45332Y26858D01*
X45332Y26858D01*
X46296Y27822D01*
X49483D01*
X49587Y27573D01*
X49751Y27359D01*
X49965Y27195D01*
X50045Y27162D01*
X50019Y27035D01*
X46597D01*
X46549Y27106D01*
X46400Y27206D01*
X46224Y27241D01*
X46049Y27206D01*
X45900Y27106D01*
X45800Y26957D01*
X45765Y26782D01*
X45800Y26606D01*
X45900Y26457D01*
X46049Y26358D01*
X46224Y26323D01*
X46400Y26358D01*
X46549Y26457D01*
X46577Y26499D01*
X49827D01*
X49870Y26372D01*
X49751Y26281D01*
X49587Y26067D01*
X49483Y25818D01*
X48947D01*
X48845Y25797D01*
X48758Y25739D01*
X48415Y25396D01*
X45170D01*
X45132Y25453D01*
X44983Y25553D01*
X44807Y25588D01*
X44632Y25553D01*
X44483Y25453D01*
X44383Y25304D01*
X44349Y25129D01*
X44383Y24953D01*
X44483Y24804D01*
X44632Y24705D01*
X44807Y24670D01*
X44983Y24705D01*
X45132Y24804D01*
X45170Y24861D01*
X48526D01*
X48628Y24881D01*
X48715Y24939D01*
X49058Y25282D01*
X49483D01*
X49587Y25033D01*
X49751Y24819D01*
X49965Y24655D01*
X50214Y24551D01*
X50482Y24516D01*
X50750Y24551D01*
X50999Y24655D01*
X51213Y24819D01*
X51377Y25033D01*
X51481Y25282D01*
X51516Y25550D01*
X51481Y25818D01*
X51377Y26067D01*
X51213Y26281D01*
X51094Y26372D01*
X51137Y26499D01*
X52375D01*
X52418Y26372D01*
X52299Y26281D01*
X52135Y26067D01*
X52031Y25818D01*
X51996Y25550D01*
X52031Y25282D01*
X52135Y25033D01*
X52299Y24819D01*
X52513Y24655D01*
X52762Y24551D01*
X53030Y24516D01*
X53298Y24551D01*
X53547Y24655D01*
X53761Y24819D01*
X53925Y25033D01*
X54029Y25282D01*
X54064Y25550D01*
X54029Y25818D01*
X53925Y26067D01*
X53761Y26281D01*
X53642Y26372D01*
X53685Y26499D01*
X54242D01*
X54675Y26067D01*
X54571Y25818D01*
X54536Y25550D01*
X54571Y25282D01*
X54675Y25033D01*
X54839Y24819D01*
X55053Y24655D01*
X55070Y24648D01*
X55045Y24521D01*
X54273D01*
X54171Y24500D01*
X54084Y24442D01*
X53547Y23905D01*
X53298Y24009D01*
X53030Y24044D01*
X52762Y24009D01*
X52513Y23905D01*
X52299Y23741D01*
X52135Y23527D01*
X52031Y23278D01*
X51996Y23010D01*
X52031Y22742D01*
X52135Y22493D01*
X51847Y22205D01*
X51316D01*
X51254Y22332D01*
X51377Y22493D01*
X51481Y22742D01*
X51516Y23010D01*
X51481Y23278D01*
X51377Y23527D01*
X51213Y23741D01*
X50999Y23905D01*
X50750Y24009D01*
X50482Y24044D01*
X50214Y24009D01*
X49965Y23905D01*
X49751Y23741D01*
X49587Y23527D01*
X49483Y23278D01*
X42250D01*
X38648Y26880D01*
X38670Y26995D01*
X38680Y27007D01*
X39045D01*
X39224Y27030D01*
X39294Y27059D01*
X39392Y27099D01*
X39535Y27210D01*
X39624Y27299D01*
X41200D01*
X41380Y27322D01*
X41547Y27392D01*
X41690Y27502D01*
X41921Y27732D01*
X41964Y27703D01*
X42140Y27668D01*
X42315Y27703D01*
X42464Y27803D01*
X42502Y27860D01*
X45397D01*
X45417Y27837D01*
D02*
G37*
G36*
X37727Y26964D02*
X37762Y26788D01*
X37861Y26639D01*
X38010Y26540D01*
X38186Y26505D01*
X38253Y26518D01*
X41950Y22821D01*
X42037Y22763D01*
X42139Y22742D01*
X49483D01*
X49587Y22493D01*
X49710Y22332D01*
X49648Y22205D01*
X42637D01*
X42591Y22274D01*
X42442Y22374D01*
X42266Y22409D01*
X42091Y22374D01*
X41942Y22274D01*
X41896Y22205D01*
X40429D01*
X37865Y24768D01*
X37779Y24826D01*
X37676Y24847D01*
X37513D01*
X37476Y24904D01*
X37327Y25003D01*
X37151Y25038D01*
X36975Y25003D01*
X36827Y24904D01*
X36727Y24755D01*
X36692Y24579D01*
X36727Y24404D01*
X36801Y24293D01*
X36749Y24166D01*
X35561D01*
X35523Y24222D01*
X35374Y24322D01*
X35198Y24357D01*
X35023Y24322D01*
X34874Y24222D01*
X34774Y24074D01*
X34739Y23898D01*
X34774Y23722D01*
X34874Y23574D01*
X35023Y23474D01*
X35198Y23439D01*
X35374Y23474D01*
X35523Y23574D01*
X35561Y23630D01*
X37599D01*
X40503Y20725D01*
X40493Y20663D01*
X40457Y20598D01*
X33176D01*
X32845Y20930D01*
Y21261D01*
X32824Y21364D01*
X32766Y21450D01*
X30626Y23591D01*
X30639Y23658D01*
X30604Y23833D01*
X30505Y23982D01*
X30356Y24082D01*
X30180Y24117D01*
X30005Y24082D01*
X29856Y23982D01*
X29756Y23833D01*
X29744Y23772D01*
X29606Y23730D01*
X29084Y24252D01*
Y26488D01*
X29141Y26526D01*
X29240Y26674D01*
X29275Y26850D01*
X29262Y26916D01*
X29352Y27007D01*
X37692D01*
X37727Y26964D01*
D02*
G37*
%LPC*%
G36*
X52811Y98459D02*
X52635Y98424D01*
X52486Y98324D01*
X52387Y98176D01*
X52352Y98000D01*
X52387Y97824D01*
X52486Y97676D01*
X52635Y97576D01*
X52811Y97541D01*
X52986Y97576D01*
X53135Y97676D01*
X53235Y97824D01*
X53270Y98000D01*
X53235Y98176D01*
X53135Y98324D01*
X52986Y98424D01*
X52811Y98459D01*
D02*
G37*
G36*
X50573D02*
X50397Y98424D01*
X50249Y98324D01*
X50149Y98176D01*
X50114Y98000D01*
X50149Y97824D01*
X50249Y97676D01*
X50397Y97576D01*
X50573Y97541D01*
X50749Y97576D01*
X50897Y97676D01*
X50997Y97824D01*
X51032Y98000D01*
X50997Y98176D01*
X50897Y98324D01*
X50749Y98424D01*
X50573Y98459D01*
D02*
G37*
G36*
X56025Y92750D02*
X55750D01*
Y92225D01*
X56025D01*
Y92750D01*
D02*
G37*
G36*
X55470Y87556D02*
X55296Y87533D01*
X55040Y87427D01*
X54821Y87259D01*
X54653Y87040D01*
X54547Y86784D01*
X54524Y86610D01*
X55470D01*
Y87556D01*
D02*
G37*
G36*
Y86410D02*
X54524D01*
X54547Y86236D01*
X54653Y85980D01*
X54821Y85761D01*
X55040Y85593D01*
X55296Y85487D01*
X55470Y85464D01*
Y86410D01*
D02*
G37*
G36*
X56616D02*
X55670D01*
Y85464D01*
X55844Y85487D01*
X56100Y85593D01*
X56319Y85761D01*
X56487Y85980D01*
X56593Y86236D01*
X56616Y86410D01*
D02*
G37*
G36*
X51575Y85225D02*
X51150D01*
Y84725D01*
X51575D01*
Y85225D01*
D02*
G37*
G36*
X52370Y79413D02*
X52281Y79401D01*
X52104Y79328D01*
X51953Y79212D01*
X51837Y79061D01*
X51764Y78884D01*
X51752Y78795D01*
X52370D01*
Y79413D01*
D02*
G37*
G36*
X56380Y79413D02*
Y78695D01*
X56180D01*
Y79413D01*
X56091Y79401D01*
X55914Y79328D01*
X55763Y79212D01*
X55725Y79163D01*
X55565D01*
X55527Y79212D01*
X55376Y79328D01*
X55199Y79401D01*
X55110Y79413D01*
Y78695D01*
X54910D01*
Y79413D01*
X54821Y79401D01*
X54644Y79328D01*
X54493Y79212D01*
X54439Y79142D01*
X54279D01*
X54239Y79194D01*
X54093Y79306D01*
X53923Y79377D01*
X53740Y79401D01*
X53557Y79377D01*
X53387Y79306D01*
X53241Y79194D01*
X53201Y79142D01*
X53041D01*
X52987Y79212D01*
X52836Y79328D01*
X52659Y79401D01*
X52570Y79413D01*
Y78695D01*
X52470D01*
Y78595D01*
X51752D01*
X51764Y78506D01*
X51837Y78329D01*
X51953Y78178D01*
X52023Y78124D01*
Y77964D01*
X51971Y77924D01*
X51859Y77778D01*
X51788Y77608D01*
X51764Y77425D01*
X51788Y77242D01*
X51859Y77072D01*
X51971Y76926D01*
X52117Y76814D01*
X52287Y76743D01*
X52470Y76719D01*
X52653Y76743D01*
X52823Y76814D01*
X52969Y76926D01*
X53026Y77000D01*
X53184D01*
X53241Y76926D01*
X53387Y76814D01*
X53557Y76743D01*
X53740Y76719D01*
X53923Y76743D01*
X54093Y76814D01*
X54239Y76926D01*
X54296Y77000D01*
X54454D01*
X54511Y76926D01*
X54657Y76814D01*
X54827Y76743D01*
X55010Y76719D01*
X55193Y76743D01*
X55363Y76814D01*
X55509Y76926D01*
X55566Y77000D01*
X55724D01*
X55781Y76926D01*
X55927Y76814D01*
X56097Y76743D01*
X56280Y76719D01*
X56463Y76743D01*
X56633Y76814D01*
X56779Y76926D01*
X56836Y77000D01*
X56994D01*
X57051Y76926D01*
X57197Y76814D01*
X57367Y76743D01*
X57550Y76719D01*
X57733Y76743D01*
X57903Y76814D01*
X58049Y76926D01*
X58161Y77072D01*
X58232Y77242D01*
X58256Y77425D01*
X58232Y77608D01*
X58161Y77778D01*
X58049Y77924D01*
X57975Y77981D01*
Y78139D01*
X58049Y78196D01*
X58161Y78342D01*
X58232Y78512D01*
X58256Y78695D01*
X58232Y78878D01*
X58161Y79048D01*
X58049Y79194D01*
X57903Y79306D01*
X57733Y79377D01*
X57550Y79401D01*
X57367Y79377D01*
X57197Y79306D01*
X57051Y79194D01*
X57011Y79142D01*
X56851D01*
X56797Y79212D01*
X56646Y79328D01*
X56469Y79401D01*
X56380Y79413D01*
D02*
G37*
G36*
X43585Y77270D02*
X43235D01*
Y76845D01*
X43585D01*
Y77270D01*
D02*
G37*
G36*
X43035D02*
X42685D01*
Y76845D01*
X43035D01*
Y77270D01*
D02*
G37*
G36*
X47725Y78525D02*
X46075D01*
Y76575D01*
X47725D01*
Y78525D01*
D02*
G37*
G36*
X55670Y72316D02*
Y71370D01*
X56616D01*
X56593Y71544D01*
X56487Y71800D01*
X56319Y72019D01*
X56100Y72187D01*
X55844Y72293D01*
X55670Y72316D01*
D02*
G37*
G36*
X55470D02*
X55296Y72293D01*
X55040Y72187D01*
X54821Y72019D01*
X54653Y71800D01*
X54547Y71544D01*
X54524Y71370D01*
X55470D01*
Y72316D01*
D02*
G37*
G36*
X16865Y30632D02*
X15515D01*
Y29282D01*
X16865D01*
Y30632D01*
D02*
G37*
G36*
Y28172D02*
X15515D01*
Y26822D01*
X16865D01*
Y28172D01*
D02*
G37*
G36*
X55570Y21504D02*
X55302Y21469D01*
X55053Y21365D01*
X54839Y21201D01*
X54675Y20987D01*
X54571Y20738D01*
X54536Y20470D01*
X54571Y20202D01*
X54675Y19953D01*
X54839Y19739D01*
X55053Y19575D01*
X55302Y19471D01*
X55570Y19436D01*
X55838Y19471D01*
X56087Y19575D01*
X56301Y19739D01*
X56465Y19953D01*
X56569Y20202D01*
X56604Y20470D01*
X56569Y20738D01*
X56465Y20987D01*
X56301Y21201D01*
X56087Y21365D01*
X55838Y21469D01*
X55570Y21504D01*
D02*
G37*
G36*
Y13884D02*
X55302Y13849D01*
X55053Y13745D01*
X54839Y13581D01*
X54675Y13367D01*
X54571Y13118D01*
X54536Y12850D01*
X54571Y12582D01*
X54675Y12333D01*
X54839Y12119D01*
X55053Y11955D01*
X55302Y11851D01*
X55570Y11816D01*
X55838Y11851D01*
X56087Y11955D01*
X56301Y12119D01*
X56465Y12333D01*
X56569Y12582D01*
X56604Y12850D01*
X56569Y13118D01*
X56465Y13367D01*
X56301Y13581D01*
X56087Y13745D01*
X55838Y13849D01*
X55570Y13884D01*
D02*
G37*
G36*
X52930Y12750D02*
X51984D01*
X52007Y12576D01*
X52113Y12320D01*
X52281Y12101D01*
X52500Y11933D01*
X52756Y11827D01*
X52930Y11804D01*
Y12750D01*
D02*
G37*
G36*
X54076D02*
X53130D01*
Y11804D01*
X53304Y11827D01*
X53560Y11933D01*
X53779Y12101D01*
X53947Y12320D01*
X54053Y12576D01*
X54076Y12750D01*
D02*
G37*
G36*
X26077Y12610D02*
X25131D01*
Y11664D01*
X25305Y11687D01*
X25561Y11793D01*
X25780Y11961D01*
X25948Y12181D01*
X26054Y12436D01*
X26077Y12610D01*
D02*
G37*
G36*
X24931D02*
X23985D01*
X24008Y12436D01*
X24114Y12181D01*
X24282Y11961D01*
X24502Y11793D01*
X24757Y11687D01*
X24931Y11664D01*
Y12610D01*
D02*
G37*
G36*
X29096Y10643D02*
X28920Y10608D01*
X28771Y10508D01*
X28733Y10451D01*
X26864D01*
X26761Y10431D01*
X26675Y10373D01*
X24167Y7865D01*
X23918Y7969D01*
X23650Y8004D01*
X23382Y7969D01*
X23133Y7865D01*
X22919Y7701D01*
X22755Y7487D01*
X22651Y7238D01*
X22616Y6970D01*
X22651Y6702D01*
X22755Y6453D01*
X22919Y6239D01*
X23133Y6075D01*
X23382Y5971D01*
X23650Y5936D01*
X23918Y5971D01*
X24167Y6075D01*
X24381Y6239D01*
X24545Y6453D01*
X24649Y6702D01*
X24684Y6970D01*
X24649Y7238D01*
X24545Y7487D01*
X26975Y9916D01*
X28733D01*
X28771Y9859D01*
X28920Y9760D01*
X29096Y9725D01*
X29271Y9760D01*
X29420Y9859D01*
X29520Y10008D01*
X29554Y10184D01*
X29520Y10359D01*
X29420Y10508D01*
X29271Y10608D01*
X29096Y10643D01*
D02*
G37*
G36*
X33974Y11889D02*
X33798Y11854D01*
X33649Y11754D01*
X33550Y11606D01*
X33515Y11430D01*
X33550Y11254D01*
X33649Y11106D01*
X33798Y11006D01*
X33974Y10971D01*
X34041Y10985D01*
X36082Y8943D01*
Y7969D01*
X35833Y7865D01*
X35619Y7701D01*
X35455Y7487D01*
X35450Y7476D01*
X35323Y7501D01*
Y9155D01*
X35303Y9257D01*
X35245Y9344D01*
X34269Y10320D01*
X34275Y10350D01*
X34240Y10526D01*
X34141Y10674D01*
X33992Y10774D01*
X33816Y10809D01*
X33641Y10774D01*
X33492Y10674D01*
X33392Y10526D01*
X33357Y10350D01*
X33392Y10174D01*
X33492Y10026D01*
X33641Y9926D01*
X33816Y9891D01*
X33920Y9912D01*
X34788Y9044D01*
Y7588D01*
X34661Y7545D01*
X34541Y7701D01*
X34327Y7865D01*
X34078Y7969D01*
X33810Y8004D01*
X33542Y7969D01*
X33293Y7865D01*
X33079Y7701D01*
X32915Y7487D01*
X32811Y7238D01*
X32776Y6970D01*
X32811Y6702D01*
X32915Y6453D01*
X33079Y6239D01*
X33293Y6075D01*
X33542Y5971D01*
X33810Y5936D01*
X34078Y5971D01*
X34327Y6075D01*
X34541Y6239D01*
X34661Y6395D01*
X34788Y6352D01*
Y5725D01*
X34808Y5622D01*
X34866Y5535D01*
X35455Y4947D01*
X35351Y4698D01*
X35316Y4430D01*
X35351Y4162D01*
X35455Y3913D01*
X35619Y3699D01*
X35833Y3535D01*
X36082Y3431D01*
X36350Y3396D01*
X36618Y3431D01*
X36867Y3535D01*
X37081Y3699D01*
X37245Y3913D01*
X37349Y4162D01*
X37384Y4430D01*
X37349Y4698D01*
X37245Y4947D01*
X37081Y5161D01*
X36867Y5325D01*
X36618Y5429D01*
X36350Y5464D01*
X36082Y5429D01*
X35833Y5325D01*
X35323Y5836D01*
Y6439D01*
X35450Y6464D01*
X35455Y6453D01*
X35619Y6239D01*
X35833Y6075D01*
X36082Y5971D01*
X36350Y5936D01*
X36618Y5971D01*
X36867Y6075D01*
X37081Y6239D01*
X37245Y6453D01*
X37349Y6702D01*
X37384Y6970D01*
X37349Y7238D01*
X37245Y7487D01*
X37081Y7701D01*
X36867Y7865D01*
X36618Y7969D01*
Y9054D01*
X36597Y9156D01*
X36539Y9243D01*
X34419Y11363D01*
X34432Y11430D01*
X34398Y11606D01*
X34298Y11754D01*
X34149Y11854D01*
X33974Y11889D01*
D02*
G37*
G36*
X18670Y8016D02*
Y7070D01*
X19616D01*
X19593Y7244D01*
X19487Y7500D01*
X19319Y7719D01*
X19100Y7887D01*
X18844Y7993D01*
X18670Y8016D01*
D02*
G37*
G36*
X18470D02*
X18296Y7993D01*
X18040Y7887D01*
X17821Y7719D01*
X17653Y7500D01*
X17547Y7244D01*
X17524Y7070D01*
X18470D01*
Y8016D01*
D02*
G37*
G36*
X31270Y8004D02*
X31002Y7969D01*
X30753Y7865D01*
X30539Y7701D01*
X30375Y7487D01*
X30271Y7238D01*
X30236Y6970D01*
X30271Y6702D01*
X30375Y6453D01*
X30539Y6239D01*
X30753Y6075D01*
X31002Y5971D01*
X31270Y5936D01*
X31538Y5971D01*
X31787Y6075D01*
X32001Y6239D01*
X32165Y6453D01*
X32269Y6702D01*
X32304Y6970D01*
X32269Y7238D01*
X32165Y7487D01*
X32001Y7701D01*
X31787Y7865D01*
X31538Y7969D01*
X31270Y8004D01*
D02*
G37*
G36*
X28730D02*
X28462Y7969D01*
X28213Y7865D01*
X27999Y7701D01*
X27835Y7487D01*
X27731Y7238D01*
X27696Y6970D01*
X27731Y6702D01*
X27835Y6453D01*
X27999Y6239D01*
X28213Y6075D01*
X28462Y5971D01*
X28730Y5936D01*
X28998Y5971D01*
X29247Y6075D01*
X29461Y6239D01*
X29625Y6453D01*
X29729Y6702D01*
X29764Y6970D01*
X29729Y7238D01*
X29625Y7487D01*
X29461Y7701D01*
X29247Y7865D01*
X28998Y7969D01*
X28730Y8004D01*
D02*
G37*
G36*
X26190D02*
X25922Y7969D01*
X25673Y7865D01*
X25459Y7701D01*
X25295Y7487D01*
X25191Y7238D01*
X25156Y6970D01*
X25191Y6702D01*
X25295Y6453D01*
X25459Y6239D01*
X25673Y6075D01*
X25922Y5971D01*
X26190Y5936D01*
X26458Y5971D01*
X26707Y6075D01*
X26921Y6239D01*
X27085Y6453D01*
X27189Y6702D01*
X27224Y6970D01*
X27189Y7238D01*
X27085Y7487D01*
X26921Y7701D01*
X26707Y7865D01*
X26458Y7969D01*
X26190Y8004D01*
D02*
G37*
G36*
X21110D02*
X20842Y7969D01*
X20593Y7865D01*
X20379Y7701D01*
X20215Y7487D01*
X20111Y7238D01*
X20076Y6970D01*
X20111Y6702D01*
X20215Y6453D01*
X20379Y6239D01*
X20593Y6075D01*
X20842Y5971D01*
X21110Y5936D01*
X21378Y5971D01*
X21627Y6075D01*
X21841Y6239D01*
X22005Y6453D01*
X22109Y6702D01*
X22144Y6970D01*
X22109Y7238D01*
X22005Y7487D01*
X21841Y7701D01*
X21627Y7865D01*
X21378Y7969D01*
X21110Y8004D01*
D02*
G37*
G36*
X19616Y6870D02*
X18670D01*
Y5924D01*
X18844Y5947D01*
X19100Y6053D01*
X19319Y6221D01*
X19487Y6440D01*
X19593Y6696D01*
X19616Y6870D01*
D02*
G37*
G36*
X18470D02*
X17524D01*
X17547Y6696D01*
X17653Y6440D01*
X17821Y6221D01*
X18040Y6053D01*
X18296Y5947D01*
X18470Y5924D01*
Y6870D01*
D02*
G37*
G36*
X41530Y5476D02*
Y4530D01*
X42476D01*
X42453Y4704D01*
X42347Y4960D01*
X42179Y5179D01*
X41960Y5347D01*
X41704Y5453D01*
X41530Y5476D01*
D02*
G37*
G36*
X41330D02*
X41156Y5453D01*
X40900Y5347D01*
X40681Y5179D01*
X40513Y4960D01*
X40407Y4704D01*
X40384Y4530D01*
X41330D01*
Y5476D01*
D02*
G37*
G36*
X33810Y5464D02*
X33542Y5429D01*
X33293Y5325D01*
X33079Y5161D01*
X32915Y4947D01*
X32811Y4698D01*
X32776Y4430D01*
X32811Y4162D01*
X32915Y3913D01*
X33079Y3699D01*
X33293Y3535D01*
X33542Y3431D01*
X33810Y3396D01*
X34078Y3431D01*
X34327Y3535D01*
X34541Y3699D01*
X34705Y3913D01*
X34809Y4162D01*
X34844Y4430D01*
X34809Y4698D01*
X34705Y4947D01*
X34541Y5161D01*
X34327Y5325D01*
X34078Y5429D01*
X33810Y5464D01*
D02*
G37*
G36*
X31270D02*
X31002Y5429D01*
X30753Y5325D01*
X30539Y5161D01*
X30375Y4947D01*
X30271Y4698D01*
X30236Y4430D01*
X30271Y4162D01*
X30375Y3913D01*
X30539Y3699D01*
X30753Y3535D01*
X31002Y3431D01*
X31270Y3396D01*
X31538Y3431D01*
X31787Y3535D01*
X32001Y3699D01*
X32165Y3913D01*
X32269Y4162D01*
X32304Y4430D01*
X32269Y4698D01*
X32165Y4947D01*
X32001Y5161D01*
X31787Y5325D01*
X31538Y5429D01*
X31270Y5464D01*
D02*
G37*
G36*
X28730D02*
X28462Y5429D01*
X28213Y5325D01*
X27999Y5161D01*
X27835Y4947D01*
X27731Y4698D01*
X27696Y4430D01*
X27731Y4162D01*
X27835Y3913D01*
X27999Y3699D01*
X28213Y3535D01*
X28462Y3431D01*
X28730Y3396D01*
X28998Y3431D01*
X29247Y3535D01*
X29461Y3699D01*
X29625Y3913D01*
X29729Y4162D01*
X29764Y4430D01*
X29729Y4698D01*
X29625Y4947D01*
X29461Y5161D01*
X29247Y5325D01*
X28998Y5429D01*
X28730Y5464D01*
D02*
G37*
G36*
X26190D02*
X25922Y5429D01*
X25673Y5325D01*
X25459Y5161D01*
X25295Y4947D01*
X25191Y4698D01*
X25156Y4430D01*
X25191Y4162D01*
X25295Y3913D01*
X25459Y3699D01*
X25673Y3535D01*
X25922Y3431D01*
X26190Y3396D01*
X26458Y3431D01*
X26707Y3535D01*
X26921Y3699D01*
X27085Y3913D01*
X27189Y4162D01*
X27224Y4430D01*
X27189Y4698D01*
X27085Y4947D01*
X26921Y5161D01*
X26707Y5325D01*
X26458Y5429D01*
X26190Y5464D01*
D02*
G37*
G36*
X23650D02*
X23382Y5429D01*
X23133Y5325D01*
X22919Y5161D01*
X22755Y4947D01*
X22651Y4698D01*
X22616Y4430D01*
X22651Y4162D01*
X22755Y3913D01*
X22919Y3699D01*
X23133Y3535D01*
X23382Y3431D01*
X23650Y3396D01*
X23918Y3431D01*
X24167Y3535D01*
X24381Y3699D01*
X24545Y3913D01*
X24649Y4162D01*
X24684Y4430D01*
X24649Y4698D01*
X24545Y4947D01*
X24381Y5161D01*
X24167Y5325D01*
X23918Y5429D01*
X23650Y5464D01*
D02*
G37*
G36*
X21110D02*
X20842Y5429D01*
X20593Y5325D01*
X20379Y5161D01*
X20215Y4947D01*
X20111Y4698D01*
X20076Y4430D01*
X20111Y4162D01*
X20215Y3913D01*
X20379Y3699D01*
X20593Y3535D01*
X20842Y3431D01*
X21110Y3396D01*
X21378Y3431D01*
X21627Y3535D01*
X21841Y3699D01*
X22005Y3913D01*
X22109Y4162D01*
X22144Y4430D01*
X22109Y4698D01*
X22005Y4947D01*
X21841Y5161D01*
X21627Y5325D01*
X21378Y5429D01*
X21110Y5464D01*
D02*
G37*
G36*
X18570D02*
X18302Y5429D01*
X18053Y5325D01*
X17839Y5161D01*
X17675Y4947D01*
X17571Y4698D01*
X17536Y4430D01*
X17571Y4162D01*
X17675Y3913D01*
X17839Y3699D01*
X18053Y3535D01*
X18302Y3431D01*
X18570Y3396D01*
X18838Y3431D01*
X19087Y3535D01*
X19301Y3699D01*
X19465Y3913D01*
X19569Y4162D01*
X19604Y4430D01*
X19569Y4698D01*
X19465Y4947D01*
X19301Y5161D01*
X19087Y5325D01*
X18838Y5429D01*
X18570Y5464D01*
D02*
G37*
G36*
X42476Y4330D02*
X41530D01*
Y3384D01*
X41704Y3407D01*
X41960Y3513D01*
X42179Y3681D01*
X42347Y3900D01*
X42453Y4156D01*
X42476Y4330D01*
D02*
G37*
G36*
X41330D02*
X40384D01*
X40407Y4156D01*
X40513Y3900D01*
X40681Y3681D01*
X40900Y3513D01*
X41156Y3407D01*
X41330Y3384D01*
Y4330D01*
D02*
G37*
G36*
X19229Y98400D02*
X18500D01*
Y97671D01*
X18618Y97686D01*
X18821Y97771D01*
X18996Y97904D01*
X19129Y98079D01*
X19214Y98282D01*
X19229Y98400D01*
D02*
G37*
G36*
X4000Y83634D02*
X3732Y83599D01*
X3483Y83495D01*
X3269Y83331D01*
X3105Y83117D01*
X3001Y82868D01*
X2966Y82600D01*
X3001Y82332D01*
X3105Y82083D01*
X3269Y81869D01*
X3483Y81705D01*
X3732Y81601D01*
X4000Y81566D01*
X4268Y81601D01*
X4517Y81705D01*
X4731Y81869D01*
X4895Y82083D01*
X4999Y82332D01*
X5034Y82600D01*
X4999Y82868D01*
X4895Y83117D01*
X4731Y83331D01*
X4517Y83495D01*
X4268Y83599D01*
X4000Y83634D01*
D02*
G37*
G36*
X7625Y81861D02*
X7401Y81817D01*
X7210Y81690D01*
X7083Y81499D01*
X7039Y81275D01*
X7083Y81051D01*
X7210Y80860D01*
X7401Y80733D01*
X7625Y80689D01*
X7849Y80733D01*
X8040Y80860D01*
X8167Y81051D01*
X8211Y81275D01*
X8167Y81499D01*
X8040Y81690D01*
X7849Y81817D01*
X7625Y81861D01*
D02*
G37*
G36*
X5025Y81085D02*
X2975D01*
Y79035D01*
X5025D01*
Y81085D01*
D02*
G37*
G36*
X4000Y94164D02*
X3732Y94129D01*
X3483Y94025D01*
X3269Y93861D01*
X3105Y93647D01*
X3001Y93398D01*
X2966Y93130D01*
X3001Y92862D01*
X3105Y92613D01*
X3269Y92399D01*
X3483Y92235D01*
X3732Y92131D01*
X4000Y92096D01*
X4268Y92131D01*
X4517Y92235D01*
X4731Y92399D01*
X4895Y92613D01*
X4999Y92862D01*
X5034Y93130D01*
X4999Y93398D01*
X4895Y93647D01*
X4731Y93861D01*
X4517Y94025D01*
X4268Y94129D01*
X4000Y94164D01*
D02*
G37*
G36*
X5025Y91615D02*
X2975D01*
Y89565D01*
X5025D01*
Y91615D01*
D02*
G37*
G36*
X2222Y70544D02*
X1954Y70509D01*
X1705Y70405D01*
X1491Y70241D01*
X1327Y70027D01*
X1223Y69778D01*
X1188Y69510D01*
X1223Y69242D01*
X1327Y68993D01*
X1491Y68779D01*
X1705Y68615D01*
X1954Y68511D01*
X2222Y68476D01*
X2490Y68511D01*
X2739Y68615D01*
X2953Y68779D01*
X3117Y68993D01*
X3221Y69242D01*
X3256Y69510D01*
X3221Y69778D01*
X3117Y70027D01*
X2953Y70241D01*
X2739Y70405D01*
X2490Y70509D01*
X2222Y70544D01*
D02*
G37*
G36*
X2322Y68016D02*
Y67070D01*
X3268D01*
X3245Y67244D01*
X3139Y67500D01*
X2971Y67719D01*
X2752Y67887D01*
X2496Y67993D01*
X2322Y68016D01*
D02*
G37*
G36*
X2122D02*
X1948Y67993D01*
X1692Y67887D01*
X1473Y67719D01*
X1305Y67500D01*
X1199Y67244D01*
X1176Y67070D01*
X2122D01*
Y68016D01*
D02*
G37*
G36*
X3268Y66870D02*
X2322D01*
Y65924D01*
X2496Y65947D01*
X2752Y66053D01*
X2971Y66221D01*
X3139Y66440D01*
X3245Y66696D01*
X3268Y66870D01*
D02*
G37*
G36*
X2122D02*
X1176D01*
X1199Y66696D01*
X1305Y66440D01*
X1473Y66221D01*
X1692Y66053D01*
X1948Y65947D01*
X2122Y65924D01*
Y66870D01*
D02*
G37*
G36*
X3247Y65455D02*
X1197D01*
Y63405D01*
X3247D01*
Y65455D01*
D02*
G37*
G36*
X2222Y51984D02*
X1954Y51949D01*
X1705Y51845D01*
X1491Y51681D01*
X1327Y51467D01*
X1223Y51218D01*
X1188Y50950D01*
X1223Y50682D01*
X1327Y50433D01*
X1491Y50219D01*
X1705Y50055D01*
X1954Y49951D01*
X2222Y49916D01*
X2490Y49951D01*
X2739Y50055D01*
X2953Y50219D01*
X3117Y50433D01*
X3221Y50682D01*
X3256Y50950D01*
X3221Y51218D01*
X3117Y51467D01*
X2953Y51681D01*
X2739Y51845D01*
X2490Y51949D01*
X2222Y51984D01*
D02*
G37*
G36*
Y49444D02*
X1954Y49409D01*
X1705Y49305D01*
X1491Y49141D01*
X1327Y48927D01*
X1223Y48678D01*
X1188Y48410D01*
X1223Y48142D01*
X1327Y47893D01*
X1491Y47679D01*
X1705Y47515D01*
X1954Y47411D01*
X2222Y47376D01*
X2490Y47411D01*
X2739Y47515D01*
X2953Y47679D01*
X3117Y47893D01*
X3221Y48142D01*
X3256Y48410D01*
X3221Y48678D01*
X3117Y48927D01*
X2953Y49141D01*
X2739Y49305D01*
X2490Y49409D01*
X2222Y49444D01*
D02*
G37*
G36*
Y46904D02*
X1954Y46869D01*
X1705Y46765D01*
X1491Y46601D01*
X1327Y46387D01*
X1223Y46138D01*
X1188Y45870D01*
X1223Y45602D01*
X1327Y45353D01*
X1491Y45139D01*
X1705Y44975D01*
X1954Y44871D01*
X2222Y44836D01*
X2490Y44871D01*
X2739Y44975D01*
X2953Y45139D01*
X3117Y45353D01*
X3221Y45602D01*
X3256Y45870D01*
X3221Y46138D01*
X3117Y46387D01*
X2953Y46601D01*
X2739Y46765D01*
X2490Y46869D01*
X2222Y46904D01*
D02*
G37*
G36*
X13815Y43911D02*
Y42965D01*
X14761D01*
X14738Y43139D01*
X14632Y43395D01*
X14464Y43614D01*
X14245Y43782D01*
X13989Y43888D01*
X13815Y43911D01*
D02*
G37*
G36*
X13615D02*
X13441Y43888D01*
X13185Y43782D01*
X12966Y43614D01*
X12798Y43395D01*
X12692Y43139D01*
X12669Y42965D01*
X13615D01*
Y43911D01*
D02*
G37*
G36*
X12351Y45847D02*
X12176Y45812D01*
X12027Y45713D01*
X11927Y45564D01*
X11893Y45388D01*
X11927Y45213D01*
X12027Y45064D01*
X12176Y44964D01*
X12351Y44929D01*
X12527Y44964D01*
X12665Y45057D01*
X13567D01*
X15486Y43138D01*
X15519Y42974D01*
X15618Y42826D01*
X15767Y42726D01*
X15943Y42691D01*
X16118Y42726D01*
X16267Y42826D01*
X16367Y42974D01*
X16401Y43150D01*
X16367Y43326D01*
X16267Y43474D01*
X16118Y43574D01*
X15955Y43606D01*
X15720Y43841D01*
X15762Y43979D01*
X15912Y44008D01*
X16102Y44135D01*
X16229Y44326D01*
X16274Y44550D01*
X16229Y44774D01*
X16102Y44965D01*
X15912Y45092D01*
X15688Y45136D01*
X15463Y45092D01*
X15273Y44965D01*
X15146Y44774D01*
X15116Y44625D01*
X14978Y44583D01*
X13939Y45622D01*
X13831Y45694D01*
X13704Y45720D01*
X12665D01*
X12527Y45812D01*
X12351Y45847D01*
D02*
G37*
G36*
X11175Y43899D02*
X10907Y43864D01*
X10658Y43760D01*
X10444Y43596D01*
X10280Y43382D01*
X10176Y43133D01*
X10141Y42865D01*
X10176Y42597D01*
X10280Y42348D01*
X10444Y42134D01*
X10658Y41970D01*
X10907Y41866D01*
X11175Y41831D01*
X11443Y41866D01*
X11692Y41970D01*
X11906Y42134D01*
X12070Y42348D01*
X12174Y42597D01*
X12209Y42865D01*
X12174Y43133D01*
X12070Y43382D01*
X11906Y43596D01*
X11692Y43760D01*
X11443Y43864D01*
X11175Y43899D01*
D02*
G37*
G36*
X8635D02*
X8367Y43864D01*
X8118Y43760D01*
X7904Y43596D01*
X7740Y43382D01*
X7636Y43133D01*
X7601Y42865D01*
X7636Y42597D01*
X7740Y42348D01*
X7904Y42134D01*
X8118Y41970D01*
X8367Y41866D01*
X8635Y41831D01*
X8903Y41866D01*
X9152Y41970D01*
X9366Y42134D01*
X9530Y42348D01*
X9634Y42597D01*
X9669Y42865D01*
X9634Y43133D01*
X9530Y43382D01*
X9366Y43596D01*
X9152Y43760D01*
X8903Y43864D01*
X8635Y43899D01*
D02*
G37*
G36*
X14761Y42765D02*
X13815D01*
Y41819D01*
X13989Y41842D01*
X14245Y41948D01*
X14464Y42116D01*
X14632Y42335D01*
X14738Y42591D01*
X14761Y42765D01*
D02*
G37*
G36*
X13615D02*
X12669D01*
X12692Y42591D01*
X12798Y42335D01*
X12966Y42116D01*
X13185Y41948D01*
X13441Y41842D01*
X13615Y41819D01*
Y42765D01*
D02*
G37*
G36*
X13815Y41371D02*
Y40425D01*
X14761D01*
X14738Y40599D01*
X14632Y40855D01*
X14464Y41074D01*
X14245Y41242D01*
X13989Y41348D01*
X13815Y41371D01*
D02*
G37*
G36*
X13615D02*
X13441Y41348D01*
X13185Y41242D01*
X12966Y41074D01*
X12798Y40855D01*
X12692Y40599D01*
X12669Y40425D01*
X13615D01*
Y41371D01*
D02*
G37*
G36*
X9660Y41350D02*
X7610D01*
Y39300D01*
X9660D01*
Y41350D01*
D02*
G37*
G36*
X11175Y41359D02*
X10907Y41324D01*
X10658Y41220D01*
X10444Y41056D01*
X10280Y40842D01*
X10176Y40593D01*
X10141Y40325D01*
X10176Y40057D01*
X10280Y39808D01*
X10444Y39594D01*
X10658Y39430D01*
X10907Y39326D01*
X11175Y39291D01*
X11443Y39326D01*
X11692Y39430D01*
X11906Y39594D01*
X12070Y39808D01*
X12174Y40057D01*
X12209Y40325D01*
X12174Y40593D01*
X12070Y40842D01*
X11906Y41056D01*
X11692Y41220D01*
X11443Y41324D01*
X11175Y41359D01*
D02*
G37*
G36*
X14761Y40225D02*
X13815D01*
Y39279D01*
X13989Y39302D01*
X14245Y39408D01*
X14464Y39576D01*
X14632Y39795D01*
X14738Y40051D01*
X14761Y40225D01*
D02*
G37*
G36*
X13615D02*
X12669D01*
X12692Y40051D01*
X12798Y39795D01*
X12966Y39576D01*
X13185Y39408D01*
X13441Y39302D01*
X13615Y39279D01*
Y40225D01*
D02*
G37*
G36*
X2322Y39296D02*
Y38350D01*
X3268D01*
X3245Y38524D01*
X3139Y38780D01*
X2971Y38999D01*
X2752Y39167D01*
X2496Y39273D01*
X2322Y39296D01*
D02*
G37*
G36*
X2122D02*
X1948Y39273D01*
X1692Y39167D01*
X1473Y38999D01*
X1305Y38780D01*
X1199Y38524D01*
X1176Y38350D01*
X2122D01*
Y39296D01*
D02*
G37*
G36*
X3268Y38150D02*
X2322D01*
Y37204D01*
X2496Y37227D01*
X2752Y37333D01*
X2971Y37501D01*
X3139Y37720D01*
X3245Y37976D01*
X3268Y38150D01*
D02*
G37*
G36*
X2122D02*
X1176D01*
X1199Y37976D01*
X1305Y37720D01*
X1473Y37501D01*
X1692Y37333D01*
X1948Y37227D01*
X2122Y37204D01*
Y38150D01*
D02*
G37*
G36*
X2322Y36756D02*
Y35810D01*
X3268D01*
X3245Y35984D01*
X3139Y36240D01*
X2971Y36459D01*
X2752Y36627D01*
X2496Y36733D01*
X2322Y36756D01*
D02*
G37*
G36*
X2122D02*
X1948Y36733D01*
X1692Y36627D01*
X1473Y36459D01*
X1305Y36240D01*
X1199Y35984D01*
X1176Y35810D01*
X2122D01*
Y36756D01*
D02*
G37*
G36*
X3268Y35610D02*
X2322D01*
Y34664D01*
X2496Y34687D01*
X2752Y34793D01*
X2971Y34961D01*
X3139Y35180D01*
X3245Y35436D01*
X3268Y35610D01*
D02*
G37*
G36*
X2122D02*
X1176D01*
X1199Y35436D01*
X1305Y35180D01*
X1473Y34961D01*
X1692Y34793D01*
X1948Y34687D01*
X2122Y34664D01*
Y35610D01*
D02*
G37*
G36*
X9185Y33061D02*
Y32115D01*
X10131D01*
X10108Y32289D01*
X10002Y32545D01*
X9834Y32764D01*
X9615Y32932D01*
X9359Y33038D01*
X9185Y33061D01*
D02*
G37*
G36*
X8985Y33061D02*
X8811Y33038D01*
X8555Y32932D01*
X8336Y32764D01*
X8168Y32545D01*
X8062Y32289D01*
X8039Y32115D01*
X8985D01*
Y33061D01*
D02*
G37*
G36*
X10131Y31915D02*
X9185D01*
Y30969D01*
X9359Y30992D01*
X9615Y31098D01*
X9834Y31266D01*
X10002Y31485D01*
X10108Y31741D01*
X10131Y31915D01*
D02*
G37*
G36*
X8985D02*
X8039D01*
X8062Y31741D01*
X8168Y31485D01*
X8336Y31266D01*
X8555Y31098D01*
X8811Y30992D01*
X8985Y30969D01*
Y31915D01*
D02*
G37*
G36*
X46625Y96006D02*
X46442Y95982D01*
X46272Y95911D01*
X46126Y95799D01*
X46014Y95653D01*
X45943Y95483D01*
X45919Y95300D01*
Y95100D01*
X45943Y94917D01*
X46014Y94747D01*
X46126Y94601D01*
X46272Y94489D01*
X46442Y94418D01*
X46625Y94394D01*
X46808Y94418D01*
X46978Y94489D01*
X47124Y94601D01*
X47236Y94747D01*
X47307Y94917D01*
X47331Y95100D01*
Y95300D01*
X47307Y95483D01*
X47236Y95653D01*
X47124Y95799D01*
X46978Y95911D01*
X46808Y95982D01*
X46625Y96006D01*
D02*
G37*
G36*
X44600Y93950D02*
X44050D01*
Y93550D01*
X44600D01*
Y93950D01*
D02*
G37*
G36*
X46625Y89825D02*
X46125D01*
Y89400D01*
X46625D01*
Y89825D01*
D02*
G37*
G36*
Y89200D02*
X46125D01*
Y88775D01*
X46625D01*
Y89200D01*
D02*
G37*
G36*
X28825Y96780D02*
X27625D01*
Y96380D01*
X28825D01*
Y96780D01*
D02*
G37*
G36*
X27425D02*
X26225D01*
Y96380D01*
X27425D01*
Y96780D01*
D02*
G37*
G36*
X28825Y96110D02*
X27625D01*
Y95710D01*
X28825D01*
Y96110D01*
D02*
G37*
G36*
X27425D02*
X26225D01*
Y95710D01*
X27425D01*
Y96110D01*
D02*
G37*
G36*
X36900Y96150D02*
X36450D01*
Y95600D01*
X36900D01*
Y96150D01*
D02*
G37*
G36*
X36250D02*
X35800D01*
Y95600D01*
X36250D01*
Y96150D01*
D02*
G37*
G36*
X28825Y95510D02*
X27625D01*
Y95110D01*
X28825D01*
Y95510D01*
D02*
G37*
G36*
X27425D02*
X26225D01*
Y95110D01*
X27425D01*
Y95510D01*
D02*
G37*
G36*
X28825Y94840D02*
X27625D01*
Y94440D01*
X28825D01*
Y94840D01*
D02*
G37*
G36*
X27425D02*
X26225D01*
Y94440D01*
X27425D01*
Y94840D01*
D02*
G37*
G36*
X40300Y95325D02*
X39725D01*
Y94350D01*
X40300D01*
Y95325D01*
D02*
G37*
G36*
X39525D02*
X38950D01*
Y94350D01*
X39525D01*
Y95325D01*
D02*
G37*
G36*
X28825Y94240D02*
X27625D01*
Y93840D01*
X28825D01*
Y94240D01*
D02*
G37*
G36*
X27425D02*
X26225D01*
Y93840D01*
X27425D01*
Y94240D01*
D02*
G37*
G36*
X40300Y94150D02*
X39725D01*
Y93175D01*
X40300D01*
Y94150D01*
D02*
G37*
G36*
X39525D02*
X38950D01*
Y93175D01*
X39525D01*
Y94150D01*
D02*
G37*
G36*
X28825Y93570D02*
X27625D01*
Y93170D01*
X28825D01*
Y93570D01*
D02*
G37*
G36*
X27425D02*
X26225D01*
Y93170D01*
X27425D01*
Y93570D01*
D02*
G37*
G36*
X33650Y93545D02*
X31100D01*
Y93338D01*
X30263D01*
X30160Y93317D01*
X30074Y93259D01*
X29811Y92996D01*
X29753Y92910D01*
X29732Y92807D01*
Y91875D01*
X29375D01*
Y90925D01*
X30450D01*
Y90900D01*
X31000D01*
Y91400D01*
Y91900D01*
X30450D01*
Y91875D01*
X30268D01*
Y92696D01*
X30374Y92802D01*
X31100D01*
Y92595D01*
X33650D01*
Y93545D01*
D02*
G37*
G36*
X28825Y92970D02*
X27625D01*
Y92570D01*
X28825D01*
Y92970D01*
D02*
G37*
G36*
X31750Y91900D02*
X31200D01*
Y91500D01*
X31750D01*
Y91900D01*
D02*
G37*
G36*
X33400Y91950D02*
X32950D01*
Y91400D01*
X33400D01*
Y91950D01*
D02*
G37*
G36*
X32750D02*
X32300D01*
Y91400D01*
X32750D01*
Y91950D01*
D02*
G37*
G36*
X31750Y91300D02*
X31200D01*
Y90900D01*
X31750D01*
Y91300D01*
D02*
G37*
G36*
X39350Y90550D02*
X38950D01*
Y90000D01*
X39350D01*
Y90550D01*
D02*
G37*
G36*
X38750D02*
X38350D01*
Y90000D01*
X38750D01*
Y90550D01*
D02*
G37*
G36*
X41075Y90447D02*
X39675D01*
Y89447D01*
X41075D01*
Y90447D01*
D02*
G37*
G36*
X57800Y90175D02*
X57525D01*
Y89650D01*
X57800D01*
Y90175D01*
D02*
G37*
G36*
X59000Y89425D02*
X58500D01*
Y89000D01*
X59000D01*
Y89425D01*
D02*
G37*
G36*
Y88800D02*
X58500D01*
Y88375D01*
X59000D01*
Y88800D01*
D02*
G37*
G36*
X37600Y85350D02*
X37175D01*
Y85000D01*
X37600D01*
Y85350D01*
D02*
G37*
G36*
X19750Y86935D02*
X19200D01*
Y86535D01*
X19750D01*
Y86935D01*
D02*
G37*
G36*
X13837Y85375D02*
X12887D01*
Y83625D01*
X13837D01*
Y85375D01*
D02*
G37*
G36*
X12500Y83389D02*
X12324Y83354D01*
X12176Y83254D01*
X12076Y83106D01*
X12041Y82930D01*
X12076Y82754D01*
X12176Y82606D01*
X12324Y82506D01*
X12500Y82471D01*
X12676Y82506D01*
X12824Y82606D01*
X12924Y82754D01*
X12959Y82930D01*
X12924Y83106D01*
X12824Y83254D01*
X12676Y83354D01*
X12500Y83389D01*
D02*
G37*
G36*
X15300Y83491D02*
X15076Y83447D01*
X14885Y83320D01*
X14758Y83129D01*
X14714Y82905D01*
X14758Y82681D01*
X14885Y82490D01*
X15002Y82412D01*
Y80772D01*
X14911Y80680D01*
X14853Y80593D01*
X14832Y80491D01*
Y79813D01*
X14685Y79715D01*
X14558Y79524D01*
X14514Y79300D01*
X14558Y79076D01*
X14685Y78885D01*
X14876Y78758D01*
X15100Y78714D01*
X15324Y78758D01*
X15515Y78885D01*
X15642Y79076D01*
X15686Y79300D01*
X15642Y79524D01*
X15515Y79715D01*
X15368Y79813D01*
Y80380D01*
X15459Y80472D01*
X15517Y80559D01*
X15538Y80661D01*
Y82372D01*
X15715Y82490D01*
X15842Y82681D01*
X15886Y82905D01*
X15842Y83129D01*
X15715Y83320D01*
X15524Y83447D01*
X15300Y83491D01*
D02*
G37*
G36*
X12475Y79786D02*
X12251Y79742D01*
X12060Y79615D01*
X11933Y79424D01*
X11889Y79200D01*
X11933Y78976D01*
X12060Y78785D01*
X12251Y78658D01*
X12475Y78614D01*
X12699Y78658D01*
X12890Y78785D01*
X13017Y78976D01*
X13061Y79200D01*
X13017Y79424D01*
X12890Y79615D01*
X12699Y79742D01*
X12475Y79786D01*
D02*
G37*
G36*
X32200Y87575D02*
X31450D01*
Y87175D01*
X32200D01*
Y87575D01*
D02*
G37*
G36*
X32950Y87438D02*
X32525D01*
Y86938D01*
X32950D01*
Y87438D01*
D02*
G37*
G36*
X32200Y86975D02*
X31450D01*
Y86575D01*
X32200D01*
Y86975D01*
D02*
G37*
G36*
X25625Y82575D02*
X25200D01*
Y82075D01*
X25625D01*
Y82575D01*
D02*
G37*
G36*
X25000D02*
X24575D01*
Y82075D01*
X25000D01*
Y82575D01*
D02*
G37*
G36*
X27750Y81550D02*
X27325D01*
Y81200D01*
X27750D01*
Y81550D01*
D02*
G37*
G36*
X22337Y81238D02*
X21488D01*
Y80463D01*
X22337D01*
Y81238D01*
D02*
G37*
G36*
X21288D02*
X20438D01*
Y80463D01*
X21288D01*
Y81238D01*
D02*
G37*
G36*
X43579Y82034D02*
X43204D01*
Y81634D01*
X43579D01*
Y82034D01*
D02*
G37*
G36*
X43543Y81226D02*
X43193D01*
Y80801D01*
X43543D01*
Y81226D01*
D02*
G37*
G36*
X42993D02*
X42643D01*
Y80801D01*
X42993D01*
Y81226D01*
D02*
G37*
G36*
X45425Y82325D02*
X43775D01*
Y80375D01*
X45425D01*
Y82325D01*
D02*
G37*
G36*
X18425Y74050D02*
X18075D01*
Y73625D01*
X18425D01*
Y74050D01*
D02*
G37*
G36*
X47050Y72275D02*
Y71925D01*
X47475D01*
Y72275D01*
X47050D01*
D02*
G37*
G36*
X47475Y71725D02*
X47050D01*
Y71375D01*
X47475D01*
Y71725D01*
D02*
G37*
G36*
X9725Y62100D02*
X7675D01*
Y60050D01*
X9725D01*
Y62100D01*
D02*
G37*
G36*
X8700Y59569D02*
X8432Y59534D01*
X8183Y59430D01*
X7969Y59266D01*
X7805Y59052D01*
X7701Y58803D01*
X7666Y58535D01*
X7701Y58267D01*
X7805Y58018D01*
X7969Y57804D01*
X8183Y57640D01*
X8432Y57536D01*
X8700Y57501D01*
X8968Y57536D01*
X9217Y57640D01*
X9431Y57804D01*
X9595Y58018D01*
X9699Y58267D01*
X9734Y58535D01*
X9699Y58803D01*
X9595Y59052D01*
X9431Y59266D01*
X9217Y59430D01*
X8968Y59534D01*
X8700Y59569D01*
D02*
G37*
G36*
X25600Y72150D02*
X25175D01*
Y71800D01*
X25600D01*
Y72150D01*
D02*
G37*
G36*
X34000Y70200D02*
X33650D01*
Y69775D01*
X34000D01*
Y70200D01*
D02*
G37*
G36*
X28525Y70125D02*
X28175D01*
Y69700D01*
X28525D01*
Y70125D01*
D02*
G37*
G36*
X39500Y70200D02*
X39150D01*
Y69775D01*
X39500D01*
Y70200D01*
D02*
G37*
G36*
X23150Y71125D02*
X22800D01*
Y70700D01*
X23150D01*
Y71125D01*
D02*
G37*
G36*
X23163Y70075D02*
X22812D01*
Y69650D01*
X23163D01*
Y70075D01*
D02*
G37*
G36*
X47775Y67625D02*
Y67250D01*
X48175D01*
Y67625D01*
X47775D01*
D02*
G37*
G36*
X48175Y67050D02*
X47775D01*
Y66675D01*
X48175D01*
Y67050D01*
D02*
G37*
G36*
X45450Y67600D02*
X45025D01*
Y67250D01*
X45450D01*
Y67600D01*
D02*
G37*
G36*
X42325Y67625D02*
Y67250D01*
X42725D01*
Y67625D01*
X42325D01*
D02*
G37*
G36*
X45450Y67050D02*
X45025D01*
Y66700D01*
X45450D01*
Y67050D01*
D02*
G37*
G36*
X37225Y67050D02*
X36825D01*
Y66675D01*
X37225D01*
Y67050D01*
D02*
G37*
G36*
X42725Y67050D02*
X42325D01*
Y66675D01*
X42725D01*
Y67050D01*
D02*
G37*
G36*
X41700Y65525D02*
X41325D01*
Y65125D01*
X41700D01*
Y65525D01*
D02*
G37*
G36*
X41125D02*
X40750D01*
Y65125D01*
X41125D01*
Y65525D01*
D02*
G37*
G36*
X42925D02*
X42575D01*
Y65100D01*
X42925D01*
Y65525D01*
D02*
G37*
G36*
X42375D02*
X42025D01*
Y65100D01*
X42375D01*
Y65525D01*
D02*
G37*
G36*
X37425Y65525D02*
X37075D01*
Y65100D01*
X37425D01*
Y65525D01*
D02*
G37*
G36*
X36875D02*
X36525D01*
Y65100D01*
X36875D01*
Y65525D01*
D02*
G37*
G36*
X37425Y64900D02*
X36975D01*
X36525D01*
Y64475D01*
X36550D01*
Y63550D01*
X37400D01*
X37400Y63550D01*
Y63550D01*
X37527Y63583D01*
X37574Y63551D01*
X37750Y63516D01*
X37898Y63546D01*
X38025Y63476D01*
Y63300D01*
X38650D01*
Y63275D01*
X38950D01*
Y63975D01*
Y64675D01*
X38650D01*
Y64650D01*
X38025D01*
Y64474D01*
X37898Y64404D01*
X37750Y64434D01*
X37574Y64399D01*
X37527Y64367D01*
X37503Y64380D01*
X37425Y64475D01*
Y64900D01*
D02*
G37*
G36*
X23650Y66925D02*
X23225D01*
Y66575D01*
X23650D01*
Y66925D01*
D02*
G37*
G36*
X26300Y66925D02*
X25900D01*
Y66550D01*
X26300D01*
Y66925D01*
D02*
G37*
G36*
X26475Y65425D02*
X26125D01*
Y65000D01*
X26475D01*
Y65425D01*
D02*
G37*
G36*
X25925D02*
X25575D01*
Y65000D01*
X25925D01*
Y65425D01*
D02*
G37*
G36*
X29300Y62850D02*
Y62475D01*
X29700D01*
Y62850D01*
X29300D01*
D02*
G37*
G36*
X29700Y62275D02*
X29300D01*
Y61900D01*
X29700D01*
Y62275D01*
D02*
G37*
G36*
X46150Y62375D02*
X45750D01*
Y62000D01*
X46150D01*
Y62375D01*
D02*
G37*
G36*
X36450Y59825D02*
X36025D01*
Y59475D01*
X36450D01*
Y59825D01*
D02*
G37*
G36*
X52930Y49456D02*
X52756Y49433D01*
X52500Y49327D01*
X52281Y49159D01*
X52113Y48940D01*
X52007Y48684D01*
X51984Y48510D01*
X52930D01*
Y49456D01*
D02*
G37*
G36*
X40250Y45185D02*
X40074Y45150D01*
X39926Y45050D01*
X39826Y44902D01*
X39791Y44726D01*
X39826Y44550D01*
X39926Y44401D01*
X40074Y44302D01*
X40250Y44267D01*
X40426Y44302D01*
X40574Y44401D01*
X40674Y44550D01*
X40709Y44726D01*
X40674Y44902D01*
X40574Y45050D01*
X40426Y45150D01*
X40250Y45185D01*
D02*
G37*
G36*
X55670Y36756D02*
Y35810D01*
X56616D01*
X56593Y35984D01*
X56487Y36240D01*
X56319Y36459D01*
X56100Y36627D01*
X55844Y36733D01*
X55670Y36756D01*
D02*
G37*
G36*
X55470D02*
X55296Y36733D01*
X55040Y36627D01*
X54821Y36459D01*
X54653Y36240D01*
X54547Y35984D01*
X54524Y35810D01*
X55470D01*
Y36756D01*
D02*
G37*
G36*
X41790Y33886D02*
X41614Y33851D01*
X41465Y33752D01*
X41366Y33603D01*
X41331Y33427D01*
X41366Y33252D01*
X41465Y33103D01*
X41614Y33003D01*
X41790Y32968D01*
X41965Y33003D01*
X42114Y33103D01*
X42214Y33252D01*
X42249Y33427D01*
X42214Y33603D01*
X42114Y33752D01*
X41965Y33851D01*
X41790Y33886D01*
D02*
G37*
G36*
X32406Y23418D02*
X32231Y23383D01*
X32082Y23283D01*
X31982Y23134D01*
X31948Y22959D01*
X31982Y22783D01*
X32082Y22634D01*
X32231Y22535D01*
X32406Y22500D01*
X32582Y22535D01*
X32731Y22634D01*
X32830Y22783D01*
X32865Y22959D01*
X32830Y23134D01*
X32731Y23283D01*
X32582Y23383D01*
X32406Y23418D01*
D02*
G37*
%LPD*%
D11*
X38850Y91750D02*
D03*
Y90650D02*
D03*
D12*
X20950Y87035D02*
D03*
X19850D02*
D03*
X42850Y93450D02*
D03*
X43950D02*
D03*
X30000Y91400D02*
D03*
X31100D02*
D03*
D13*
X34400Y93100D02*
D03*
Y94300D02*
D03*
X16862Y83435D02*
D03*
Y84635D02*
D03*
X48675Y68650D02*
D03*
Y69850D02*
D03*
X46650Y63975D02*
D03*
Y65175D02*
D03*
X24675Y89050D02*
D03*
Y87850D02*
D03*
X23400Y87850D02*
D03*
Y89050D02*
D03*
X33050Y88738D02*
D03*
Y87537D02*
D03*
X54800Y91400D02*
D03*
Y90200D02*
D03*
X58800Y90200D02*
D03*
Y91400D02*
D03*
X18212Y83435D02*
D03*
Y84635D02*
D03*
X23800Y81975D02*
D03*
Y80775D02*
D03*
X25100Y80775D02*
D03*
Y81975D02*
D03*
X51050Y86525D02*
D03*
Y85325D02*
D03*
X48700Y72488D02*
D03*
Y71287D02*
D03*
D14*
X37075Y44500D02*
D03*
X38275D02*
D03*
X15225Y70225D02*
D03*
X16425D02*
D03*
X58400Y88900D02*
D03*
X57200D02*
D03*
X55900D02*
D03*
X54700D02*
D03*
X53000Y73500D02*
D03*
X54200D02*
D03*
X53000Y74800D02*
D03*
X54200D02*
D03*
X49763D02*
D03*
X50963D02*
D03*
X47775Y87550D02*
D03*
X46575D02*
D03*
X46725Y89300D02*
D03*
X47925D02*
D03*
X37075Y46000D02*
D03*
X38275D02*
D03*
D18*
X21388Y82988D02*
D03*
Y81338D02*
D03*
D19*
X45200Y87838D02*
D03*
Y86137D02*
D03*
X35850Y90150D02*
D03*
Y91850D02*
D03*
X37450Y90150D02*
D03*
Y91850D02*
D03*
D21*
X14637Y89150D02*
D03*
X16337D02*
D03*
D22*
X30200Y64975D02*
D03*
Y63975D02*
D03*
X35650Y64025D02*
D03*
Y65025D02*
D03*
X37725Y69750D02*
D03*
Y68750D02*
D03*
X32250Y68675D02*
D03*
Y69675D02*
D03*
X26800Y69625D02*
D03*
Y68625D02*
D03*
X43225Y68750D02*
D03*
Y69750D02*
D03*
X14738Y61750D02*
D03*
Y62750D02*
D03*
X41225Y64025D02*
D03*
Y65025D02*
D03*
X39700Y83800D02*
D03*
Y82800D02*
D03*
Y80800D02*
D03*
Y81800D02*
D03*
X43104Y83134D02*
D03*
Y82134D02*
D03*
X19875Y61237D02*
D03*
Y60237D02*
D03*
X14875Y64213D02*
D03*
Y65213D02*
D03*
D24*
X31475Y64950D02*
D03*
Y64000D02*
D03*
X17975Y71225D02*
D03*
Y72175D02*
D03*
X22700Y72175D02*
D03*
Y71225D02*
D03*
X33550Y69675D02*
D03*
Y68725D02*
D03*
X22712Y69550D02*
D03*
Y68600D02*
D03*
X28075Y69600D02*
D03*
Y68650D02*
D03*
X17975Y74150D02*
D03*
Y75100D02*
D03*
X22625Y75125D02*
D03*
Y74175D02*
D03*
X44500Y69675D02*
D03*
Y68725D02*
D03*
X42475Y65000D02*
D03*
Y64050D02*
D03*
X36975Y65000D02*
D03*
Y64050D02*
D03*
X39050Y69675D02*
D03*
Y68725D02*
D03*
X43135Y77370D02*
D03*
Y78320D02*
D03*
X43093Y80701D02*
D03*
Y79751D02*
D03*
X42204Y83109D02*
D03*
Y82159D02*
D03*
X30000Y78575D02*
D03*
Y77625D02*
D03*
X29125Y78575D02*
D03*
Y77625D02*
D03*
X16862Y86162D02*
D03*
Y87113D02*
D03*
X26025Y64900D02*
D03*
Y63950D02*
D03*
D25*
X27225Y80000D02*
D03*
X28625D02*
D03*
D26*
X29200Y62375D02*
D03*
X28200D02*
D03*
X34513Y62288D02*
D03*
X33513D02*
D03*
X36725Y67150D02*
D03*
X35725D02*
D03*
X25800Y67025D02*
D03*
X24800D02*
D03*
X31250Y67075D02*
D03*
X30250D02*
D03*
X47675Y67150D02*
D03*
X46675D02*
D03*
X19450Y69725D02*
D03*
X18450D02*
D03*
X45650Y62475D02*
D03*
X44650D02*
D03*
X42225Y67150D02*
D03*
X41225D02*
D03*
X19250Y65025D02*
D03*
X18250D02*
D03*
X36000Y62450D02*
D03*
X37000D02*
D03*
X35975Y61175D02*
D03*
X36975D02*
D03*
D33*
X32900Y63925D02*
D03*
X33550D02*
D03*
X34200D02*
D03*
Y65625D02*
D03*
X33550D02*
D03*
X32900D02*
D03*
X34975Y68650D02*
D03*
X35625D02*
D03*
X36275D02*
D03*
Y70350D02*
D03*
X35625D02*
D03*
X34975D02*
D03*
X24050Y68525D02*
D03*
X24700D02*
D03*
X25350D02*
D03*
Y70225D02*
D03*
X24700D02*
D03*
X24050D02*
D03*
X29500Y68575D02*
D03*
X30150D02*
D03*
X30800D02*
D03*
Y70275D02*
D03*
X30150D02*
D03*
X29500D02*
D03*
X45925Y68650D02*
D03*
X46575D02*
D03*
X47225D02*
D03*
Y70350D02*
D03*
X46575D02*
D03*
X45925D02*
D03*
X22000Y63825D02*
D03*
X22650D02*
D03*
X23300D02*
D03*
Y65525D02*
D03*
X22650D02*
D03*
X22000D02*
D03*
X43900Y63975D02*
D03*
X44550D02*
D03*
X45200D02*
D03*
Y65675D02*
D03*
X44550D02*
D03*
X43900D02*
D03*
X38400Y63975D02*
D03*
X39050D02*
D03*
X39700D02*
D03*
Y65675D02*
D03*
X39050D02*
D03*
X38400D02*
D03*
X40475Y68650D02*
D03*
X41125D02*
D03*
X41775D02*
D03*
Y70350D02*
D03*
X41125D02*
D03*
X40475D02*
D03*
X27450Y63875D02*
D03*
X28100D02*
D03*
X28750D02*
D03*
Y65575D02*
D03*
X28100D02*
D03*
X27450D02*
D03*
D41*
X21400Y92500D02*
D03*
Y96500D02*
D03*
X18400Y92500D02*
D03*
X21400Y94500D02*
D03*
X18400D02*
D03*
Y96500D02*
D03*
X21400Y98500D02*
D03*
X18400D02*
D03*
X34000D02*
D03*
X27000D02*
D03*
D43*
X44807Y25129D02*
X48526D01*
X48947Y25550D01*
X50482D01*
X32729Y38628D02*
X54129D01*
X29542Y41814D02*
X32729Y38628D01*
X48950Y85300D02*
X49050Y85400D01*
X48950Y84100D02*
Y85300D01*
X49100Y85350D02*
X49210Y85240D01*
X49050Y85400D02*
X49050Y85400D01*
X26725Y27208D02*
Y45896D01*
X24027Y48593D02*
X26725Y45896D01*
X24964Y48103D02*
X27035Y46031D01*
X24960Y48103D02*
X24964D01*
X24669Y48394D02*
X24960Y48103D01*
X27035Y22607D02*
Y46031D01*
X24669Y48394D02*
Y49144D01*
X27345Y22776D02*
Y46422D01*
X25166Y48600D02*
X27345Y46422D01*
X27655Y23494D02*
Y46848D01*
X25822Y48681D02*
X27655Y46848D01*
X25822Y48681D02*
Y49753D01*
X31587Y44667D02*
Y50787D01*
X34550Y53750D01*
X36602Y54631D02*
X44017D01*
X31963Y45916D02*
Y49992D01*
X36602Y54631D01*
X32273Y46606D02*
Y49803D01*
X35554Y53084D01*
X36928D01*
X32890Y47439D02*
Y49894D01*
X35770Y52774D01*
X38633D01*
X33640Y47439D02*
Y50110D01*
X35994Y52464D01*
X46585D01*
X36135Y52154D02*
X41932D01*
X34305Y50324D02*
X36135Y52154D01*
X34305Y45401D02*
Y50324D01*
X36032Y51600D02*
X39766D01*
X34647Y44497D02*
Y50215D01*
X36032Y51600D01*
X36928Y53084D02*
X38153Y54309D01*
X38633Y52774D02*
X39144Y53285D01*
X45342Y46475D02*
X45817Y46000D01*
X43734Y46475D02*
X45342D01*
X41430Y48779D02*
X43734Y46475D01*
X38396Y48779D02*
X41430D01*
X41340Y48260D02*
X43650Y45950D01*
X44500D01*
X43346Y48319D02*
X45069D01*
X45086Y48335D01*
X36066Y47950D02*
X40850D01*
X43950Y44850D01*
X35748Y47447D02*
X40552D01*
X43100Y44900D01*
X40211Y46889D02*
X42150Y44950D01*
X36090Y46889D02*
X40211D01*
X51717Y51209D02*
X51976Y50950D01*
X53030D01*
X46585Y52464D02*
X47841Y51209D01*
X51717D01*
X54498Y19003D02*
X55570Y17930D01*
X48322Y19003D02*
X54498D01*
X33203Y38938D02*
X46820D01*
X47656Y39774D02*
X50482D01*
X46820Y38938D02*
X47656Y39774D01*
X40090Y39489D02*
X46729D01*
X48087Y40847D01*
X54640Y41539D02*
X55147Y42046D01*
X56180D01*
X57747Y40479D01*
Y25187D02*
Y40479D01*
X54257Y41157D02*
X54640Y41539D01*
X47567Y41157D02*
X54257D01*
X48087Y40847D02*
X55016D01*
X55706Y41536D01*
X33845Y42744D02*
X44152D01*
X32590Y41489D02*
X33845Y42744D01*
X32590Y43489D02*
Y43686D01*
X34305Y45401D01*
X32590Y42489D02*
X32640D01*
X34647Y44497D01*
X32273Y46606D02*
X33440Y45439D01*
X31963Y45916D02*
X32440Y45439D01*
X54270Y57270D02*
X55570Y58570D01*
X52368Y57270D02*
X54270D01*
X51376Y56277D02*
X52368Y57270D01*
X46179Y56277D02*
X51376D01*
X44211Y54309D02*
X46179Y56277D01*
X38153Y54309D02*
X44211D01*
X44017Y54631D02*
X48012Y58626D01*
X35594Y50718D02*
X37142D01*
X35240Y50363D02*
X35594Y50718D01*
X35240Y47939D02*
Y50363D01*
X36986Y50189D02*
X38396Y48779D01*
X35840Y50189D02*
X36986D01*
X39511Y43264D02*
X42985D01*
X38275Y44500D02*
X39511Y43264D01*
X35190Y46889D02*
X35748Y47447D01*
X26177Y41694D02*
Y45738D01*
X35461Y39583D02*
X36379Y40500D01*
X34000Y40104D02*
X34522Y39583D01*
X35461D01*
X35661Y40810D02*
X44689D01*
X34940Y40089D02*
X35661Y40810D01*
X31512Y40628D02*
X33203Y38938D01*
X28927Y41194D02*
X31803Y38318D01*
X40640Y39976D02*
X46386D01*
X57755Y46094D02*
Y53845D01*
X55570Y56030D02*
X57755Y53845D01*
X54564Y54798D02*
X56185D01*
X53333Y56030D02*
X54564Y54798D01*
X54273Y24253D02*
X56257D01*
X53030Y23010D02*
X54273Y24253D01*
X33751Y34489D02*
X33840D01*
X33490Y34227D02*
X33751Y34489D01*
X49890Y84539D02*
X50450Y85099D01*
Y85650D01*
X44640Y21089D02*
X47785D01*
X48404Y20470D01*
X35734Y44500D02*
X37075D01*
X42811Y49034D02*
X44448D01*
X38231Y49629D02*
X42680D01*
X43390Y50339D01*
X40284Y51083D02*
X43393D01*
X39667Y50339D02*
X42290D01*
X39066Y50940D02*
X39667Y50339D01*
X39766Y51600D02*
X40284Y51083D01*
X37142Y50718D02*
X38231Y49629D01*
X41932Y52154D02*
X42479Y51607D01*
X39144Y53285D02*
X45683D01*
X46172Y53775D02*
X51521D01*
X45683Y53285D02*
X46172Y53775D01*
X51521D02*
X51806Y53490D01*
X53030D01*
X45428Y55014D02*
X50482D01*
X38490Y53389D02*
X38977Y53877D01*
X44291D01*
X45428Y55014D01*
X48012Y58626D02*
X53030D01*
X43353Y55139D02*
X50450Y62235D01*
X41090Y55139D02*
X43353D01*
X43324Y55667D02*
X50202Y62545D01*
X38114Y55667D02*
X43324D01*
X37419Y54972D02*
X38114Y55667D01*
X35070Y56048D02*
X43167D01*
X34510Y55488D02*
X35070Y56048D01*
X43167D02*
X50769Y63650D01*
X42847Y56693D02*
X50492Y64338D01*
X34177Y56693D02*
X42847D01*
X42718Y57003D02*
X46967Y61251D01*
X42590Y57313D02*
X43700Y58423D01*
X33920Y57313D02*
X42590D01*
X39690Y57889D02*
X41290D01*
X42240Y58839D01*
X41825Y61450D02*
X42621Y60654D01*
Y59408D02*
Y60654D01*
Y59408D02*
X43190Y58839D01*
X43700Y58423D02*
Y62550D01*
X43190Y59639D02*
Y60766D01*
X42006Y61950D02*
X43190Y60766D01*
X33807Y54972D02*
X37419D01*
X29925Y52441D02*
X34177Y56693D01*
X34048Y57003D02*
X42718D01*
X29608Y52562D02*
X34048Y57003D01*
X29200Y52593D02*
X33920Y57313D01*
X39690Y57889D02*
Y60339D01*
X38495Y59925D02*
X40020Y61450D01*
X37500Y59925D02*
X38495D01*
X46341Y63350D02*
X46967Y62725D01*
X45825Y63350D02*
X46341D01*
X46967Y61251D02*
Y62725D01*
X50769Y63650D02*
X53030D01*
X50202Y62545D02*
X54465D01*
X50450Y62235D02*
X53453D01*
X35281Y59354D02*
X36396Y58239D01*
X37990D01*
X35281Y59354D02*
Y63656D01*
X30190Y30927D02*
X33490Y34227D01*
X29038Y33694D02*
X30000Y34656D01*
X29038Y30823D02*
Y33694D01*
Y30823D02*
X29738Y30123D01*
X38537Y61050D02*
X39438Y61950D01*
X44988Y31780D02*
X51640D01*
X41200Y27992D02*
X44988Y31780D01*
X45940Y33170D02*
X50482D01*
X41072Y28302D02*
X45940Y33170D01*
X39209Y28302D02*
X41072D01*
X46574Y34243D02*
X54498D01*
X40943Y28612D02*
X46574Y34243D01*
X29954Y28612D02*
X40943D01*
X42140Y28127D02*
X45407D01*
X42147Y27035D02*
X45130D01*
X45143Y27048D01*
X39337Y27992D02*
X41200D01*
X39045Y27700D02*
X39337Y27992D01*
X39204Y28297D02*
X39209Y28302D01*
X47910Y30630D02*
X50482D01*
X45407Y28127D02*
X47910Y30630D01*
X46185Y28090D02*
X50482D01*
X45143Y27048D02*
X46185Y28090D01*
X33426Y57812D02*
Y58787D01*
X34250Y59611D01*
X36943Y69750D02*
X37725D01*
X39700Y65675D02*
X40189D01*
X40463Y65948D01*
Y67262D01*
X44689Y40810D02*
X47607Y43728D01*
X54702D01*
X57445Y46471D01*
Y53538D01*
X56185Y54798D02*
X57445Y53538D01*
X55055Y43394D02*
X57755Y46094D01*
X47856Y43394D02*
X55055D01*
X44961Y40500D02*
X47856Y43394D01*
X36379Y40500D02*
X44961D01*
X46190Y40627D02*
X47876Y42314D01*
X50482D01*
X55570Y53490D02*
X56830Y52230D01*
Y47303D02*
Y52230D01*
X55473Y45946D02*
X56830Y47303D01*
X35272Y42164D02*
X44539D01*
X54482Y49862D02*
X55570Y50950D01*
X54482Y47742D02*
Y49862D01*
X53021Y46281D02*
X54482Y47742D01*
X48655Y46281D02*
X53021D01*
X44539Y42164D02*
X48655Y46281D01*
X48847Y45946D02*
X55473D01*
X44278Y41377D02*
X48847Y45946D01*
X35290Y41377D02*
X44278D01*
X44152Y42744D02*
X48802Y47394D01*
X50482D01*
X38275Y44500D02*
Y46000D01*
X35731Y45407D02*
X36324Y46000D01*
X37075D01*
X31803Y38318D02*
X54847D01*
X46239Y26767D02*
X54353D01*
X26156Y32020D02*
Y38659D01*
X26163Y32015D02*
Y32020D01*
X25287Y39528D02*
X26156Y38659D01*
X25287Y39528D02*
Y45581D01*
X22761Y48107D02*
X25287Y45581D01*
X23530Y48385D02*
X26177Y45738D01*
X23530Y48385D02*
Y48985D01*
X25635Y41063D02*
Y45842D01*
X23143Y48333D02*
X25635Y45842D01*
X23143Y48333D02*
Y59471D01*
X22761Y48107D02*
Y58635D01*
X22318Y59078D02*
X22761Y58635D01*
X22318Y59078D02*
Y59820D01*
X20634Y60306D02*
X22272Y58668D01*
Y48158D02*
Y58668D01*
X23860Y61791D02*
Y62532D01*
X23486Y61417D02*
X23860Y61791D01*
X23486Y61167D02*
Y61417D01*
X24340Y61077D02*
Y61264D01*
X24358Y61282D01*
X22318Y59999D02*
X23486Y61167D01*
X22318Y59820D02*
Y59999D01*
X23300Y63091D02*
X23860Y62532D01*
X23300Y63091D02*
Y63825D01*
X20577Y34398D02*
Y38993D01*
X18677Y32497D02*
X20577Y34398D01*
X16190Y32497D02*
X18677D01*
X20048Y37141D02*
Y39564D01*
X17944Y35037D02*
X20048Y37141D01*
X16190Y35037D02*
X17944D01*
X18973Y38962D02*
Y44648D01*
X17587Y37577D02*
X18973Y38962D01*
X16190Y37577D02*
X17587D01*
X21073Y30910D02*
X26346Y25637D01*
X21073Y30910D02*
Y38785D01*
X22044Y31673D02*
Y41919D01*
Y31673D02*
X22640Y31077D01*
X28816Y27700D02*
X39045D01*
X55706Y41536D02*
X57437Y39805D01*
Y25433D02*
Y39805D01*
X46386Y39976D02*
X47567Y41157D01*
X31217Y51638D02*
X33828Y54249D01*
X30889Y52054D02*
X33807Y54972D01*
X30570Y52174D02*
X33884Y55488D01*
X53030Y58570D02*
Y58626D01*
X39066Y50940D02*
Y50950D01*
X28275Y41354D02*
X31587Y44667D01*
X31217Y44748D02*
Y51638D01*
X27965Y41496D02*
X31217Y44748D01*
X30889Y45464D02*
Y52054D01*
X30475Y45050D02*
X30889Y45464D01*
X30570Y46347D02*
Y52174D01*
X30500Y46276D02*
X30570Y46347D01*
X30500Y45925D02*
Y46276D01*
X29625Y45050D02*
X30500Y45925D01*
X29925Y46614D02*
Y52441D01*
X28467Y45155D02*
X29925Y46614D01*
X29608Y47252D02*
Y52562D01*
X29200Y47834D02*
Y52593D01*
X28366Y47000D02*
X29200Y47834D01*
X28373Y46017D02*
X29608Y47252D01*
X27628Y49200D02*
X28500D01*
X27303Y49525D02*
X27628Y49200D01*
X42479Y51607D02*
X46823D01*
X33884Y55488D02*
X34510D01*
X28225Y43700D02*
Y44896D01*
X24342Y34403D02*
Y45210D01*
X24652Y34948D02*
Y45339D01*
X22044Y41919D02*
X23825Y43700D01*
X24962Y39054D02*
Y45467D01*
X22272Y48158D02*
X24962Y45467D01*
X24669Y49144D02*
X25000Y49475D01*
X24358Y49813D02*
Y61282D01*
X23530Y48985D02*
X24358Y49813D01*
X21457Y48096D02*
X24342Y45210D01*
X21767Y48224D02*
X24652Y45339D01*
X28225Y44896D02*
X28467Y45138D01*
X25635Y41063D02*
X25960Y40738D01*
X21424Y30998D02*
Y42626D01*
X21734Y31126D02*
X24160Y28700D01*
X21734Y31126D02*
Y42047D01*
X21960Y42274D01*
Y44815D01*
X28467Y45138D02*
Y45155D01*
X21073Y38785D02*
X21075Y38787D01*
Y39200D01*
X21073Y39202D02*
X21075Y39200D01*
X21073Y39202D02*
Y39885D01*
X21075Y39887D01*
Y41975D01*
X20325Y42725D02*
X21075Y41975D01*
X20048Y39564D02*
X20577Y40093D01*
X20325Y43725D02*
X21424Y42626D01*
Y30998D02*
X26656Y25765D01*
X54129Y38628D02*
X54554Y39053D01*
X50482Y39774D02*
X55515D01*
X54847Y38318D02*
X55522Y38992D01*
X55515Y39774D02*
X57127Y38162D01*
X28275Y24085D02*
Y41354D01*
X27965Y23956D02*
Y41496D01*
X28866Y29700D02*
X29954Y28612D01*
X28816Y28700D02*
X29219Y28297D01*
X24160Y28700D02*
X26216D01*
X26353Y26837D02*
X26725Y27208D01*
X24962Y39054D02*
X25683Y38334D01*
X27460Y48088D02*
Y48917D01*
X34513Y61631D02*
Y62288D01*
X29156Y53324D02*
X30774Y54941D01*
X27500Y52441D02*
X29467Y54408D01*
X46823Y51607D02*
X48496Y49934D01*
X50482D01*
X30835Y62954D02*
X31647Y62142D01*
X30774Y56560D02*
X31647Y57434D01*
X29467Y56733D02*
X31150Y58416D01*
X31647Y57434D02*
Y62142D01*
X31150Y58416D02*
Y61150D01*
X34550Y63925D02*
X35650Y65025D01*
X34200Y63925D02*
X34550D01*
X36000Y62450D02*
Y63228D01*
X35991Y63237D02*
X36000Y63228D01*
X23810Y56057D02*
X23816Y56050D01*
X14541Y63612D02*
X16300D01*
X13762Y64391D02*
X14541Y63612D01*
X13762Y64391D02*
Y68475D01*
X12559Y93859D02*
X13630D01*
X14328Y94557D01*
X28638Y73525D02*
X31650D01*
X28375D02*
X28638D01*
X28050Y73850D02*
X28375Y73525D01*
X10371Y60724D02*
X21457Y49638D01*
Y48096D02*
Y49638D01*
X10681Y60852D02*
X21767Y49766D01*
Y48224D02*
Y49766D01*
X23565Y94341D02*
X27911Y89995D01*
X9935Y91235D02*
X12559Y93859D01*
X9935Y68600D02*
Y91235D01*
X48404Y20470D02*
X50482D01*
X42139Y23010D02*
X50482D01*
X33065Y20331D02*
X46994D01*
X30180Y23658D02*
X32577Y21261D01*
Y20819D02*
X33065Y20331D01*
X32577Y20819D02*
Y21261D01*
X22937Y94092D02*
X27460Y89569D01*
X19400Y95500D02*
X22409D01*
X22937Y94972D01*
Y94092D02*
Y94972D01*
X23247Y94220D02*
X27770Y89698D01*
X22125Y96500D02*
X23247Y95378D01*
Y94220D02*
Y95378D01*
X21400Y98500D02*
X23565Y96335D01*
Y94341D02*
Y96335D01*
X18973Y44648D02*
X19825Y45500D01*
X17081Y43647D02*
X19934Y46500D01*
X17432Y74104D02*
Y75001D01*
X16875Y72250D02*
X19450D01*
X16875D02*
Y73547D01*
X17432Y74104D01*
X17122Y74463D02*
Y75467D01*
X16378Y73718D02*
X17122Y74463D01*
X16378Y71323D02*
Y73718D01*
X16862Y84710D02*
X17752Y85600D01*
X18750D01*
X14312Y86088D02*
X16862D01*
X18188Y86162D02*
X18750Y85600D01*
X16862Y86162D02*
X18188D01*
X17375Y87812D02*
X20032D01*
X21270Y89050D01*
X18990Y85360D02*
X19600D01*
X18750Y85600D02*
X18990Y85360D01*
X15797Y84500D02*
X16862Y83435D01*
X15262Y84500D02*
X15797D01*
X15270Y82875D02*
X15300Y82905D01*
X15270Y80661D02*
Y82875D01*
X15100Y80491D02*
X15270Y80661D01*
X15100Y79300D02*
Y80491D01*
X14875Y73000D02*
X16550Y74675D01*
X14875Y72150D02*
Y73000D01*
X22546Y63721D02*
X22650Y63825D01*
X22546Y62799D02*
Y63721D01*
Y62799D02*
X23000Y62345D01*
Y62325D02*
Y62345D01*
X23075Y62325D02*
X23100Y62350D01*
X21975Y61550D02*
Y62325D01*
X20780Y64091D02*
Y69870D01*
Y64091D02*
X21277Y63593D01*
X25877Y85083D02*
X28081Y82879D01*
Y82246D02*
Y82879D01*
X25877Y85083D02*
Y86443D01*
X32700Y82150D02*
Y83983D01*
X30650Y83925D02*
X32050Y82525D01*
Y82150D02*
Y82525D01*
X26530Y85120D02*
X31125Y80525D01*
X26840Y85335D02*
X31325Y80850D01*
X27150Y85525D02*
X31500Y81175D01*
X27460Y85690D02*
X31650Y81500D01*
X27460Y85690D02*
Y89569D01*
X27150Y85525D02*
Y89441D01*
X26840Y85335D02*
Y89312D01*
X26530Y85120D02*
Y89145D01*
X24987Y90688D02*
X26530Y89145D01*
X27770Y85930D02*
Y89698D01*
Y85930D02*
X31875Y81825D01*
X25655Y88558D02*
Y89582D01*
X24859Y90378D02*
X25655Y89582D01*
X5393Y24134D02*
Y43760D01*
X4269Y23010D02*
X5393Y24134D01*
X2222Y23010D02*
X4269D01*
X5703Y22253D02*
Y43631D01*
X3920Y20470D02*
X5703Y22253D01*
X2222Y20470D02*
X3920D01*
X6013Y20257D02*
Y43503D01*
X3686Y17930D02*
X6013Y20257D01*
X2222Y17930D02*
X3686D01*
X6323Y17470D02*
Y43375D01*
X4243Y15390D02*
X6323Y17470D01*
X2222Y15390D02*
X4243D01*
X11490Y60920D02*
X13301Y59109D01*
X11490Y60920D02*
Y71547D01*
X18471Y53500D02*
X21066D01*
X11073Y60899D02*
X18471Y53500D01*
X11073Y60899D02*
Y68402D01*
X10681Y60852D02*
Y62843D01*
X10371Y60724D02*
Y62715D01*
X17432Y75001D02*
X17531Y75100D01*
X17122Y75467D02*
X18237Y76582D01*
X17531Y75100D02*
X17975D01*
X16378Y71323D02*
X17275Y70425D01*
X17822Y77440D02*
X26440D01*
X14125Y73743D02*
X17822Y77440D01*
X11490Y71547D02*
X18193Y78250D01*
X26466D01*
X14125Y71225D02*
Y73743D01*
X25100Y81975D02*
X25325Y81750D01*
X26125Y50703D02*
X27303Y49525D01*
X26125Y50703D02*
Y53500D01*
X56257Y24253D02*
X57437Y25433D01*
X55570Y23010D02*
X57747Y25187D01*
X9424Y46476D02*
X19301D01*
X9296Y46786D02*
X18914D01*
X9167Y47096D02*
X17816D01*
X6323Y43375D02*
X9424Y46476D01*
X6013Y43503D02*
X9296Y46786D01*
X5703Y43631D02*
X9167Y47096D01*
X9039Y47406D02*
X17578D01*
X5393Y43760D02*
X9039Y47406D01*
X10555Y68920D02*
X11073Y68402D01*
X9152Y67818D02*
X9935Y68600D01*
X9462Y67690D02*
X10245Y68472D01*
X40318Y21938D02*
X51958D01*
X42396Y20899D02*
X43124Y21628D01*
X54188D01*
X39153Y12350D02*
X39166D01*
X29773Y21730D02*
X39153Y12350D01*
X29773Y21730D02*
Y22586D01*
X39293Y11507D02*
X39367D01*
X29463Y21336D02*
Y22458D01*
Y21336D02*
X39293Y11507D01*
X33974Y11430D02*
X36350Y9054D01*
X33816Y10394D02*
X35055Y9155D01*
X33816Y10350D02*
Y10394D01*
X28275Y24085D02*
X29773Y22586D01*
X27965Y23956D02*
X29463Y22458D01*
X39430Y10691D02*
X48331D01*
X27345Y22776D02*
X39430Y10691D01*
X36350Y6970D02*
Y9054D01*
X35055Y5725D02*
X36350Y4430D01*
X35055Y5725D02*
Y9155D01*
X38890Y6970D02*
Y9436D01*
Y4430D02*
X40144Y5684D01*
Y8620D01*
X39643Y9999D02*
X48257D01*
X28816Y24141D02*
X32937Y20021D01*
X46865D01*
X27655Y23494D02*
X28862Y22286D01*
X46994Y20331D02*
X48322Y19003D01*
X46865Y20021D02*
X48144Y18742D01*
X51914Y16814D02*
X53030Y17930D01*
X48669Y16814D02*
X51914D01*
X48144Y17339D02*
X48669Y16814D01*
X48144Y17339D02*
Y18742D01*
X54250Y14070D02*
X55570Y15390D01*
X52329Y14070D02*
X54250D01*
X48257Y9999D02*
X52329Y14070D01*
X48331Y10691D02*
X53030Y15390D01*
X27035Y22607D02*
X39643Y9999D01*
X25500Y50075D02*
X25822Y49753D01*
X26864Y10184D02*
X29096D01*
X23650Y6970D02*
X26864Y10184D01*
X37676Y24579D02*
X40318Y21938D01*
X37151Y24579D02*
X37676D01*
X51640Y31780D02*
X53030Y33170D01*
X25166Y31809D02*
X25683Y32325D01*
X25166Y30700D02*
Y31809D01*
X51958Y21938D02*
X53030Y23010D01*
X54188Y21628D02*
X55570Y23010D01*
X54353Y26767D02*
X55570Y25550D01*
X27500Y50274D02*
Y52441D01*
X24652Y34948D02*
X25156Y34444D01*
X24342Y34403D02*
X25042Y33703D01*
X20817Y45958D02*
X21960Y44815D01*
X17816Y47096D02*
X19221Y48500D01*
X19725D01*
X19827Y47700D02*
Y47706D01*
X20119Y47998D01*
X20823D01*
X20825Y48000D01*
X19301Y46476D02*
X20325Y47500D01*
X18914Y46786D02*
X19827Y47700D01*
X20825Y46979D02*
Y46980D01*
X20346Y46500D02*
X20825Y46979D01*
X20802Y49022D02*
X20825Y49000D01*
X19194Y49022D02*
X20802D01*
X18850Y70425D02*
X19550Y69725D01*
X20320D01*
X20470Y63052D02*
X21184Y62338D01*
X20470Y63052D02*
Y69575D01*
X20320Y69725D02*
X20470Y69575D01*
X19775Y70875D02*
X20780Y69870D01*
X21277Y64493D02*
Y65302D01*
X21500Y65525D01*
X19450Y69725D02*
X19550D01*
X40088Y77525D02*
X41434Y76179D01*
X41647Y82552D02*
X42204Y83109D01*
X41647Y81594D02*
Y82552D01*
X41200Y81146D02*
X41647Y81594D01*
X30200Y64975D02*
X30711D01*
X54498Y34243D02*
X55570Y33170D01*
X50482Y30630D02*
X50490D01*
X53030Y28090D01*
X27500Y50187D02*
X27544Y50231D01*
X55725Y74150D02*
X57067Y72808D01*
X9152Y63933D02*
Y67818D01*
X9462Y64061D02*
Y67690D01*
Y64061D02*
X10681Y62843D01*
X9152Y63933D02*
X10371Y62715D01*
X23154Y13991D02*
X28852D01*
X23129Y13966D02*
X23154Y13991D01*
X28852D02*
X30111Y15250D01*
X23000Y61525D02*
Y62325D01*
X29200Y61674D02*
Y62375D01*
X29200Y62375D01*
X28209Y62334D02*
X28250Y62375D01*
X28209Y61688D02*
Y62334D01*
X41230Y62450D02*
X41815D01*
X41965Y62600D02*
X42750D01*
X41815Y62450D02*
X41965Y62600D01*
X41230Y61450D02*
X41825D01*
X47202Y85890D02*
X48175D01*
X46787Y85475D02*
X47202Y85890D01*
X46787Y85475D02*
Y86562D01*
X47763Y87562D02*
X47950Y87750D01*
X48150Y87550D01*
X46787Y86562D02*
X47775Y87550D01*
X53375Y91400D02*
X54800D01*
X41230Y62455D02*
Y64020D01*
X41225Y64025D02*
X41230Y64020D01*
X33225Y86162D02*
X33900Y86838D01*
X46050Y65738D02*
Y66275D01*
X42275Y70650D02*
X43100Y71475D01*
Y72525D01*
X41775Y73850D02*
X43100Y72525D01*
X36797Y60627D02*
X37500Y59925D01*
X36522Y60627D02*
X36797D01*
X36975Y61175D02*
X37050Y61100D01*
X38537D01*
X39438Y61950D02*
X40020D01*
X37000Y62450D02*
X37025Y62425D01*
X38462D01*
X38487Y62450D02*
X40020D01*
X38462Y62425D02*
X38487Y62450D01*
X35975Y61175D02*
X36522Y60627D01*
X35975Y61175D02*
X36000Y61200D01*
Y62450D01*
X31347Y79975D02*
X31450Y79871D01*
X30100Y79975D02*
X31347D01*
X28625Y80000D02*
X28650Y79975D01*
X30100D01*
X34300Y69675D02*
X34325Y69700D01*
X33550Y69675D02*
X34300D01*
X31650Y73525D02*
X33675Y75550D01*
X30800Y70475D02*
X31425Y71100D01*
X31400Y71150D02*
X31425Y71125D01*
Y71100D02*
Y71125D01*
X30800Y70275D02*
Y70475D01*
X40638Y84925D02*
X41025Y84537D01*
X21698Y85360D02*
X22087Y85750D01*
X22025Y85650D02*
X22087Y85713D01*
Y85750D01*
X21350Y85360D02*
X21698D01*
X40725Y79875D02*
X41200Y80350D01*
X38475Y79875D02*
X40725D01*
X41525Y77312D02*
X41775D01*
X38375Y77525D02*
X40088D01*
X40787Y77925D02*
X41525Y77188D01*
X38200Y77925D02*
X40787D01*
X12900Y63112D02*
X13525Y62487D01*
X12900Y63112D02*
Y69375D01*
X13762Y68475D02*
X15700D01*
X13762Y68475D02*
X13762Y68475D01*
X52000Y74800D02*
X52013Y74787D01*
X50963Y74800D02*
X52000D01*
X50463Y75500D02*
X55425D01*
X49763Y74800D02*
X50463Y75500D01*
X52100Y73900D02*
X53000Y74800D01*
X46675Y66500D02*
X47188Y65988D01*
X48638D01*
X46575Y67150D02*
Y67800D01*
X46675Y66500D02*
Y67150D01*
X46650Y63975D02*
X47037Y64363D01*
X48500D01*
X33225Y83775D02*
Y86162D01*
Y83775D02*
X33675Y83325D01*
X34025Y84900D02*
Y85700D01*
X34025Y85700D01*
X34750Y85125D02*
X34975Y84900D01*
X34750Y85125D02*
Y86562D01*
X31471Y85213D02*
X32700Y83983D01*
X30312Y86371D02*
X31471Y85213D01*
X28825Y85775D02*
X29513Y85088D01*
X28825Y85775D02*
Y88025D01*
X36275Y70613D02*
X36912Y71250D01*
X37763D01*
X36275Y70350D02*
Y70613D01*
X36075Y71400D02*
Y71825D01*
X36775D01*
X36775Y71825D01*
X55900Y88325D02*
Y88900D01*
Y88325D02*
X57000Y87225D01*
X57200Y88900D02*
X58800Y87300D01*
Y87275D02*
Y87300D01*
X57425Y92125D02*
Y93700D01*
X58800Y91400D02*
X58925Y91525D01*
Y93250D01*
X53275Y89450D02*
X53825Y88900D01*
X54700D01*
X45175Y69875D02*
Y72225D01*
X42875Y74525D02*
X45175Y72225D01*
X36075Y74525D02*
X42875D01*
X37500Y73200D02*
X41125D01*
X36650Y72350D02*
X37500Y73200D01*
X28350Y76600D02*
X30725D01*
X25275Y73525D02*
X28350Y76600D01*
X30600Y71750D02*
X31837D01*
X30525D02*
X30600D01*
X31837D02*
X31851Y71764D01*
X48700Y71287D02*
X49713D01*
X48675Y71262D02*
X48700Y71287D01*
X48675Y69850D02*
Y71262D01*
X49725Y72488D02*
X49725Y72488D01*
X48700Y72488D02*
X49725D01*
X47875Y68650D02*
X48675D01*
X47225D02*
X47875D01*
X49200Y67425D02*
Y68125D01*
X48675Y68650D02*
X49200Y68125D01*
X38800Y84925D02*
X40638D01*
X39325Y84475D02*
X40225D01*
X18413Y65062D02*
X18450Y65100D01*
Y65725D01*
X16737Y64213D02*
X17038Y63913D01*
X14738Y62750D02*
X14762Y62725D01*
X16125D01*
X16737Y64213D02*
X17275Y64750D01*
X14875Y64213D02*
X16737D01*
X41348Y60877D02*
X41650Y60575D01*
X41338Y60877D02*
X41348D01*
X39825Y67900D02*
X40463Y67262D01*
X28075Y68575D02*
X29500D01*
X27950Y68525D02*
X28075Y68650D01*
X27950Y67925D02*
Y68525D01*
X45200Y65675D02*
X45362Y65512D01*
X45825D01*
X46050Y65738D01*
X26800Y70475D02*
X27325Y71000D01*
X50415Y88425D02*
X50575Y88585D01*
X50415Y88425D02*
X50415Y88425D01*
X46575Y67800D02*
Y68650D01*
X45000Y66775D02*
Y67150D01*
X44550Y66325D02*
X45000Y66775D01*
X44550Y65675D02*
Y66325D01*
X44925Y67875D02*
X44925Y67875D01*
X44925Y67150D02*
Y67875D01*
X28750Y65875D02*
X29375Y66500D01*
Y67475D01*
X26025Y64900D02*
X26200Y64725D01*
X27925D01*
X28100Y64900D01*
Y65575D01*
X33550Y62375D02*
Y63050D01*
X36500Y73850D02*
X41775D01*
X35925Y73275D02*
X36500Y73850D01*
X35675Y75275D02*
X36525D01*
X31250Y75000D02*
X32375Y76125D01*
X30075Y75000D02*
X31250D01*
X25975Y71825D02*
Y72200D01*
X25850Y71700D02*
X25975Y71825D01*
X25075Y71700D02*
X25850D01*
X24700Y71325D02*
X25075Y71700D01*
X45175Y69875D02*
X45575Y69475D01*
X47075D01*
X47225Y69625D01*
Y70350D01*
X41125Y73200D02*
X41675Y72650D01*
X36000Y71825D02*
X36075D01*
X35100Y73125D02*
Y73600D01*
X28875Y76175D02*
X30925D01*
X26675Y73975D02*
X28875Y76175D01*
X26675Y71875D02*
Y73975D01*
X30925Y76175D02*
X31700Y76950D01*
X30725Y76600D02*
X31725Y77600D01*
X30550Y77025D02*
X31450Y77925D01*
X27650Y77025D02*
X30550D01*
X24073Y73448D02*
X27650Y77025D01*
X28400Y77625D02*
X28400Y77625D01*
X29125D01*
X24700Y68525D02*
Y69175D01*
X41125Y67225D02*
Y68725D01*
Y66375D02*
Y67150D01*
X41775Y70650D02*
X42275D01*
X43225Y69850D02*
Y70700D01*
X43900Y65675D02*
Y70225D01*
X34975Y71825D02*
X34975Y71825D01*
X34975Y70350D02*
Y71825D01*
X39700Y63975D02*
X40400D01*
X41775Y70350D02*
Y70650D01*
X30150Y67075D02*
X30150Y67075D01*
Y68575D01*
X32900Y67100D02*
X32900Y67100D01*
X32900Y65625D02*
Y67100D01*
X41125Y66375D02*
X41125Y66375D01*
X27425Y67075D02*
Y70175D01*
Y67075D02*
X27450Y67050D01*
X28550Y66625D02*
Y67050D01*
X28100Y66175D02*
X28550Y66625D01*
X28100Y65575D02*
Y66175D01*
X26025Y63875D02*
X26025Y63875D01*
X47775Y67150D02*
X48375D01*
X17975Y71150D02*
X18125Y71300D01*
X18475D01*
X18775Y71600D01*
X19450D01*
X23750Y74100D02*
X23750Y74100D01*
X22625Y74100D02*
X23750D01*
X19450Y74525D02*
X21150D01*
X18150Y74250D02*
X18525D01*
X18800Y74525D01*
X19450D01*
X22625Y75200D02*
X23850D01*
X22600Y75175D02*
X22625Y75200D01*
X21150Y75175D02*
X22600D01*
X22350Y74375D02*
X22625Y74100D01*
X21975Y74375D02*
X22350D01*
X21825Y74525D02*
X21975Y74375D01*
X21150Y74525D02*
X21825D01*
X25350Y68525D02*
X26800D01*
X30150Y70275D02*
Y70900D01*
X24700Y70225D02*
Y71325D01*
X27450Y67050D02*
X27450Y67050D01*
X27450Y65575D02*
Y67050D01*
X28750Y63875D02*
X28750Y63875D01*
X30200D01*
X31350Y67075D02*
X31475Y66950D01*
Y65025D02*
Y66950D01*
X33550Y66225D02*
X34000Y66675D01*
X33550Y65625D02*
Y66225D01*
X39500Y66725D02*
Y67150D01*
X39050Y66275D02*
X39500Y66725D01*
X39050Y65675D02*
Y66275D01*
Y63975D02*
Y65675D01*
X36975Y63975D02*
X36975Y63975D01*
X38400D01*
X42475Y63975D02*
X42475Y63975D01*
X43900D01*
X45200D02*
X45200Y63975D01*
X46650D01*
X46975Y71375D02*
Y71775D01*
X46575Y70975D02*
X46975Y71375D01*
X46575Y70350D02*
Y70975D01*
X35625Y70950D02*
X36075Y71400D01*
X35625Y70350D02*
Y70950D01*
X39050Y69750D02*
Y70850D01*
X44500Y69750D02*
Y70825D01*
X42575Y71825D02*
X42575Y71825D01*
X41575Y71825D02*
X42575D01*
X33550Y68650D02*
X33550Y68650D01*
X34975D01*
X36275D02*
X37725D01*
X38400Y67150D02*
X38400Y67150D01*
X38400Y65675D02*
Y67150D01*
X40475Y70350D02*
Y72525D01*
X47025Y71825D02*
X47688D01*
X46975Y71775D02*
X47025Y71825D01*
X45925Y70350D02*
Y72575D01*
X44500Y68650D02*
X45925D01*
X41575Y71450D02*
Y71825D01*
X41125Y71000D02*
X41575Y71450D01*
X41125Y70350D02*
Y71000D01*
X41775Y68650D02*
X43225D01*
X39050D02*
X40475D01*
X37900Y83050D02*
X39325Y84475D01*
X35013Y82437D02*
Y83962D01*
X34000Y98500D02*
X35075D01*
X21400Y96500D02*
X22125D01*
X18400D02*
X19400Y95500D01*
X21400Y92500D02*
X22900D01*
X23938Y91463D01*
X18400Y98500D02*
X19500D01*
X36925Y81175D02*
X36925D01*
X35300Y76950D02*
X35300D01*
X36600Y78900D02*
X36925Y78575D01*
X40675Y78700D02*
X41475D01*
X39600Y78575D02*
X39725Y78700D01*
X38900Y78575D02*
X39600D01*
X37075Y84000D02*
X37250Y83825D01*
X37075Y84900D02*
X37900D01*
X37075Y84000D02*
Y84900D01*
X36125Y84000D02*
Y84900D01*
X34025Y84000D02*
Y84900D01*
X34975Y84000D02*
Y84900D01*
X27025Y98475D02*
X29925D01*
X26100Y80000D02*
X27225D01*
X29125Y77625D02*
X30000D01*
X29125Y78575D02*
X30000D01*
X35100Y73600D02*
Y74500D01*
X34150Y73600D02*
Y74500D01*
X54200Y73500D02*
X55100D01*
X54200Y74800D02*
X55100D01*
X42204Y81434D02*
Y82159D01*
X43079D01*
X42204Y83109D02*
X43079D01*
X56775Y89325D02*
X57200Y88900D01*
X56775Y89325D02*
Y90275D01*
X55900Y88900D02*
X56125Y89125D01*
Y90275D01*
X28625Y80925D02*
X28800Y81100D01*
X28625Y80000D02*
Y80925D01*
X34975Y84000D02*
X35013Y83962D01*
X56775Y91550D02*
Y92125D01*
X56625Y91400D02*
X56775Y91550D01*
X54800Y91400D02*
X56625D01*
X57425Y91575D02*
X58800Y90200D01*
X57425Y91575D02*
Y92125D01*
X53000Y74800D02*
X53650Y74150D01*
X58100Y89200D02*
X58400Y88900D01*
X58100Y89200D02*
Y90025D01*
X57850Y90275D02*
X58100Y90025D01*
X57425Y90275D02*
X57850D01*
X53000Y71300D02*
Y73500D01*
Y71300D02*
X53030Y71270D01*
X27025Y81100D02*
X27850D01*
X58400Y88900D02*
X59225D01*
X34150Y74500D02*
X34325Y74675D01*
X28475Y78575D02*
X29125D01*
X30000D02*
X31841D01*
X38175D02*
X38900D01*
X35950Y83825D02*
X36125Y84000D01*
X35500Y85625D02*
X35825D01*
X36125Y85325D01*
Y84900D02*
Y85325D01*
X31400Y79125D02*
X31500Y79225D01*
X50575Y88585D02*
Y89300D01*
X49435Y88425D02*
X50415D01*
X49275Y87550D02*
Y88265D01*
X49435Y88425D01*
X48150Y87550D02*
X49275D01*
X48175Y86540D02*
X48890D01*
X49050Y86380D01*
X49210Y85240D02*
X49925D01*
X49050Y85400D02*
Y86380D01*
X47925Y89300D02*
X49275D01*
X47925Y89300D02*
X47925Y89300D01*
X49925Y85890D02*
X50210D01*
X47825Y88425D02*
Y89200D01*
X47925Y89300D01*
X22000Y62350D02*
Y63825D01*
X21975Y62325D02*
X22000Y62350D01*
X22650Y63825D02*
Y65525D01*
Y66100D01*
X23200Y66650D01*
Y67025D01*
X35950Y80850D02*
X35950D01*
X22000Y65525D02*
Y66925D01*
X24700Y67025D02*
Y68525D01*
X24700Y67025D02*
X24700Y67025D01*
X26800Y69725D02*
Y70475D01*
X37650Y67850D02*
X38400D01*
Y67150D02*
Y67850D01*
Y70325D01*
X33550Y63050D02*
Y63925D01*
X41225Y65125D02*
X42425D01*
X42475Y65075D01*
Y66175D01*
Y67000D01*
X19450Y73125D02*
Y73875D01*
X28700Y71750D02*
X28700Y71750D01*
X29500D01*
X29575D01*
X29500Y70275D02*
Y71750D01*
X26025Y64900D02*
Y66050D01*
X23300Y65525D02*
X24350D01*
X25350Y70225D02*
Y70550D01*
X26675Y71875D01*
X17325Y71150D02*
X17975D01*
X28100Y62400D02*
Y63875D01*
X26800Y63150D02*
Y63875D01*
X26025D02*
X26800D01*
X27450D01*
X17975Y75175D02*
X19450D01*
X17275Y70425D02*
X18850D01*
X40625Y60175D02*
Y61350D01*
X41650Y60175D02*
Y60575D01*
X35100Y73125D02*
X35375Y72850D01*
X36274Y79874D02*
X36274D01*
X24700Y69175D02*
X24925Y69400D01*
X25650D01*
X26050Y69800D01*
X45200Y61700D02*
X45525D01*
X45650Y61825D01*
Y62475D01*
X39050Y63325D02*
Y63975D01*
Y63325D02*
X39350Y63025D01*
X40025D01*
X50210Y85890D02*
X50450Y85650D01*
X40625Y62550D02*
Y62850D01*
X40450Y63025D02*
X40625Y62850D01*
X40025Y63025D02*
X40450D01*
X22700Y67925D02*
Y68525D01*
X22625Y68600D02*
X22700Y68525D01*
X24050D01*
X26050Y69800D02*
Y70650D01*
X27975Y72575D01*
X32250D01*
X28075Y68575D02*
Y68650D01*
X28200Y62375D02*
X28250D01*
X20425Y70950D02*
X21150D01*
X20275Y71100D02*
X20425Y70950D01*
X20275Y71100D02*
Y72426D01*
X20848Y72999D01*
X22000Y66925D02*
X22100Y67025D01*
X22625Y72115D02*
Y72175D01*
X21150Y73875D02*
X21450D01*
X21877Y73448D01*
X24073D01*
X25800Y66275D02*
X26025Y66050D01*
X25800Y66275D02*
Y67025D01*
X13400Y71175D02*
Y72150D01*
X22625Y72175D02*
X23225D01*
X23450Y72400D01*
X24050D01*
X21150Y72250D02*
X22625D01*
X24050Y70225D02*
Y72400D01*
X24350Y65525D02*
X25295Y66470D01*
Y67525D02*
X25495Y67725D01*
X26775D01*
X26800Y67700D01*
X28075Y69675D02*
Y70850D01*
X27900Y71025D02*
X28075Y70850D01*
X27900Y71025D02*
Y71750D01*
X22700Y69550D02*
Y71225D01*
Y69550D02*
X22750Y69500D01*
X22195Y71685D02*
X22625Y72115D01*
X22195Y67025D02*
Y71685D01*
X14125Y70600D02*
Y71225D01*
X15438D01*
X18150Y66575D02*
X18300Y66725D01*
X15700Y66575D02*
X15890D01*
X15512D02*
X15700D01*
X14875Y65938D02*
X15512Y66575D01*
X17362Y67525D02*
X18150D01*
X16975Y67137D02*
X17362Y67525D01*
X16975Y65050D02*
Y67137D01*
Y65050D02*
X17275Y64750D01*
X15225Y69625D02*
Y70225D01*
Y69625D02*
X15700Y69150D01*
Y68475D02*
Y69150D01*
X14875Y65213D02*
Y65938D01*
X15890Y66575D02*
X17790Y68475D01*
X18150D01*
X21500Y65525D02*
X22000D01*
X18450Y65725D02*
Y66525D01*
X18400Y66575D02*
X18450Y66525D01*
X11800Y64375D02*
X12175Y64000D01*
X11800Y64375D02*
Y69575D01*
X13400Y71175D01*
X12900Y69375D02*
X14125Y70600D01*
X14450Y66825D02*
Y67213D01*
X14640Y67402D01*
X15578D02*
X15700Y67525D01*
X14640Y67402D02*
X15578D01*
X15438Y71225D02*
X16938Y69725D01*
X18450D01*
X25100Y79150D02*
Y80762D01*
Y79125D02*
X31400D01*
X16862Y83435D02*
X18212D01*
Y82375D02*
Y83435D01*
X16862Y84710D02*
X16862D01*
X14312Y86088D02*
Y86400D01*
X16875Y85997D02*
Y86088D01*
X18750Y87035D02*
X19850D01*
X16862Y87300D02*
X17375Y87812D01*
X16862Y87188D02*
Y87300D01*
X18400Y92500D02*
X19600Y91300D01*
X31000Y88975D02*
X31350D01*
X30312Y86371D02*
Y88287D01*
X31000Y88975D01*
X28825Y88025D02*
X29250D01*
X31688Y87075D02*
X31712D01*
X31688D02*
X32450Y86312D01*
Y85700D02*
Y86312D01*
X31400Y88925D02*
X33050D01*
X31350Y88975D02*
X31400Y88925D01*
X31712Y87075D02*
X32162Y87525D01*
X32850D01*
X33050Y87725D01*
X21388Y79950D02*
Y81338D01*
X19250Y65025D02*
X19300D01*
X19450Y64875D01*
X16125Y62725D02*
X16775D01*
X17038Y62987D01*
Y63913D01*
X14738Y60125D02*
Y61750D01*
X34025Y83413D02*
Y84000D01*
Y83413D02*
X34650Y82788D01*
X27552Y73644D02*
Y74056D01*
Y73644D02*
X27981Y73215D01*
X27552Y74056D02*
X29196Y75700D01*
X31450D01*
X53650Y74150D02*
X55725D01*
X13525Y59606D02*
Y62487D01*
X55425Y75500D02*
X56963Y73963D01*
X41230Y61950D02*
X42006D01*
X41200Y80350D02*
Y81146D01*
X54498Y69802D02*
X55570Y68730D01*
X54465Y62545D02*
X55570Y63650D01*
X21184Y60737D02*
Y62338D01*
X23000Y61525D02*
X23000Y61525D01*
X57127Y29647D02*
Y38162D01*
X55570Y28090D02*
X57127Y29647D01*
X17578Y47406D02*
X19194Y49022D01*
X19934Y46500D02*
X20346D01*
X18400Y94500D02*
X19413Y93487D01*
X22665D01*
X26840Y89312D01*
X21400Y94500D02*
X22073Y93827D01*
X22763D01*
X27150Y89441D01*
X16503Y89848D02*
X17316Y90660D01*
X15805Y90255D02*
X16400Y90850D01*
X23860Y56107D02*
Y58738D01*
X23810Y56057D02*
X23860Y56107D01*
X14417Y21558D02*
Y34614D01*
Y21558D02*
X20724Y15250D01*
X25031D01*
X30150Y70900D02*
X30600Y71350D01*
Y71750D01*
X32660Y70561D02*
Y70938D01*
Y70561D02*
X32900Y70321D01*
Y67100D02*
Y70321D01*
X30800Y68575D02*
X31150D01*
X32250Y69675D01*
X32900Y63128D02*
Y63925D01*
X32860Y63088D02*
X32900Y63128D01*
X32682Y73215D02*
X33547Y72350D01*
X36650D01*
X27981Y73215D02*
X32682D01*
X34150Y72998D02*
Y73600D01*
X30711Y64975D02*
X30835Y64851D01*
X31475Y63281D02*
Y64000D01*
X23143Y59471D02*
X23860Y60188D01*
X25683Y32325D02*
Y38334D01*
X13301Y59109D02*
X19446D01*
X19875Y59538D01*
Y60237D01*
X19045D02*
X19875D01*
X18575Y60707D02*
X19045Y60237D01*
X18575Y60707D02*
Y61775D01*
X19875Y61237D02*
Y62162D01*
X19450Y64124D02*
Y64875D01*
X30625Y66125D02*
X30700D01*
X30150Y66600D02*
X30625Y66125D01*
X30150Y66600D02*
Y67075D01*
X35281Y63656D02*
X35650Y64025D01*
X24789Y51600D02*
X27466Y48923D01*
X27460Y48917D02*
X27466Y48923D01*
X36725Y66425D02*
Y67150D01*
Y66425D02*
X36975Y66175D01*
Y65075D02*
Y66175D01*
X34000Y66675D02*
X34200Y66475D01*
X34750D01*
X35048Y67150D02*
X35725D01*
X35010Y67188D02*
X35048Y67150D01*
X35625Y67250D02*
Y68650D01*
Y67250D02*
X35725Y67150D01*
X33925Y67100D02*
Y67748D01*
X34000Y66675D02*
Y67100D01*
X19600Y91300D02*
X23324D01*
X23936Y90688D01*
X24987D01*
X17316Y90660D02*
X23429D01*
X23712Y90378D01*
X24859D01*
X19710Y68038D02*
X20160Y67589D01*
Y62662D02*
Y67589D01*
X20634Y60306D02*
Y62187D01*
X20160Y62662D02*
X20634Y62187D01*
X40225Y84475D02*
X40472Y84228D01*
X43954D01*
X11410Y86438D02*
X14274D01*
X14312Y86400D01*
X30774Y54941D02*
Y56560D01*
X29467Y54408D02*
Y56733D01*
X34910Y65638D02*
X35110D01*
X35097Y65625D02*
X35110Y65638D01*
X34200Y65625D02*
X35097D01*
X30835Y62954D02*
Y64851D01*
X33513Y61578D02*
X34457Y60634D01*
X33513Y61578D02*
Y62288D01*
X23400Y85874D02*
Y87000D01*
Y85874D02*
X24125Y85149D01*
Y84325D02*
Y85149D01*
X35198Y23898D02*
X37709D01*
X40708Y20899D01*
X42396D01*
X36525Y75275D02*
X36900Y74900D01*
X44250D01*
X38775Y75425D02*
X44454D01*
X46379Y73500D01*
X53000D01*
X38950Y75775D02*
X44600D01*
X46475Y73900D01*
X52100D01*
X41434Y76179D02*
X44799D01*
X46178Y74800D01*
X49763D01*
X26346Y21980D02*
X38890Y9436D01*
X26346Y21980D02*
Y25637D01*
X26656Y22108D02*
Y25765D01*
Y22108D02*
X40144Y8620D01*
X32250Y61611D02*
X34250Y59611D01*
X32250Y61611D02*
Y68675D01*
X24789Y59269D02*
X26754Y61234D01*
X24789Y51600D02*
Y59269D01*
X19839Y62725D02*
X19850Y62736D01*
Y62188D02*
X19875Y62162D01*
X19450Y64124D02*
X19850Y63725D01*
X19650Y62725D02*
X19850Y62925D01*
Y63210D01*
Y62736D02*
Y62925D01*
Y63725D01*
X18575Y62725D02*
X19650D01*
X19839D01*
X19650D02*
X19850Y62525D01*
Y62188D02*
Y62525D01*
Y62736D01*
X10555Y86757D02*
X10974Y87176D01*
X10555Y68920D02*
Y86757D01*
X12480Y87176D02*
X13206Y87901D01*
Y89524D01*
X13512Y89830D01*
X13620D01*
X13638Y89848D01*
X10974Y87176D02*
X12480D01*
X13638Y89848D02*
X16503D01*
X15115Y90158D02*
X15212Y90255D01*
X13401Y90158D02*
X15115D01*
X12896Y89652D02*
X13401Y90158D01*
X12896Y88030D02*
Y89652D01*
X12352Y87486D02*
X12896Y88030D01*
X10846Y87486D02*
X12352D01*
X15212Y90255D02*
X15805D01*
X10245Y68472D02*
Y86885D01*
X10846Y87486D01*
X27911Y89995D02*
X33080D01*
X33900Y89175D01*
Y86838D02*
Y89175D01*
X37450Y89350D02*
Y90150D01*
X37450Y89350D02*
X37450Y89350D01*
X30000Y92807D02*
X30263Y93070D01*
X30000Y91400D02*
Y92807D01*
X30263Y93070D02*
X32375D01*
X44644Y84537D02*
X46388Y82794D01*
X41025Y84537D02*
X44644D01*
X43954Y84228D02*
X44888Y83294D01*
X31184Y13366D02*
X32017Y14199D01*
X31184Y11768D02*
Y13366D01*
X30742Y11326D02*
X31184Y11768D01*
X28955Y11326D02*
X30742D01*
X27571Y12710D02*
X28955Y11326D01*
X38186Y26964D02*
X42139Y23010D01*
X28816Y24141D02*
Y26850D01*
X29219Y28297D02*
X39204D01*
X54578Y61110D02*
X55570D01*
X53453Y62235D02*
X54578Y61110D01*
X35840Y49439D02*
X37019Y48260D01*
X41340D01*
X50492Y64338D02*
Y68137D01*
X52158Y69802D01*
X54498D01*
X49713Y71287D02*
X49725Y71300D01*
X50700D01*
X9085Y34555D02*
X10401D01*
X17081Y41234D01*
Y43647D01*
X13477Y10194D02*
Y36460D01*
X16294Y39276D01*
X18400D01*
D44*
X12690Y10768D02*
G03*
X14452Y10194I788J-575D01*
G01*
D02*
G03*
X14265Y10768I-975J0D01*
G01*
X34310Y56370D02*
X42994D01*
X30248Y52307D02*
X34310Y56370D01*
X42994D02*
X50815Y64191D01*
Y66515D01*
X28010Y90397D02*
X34501D01*
X34748Y90150D02*
X35850D01*
X34501Y90397D02*
X34748Y90150D01*
X30248Y46480D02*
Y52307D01*
X28789Y45022D02*
X30248Y46480D01*
X28178Y42507D02*
X28789Y43118D01*
X22561Y41236D02*
X23825Y42500D01*
X28789Y43118D02*
Y45022D01*
X22561Y32490D02*
Y41236D01*
X28204Y56607D02*
X29650Y58053D01*
Y61150D01*
X8763Y75221D02*
X9358D01*
X4735Y71193D02*
X8763Y75221D01*
X4735Y41910D02*
Y71193D01*
X1862Y85287D02*
X6782Y90207D01*
X1862Y74550D02*
Y85287D01*
X11166Y75250D02*
X13079D01*
X31650Y81500D02*
X32050D01*
X5070Y34274D02*
Y70470D01*
X3966Y33170D02*
X5070Y34274D01*
X2222Y33170D02*
X3966D01*
X5070Y70470D02*
X6050Y71450D01*
X1862Y74550D02*
X4400Y72012D01*
Y44254D02*
Y72012D01*
X3477Y43330D02*
X4400Y44254D01*
X3616Y40790D02*
X4735Y41910D01*
X27000Y53496D02*
X28204Y54700D01*
X17850Y80021D02*
Y81425D01*
X13079Y75250D02*
X17850Y80021D01*
X50815Y66515D02*
X53030Y68730D01*
X50513Y90125D02*
X53030Y87607D01*
X49938Y90125D02*
X50513D01*
X53030Y86510D02*
Y87607D01*
X22585Y84710D02*
X23025Y85150D01*
X21350Y84710D02*
X22585D01*
X50575Y87550D02*
X51550D01*
X14738Y61750D02*
X14762Y61775D01*
X16125D01*
X16475D02*
Y61862D01*
X16125Y61775D02*
X16475D01*
X55450Y90200D02*
X55450Y90200D01*
X54800Y90200D02*
X55450D01*
X23400Y87850D02*
X24675D01*
X23400Y87850D02*
X23400Y87850D01*
X46725Y87775D02*
Y89300D01*
X51050Y84475D02*
Y85325D01*
X20635Y84710D02*
X21350D01*
X20475Y84870D02*
Y85850D01*
X19600Y86010D02*
X20315D01*
X20475Y85850D01*
X20475Y85850D01*
X18287Y84710D02*
X19600D01*
X21202Y87035D02*
X21350Y86887D01*
Y86010D02*
Y86887D01*
X23800Y81975D02*
Y82988D01*
X49925Y89300D02*
Y90113D01*
X49938Y90125D01*
X16475Y61862D02*
X18288Y63675D01*
X46650Y65175D02*
X49773D01*
X6782Y90207D02*
Y95614D01*
X2222Y40790D02*
X3616D01*
X2222Y43330D02*
X3477D01*
X49925Y90113D02*
Y93966D01*
X47372Y96519D02*
X49925Y93966D01*
X24650Y89075D02*
X24675Y89050D01*
X24650Y89075D02*
Y89875D01*
X8390Y97223D02*
X15847D01*
X6782Y95614D02*
X8390Y97223D01*
X15847D02*
X17994Y99370D01*
X23888Y94520D02*
X28010Y90397D01*
X23888Y94520D02*
Y97243D01*
X21760Y99370D02*
X23888Y97243D01*
X21355Y99370D02*
X21760D01*
X17994Y99370D02*
X21355D01*
X23850Y98200D02*
X24503Y97547D01*
X37900Y81500D02*
X38400D01*
X39700Y82800D02*
X40000Y82500D01*
X38400Y81500D02*
X39700Y82800D01*
X40000Y82500D02*
X40750D01*
X41150Y82900D01*
X37900Y80850D02*
X38150Y81100D01*
X39000D01*
X39700Y81800D01*
X40000Y82100D01*
X40850D01*
X41150Y81800D01*
X49773Y65175D02*
X49810Y65138D01*
X25367Y84183D02*
Y87158D01*
Y84183D02*
X26575Y82975D01*
X24675Y87850D02*
X25367Y87158D01*
X28204Y54700D02*
Y56607D01*
X38257Y98083D02*
X39821Y96519D01*
X35415Y98083D02*
X38257D01*
X34879Y97547D02*
X35415Y98083D01*
X39821Y96519D02*
X47372D01*
X24503Y97547D02*
X34879D01*
X4400Y4812D02*
X8537Y675D01*
X4400Y2690D02*
X6415Y675D01*
X4400D02*
Y12675D01*
Y6933D02*
X10658Y675D01*
X4400Y9054D02*
X12779Y675D01*
X4400D02*
X16400D01*
X4400Y11176D02*
X14901Y675D01*
X6957D02*
X16400Y10118D01*
X4836Y675D02*
X13384Y9223D01*
X4400Y6603D02*
X10472Y12675D01*
X4400Y2360D02*
X12558Y10518D01*
X4400Y10846D02*
X6229Y12675D01*
X4400Y8724D02*
X8351Y12675D01*
X4400D02*
X12690D01*
X4836Y675D02*
X13384Y9223D01*
X4400Y4482D02*
X12593Y12675D01*
X5022D02*
X16400Y1297D01*
X5022Y12675D02*
X16400Y1297D01*
X14333Y9727D02*
X16400Y7661D01*
X7143Y12675D02*
X16400Y3418D01*
X9264Y12675D02*
X16400Y5539D01*
X13321Y675D02*
X16400Y3754D01*
X15443Y675D02*
X16400Y1633D01*
X9079Y675D02*
X16400Y7996D01*
Y675D02*
Y12675D01*
X11200Y675D02*
X16400Y5875D01*
X12690Y10768D02*
Y12675D01*
X11386D02*
X12690Y11371D01*
X14265Y10768D02*
Y12675D01*
Y12225D02*
X14715Y12675D01*
X14265Y11917D02*
X16400Y9782D01*
X14448Y10287D02*
X16400Y12239D01*
X14265Y12675D02*
X16400D01*
X14448Y10287D02*
X16400Y12239D01*
X15628Y12675D02*
X16400Y11903D01*
D45*
X45328Y93310D02*
X45940D01*
X43900Y91881D02*
X45328Y93310D01*
X43900Y91050D02*
Y91881D01*
X43209Y90900D02*
X43921Y90187D01*
X42825Y90900D02*
X43209D01*
X45100Y91050D02*
X46650Y92600D01*
X43900Y91050D02*
X45100D01*
X38850Y89862D02*
Y90650D01*
X41545Y93095D02*
Y93471D01*
Y90279D02*
Y93095D01*
X41900Y93450D01*
X42850D01*
X41566D02*
X41900D01*
X41545Y93805D02*
Y94174D01*
Y93471D02*
Y93805D01*
Y93815D01*
Y93805D02*
X41900Y93450D01*
X41545Y89615D02*
Y90029D01*
Y89118D02*
Y89615D01*
X41877Y89947D01*
X41545Y90029D02*
Y90279D01*
X41877Y89947D02*
X42825D01*
X41627D02*
X41877D01*
X41545Y90279D02*
X41877Y89947D01*
X42015Y87475D02*
Y88649D01*
X41545Y89118D02*
X42015Y88649D01*
X35874Y59925D02*
X36550D01*
X35860Y59939D02*
X35874Y59925D01*
X35790Y59939D02*
X35860D01*
X34220Y96880D02*
X34850Y96250D01*
X32375Y96880D02*
X34220D01*
X35850Y88560D02*
X36935Y87475D01*
X35850Y88560D02*
Y90150D01*
X37450Y91850D02*
X37550Y91750D01*
X38850D01*
X38953Y91853D01*
X40375D01*
X13728Y89307D02*
X14445D01*
X14462Y89325D01*
X21270Y87845D02*
Y89050D01*
X20950Y87525D02*
X21270Y87845D01*
X20950Y87035D02*
Y87525D01*
X25325Y81750D02*
X25916D01*
X26034Y94340D02*
X27525D01*
X26034Y95610D02*
X27525D01*
X26034Y96880D02*
X27525D01*
X18460Y37275D02*
X18475D01*
X39475Y87475D02*
X41825Y85125D01*
X36825Y85925D02*
X37925D01*
X39475Y87475D01*
X18212Y84635D02*
X18287Y84710D01*
X20032Y90287D02*
X21270Y89050D01*
X17625Y90287D02*
X20032D01*
X16487Y89150D02*
X17625Y90287D01*
X16337Y89150D02*
X16487D01*
X21270Y89050D02*
X23400D01*
X14462Y89325D02*
X14637Y89150D01*
X12351Y45388D02*
X13704D01*
X15943Y43150D01*
X43135Y76728D02*
Y77370D01*
X43093Y80701D02*
Y81436D01*
X39580Y95835D02*
X40540D01*
X38974Y96441D02*
X39580Y95835D01*
X38193Y97222D02*
X38974Y96441D01*
X34857Y96486D02*
X35593Y97222D01*
X38193D01*
X34400Y91570D02*
Y93100D01*
X34282Y91452D02*
X34400Y91570D01*
X32375Y95610D02*
X34210D01*
X34850Y96250D01*
X42825Y91853D02*
X42850Y91878D01*
X46165Y83544D02*
X47056D01*
X44583Y85125D02*
X46165Y83544D01*
X41825Y85125D02*
X44583D01*
X54865Y80111D02*
X55570Y80816D01*
Y83970D01*
X47056Y83544D02*
X48138Y82462D01*
Y80422D02*
Y82462D01*
Y80422D02*
X48450Y80111D01*
X54865D01*
X52296Y81606D02*
X53030Y82341D01*
X51353Y81606D02*
X52296D01*
X53030Y82341D02*
Y83940D01*
Y83970D01*
X49453Y81606D02*
Y81763D01*
X45200Y86015D02*
X49453Y81763D01*
X45200Y86015D02*
Y86137D01*
X42015Y87475D02*
X43646D01*
X44008Y87838D01*
X45200D01*
X42850Y91878D02*
Y93450D01*
X40540Y95835D02*
X41161Y95214D01*
Y94558D02*
Y95214D01*
Y94558D02*
X41545Y94174D01*
Y93471D02*
X41566Y93450D01*
X41545Y90029D02*
X41627Y89947D01*
D46*
X51666Y83940D02*
X53030D01*
X50743Y83017D02*
X51666Y83940D01*
X48924Y83017D02*
X50743D01*
X48175Y83766D02*
X48924Y83017D01*
X48175Y83766D02*
Y85240D01*
X21388Y82988D02*
X23800D01*
X20325D02*
X21388D01*
X49925Y86540D02*
X51035D01*
X51050Y86525D01*
X53015D01*
X53030Y86510D01*
X49925Y86540D02*
Y87550D01*
X49925Y87550D01*
X19600Y83713D02*
Y84710D01*
Y83713D02*
X20325Y82988D01*
D47*
X27525Y92340D02*
Y93070D01*
X36350Y96250D02*
X37081D01*
X39625Y93883D02*
Y94250D01*
X38841Y93100D02*
X39625Y93883D01*
X39925Y94550D02*
X40601D01*
X39625Y94250D02*
X39925Y94550D01*
X34450Y94250D02*
X36675D01*
X34400Y94300D02*
X34450Y94250D01*
X32375Y94340D02*
X34360D01*
X34400Y94300D01*
X36675Y92675D02*
Y94250D01*
X35850Y91850D02*
X36675Y92675D01*
X31100Y91400D02*
Y92106D01*
X32782Y91452D02*
X32900Y91570D01*
Y92250D01*
D48*
X45467Y79676D02*
X46441Y80650D01*
X43093Y79676D02*
X45467D01*
X42967Y79550D02*
X43093Y79676D01*
X37900Y79550D02*
X42967D01*
X44550Y63150D02*
Y63975D01*
Y62475D02*
Y63150D01*
X34325Y81825D02*
X34650Y81500D01*
X34975Y81825D02*
X35300Y81500D01*
X34975Y76625D02*
X35300Y76950D01*
X36600Y77600D02*
X36925Y77925D01*
X37900Y78900D02*
X38539D01*
X38824Y79185D01*
X42311D02*
X43131Y78366D01*
X38824Y79185D02*
X42311D01*
X43131Y78320D02*
Y78366D01*
X44223Y77927D02*
X44600Y77550D01*
X43528Y77927D02*
X44223D01*
X43135Y78320D02*
X43528Y77927D01*
X43135Y78320D02*
X43135D01*
D49*
X31450Y79871D02*
X32379D01*
X29649Y74149D02*
X29877Y74378D01*
X31427D01*
X33675Y75550D02*
Y76625D01*
X34650Y76300D02*
X35675Y75275D01*
X32375Y76125D02*
Y77150D01*
X36625Y83275D02*
X36925Y82975D01*
X37575Y77275D02*
X38125D01*
X38375Y77525D01*
X38425Y76700D02*
X38900D01*
X38175Y76950D02*
X38425Y76700D01*
X37900Y76950D02*
X38175D01*
X38100Y76625D02*
X38950Y75775D01*
X37575Y76625D02*
X38100D01*
X38125Y81825D02*
X38550Y82250D01*
X37598Y81825D02*
X38125D01*
X36874Y75550D02*
X37350D01*
X33025Y77400D02*
Y78425D01*
X32900Y77275D02*
X33025Y77400D01*
X31450Y75700D02*
X32050Y76300D01*
X34000Y77600D02*
X34321Y77922D01*
X41125Y68725D02*
X41125Y68725D01*
X37900Y82150D02*
Y83050D01*
X35013Y82437D02*
X35300Y82150D01*
X31725Y77600D02*
X32050D01*
X31700Y76950D02*
X32050D01*
X31450Y77925D02*
X32375D01*
X31500Y81175D02*
X32375D01*
X31125Y80525D02*
X33025D01*
X36600Y80850D02*
X36925Y81175D01*
X33025D02*
X33350Y80850D01*
X33675Y79875D02*
X34000Y80200D01*
X34325Y79875D02*
X34650Y80200D01*
Y79550D02*
X34975Y79875D01*
Y79225D02*
X35300Y79550D01*
X34650Y78900D02*
X34975Y79225D01*
X34975Y78575D02*
X35300Y78900D01*
X35950Y81500D02*
Y82150D01*
X37250D02*
Y83825D01*
X43079Y82134D02*
X43104D01*
X37250Y76950D02*
X37575Y76625D01*
X32500Y77275D02*
X32900D01*
X32375Y77150D02*
X32500Y77275D01*
X37250Y77600D02*
X37575Y77275D01*
X56125Y92900D02*
X56125Y92900D01*
X56125Y92125D02*
Y92900D01*
X34325Y76625D02*
X34650Y76950D01*
X32375Y78575D02*
X32700Y78900D01*
X33025Y80525D02*
X33350Y80200D01*
X32375Y81825D02*
X32700Y81500D01*
X32375Y77925D02*
X32700Y78250D01*
X37250D02*
X37575Y77925D01*
X32375Y81175D02*
X32700Y80850D01*
X33350Y77600D02*
X33675Y77275D01*
X34325Y74675D02*
Y76625D01*
X37900Y76300D02*
X38775Y75425D01*
X31841Y78575D02*
X32375D01*
X37249Y81476D02*
X37598Y81825D01*
X36600Y81500D02*
X36925Y81825D01*
Y82975D01*
X37575Y77925D02*
X38200D01*
X37250Y78900D02*
X37575Y78575D01*
X38175D01*
X35950Y82150D02*
Y83825D01*
Y78250D02*
X36278Y77922D01*
Y76145D02*
Y77922D01*
Y76145D02*
X36874Y75550D01*
X34000Y76950D02*
X34325Y77275D01*
X32700Y76300D02*
X33025Y76625D01*
X33025D01*
X36950Y80500D02*
X37250Y80200D01*
X36950Y80500D02*
Y80500D01*
X32379Y79871D02*
X32700Y79550D01*
X25100Y80650D02*
X25100Y80650D01*
X36600Y80200D02*
X36925Y79875D01*
X34325Y80525D02*
X34650Y80850D01*
X33675Y80525D02*
X34325D01*
X33350Y76950D02*
X33675Y76625D01*
X37249Y80826D02*
X37552Y80524D01*
X35950Y80850D02*
X36275Y80525D01*
X35950Y79550D02*
X36287Y79887D01*
X33678Y79221D02*
X34000Y78900D01*
X36475Y82275D02*
X36600Y82150D01*
X36475Y82275D02*
Y82625D01*
X31875Y81825D02*
X32375D01*
X31325Y80850D02*
X32050D01*
X33350Y81500D02*
X33675Y81825D01*
Y83325D01*
X33350Y78250D02*
X33350D01*
X33675Y78575D01*
X31427Y74378D02*
X33350Y76300D01*
X25300Y66475D02*
Y67530D01*
X21475Y70150D02*
X21900Y70575D01*
Y71213D01*
X21513Y71600D02*
X21900Y71213D01*
X21150Y71600D02*
X21513D01*
X23800Y80775D02*
X25100D01*
X23800Y80775D02*
X23800Y80775D01*
X33217Y79221D02*
X33678D01*
X33028Y79033D02*
X33217Y79221D01*
X33028Y78425D02*
Y79033D01*
X33178Y79550D02*
X33350D01*
X31500Y79225D02*
X32853D01*
X33178Y79550D01*
X37250Y78900D02*
Y79550D01*
X34650Y82150D02*
Y82788D01*
X36925Y79875D02*
X38475D01*
X37552Y80524D02*
X38918D01*
X31050Y78250D02*
X32050D01*
X30750Y77950D02*
X31050Y78250D01*
D50*
X45200Y86987D02*
D03*
X35850Y91000D02*
D03*
X37450Y90999D02*
D03*
D51*
X15488Y89150D02*
D03*
D53*
X2350Y2350D02*
D03*
X57650D02*
D03*
X2350Y97650D02*
D03*
X57650D02*
D03*
D55*
X9085Y34555D02*
D03*
X8700Y61075D02*
D03*
X8600Y70043D02*
D03*
X4000Y80060D02*
D03*
X53030Y71270D02*
D03*
Y35710D02*
D03*
Y86510D02*
D03*
X4000Y90590D02*
D03*
X2222Y64430D02*
D03*
D56*
X9085Y32015D02*
D03*
X30111Y12710D02*
D03*
X27571D02*
D03*
X25031D02*
D03*
X27571Y15250D02*
D03*
X25031D02*
D03*
X2222Y40790D02*
D03*
Y38250D02*
D03*
Y33170D02*
D03*
Y35710D02*
D03*
Y45870D02*
D03*
Y43330D02*
D03*
Y48410D02*
D03*
Y50950D02*
D03*
X8700Y58535D02*
D03*
X8600Y72582D02*
D03*
X4000Y82600D02*
D03*
X39475Y87475D02*
D03*
X36935D02*
D03*
X18570Y4430D02*
D03*
X28730Y6970D02*
D03*
Y4430D02*
D03*
X26190D02*
D03*
Y6970D02*
D03*
X23650Y4430D02*
D03*
Y6970D02*
D03*
X21110Y4430D02*
D03*
Y6970D02*
D03*
X18570D02*
D03*
X31270D02*
D03*
X33810D02*
D03*
Y4430D02*
D03*
X36350Y6970D02*
D03*
Y4430D02*
D03*
X38890Y6970D02*
D03*
Y4430D02*
D03*
X41430D02*
D03*
X31270D02*
D03*
X55570Y61110D02*
D03*
Y71270D02*
D03*
Y68730D02*
D03*
X53030D02*
D03*
X55570Y66190D02*
D03*
X53030D02*
D03*
X55570Y63650D02*
D03*
X53030D02*
D03*
Y61110D02*
D03*
Y48410D02*
D03*
Y50950D02*
D03*
X55570D02*
D03*
X53030Y53490D02*
D03*
X55570D02*
D03*
X53030Y56030D02*
D03*
X55570D02*
D03*
Y58570D02*
D03*
X53030D02*
D03*
X55570Y48410D02*
D03*
X8635Y42865D02*
D03*
X11175D02*
D03*
X13715D02*
D03*
X11175Y40325D02*
D03*
X13715D02*
D03*
X18730Y89050D02*
D03*
X21270D02*
D03*
X55570Y25550D02*
D03*
Y35710D02*
D03*
Y33170D02*
D03*
X53030D02*
D03*
X55570Y30630D02*
D03*
X53030D02*
D03*
X55570Y28090D02*
D03*
X53030D02*
D03*
Y25550D02*
D03*
Y12850D02*
D03*
Y15390D02*
D03*
X55570D02*
D03*
X53030Y17930D02*
D03*
X55570D02*
D03*
X53030Y20470D02*
D03*
X55570D02*
D03*
Y23010D02*
D03*
X53030D02*
D03*
X55570Y12850D02*
D03*
Y86510D02*
D03*
Y83970D02*
D03*
X53030D02*
D03*
X4000Y93130D02*
D03*
X2222Y66970D02*
D03*
Y69510D02*
D03*
X50482Y60094D02*
D03*
Y57554D02*
D03*
Y37234D02*
D03*
Y39774D02*
D03*
Y44854D02*
D03*
Y42314D02*
D03*
Y52474D02*
D03*
Y55014D02*
D03*
Y49934D02*
D03*
Y47394D02*
D03*
Y25550D02*
D03*
Y28090D02*
D03*
Y33170D02*
D03*
Y30630D02*
D03*
Y20470D02*
D03*
Y23010D02*
D03*
Y17930D02*
D03*
Y15390D02*
D03*
X2222Y28090D02*
D03*
Y25550D02*
D03*
Y20470D02*
D03*
Y23010D02*
D03*
Y15390D02*
D03*
Y17930D02*
D03*
D57*
X30111Y15250D02*
D03*
X42015Y87475D02*
D03*
X41430Y6970D02*
D03*
X8635Y40325D02*
D03*
D58*
X57550Y78695D02*
D03*
X56280D02*
D03*
X55010D02*
D03*
X53740D02*
D03*
Y77425D02*
D03*
X55010D02*
D03*
X56280D02*
D03*
X57550D02*
D03*
X52470D02*
D03*
Y78695D02*
D03*
D59*
X48050Y98325D02*
D03*
X40750D02*
D03*
D60*
X42175Y95200D02*
D03*
X46625D02*
D03*
D61*
X30900Y98450D02*
D03*
X43921Y90187D02*
D03*
X43900Y91050D02*
D03*
X38850Y89862D02*
D03*
X44500Y45950D02*
D03*
X45817Y46000D02*
D03*
X43346Y48319D02*
D03*
X43950Y44850D02*
D03*
X43100Y44900D02*
D03*
X42150Y44950D02*
D03*
X54640Y41539D02*
D03*
X32590Y43489D02*
D03*
Y42489D02*
D03*
Y41489D02*
D03*
X33440Y45439D02*
D03*
X32440D02*
D03*
X35840Y49439D02*
D03*
Y50189D02*
D03*
X35240Y47939D02*
D03*
X35190Y46889D02*
D03*
X33640Y47439D02*
D03*
X32890D02*
D03*
X36090Y46889D02*
D03*
X34000Y40104D02*
D03*
X34940Y40089D02*
D03*
X33840Y34489D02*
D03*
X49890Y84539D02*
D03*
X44640Y21089D02*
D03*
X35734Y44500D02*
D03*
X45090Y48339D02*
D03*
X44448Y49034D02*
D03*
X42811D02*
D03*
X43390Y50339D02*
D03*
X43393Y51102D02*
D03*
X42290Y50339D02*
D03*
X38490Y53389D02*
D03*
X41090Y55139D02*
D03*
X42240Y58839D02*
D03*
X43190D02*
D03*
Y59639D02*
D03*
X39690Y57889D02*
D03*
Y60339D02*
D03*
X37990Y58239D02*
D03*
X35790Y59939D02*
D03*
X40090Y39489D02*
D03*
X40640Y39989D02*
D03*
X41340Y44739D02*
D03*
X40250Y44726D02*
D03*
X30190Y30927D02*
D03*
X30000Y34656D02*
D03*
X42985Y43264D02*
D03*
X41790Y33427D02*
D03*
X41857Y30761D02*
D03*
X42140Y28127D02*
D03*
X42147Y27035D02*
D03*
X36790Y53777D02*
D03*
X33426Y57812D02*
D03*
X29738Y30123D02*
D03*
X28490Y49927D02*
D03*
X36943Y69750D02*
D03*
X46190Y40627D02*
D03*
X35290Y41377D02*
D03*
X35272Y42164D02*
D03*
X31512Y40628D02*
D03*
X12500Y85785D02*
D03*
X35731Y45407D02*
D03*
X41221Y36600D02*
D03*
X44807Y25129D02*
D03*
X46224Y26782D02*
D03*
X26163Y32015D02*
D03*
X29790Y32427D02*
D03*
Y33527D02*
D03*
X22640Y31077D02*
D03*
X28816Y27700D02*
D03*
X55706Y41536D02*
D03*
X33828Y54249D02*
D03*
X34550Y53750D02*
D03*
X35000Y54474D02*
D03*
X39766Y51600D02*
D03*
X39066Y50950D02*
D03*
X36247Y43500D02*
D03*
X28500Y49200D02*
D03*
X36066Y47950D02*
D03*
X42479Y51607D02*
D03*
X34510Y55488D02*
D03*
X36325Y55550D02*
D03*
X28178Y42507D02*
D03*
X30475Y45050D02*
D03*
X29542Y41814D02*
D03*
X28927Y41194D02*
D03*
X29625Y45050D02*
D03*
X28225Y43700D02*
D03*
X26177Y41694D02*
D03*
X23825Y42500D02*
D03*
Y43700D02*
D03*
X25166Y48600D02*
D03*
X25000Y49475D02*
D03*
X23825Y45024D02*
D03*
X28373Y46017D02*
D03*
X22561Y32490D02*
D03*
X23845Y38500D02*
D03*
X20577Y40093D02*
D03*
X41232Y37700D02*
D03*
X54554Y39053D02*
D03*
X55522Y38992D02*
D03*
X54319Y44547D02*
D03*
X59172Y62437D02*
D03*
Y59897D02*
D03*
Y49737D02*
D03*
Y52277D02*
D03*
Y42117D02*
D03*
Y64977D02*
D03*
Y57357D02*
D03*
Y54817D02*
D03*
Y47197D02*
D03*
Y44657D02*
D03*
X28866Y29700D02*
D03*
X28816Y28700D02*
D03*
X26216D02*
D03*
X26353Y26837D02*
D03*
X27460Y48088D02*
D03*
X34513Y61631D02*
D03*
X29156Y53324D02*
D03*
X29500Y37720D02*
D03*
X31150Y61150D02*
D03*
X29650Y61150D02*
D03*
X35991Y63237D02*
D03*
X16550Y94311D02*
D03*
X15316Y87956D02*
D03*
X17950Y52300D02*
D03*
X34510Y21175D02*
D03*
X35500Y21967D02*
D03*
X19516Y42450D02*
D03*
X28081Y82246D02*
D03*
X27525Y92340D02*
D03*
X25655Y88558D02*
D03*
X16550Y74675D02*
D03*
X26466Y78250D02*
D03*
X26440Y77440D02*
D03*
X11166Y75250D02*
D03*
X25916Y81750D02*
D03*
X23816Y56050D02*
D03*
X42266Y21950D02*
D03*
X42396Y20899D02*
D03*
X39166Y12350D02*
D03*
X39367Y11507D02*
D03*
X33974Y11430D02*
D03*
X33816Y10350D02*
D03*
X30180Y23658D02*
D03*
X28862Y22286D02*
D03*
X29096Y10184D02*
D03*
X26125Y53500D02*
D03*
X20825Y46000D02*
D03*
X19825Y45500D02*
D03*
X19725Y48500D02*
D03*
X20325Y47500D02*
D03*
X19264Y47840D02*
D03*
X20825Y47000D02*
D03*
Y48000D02*
D03*
Y49000D02*
D03*
X25500Y50075D02*
D03*
X24027Y48593D02*
D03*
X25042Y33703D02*
D03*
X20577Y38993D02*
D03*
X13477Y10194D02*
D03*
X25156Y34444D02*
D03*
X21277Y63593D02*
D03*
Y64493D02*
D03*
X25877Y86443D02*
D03*
X35198Y23898D02*
D03*
X37151Y24579D02*
D03*
X52811Y98000D02*
D03*
X50573D02*
D03*
X26034Y94340D02*
D03*
Y95610D02*
D03*
Y96880D02*
D03*
X57067Y72808D02*
D03*
X18400Y39276D02*
D03*
X18475Y37275D02*
D03*
X26875Y54275D02*
D03*
X9358Y75221D02*
D03*
X11164Y83565D02*
D03*
X17647Y41621D02*
D03*
X36725Y32925D02*
D03*
X20325Y42725D02*
D03*
Y43725D02*
D03*
X23129Y13966D02*
D03*
X27000Y53496D02*
D03*
X27500Y50274D02*
D03*
X29200Y61674D02*
D03*
X28209Y61688D02*
D03*
X25327Y54301D02*
D03*
X36510Y36325D02*
D03*
X6050Y71450D02*
D03*
X53375Y91400D02*
D03*
X46050Y66275D02*
D03*
X43700Y62550D02*
D03*
X34325Y69700D02*
D03*
X29649Y74149D02*
D03*
X29375Y67475D02*
D03*
X22025Y85625D02*
D03*
X52013Y74787D02*
D03*
X34025Y85700D02*
D03*
X36775Y71825D02*
D03*
X36075Y74525D02*
D03*
X41675Y72650D02*
D03*
X24138Y84325D02*
D03*
X31851Y71764D02*
D03*
X17850Y81425D02*
D03*
X49725Y72488D02*
D03*
X41338Y60877D02*
D03*
X41125Y66375D02*
D03*
X43900Y70225D02*
D03*
X43225Y70700D02*
D03*
X42575Y71825D02*
D03*
X44500Y70825D02*
D03*
X39825Y67900D02*
D03*
X44550Y63150D02*
D03*
X33550Y63050D02*
D03*
X36625Y83275D02*
D03*
X37350Y75550D02*
D03*
X46575Y67800D02*
D03*
X37750Y63975D02*
D03*
X44925Y67875D02*
D03*
X26800Y63150D02*
D03*
X36975Y66175D02*
D03*
X45200Y61700D02*
D03*
X48375Y67150D02*
D03*
X27025Y81100D02*
D03*
X26100Y80000D02*
D03*
X28475Y78575D02*
D03*
X23850Y75200D02*
D03*
X26825Y64725D02*
D03*
X31475Y65775D02*
D03*
X43225Y63950D02*
D03*
X42475Y66175D02*
D03*
X34325Y68650D02*
D03*
X39050Y70850D02*
D03*
X39825Y68650D02*
D03*
X45250D02*
D03*
X38400Y70325D02*
D03*
X40475Y72525D02*
D03*
X47688Y71825D02*
D03*
X45925Y72575D02*
D03*
X23938Y91463D02*
D03*
X35500Y85625D02*
D03*
X42204Y81434D02*
D03*
X55450Y90200D02*
D03*
X56125Y92975D02*
D03*
X55100Y74800D02*
D03*
Y73500D02*
D03*
X19500Y98500D02*
D03*
X35075D02*
D03*
X29925Y98475D02*
D03*
X37900Y84900D02*
D03*
X30650Y83925D02*
D03*
X59225Y88900D02*
D03*
X30750Y77950D02*
D03*
X41475Y78700D02*
D03*
X38900Y76700D02*
D03*
X46725Y88537D02*
D03*
X51050Y84475D02*
D03*
X48050Y90425D02*
D03*
X51550Y87550D02*
D03*
X47825Y88425D02*
D03*
X36825Y85925D02*
D03*
X21975Y61550D02*
D03*
X23800Y82988D02*
D03*
X16525Y79730D02*
D03*
X13875Y79305D02*
D03*
X12950Y61030D02*
D03*
X12363Y66713D02*
D03*
X14125Y69655D02*
D03*
X12500Y82930D02*
D03*
X37650Y67850D02*
D03*
X14125Y71225D02*
D03*
X35925Y73275D02*
D03*
X35375Y72850D02*
D03*
X34975Y71200D02*
D03*
X40625Y60800D02*
D03*
X45825Y63350D02*
D03*
X38900Y78575D02*
D03*
X40025Y63025D02*
D03*
X40400Y63975D02*
D03*
X17325Y71150D02*
D03*
X16875Y72250D02*
D03*
X27900Y71750D02*
D03*
X27325Y71000D02*
D03*
X27425Y70175D02*
D03*
X22700Y67900D02*
D03*
X19450Y73125D02*
D03*
X28700Y71750D02*
D03*
X28400Y77625D02*
D03*
X23750Y74100D02*
D03*
X25975Y72200D02*
D03*
X24050Y72400D02*
D03*
X27950Y67925D02*
D03*
X20848Y72999D02*
D03*
X21475Y70150D02*
D03*
X12175Y64000D02*
D03*
X13400Y72150D02*
D03*
X26800Y67700D02*
D03*
X22700Y70387D02*
D03*
X17275Y64750D02*
D03*
X18450Y65725D02*
D03*
X14450Y66825D02*
D03*
X19875Y62162D02*
D03*
X30148Y80798D02*
D03*
X28050Y73850D02*
D03*
X13525Y59606D02*
D03*
X56963Y73963D02*
D03*
X27590Y56344D02*
D03*
X28865D02*
D03*
X30165D02*
D03*
X18200Y45725D02*
D03*
X25308Y55691D02*
D03*
X18075Y42460D02*
D03*
X19550Y38686D02*
D03*
X33074Y21025D02*
D03*
X35738Y19345D02*
D03*
X39163Y33700D02*
D03*
X10675Y93702D02*
D03*
X16031Y95670D02*
D03*
X13326Y92784D02*
D03*
X14435Y90858D02*
D03*
X13910Y91806D02*
D03*
X13293Y90841D02*
D03*
X14321Y92735D02*
D03*
X14299Y82184D02*
D03*
X13271Y80290D02*
D03*
X13888Y81255D02*
D03*
X14413Y80306D02*
D03*
X13303Y82232D02*
D03*
X13250Y95600D02*
D03*
X13284Y94500D02*
D03*
X45940Y93310D02*
D03*
X39586Y92901D02*
D03*
X43100Y94488D02*
D03*
X43805Y94229D02*
D03*
X15943Y43150D02*
D03*
X32406Y22959D02*
D03*
X33900Y33025D02*
D03*
X21184Y60737D02*
D03*
X24650Y89875D02*
D03*
X23000Y61525D02*
D03*
X12351Y45388D02*
D03*
X9416Y48148D02*
D03*
X46571Y25855D02*
D03*
X59172Y4017D02*
D03*
X55572Y817D02*
D03*
X59172Y6557D02*
D03*
Y9097D02*
D03*
Y14177D02*
D03*
Y19257D02*
D03*
Y16717D02*
D03*
Y11637D02*
D03*
Y26877D02*
D03*
Y24337D02*
D03*
Y21797D02*
D03*
Y34497D02*
D03*
Y31957D02*
D03*
Y29417D02*
D03*
Y39577D02*
D03*
Y37037D02*
D03*
Y72597D02*
D03*
Y70057D02*
D03*
Y67517D02*
D03*
Y80217D02*
D03*
Y77677D02*
D03*
Y75137D02*
D03*
Y85297D02*
D03*
Y82757D02*
D03*
Y95457D02*
D03*
X47952Y817D02*
D03*
X50492D02*
D03*
X53032D02*
D03*
X40332D02*
D03*
X42872D02*
D03*
X45412D02*
D03*
X32712D02*
D03*
X35252D02*
D03*
X37792D02*
D03*
X25092D02*
D03*
X27632D02*
D03*
X30172D02*
D03*
X17472D02*
D03*
X20012D02*
D03*
X22552D02*
D03*
X900Y4250D02*
D03*
Y11870D02*
D03*
Y9330D02*
D03*
Y6790D02*
D03*
Y19490D02*
D03*
Y16950D02*
D03*
Y14410D02*
D03*
Y22030D02*
D03*
Y34730D02*
D03*
Y32190D02*
D03*
X900Y29850D02*
D03*
X900Y42350D02*
D03*
Y39810D02*
D03*
Y37270D02*
D03*
Y49970D02*
D03*
Y47430D02*
D03*
Y44890D02*
D03*
Y57590D02*
D03*
Y55050D02*
D03*
Y52510D02*
D03*
Y65210D02*
D03*
Y62670D02*
D03*
Y60130D02*
D03*
Y72830D02*
D03*
Y70290D02*
D03*
Y67750D02*
D03*
Y80450D02*
D03*
Y77910D02*
D03*
Y75370D02*
D03*
Y88070D02*
D03*
Y85530D02*
D03*
Y82990D02*
D03*
Y95690D02*
D03*
Y93150D02*
D03*
Y90610D02*
D03*
X4350Y99100D02*
D03*
X55550D02*
D03*
X53010D02*
D03*
X50470D02*
D03*
X38719Y98965D02*
D03*
X24979Y95979D02*
D03*
X23850Y98200D02*
D03*
X37100Y99000D02*
D03*
X6860Y99100D02*
D03*
X9370D02*
D03*
X11880D02*
D03*
X14390D02*
D03*
X16900D02*
D03*
X5970Y45541D02*
D03*
X5966Y54455D02*
D03*
X5886Y63531D02*
D03*
X5833Y68416D02*
D03*
X15050Y58307D02*
D03*
X18494Y54329D02*
D03*
X21571Y51056D02*
D03*
X48709Y79021D02*
D03*
X49819Y75966D02*
D03*
X41150Y82900D02*
D03*
Y81800D02*
D03*
X14417Y34614D02*
D03*
X23860Y60188D02*
D03*
X23860Y58738D02*
D03*
X32660Y70938D02*
D03*
X31375Y71075D02*
D03*
X32860Y63088D02*
D03*
X34150Y72998D02*
D03*
X31475Y63281D02*
D03*
X34750Y66475D02*
D03*
X35010Y67188D02*
D03*
X33925Y67748D02*
D03*
X19710Y68038D02*
D03*
X46388Y82794D02*
D03*
X49810Y65138D02*
D03*
X34910Y65638D02*
D03*
X23400Y87000D02*
D03*
X21344Y25845D02*
D03*
X43366Y11499D02*
D03*
X35511Y17148D02*
D03*
X41415Y24752D02*
D03*
X44250Y74900D02*
D03*
X43135Y76728D02*
D03*
X43093Y81436D02*
D03*
X37450Y89350D02*
D03*
X37081Y96250D02*
D03*
X38841Y93100D02*
D03*
X40601Y94550D02*
D03*
X31100Y92106D02*
D03*
X32900Y92250D02*
D03*
X32017Y14199D02*
D03*
X38186Y26964D02*
D03*
X28816Y26850D02*
D03*
X34216Y29700D02*
D03*
X28757Y16916D02*
D03*
X30260Y24806D02*
D03*
X50700Y71300D02*
D03*
D62*
X13728Y89307D02*
D03*
X18212Y82375D02*
D03*
X18750Y87035D02*
D03*
X32450Y85700D02*
D03*
X22675Y90100D02*
D03*
X18750Y85600D02*
D03*
X21388Y79950D02*
D03*
D63*
X33025Y81175D02*
D03*
X33675Y80525D02*
D03*
Y79875D02*
D03*
X34975Y81825D02*
D03*
X34325D02*
D03*
X36925Y81175D02*
D03*
X36275Y80525D02*
D03*
X36925Y77925D02*
D03*
X36925Y78575D02*
D03*
X34321Y77922D02*
D03*
X33025Y76625D02*
D03*
X36950Y80500D02*
D03*
X33675Y77275D02*
D03*
X34325Y77275D02*
D03*
X34325Y79875D02*
D03*
X36274Y79874D02*
D03*
X34975Y76625D02*
D03*
Y78575D02*
D03*
X34975Y79875D02*
D03*
Y79225D02*
D03*
X36475Y82625D02*
D03*
X33675Y78575D02*
D03*
D79*
X22318Y59820D02*
D03*
X39850Y73850D02*
D03*
X11410Y86438D02*
D03*
X23025Y85150D02*
D03*
X43425Y73938D02*
D03*
X37500Y73200D02*
D03*
X49200Y67425D02*
D03*
X48500Y64363D02*
D03*
X13762Y68475D02*
D03*
X46967Y62725D02*
D03*
X48950Y84100D02*
D03*
X48638Y65988D02*
D03*
X34457Y60634D02*
D03*
X31471Y85213D02*
D03*
X31427Y74378D02*
D03*
X26675Y72925D02*
D03*
X27650Y77025D02*
D03*
X57425Y93700D02*
D03*
X57000Y87225D02*
D03*
X34750Y86562D02*
D03*
X41200Y80350D02*
D03*
X25100Y79150D02*
D03*
X38974Y96441D02*
D03*
X14738Y60125D02*
D03*
X24340Y61077D02*
D03*
X31464Y56117D02*
D03*
X25960Y40738D02*
D03*
X28366Y47000D02*
D03*
X16023Y77127D02*
D03*
X14328Y94557D02*
D03*
X11378Y88257D02*
D03*
X18237Y76582D02*
D03*
X21066Y53500D02*
D03*
X25166Y30700D02*
D03*
X26754Y61234D02*
D03*
X46763Y85475D02*
D03*
X30700Y66125D02*
D03*
X43875Y71875D02*
D03*
X33737Y71475D02*
D03*
X37763Y71250D02*
D03*
X58800Y87275D02*
D03*
X25275Y73525D02*
D03*
X10450Y67655D02*
D03*
X12475Y79200D02*
D03*
X12325Y71425D02*
D03*
X7625Y81275D02*
D03*
X32250Y72575D02*
D03*
X38800Y84925D02*
D03*
X41525Y77188D02*
D03*
X26575Y82975D02*
D03*
X30075Y75000D02*
D03*
X46650Y92600D02*
D03*
X30100Y79975D02*
D03*
X53275Y89450D02*
D03*
X58925Y93250D02*
D03*
X38537Y61100D02*
D03*
X38462Y62425D02*
D03*
X15300Y82905D02*
D03*
X38787Y72262D02*
D03*
X42750Y62600D02*
D03*
X14875Y72150D02*
D03*
X15100Y79300D02*
D03*
X29513Y85088D02*
D03*
X16400Y90850D02*
D03*
X15688Y44550D02*
D03*
X30710Y61888D02*
D03*
X10675Y89909D02*
D03*
X44888Y83294D02*
D03*
D80*
X19450Y72250D02*
D03*
Y71600D02*
D03*
Y70950D02*
D03*
X21150D02*
D03*
Y71600D02*
D03*
Y72250D02*
D03*
X19450Y75175D02*
D03*
Y74525D02*
D03*
Y73875D02*
D03*
X21150D02*
D03*
Y74525D02*
D03*
Y75175D02*
D03*
D81*
X18150Y66575D02*
D03*
Y67525D02*
D03*
Y68475D02*
D03*
X15700D02*
D03*
Y67525D02*
D03*
Y66575D02*
D03*
X18575Y63675D02*
D03*
Y62725D02*
D03*
Y61775D02*
D03*
X16125D02*
D03*
Y62725D02*
D03*
Y63675D02*
D03*
D82*
X27525Y67050D02*
D03*
X28475D02*
D03*
X32975Y67100D02*
D03*
X33925D02*
D03*
X35050Y71825D02*
D03*
X36000D02*
D03*
X24125Y71700D02*
D03*
X25075D02*
D03*
X29575Y71750D02*
D03*
X30525D02*
D03*
X46000Y71825D02*
D03*
X46950D02*
D03*
X23000Y62325D02*
D03*
X22050D02*
D03*
X22175Y67025D02*
D03*
X23125D02*
D03*
X43975Y67150D02*
D03*
X44925D02*
D03*
X38475Y67150D02*
D03*
X39425D02*
D03*
X40550Y71825D02*
D03*
X41500D02*
D03*
X41650Y60175D02*
D03*
X40700D02*
D03*
X37500Y59925D02*
D03*
X36550D02*
D03*
X28800Y81100D02*
D03*
X27850D02*
D03*
X34975Y84900D02*
D03*
X34025D02*
D03*
X34975Y84000D02*
D03*
X34025D02*
D03*
X36125Y84900D02*
D03*
X37075D02*
D03*
X36125Y84000D02*
D03*
X37075D02*
D03*
X39725Y78700D02*
D03*
X40675D02*
D03*
X34150Y74500D02*
D03*
X35100D02*
D03*
X34150Y73600D02*
D03*
X35100D02*
D03*
D83*
X50415Y88425D02*
D03*
X49435Y88425D02*
D03*
D84*
X49275Y87550D02*
D03*
X49925D02*
D03*
X50575D02*
D03*
Y89300D02*
D03*
X49925D02*
D03*
X49275D02*
D03*
D85*
X36350Y96250D02*
D03*
X34850D02*
D03*
X32850Y91300D02*
D03*
X34350D02*
D03*
D86*
X20475Y85850D02*
D03*
X20475Y84870D02*
D03*
X49050Y85400D02*
D03*
X49050Y86380D02*
D03*
D87*
X21350Y84710D02*
D03*
Y85360D02*
D03*
Y86010D02*
D03*
X19600D02*
D03*
Y85360D02*
D03*
Y84710D02*
D03*
X48175Y86540D02*
D03*
Y85890D02*
D03*
Y85240D02*
D03*
X49925D02*
D03*
Y85890D02*
D03*
Y86540D02*
D03*
D88*
X39625Y94250D02*
D03*
X36675D02*
D03*
D89*
X49453Y81606D02*
D03*
X51353D02*
D03*
D90*
X14312Y86400D02*
D03*
X13363Y84500D02*
D03*
X15262D02*
D03*
D91*
X56125Y90275D02*
D03*
X56775D02*
D03*
X57425D02*
D03*
Y92125D02*
D03*
X56775D02*
D03*
X56125D02*
D03*
D92*
X31350Y88975D02*
D03*
Y87075D02*
D03*
X29250Y88025D02*
D03*
D93*
X32375Y96880D02*
D03*
Y95610D02*
D03*
Y94340D02*
D03*
Y93070D02*
D03*
X27525Y96880D02*
D03*
Y95610D02*
D03*
Y94340D02*
D03*
Y93070D02*
D03*
D94*
X42825Y91853D02*
D03*
X42825Y90900D02*
D03*
X42825Y89947D02*
D03*
X40375D02*
D03*
Y91853D02*
D03*
D95*
X37900Y76300D02*
D03*
Y76950D02*
D03*
Y77600D02*
D03*
Y78250D02*
D03*
Y79550D02*
D03*
Y80200D02*
D03*
Y80850D02*
D03*
Y78900D02*
D03*
X37250D02*
D03*
X36600D02*
D03*
X35950D02*
D03*
X35300D02*
D03*
X34650D02*
D03*
X34000D02*
D03*
X33350D02*
D03*
X32700D02*
D03*
X32050D02*
D03*
X37250Y76300D02*
D03*
X36600D02*
D03*
X35950D02*
D03*
X35300D02*
D03*
X34650D02*
D03*
X34000D02*
D03*
X33350D02*
D03*
X32700D02*
D03*
X32050D02*
D03*
X37250Y76950D02*
D03*
X36600D02*
D03*
X35950D02*
D03*
X35300D02*
D03*
X34650D02*
D03*
X34000D02*
D03*
X33350D02*
D03*
X32700D02*
D03*
X32050D02*
D03*
X37250Y77600D02*
D03*
X36600D02*
D03*
X35950D02*
D03*
X35300D02*
D03*
X34650D02*
D03*
X34000D02*
D03*
X33350D02*
D03*
X32700D02*
D03*
X32050D02*
D03*
X37250Y78250D02*
D03*
X36600D02*
D03*
X35950D02*
D03*
X35300D02*
D03*
X34650D02*
D03*
X34000D02*
D03*
X33350D02*
D03*
X32700D02*
D03*
X32050D02*
D03*
X37250Y79550D02*
D03*
X36600D02*
D03*
X35950D02*
D03*
X35300D02*
D03*
X34650D02*
D03*
X34000D02*
D03*
X33350D02*
D03*
X32050D02*
D03*
X37250Y80200D02*
D03*
X36600D02*
D03*
X35950D02*
D03*
X35300D02*
D03*
X34650D02*
D03*
X34000D02*
D03*
X33350D02*
D03*
X32700D02*
D03*
X32050D02*
D03*
X37250Y80850D02*
D03*
X36600D02*
D03*
X35950D02*
D03*
X35300D02*
D03*
X34650D02*
D03*
X34000D02*
D03*
X33350D02*
D03*
X32700D02*
D03*
X32050D02*
D03*
X37900Y81500D02*
D03*
X37250D02*
D03*
X36600D02*
D03*
X35950D02*
D03*
X35300D02*
D03*
X34650D02*
D03*
X34000D02*
D03*
X33350D02*
D03*
X32700D02*
D03*
X32050D02*
D03*
X37900Y82150D02*
D03*
X37250D02*
D03*
X36600D02*
D03*
X35950D02*
D03*
X35300D02*
D03*
X34650D02*
D03*
X34000D02*
D03*
X33350D02*
D03*
X32700D02*
D03*
X32050D02*
D03*
X32700Y79550D02*
D03*
D96*
X41230Y61950D02*
D03*
Y62450D02*
D03*
Y61450D02*
D03*
X40020D02*
D03*
Y62450D02*
D03*
Y61950D02*
D03*
D97*
X40625Y61350D02*
D03*
Y62550D02*
D03*
D98*
X46900Y77550D02*
D03*
Y81350D02*
D03*
X44600D02*
D03*
Y77550D02*
D03*
D99*
X38550Y82650D02*
X39700Y83800D01*
X38550Y82250D02*
Y82650D01*
X38918Y80524D02*
X39194Y80800D01*
X39700D01*
D100*
X16190Y29957D02*
D03*
Y27497D02*
D03*
D101*
Y32497D02*
D03*
Y35037D02*
D03*
Y37577D02*
D03*
M02*
